<?xml version="1.0" encoding="UTF-8"?>
<svg version="1.1" xmlns="http://www.w3.org/2000/svg" width="624" height="170">
<path d="M0 0 C205.92 0 411.84 0 624 0 C624 56.1 624 112.2 624 170 C418.08 170 212.16 170 0 170 C0 113.9 0 57.8 0 0 Z " fill="#FBFBFB" transform="translate(0,0)"/>
<path d="M0 0 C140.58 0 281.16 0 426 0 C426 7.59 426 15.18 426 23 C285.42 23 144.84 23 0 23 C0 15.41 0 7.82 0 0 Z " fill="#FEFEFE" transform="translate(16,132)"/>
<path d="M0 0 C5.24548924 3.81760559 8.8937661 9.1187983 10.9375 15.25 C11.10659702 17.01581641 11.20339922 18.7892178 11.25 20.5625 C11.30607422 21.94888672 11.30607422 21.94888672 11.36328125 23.36328125 C10.78852963 27.25999181 9.46791486 29.24114212 6.9375 32.25 C3.73974609 32.99462891 3.73974609 32.99462891 -0.0390625 32.9765625 C-0.71729065 32.97905502 -1.3955188 32.98154755 -2.09429932 32.9841156 C-4.2937046 32.98061776 -6.48882961 32.93017415 -8.6875 32.875 C-10.20198228 32.85705146 -11.71646802 32.83939274 -13.23095703 32.82202148 C-21.73107074 32.66769606 -29.80639593 31.97364712 -38.03344727 29.74462891 C-42.95655461 28.41513764 -47.53100863 27.8951469 -52.625 27.75 C-62.07447704 27.48004438 -71.37808562 26.35697801 -80.75 25.1875 C-81.50725372 25.0932373 -82.26450745 24.99897461 -83.04470825 24.90185547 C-87.38509445 24.35988892 -91.7242361 23.8087364 -96.0625 23.25 C-96.0625 24.24 -96.0625 25.23 -96.0625 26.25 C-100.22734108 25.17904086 -102.72067787 23.1671625 -105.11328125 19.58203125 C-107.08582811 14.73589761 -106.8378841 9.35461199 -106.0625 4.25 C-104.13526215 -0.0602414 -101.24976581 -3.51682122 -97.0625 -5.75 C-93.06272715 -6.48573169 -89.11664317 -6.4476594 -85.05859375 -6.421875 C-83.32453026 -6.44099945 -83.32453026 -6.44099945 -81.55543518 -6.46051025 C-77.87004012 -6.49677682 -74.18555769 -6.49951889 -70.5 -6.5 C-66.81121265 -6.52163794 -63.12256257 -6.55013762 -59.43385315 -6.58233643 C-57.14120543 -6.60004652 -54.84848602 -6.61037497 -52.55577087 -6.61248779 C-51.51441483 -6.61629456 -50.47305878 -6.62010132 -49.40014648 -6.62402344 C-48.48780746 -6.62448669 -47.57546844 -6.62494995 -46.63548279 -6.62542725 C-13.7920516 -8.21556484 -13.7920516 -8.21556484 0 0 Z " fill="#F8F6F7" transform="translate(585.0625,127.75)"/>
<path d="M0 0 C2.31 0 4.62 0 7 0 C7 56.1 7 112.2 7 170 C4.69 170 2.38 170 0 170 C-0.33 129.41 -0.66 88.82 -1 47 C-204.28 46.67 -407.56 46.34 -617 46 C-617 45.67 -617 45.34 -617 45 C-413.39 45 -209.78 45 0 45 C0 30.15 0 15.3 0 0 Z " fill="#EBECED" transform="translate(617,0)"/>
<path d="M0 0 C54.50764766 -0.02286389 109.01529484 -0.04049696 163.52294635 -0.05106533 C169.95076307 -0.05231611 176.37857978 -0.05361043 182.80639648 -0.05493164 C184.7259777 -0.05532511 184.7259777 -0.05532511 186.68433834 -0.05572652 C207.43474763 -0.06008377 228.18515417 -0.06797161 248.93556183 -0.0771528 C270.21030994 -0.08648782 291.48505661 -0.09205529 312.75980669 -0.09408849 C325.89885193 -0.09546404 339.03788938 -0.09981631 352.17693222 -0.10791647 C361.17367878 -0.11318206 370.17042128 -0.11480472 379.16716927 -0.11350138 C384.36615759 -0.1128577 389.56513226 -0.1138788 394.76411819 -0.11920547 C399.51544701 -0.12403826 404.26675286 -0.12433945 409.01808269 -0.12089889 C410.74487283 -0.12047308 412.47166436 -0.12176983 414.19845175 -0.12488318 C416.52990253 -0.12884522 418.86126833 -0.12676462 421.19271755 -0.12304783 C422.49250024 -0.12342755 423.79228293 -0.12380727 425.13145298 -0.1241985 C428 0 428 0 429 1 C429.09946453 2.76859193 429.13080217 4.54111451 429.1328125 6.3125 C429.13410156 7.38757813 429.13539063 8.46265625 429.13671875 9.5703125 C429.13285156 10.70210937 429.12898438 11.83390625 429.125 13 C429.12886719 14.13179687 429.13273437 15.26359375 429.13671875 16.4296875 C429.13478516 18.04230469 429.13478516 18.04230469 429.1328125 19.6875 C429.13168457 20.68136719 429.13055664 21.67523438 429.12939453 22.69921875 C429 25 429 25 428 26 C425.73882325 26.09906961 423.47447421 26.12555765 421.21112823 26.12584114 C420.48933842 26.12729458 419.76754861 26.12874802 419.02388638 26.13024551 C416.57453818 26.13393171 414.1252512 26.13040705 411.67590332 26.12698364 C409.91446287 26.12813443 408.15302267 26.12972166 406.39158297 26.13171089 C401.52729446 26.13591006 396.66302541 26.13381088 391.79873681 26.13072467 C386.56214782 26.12847317 381.32556231 26.13194893 376.088974 26.13470459 C365.82102507 26.13916397 355.55308342 26.13818508 345.2851342 26.13529195 C336.94420364 26.13303857 328.60327513 26.13272511 320.26234436 26.13381577 C319.07768932 26.133969 317.89303429 26.13412223 316.67248061 26.13428011 C314.26628888 26.13459982 311.86009714 26.13492403 309.4539054 26.1352527 C286.86201684 26.13810798 264.27013232 26.13481971 241.67824441 26.12945233 C222.27035753 26.12498425 202.86247662 26.12576017 183.45458984 26.13037109 C160.94655557 26.135716 138.43852484 26.13783329 115.93049002 26.13475883 C113.53287856 26.13444026 111.1352671 26.13412589 108.73765564 26.13381577 C107.55781626 26.13366149 106.37797687 26.13350721 105.16238478 26.13334826 C96.82619694 26.13248286 88.49001134 26.13394649 80.15382385 26.13629532 C70.00237547 26.1390926 59.85093482 26.13835659 49.69948733 26.13301457 C44.51466993 26.13037658 39.32986546 26.12937415 34.14504814 26.13266373 C29.4067104 26.13562468 24.66839768 26.13403726 19.93006223 26.12868617 C18.20801329 26.12756112 16.48596227 26.12815509 14.76391464 26.13056196 C12.4388695 26.13356451 10.11391217 26.13052299 7.78887177 26.12584114 C5.84456748 26.12559761 5.84456748 26.12559761 3.86098433 26.12534916 C1 26 1 26 0 25 C-0.08737645 23.14630389 -0.10698153 21.28932459 -0.09765625 19.43359375 C-0.09443359 18.30888672 -0.09121094 17.18417969 -0.08789062 16.02539062 C-0.07951172 14.84138672 -0.07113281 13.65738281 -0.0625 12.4375 C-0.05798828 11.24962891 -0.05347656 10.06175781 -0.04882812 8.83789062 C-0.03699675 5.89187774 -0.02051287 2.94596319 0 0 Z M1 1 C1 8.59 1 16.18 1 24 C141.58 24 282.16 24 427 24 C427 16.41 427 8.82 427 1 C286.42 1 145.84 1 1 1 Z " fill="#ACB0B5" transform="translate(15,131)"/>
<path d="M0 0 C5.24548924 3.81760559 8.8937661 9.1187983 10.9375 15.25 C11.10659702 17.01581641 11.20339922 18.7892178 11.25 20.5625 C11.30607422 21.94888672 11.30607422 21.94888672 11.36328125 23.36328125 C10.78852963 27.25999181 9.46791486 29.24114212 6.9375 32.25 C3.73974609 32.99462891 3.73974609 32.99462891 -0.0390625 32.9765625 C-0.71729065 32.97905502 -1.3955188 32.98154755 -2.09429932 32.9841156 C-4.2937046 32.98061776 -6.48882961 32.93017415 -8.6875 32.875 C-10.20198228 32.85705146 -11.71646802 32.83939274 -13.23095703 32.82202148 C-21.73107074 32.66769606 -29.80639593 31.97364712 -38.03344727 29.74462891 C-42.95655461 28.41513764 -47.53100863 27.8951469 -52.625 27.75 C-62.07447704 27.48004438 -71.37808562 26.35697801 -80.75 25.1875 C-81.50725372 25.0932373 -82.26450745 24.99897461 -83.04470825 24.90185547 C-87.38509445 24.35988892 -91.7242361 23.8087364 -96.0625 23.25 C-96.0625 24.24 -96.0625 25.23 -96.0625 26.25 C-100.22734108 25.17904086 -102.72067787 23.1671625 -105.11328125 19.58203125 C-107.08582811 14.73589761 -106.8378841 9.35461199 -106.0625 4.25 C-104.13526215 -0.0602414 -101.24976581 -3.51682122 -97.0625 -5.75 C-93.06272715 -6.48573169 -89.11664317 -6.4476594 -85.05859375 -6.421875 C-83.32453026 -6.44099945 -83.32453026 -6.44099945 -81.55543518 -6.46051025 C-77.87004012 -6.49677682 -74.18555769 -6.49951889 -70.5 -6.5 C-66.81121265 -6.52163794 -63.12256257 -6.55013762 -59.43385315 -6.58233643 C-57.14120543 -6.60004652 -54.84848602 -6.61037497 -52.55577087 -6.61248779 C-51.51441483 -6.61629456 -50.47305878 -6.62010132 -49.40014648 -6.62402344 C-48.48780746 -6.62448669 -47.57546844 -6.62494995 -46.63548279 -6.62542725 C-13.7920516 -8.21556484 -13.7920516 -8.21556484 0 0 Z M-36.44775391 -4.24609375 C-42.17380607 -3.523437 -47.90111969 -3.61455444 -53.6640625 -3.609375 C-56.11719689 -3.5910617 -58.57032218 -3.57149279 -61.0234375 -3.55078125 C-64.8660444 -3.52173772 -68.70805711 -3.4999974 -72.55078125 -3.49951172 C-76.27656982 -3.49618172 -80.00100826 -3.46167948 -83.7265625 -3.421875 C-84.87355621 -3.4289447 -86.02054993 -3.4360144 -87.20230103 -3.44329834 C-93.96766942 -3.42137044 -93.96766942 -3.42137044 -99.77099609 -0.33300781 C-103.82574091 4.23754409 -103.50269465 8.12653227 -103.49609375 14.09375 C-103.03446767 17.45405514 -102.6472018 18.47041195 -100.0625 20.5625 C-99.0725 21.119375 -98.0825 21.67625 -97.0625 22.25 C-97.0625 21.59 -97.0625 20.93 -97.0625 20.25 C-94.29106153 20.5365954 -91.52045843 20.8291901 -88.75 21.125 C-87.98365234 21.20363281 -87.21730469 21.28226563 -86.42773438 21.36328125 C-82.13953757 21.82590829 -77.94910721 22.44796356 -73.71875 23.29296875 C-66.77514566 24.59888436 -59.86468017 24.63396436 -52.81835938 24.72851562 C-46.83604407 24.88248608 -41.20391508 25.54072656 -35.3515625 26.76953125 C-27.46853317 28.3945667 -19.84094038 28.64724104 -11.8112793 28.53125 C-9.57389156 28.49926947 -7.33720605 28.49018003 -5.09960938 28.484375 C1.41517966 29.09773431 1.41517966 29.09773431 6.9375 27.25 C7.7605222 20.44136183 8.24846308 13.98850338 4.0625 8.25 C-3.69703531 -0.11599198 -13.70241029 -4.1472699 -24.98828125 -4.9609375 C-28.89211293 -5.01493241 -32.5806922 -4.82171869 -36.44775391 -4.24609375 Z " fill="#E62020" transform="translate(585.0625,127.75)"/>
<path d="M0 0 C1.65 0 3.3 0 5 0 C5 56.1 5 112.2 5 170 C3.35 170 1.7 170 0 170 C0 113.9 0 57.8 0 0 Z " fill="#F2F3F3" transform="translate(619,0)"/>
<path d="M0 0 C5.24548924 3.81760559 8.8937661 9.1187983 10.9375 15.25 C11.10659702 17.01581641 11.20339922 18.7892178 11.25 20.5625 C11.30607422 21.94888672 11.30607422 21.94888672 11.36328125 23.36328125 C10.78483712 27.28502631 9.51607259 29.24265071 6.9375 32.25 C4.10694255 32.8034942 2.13965294 32.96010733 -0.671875 32.8359375 C-1.39868469 32.82744781 -2.12549438 32.81895813 -2.87432861 32.81021118 C-5.18858121 32.77670601 -7.49930705 32.70144932 -9.8125 32.625 C-11.38406413 32.59489589 -12.95568308 32.56752083 -14.52734375 32.54296875 C-18.37374813 32.4769265 -22.21752691 32.37343921 -26.0625 32.25 C-26.0625 31.92 -26.0625 31.59 -26.0625 31.25 C-16.1625 30.92 -6.2625 30.59 3.9375 30.25 C-10.9125 29.755 -10.9125 29.755 -26.0625 29.25 C-26.0625 28.92 -26.0625 28.59 -26.0625 28.25 C-15.5025 27.92 -4.9425 27.59 5.9375 27.25 C6.82514749 14.74211978 6.82514749 14.74211978 1.046875 6.08203125 C-8.49649002 -2.206558 -20.68752473 -4.5954952 -33.0625 -3.75 C-35.02832455 -3.52829046 -36.98062987 -3.26210996 -38.9375 -2.97265625 C-43.29430836 -2.51615243 -47.68762104 -2.67762149 -52.0625 -2.75 C-52.0625 -3.08 -52.0625 -3.41 -52.0625 -3.75 C-66.9125 -4.08 -81.7625 -4.41 -97.0625 -4.75 C-97.0625 -5.08 -97.0625 -5.41 -97.0625 -5.75 C-96.40961502 -5.76030746 -95.75673004 -5.77061493 -95.08406067 -5.78123474 C-88.28697988 -5.88944039 -81.49002789 -6.00402698 -74.69311523 -6.12231445 C-72.15668432 -6.16561818 -69.62022512 -6.2072965 -67.08374023 -6.24731445 C-63.43725051 -6.30512727 -59.79090261 -6.36879038 -56.14453125 -6.43359375 C-54.44427544 -6.45866249 -54.44427544 -6.45866249 -52.70967102 -6.48423767 C-51.11858772 -6.5141555 -51.11858772 -6.5141555 -49.49536133 -6.54467773 C-48.56492508 -6.56022202 -47.63448883 -6.5757663 -46.67585754 -6.59178162 C-14.35143189 -8.54877307 -14.35143189 -8.54877307 0 0 Z " fill="#E93838" transform="translate(585.0625,127.75)"/>
<path d="M0 0 C2.29000466 3.43500699 2.29748064 4.88728019 2.3125 8.9375 C2.32925781 9.97777344 2.34601562 11.01804688 2.36328125 12.08984375 C1.93772453 15.49887335 1.48793553 16.64529102 -1 19 C-3.64705128 19.35669893 -5.87235676 19.46776797 -8.51171875 19.390625 C-9.23994339 19.38496521 -9.96816803 19.37930542 -10.71846008 19.37347412 C-13.04214498 19.35110029 -15.36428207 19.30090669 -17.6875 19.25 C-19.26364959 19.22993609 -20.83982337 19.21168512 -22.41601562 19.1953125 C-26.27793924 19.15123283 -30.1387073 19.08220225 -34 19 C-34 18.67 -34 18.34 -34 18 C-19.15 17.505 -19.15 17.505 -4 17 C-18.85 16.505 -18.85 16.505 -34 16 C-34 15.67 -34 15.34 -34 15 C-23.44 14.67 -12.88 14.34 -2 14 C-0.99740493 10.99221479 -0.69685358 8.46179353 -0.4375 5.3125 C-0.35371094 4.31863281 -0.26992188 3.32476562 -0.18359375 2.30078125 C-0.09271484 1.16189453 -0.09271484 1.16189453 0 0 Z " fill="#ED6161" transform="translate(593,141)"/>
<path d="M0 0 C1.79244141 0.01740234 1.79244141 0.01740234 3.62109375 0.03515625 C5.41740234 0.04869141 5.41740234 0.04869141 7.25 0.0625 C8.17683594 0.07410156 9.10367187 0.08570312 10.05859375 0.09765625 C9.72859375 0.75765625 9.39859375 1.41765625 9.05859375 2.09765625 C9.71859375 2.42765625 10.37859375 2.75765625 11.05859375 3.09765625 C10.72859375 4.08765625 10.39859375 5.07765625 10.05859375 6.09765625 C5.76859375 6.09765625 1.47859375 6.09765625 -2.94140625 6.09765625 C-3.27140625 4.44765625 -3.60140625 2.79765625 -3.94140625 1.09765625 C-2.94140625 0.09765625 -2.94140625 0.09765625 0 0 Z " fill="#B3B4B4" transform="translate(444.94140625,65.90234375)"/>
<path d="M0 0 C1.35421764 0.01720422 2.70840241 0.03757796 4.0625 0.0625 C5.58347602 0.0625 7.10447618 0.03708595 8.625 0 C11.0625 0.0625 11.0625 0.0625 12.0625 1.0625 C12.10313832 2.72867115 12.105221 4.39638095 12.0625 6.0625 C11.4025 6.0625 10.7425 6.0625 10.0625 6.0625 C10.0625 4.4125 10.0625 2.7625 10.0625 1.0625 C9.4025 1.0625 8.7425 1.0625 8.0625 1.0625 C8.0625 2.7125 8.0625 4.3625 8.0625 6.0625 C4.0625 6.0625 0.0625 6.0625 -3.9375 6.0625 C-4.31968767 4.40635343 -4.65145102 2.73792976 -4.9375 1.0625 C-3.9375 0.0625 -3.9375 0.0625 0 0 Z " fill="#A5A9A9" transform="translate(191.9375,65.9375)"/>
<path d="M0 0 C0.99 0.33 1.98 0.66 3 1 C3 1.66 3 2.32 3 3 C1.34997172 4.35386936 -0.3174387 5.68678142 -2 7 C-3.59412284 10.18824568 -3.10174735 13.62896662 -3.0625 17.125 C-3.05798828 17.87910156 -3.05347656 18.63320312 -3.04882812 19.41015625 C-3.03703499 21.27347127 -3.01909942 23.13674555 -3 25 C-3.99 24.67 -4.98 24.34 -6 24 C-7.40053506 21.19892988 -7.2075504 18.81108319 -7.25 15.6875 C-7.27578125 14.55699219 -7.3015625 13.42648438 -7.328125 12.26171875 C-6.7746978 6.76038887 -3.93962539 3.66792709 0 0 Z " fill="#E72727" transform="translate(486,123)"/>
<path d="M0 0 C0.66 0 1.32 0 2 0 C2.33 0.99 2.66 1.98 3 3 C3.67546875 2.98839844 4.3509375 2.97679688 5.046875 2.96484375 C6.38492188 2.95130859 6.38492188 2.95130859 7.75 2.9375 C9.07257813 2.92009766 9.07257813 2.92009766 10.421875 2.90234375 C12.7818838 2.99173802 14.74498524 3.33087179 17 4 C16.01 6.31 15.02 8.62 14 11 C13.34 10.67 12.68 10.34 12 10 C11.375 7.9375 11.375 7.9375 11 6 C10.34 6 9.68 6 9 6 C9 5.34 9 4.68 9 4 C8.34 4 7.68 4 7 4 C7 5.32 7 6.64 7 8 C7.99 8.33 8.98 8.66 10 9 C6.7 9 3.4 9 0 9 C0 6.03 0 3.06 0 0 Z " fill="#A2A2A4" transform="translate(87,63)"/>
<path d="M0 0 C1.875 0.375 1.875 0.375 4 1 C5.32 1 6.64 1 8 1 C8.33 1.66 8.66 2.32 9 3 C9.33 2.34 9.66 1.68 10 1 C10.66 1 11.32 1 12 1 C11.01 3.97 10.02 6.94 9 10 C8.01 10 7.02 10 6 10 C6.33 9.01 6.66 8.02 7 7 C6.67 6.01 6.34 5.02 6 4 C5.34 5.32 4.68 6.64 4 8 C2.33388095 8.042721 0.66617115 8.04063832 -1 8 C-2 7 -2 7 -2.1875 4.5625 C-2 2 -2 2 0 0 Z " fill="#4C4C54" transform="translate(44,16)"/>
<path d="M0 0 C1.05960937 0.09087891 1.05960937 0.09087891 2.140625 0.18359375 C7.49832493 0.62109437 12.83959132 1.00741835 18.2109375 1.21875 C19.10522461 1.25556885 19.99951172 1.2923877 20.92089844 1.33032227 C22.70771456 1.40114316 24.49485393 1.46427334 26.28222656 1.51928711 C27.10948242 1.5528833 27.93673828 1.58647949 28.7890625 1.62109375 C29.52850098 1.6461499 30.26793945 1.67120605 31.02978516 1.69702148 C33 2 33 2 36 4 C31.85422725 4.05863894 27.70856295 4.09380984 23.5625 4.125 C22.39783203 4.14175781 21.23316406 4.15851563 20.03320312 4.17578125 C13.3692619 4.21332458 7.40316423 3.92566243 1 2 C0.67 1.34 0.34 0.68 0 0 Z " fill="#E41010" transform="translate(504,150)"/>
<path d="M0 0 C1.32 0 2.64 0 4 0 C4 1.65 4 3.3 4 5 C2.35 5 0.7 5 -1 5 C-0.67 4.01 -0.34 3.02 0 2 C-1.98 2.66 -3.96 3.32 -6 4 C-6.042721 5.66611905 -6.04063832 7.33382885 -6 9 C-4.94570314 10.26472065 -4.94570314 10.26472065 -2.5625 10.25 C-1.716875 10.1675 -0.87125 10.085 0 10 C0.66 9.01 1.32 8.02 2 7 C2.66 7 3.32 7 4 7 C3.34 8.65 2.68 10.3 2 12 C-1.25 12.75 -1.25 12.75 -5 13 C-7.4375 11.375 -7.4375 11.375 -9 9 C-9.5 6.5 -9.5 6.5 -9 4 C-6.28612321 0.28098365 -4.51694692 -0.45169469 0 0 Z " fill="#72787F" transform="translate(472,137)"/>
<path d="M0 0 C0.78375 0.04125 1.5675 0.0825 2.375 0.125 C2.375 0.785 2.375 1.445 2.375 2.125 C3.695 2.785 5.015 3.445 6.375 4.125 C5.385 4.62 5.385 4.62 4.375 5.125 C3.24149466 7.14169827 3.24149466 7.14169827 2.375 9.125 C0 9.25 0 9.25 -2.625 9.125 C-4.625 7.125 -4.625 7.125 -4.875 4.625 C-4.51649553 1.03995533 -3.59522993 0.17120143 0 0 Z " fill="#F3F4F4" transform="translate(469.625,138.875)"/>
<path d="M0 0 C1.32 0 2.64 0 4 0 C4 1.65 4 3.3 4 5 C3.67 4.34 3.34 3.68 3 3 C2.34 3 1.68 3 1 3 C1 3.66 1 4.32 1 5 C-0.32 5.33 -1.64 5.66 -3 6 C-3.33 4.35 -3.66 2.7 -4 1 C-4.99 1.495 -4.99 1.495 -6 2 C-6 3.32 -6 4.64 -6 6 C-6.99 6 -7.98 6 -9 6 C-9 3.69 -9 1.38 -9 -1 C-5.0970026 -2.08416595 -3.50155458 -1.92020735 0 0 Z " fill="#BFC0C2" transform="translate(148,84)"/>
<path d="M0 0 C1.19625 0.020625 2.3925 0.04125 3.625 0.0625 C4.615 0.0625 5.605 0.0625 6.625 0.0625 C6.07776317 3.43712715 5.5701 5.14485 3.625 8.0625 C1.315 7.4025 -0.995 6.7425 -3.375 6.0625 C-3.75718767 4.40635343 -4.08895102 2.73792976 -4.375 1.0625 C-3.375 0.0625 -3.375 0.0625 0 0 Z " fill="#AFC8E0" transform="translate(557.375,141.9375)"/>
<path d="M0 0 C0.99 0 1.98 0 3 0 C3 0.66 3 1.32 3 2 C3.99 2 4.98 2 6 2 C6 3.98 6 5.96 6 8 C5.67 6.68 5.34 5.36 5 4 C4.34 4 3.68 4 3 4 C3 5.65 3 7.3 3 9 C1.02 9 -0.96 9 -3 9 C-4.125 4.25 -4.125 4.25 -3 2 C-2.01 2 -1.02 2 0 2 C0 1.34 0 0.68 0 0 Z " fill="#CACECD" transform="translate(99,81)"/>
<path d="M0 0 C1.65 0 3.3 0 5 0 C5.33 0.99 5.66 1.98 6 3 C6.66 2.67 7.32 2.34 8 2 C7.67 1.34 7.34 0.68 7 0 C8.32 0 9.64 0 11 0 C11 1.98 11 3.96 11 6 C8.03 6 5.06 6 2 6 C2 6.66 2 7.32 2 8 C1.34 8 0.68 8 0 8 C0 5.36 0 2.72 0 0 Z " fill="#C0C1C1" transform="translate(107,66)"/>
<path d="M0 0 C0.99 0 1.98 0 3 0 C3.33 0.99 3.66 1.98 4 3 C4.99 3.33 5.98 3.66 7 4 C6.67 5.65 6.34 7.3 6 9 C2.625 9.125 2.625 9.125 -1 9 C-1.66 8.34 -2.32 7.68 -3 7 C-2.67028521 3.70285207 -2.3773161 2.3773161 0 0 Z " fill="#A9C2DE" transform="translate(491,139)"/>
<path d="M0 0 C4.75 -0.125 4.75 -0.125 7 1 C9.09821215 0.60061233 9.09821215 0.60061233 11 0 C11 1.98 11 3.96 11 6 C10.0925 5.814375 9.185 5.62875 8.25 5.4375 C5.3198051 5.04305069 3.69624489 4.90152986 1 6 C0.67 6.66 0.34 7.32 0 8 C0 5.36 0 2.72 0 0 Z " fill="#84B1D7" transform="translate(568,142)"/>
<path d="M0 0 C1.23556641 0.01740234 1.23556641 0.01740234 2.49609375 0.03515625 C3.32238281 0.04417969 4.14867187 0.05320312 5 0.0625 C5.63808594 0.07410156 6.27617188 0.08570312 6.93359375 0.09765625 C6.93359375 2.07765625 6.93359375 4.05765625 6.93359375 6.09765625 C3.96359375 6.09765625 0.99359375 6.09765625 -2.06640625 6.09765625 C-2.44859392 4.44150968 -2.78035727 2.77308601 -3.06640625 1.09765625 C-2.06640625 0.09765625 -2.06640625 0.09765625 0 0 Z " fill="#BEBDBB" transform="translate(40.06640625,65.90234375)"/>
<path d="M0 0 C1.98 0 3.96 0 6 0 C6.33 0.66 6.66 1.32 7 2 C7.33 1.34 7.66 0.68 8 0 C10.31 0 12.62 0 15 0 C14.67 0.99 14.34 1.98 14 3 C14 2.34 14 1.68 14 1 C13.34 1 12.68 1 12 1 C12 2.32 12 3.64 12 5 C12.99 5.33 13.98 5.66 15 6 C10.125 5.125 10.125 5.125 9 4 C8.67 4.66 8.34 5.32 8 6 C7.34 6 6.68 6 6 6 C5.67 5.01 5.34 4.02 5 3 C4.67 3.99 4.34 4.98 4 6 C2.35 6 0.7 6 -1 6 C-0.67 5.01 -0.34 4.02 0 3 C0 3.66 0 4.32 0 5 C0.66 5 1.32 5 2 5 C2 3.68 2 2.36 2 1 C1.34 0.67 0.68 0.34 0 0 Z " fill="#9F9FA0" transform="translate(406,66)"/>
<path d="M0 0 C1.98 0 3.96 0 6 0 C6.02689216 1.47906892 6.04634621 2.95827483 6.0625 4.4375 C6.07410156 5.26121094 6.08570312 6.08492187 6.09765625 6.93359375 C6 9 6 9 5 10 C3.33382885 10.04063832 1.66611905 10.042721 0 10 C0 6.66666667 0 3.33333333 0 0 Z " fill="#626060" transform="translate(110,17)"/>
<path d="M0 0 C0.66 0 1.32 0 2 0 C2.33 0.66 2.66 1.32 3 2 C3.33 1.34 3.66 0.68 4 0 C6.31 0 8.62 0 11 0 C11.33 1.65 11.66 3.3 12 5 C9.625 5.625 9.625 5.625 7 6 C6.34 5.34 5.68 4.68 5 4 C4.34 5.32 3.68 6.64 3 8 C2.34 7.67 1.68 7.34 1 7 C0.59270772 4.67843403 0.25561323 2.3431213 0 0 Z " fill="#A09EA1" transform="translate(243,66)"/>
<path d="M0 0 C0.598125 0.185625 1.19625 0.37125 1.8125 0.5625 C4.16408762 1.22093687 4.16408762 1.22093687 7 0 C7 1.65 7 3.3 7 5 C7.66 5 8.32 5 9 5 C9 3.35 9 1.7 9 0 C9.66 0 10.32 0 11 0 C11 1.98 11 3.96 11 6 C2.625 6 2.625 6 -1 5 C-0.67 3.35 -0.34 1.7 0 0 Z " fill="#AAADB1" transform="translate(23,66)"/>
<path d="M0 0 C0.99 0 1.98 0 3 0 C3 0.66 3 1.32 3 2 C2.01 2 1.02 2 0 2 C0 2.66 0 3.32 0 4 C2.64 3.67 5.28 3.34 8 3 C8 4.98 8 6.96 8 9 C4.7 9 1.4 9 -2 9 C-1.01 8.67 -0.02 8.34 1 8 C0.01 6.68 -0.98 5.36 -2 4 C-1.34 2.68 -0.68 1.36 0 0 Z " fill="#AFB2B8" transform="translate(25,139)"/>
<path d="M0 0 C1.1446875 0.2475 1.1446875 0.2475 2.3125 0.5 C5.00856207 1.00159294 6.44020291 0.8532657 9 0 C9.125 2.875 9.125 2.875 9 6 C8.34 6.66 7.68 7.32 7 8 C7 7.34 7 6.68 7 6 C6.01 6 5.02 6 4 6 C4 5.01 4 4.02 4 3 C3.01 3.495 3.01 3.495 2 4 C2.33 4.66 2.66 5.32 3 6 C1.68 6 0.36 6 -1 6 C-1.042721 4.33388095 -1.04063832 2.66617115 -1 1 C-0.67 0.67 -0.34 0.34 0 0 Z " fill="#A4A4AA" transform="translate(103,117)"/>
<path d="M0 0 C0.66 0 1.32 0 2 0 C1.67 2.64 1.34 5.28 1 8 C0.34 8 -0.32 8 -1 8 C-1 6.68 -1 5.36 -1 4 C-1.66 4 -2.32 4 -3 4 C-2.67 5.32 -2.34 6.64 -2 8 C-2.598125 7.814375 -3.19625 7.62875 -3.8125 7.4375 C-6.16408762 6.77906313 -6.16408762 6.77906313 -9 8 C-9.625 6.125 -9.625 6.125 -10 4 C-8 2 -8 2 -6.0546875 1.8046875 C-4.03645833 1.86979167 -2.01822917 1.93489583 0 2 C0 1.34 0 0.68 0 0 Z " fill="#888992" transform="translate(136,115)"/>
<path d="M0 0 C2.69082872 0.17635452 5.32851446 0.61835921 8 1 C8.33 2.65 8.66 4.3 9 6 C5.92677456 6.91058531 3.19902639 7.08886184 0 7 C-0.38133299 5.0085944 -0.71325582 3.00720923 -1 1 C-0.67 0.67 -0.34 0.34 0 0 Z " fill="#ACADB1" transform="translate(460,65)"/>
<path d="M0 0 C0.66 0 1.32 0 2 0 C2 0.66 2 1.32 2 2 C3.32 2 4.64 2 6 2 C6 3.98 6 5.96 6 8 C5.34 8 4.68 8 4 8 C4 6.35 4 4.7 4 3 C3.34 3 2.68 3 2 3 C2 4.65 2 6.3 2 8 C0.35 8 -1.3 8 -3 8 C-3.33 6.02 -3.66 4.04 -4 2 C-3.34 1.67 -2.68 1.34 -2 1 C-1.34 1.33 -0.68 1.66 0 2 C0 1.34 0 0.68 0 0 Z " fill="#ACAAAB" transform="translate(357,64)"/>
<path d="M0 0 C0.66 0 1.32 0 2 0 C2 2.64 2 5.28 2 8 C-0.31 8 -2.62 8 -5 8 C-5.33 6.35 -5.66 4.7 -6 3 C-5.195625 2.87625 -4.39125 2.7525 -3.5625 2.625 C-2.716875 2.41875 -1.87125 2.2125 -1 2 C-0.67 1.34 -0.34 0.68 0 0 Z " fill="#AFAFB1" transform="translate(175,64)"/>
<path d="M0 0 C0.66 0 1.32 0 2 0 C2 0.66 2 1.32 2 2 C3.32 2.33 4.64 2.66 6 3 C6 4.65 6 6.3 6 8 C5.34 8 4.68 8 4 8 C4 6.35 4 4.7 4 3 C3.34 3 2.68 3 2 3 C2 4.65 2 6.3 2 8 C0.35 8 -1.3 8 -3 8 C-3.33 6.02 -3.66 4.04 -4 2 C-3.34 1.67 -2.68 1.34 -2 1 C-1.34 1.33 -0.68 1.66 0 2 C0 1.34 0 0.68 0 0 Z " fill="#A7A9AF" transform="translate(477,64)"/>
<path d="M0 0 C0.99 0 1.98 0 3 0 C3 0.66 3 1.32 3 2 C4.65 2 6.3 2 8 2 C8 3.98 8 5.96 8 8 C7.67 6.68 7.34 5.36 7 4 C6.34 4 5.68 4 5 4 C5 5.32 5 6.64 5 8 C3.35 8.33 1.7 8.66 0 9 C0 6.03 0 3.06 0 0 Z " fill="#C0BDBA" transform="translate(129,81)"/>
<path d="M0 0 C0.99 0.33 1.98 0.66 3 1 C2.67 1.66 2.34 2.32 2 3 C3.175625 2.690625 3.175625 2.690625 4.375 2.375 C5.674375 2.189375 5.674375 2.189375 7 2 C7.66 2.66 8.32 3.32 9 4 C8.625 6.125 8.625 6.125 8 8 C6.68 8 5.36 8 4 8 C3.67 6.68 3.34 5.36 3 4 C2.34 4 1.68 4 1 4 C0.67 5.32 0.34 6.64 0 8 C-1.125 2.25 -1.125 2.25 0 0 Z " fill="#A8A8AB" transform="translate(29,81)"/>
<path d="M0 0 C2.69082872 0.17635452 5.32851446 0.61835921 8 1 C8.33 2.65 8.66 4.3 9 6 C5.25 7.125 5.25 7.125 3 6 C2.01 6.33 1.02 6.66 0 7 C-0.38133299 5.0085944 -0.71325582 3.00720923 -1 1 C-0.67 0.67 -0.34 0.34 0 0 Z " fill="#ABAFB2" transform="translate(130,65)"/>
<path d="M0 0 C1.65 0 3.3 0 5 0 C5 2.97 5 5.94 5 9 C3.35 9 1.7 9 0 9 C0 6.03 0 3.06 0 0 Z " fill="#B9BFC4" transform="translate(317,63)"/>
<path d="M0 0 C2.05078125 0.03255208 4.1015625 0.06510417 6.15234375 0.09765625 C6.48234375 1.08765625 6.81234375 2.07765625 7.15234375 3.09765625 C6.49234375 3.09765625 5.83234375 3.09765625 5.15234375 3.09765625 C4.82234375 3.75765625 4.49234375 4.41765625 4.15234375 5.09765625 C4.81234375 5.42765625 5.47234375 5.75765625 6.15234375 6.09765625 C3.51234375 6.09765625 0.87234375 6.09765625 -1.84765625 6.09765625 C-2.22984392 4.44150968 -2.56160727 2.77308601 -2.84765625 1.09765625 C-1.84765625 0.09765625 -1.84765625 0.09765625 0 0 Z " fill="#AEB1B6" transform="translate(302.84765625,65.90234375)"/>
<path d="M0 0 C2.5 0.125 2.5 0.125 3.5 1.125 C3.625 3.625 3.625 3.625 3.5 6.125 C2.5 7.125 2.5 7.125 -0.0625 7.1875 C-1.2690625 7.1565625 -1.2690625 7.1565625 -2.5 7.125 C-2.88133299 5.1335944 -3.21325582 3.13220923 -3.5 1.125 C-2.5 0.125 -2.5 0.125 0 0 Z " fill="#67676D" transform="translate(104.5,16.875)"/>
<path d="M0 0 C2.05078125 0.03255208 4.1015625 0.06510417 6.15234375 0.09765625 C5.16234375 0.59265625 5.16234375 0.59265625 4.15234375 1.09765625 C4.15234375 2.41765625 4.15234375 3.73765625 4.15234375 5.09765625 C4.81234375 5.42765625 5.47234375 5.75765625 6.15234375 6.09765625 C3.51234375 6.09765625 0.87234375 6.09765625 -1.84765625 6.09765625 C-2.22984392 4.44150968 -2.56160727 2.77308601 -2.84765625 1.09765625 C-1.84765625 0.09765625 -1.84765625 0.09765625 0 0 Z " fill="#B5B7BA" transform="translate(433.84765625,65.90234375)"/>
<path d="M0 0 C0.66 0 1.32 0 2 0 C2.33 0.99 2.66 1.98 3 3 C3.66 2.01 4.32 1.02 5 0 C5.66 0 6.32 0 7 0 C6.608125 0.721875 6.21625 1.44375 5.8125 2.1875 C4.64088949 5.06293369 4.64088949 5.06293369 6.375 7.8125 C6.91125 8.534375 7.4475 9.25625 8 10 C4.125 8.125 4.125 8.125 3 7 C2.67 7.99 2.34 8.98 2 10 C1.34 10 0.68 10 0 10 C0 6.7 0 3.4 0 0 Z " fill="#3C3A46" transform="translate(33,14)"/>
<path d="M0 0 C0.66 0 1.32 0 2 0 C2.33 2.97 2.66 5.94 3 9 C1.68 8.67 0.36 8.34 -1 8 C-3.18703385 8.37907282 -3.18703385 8.37907282 -5 9 C-5 7.02 -5 5.04 -5 3 C-3.68 3 -2.36 3 -1 3 C-0.67 2.01 -0.34 1.02 0 0 Z " fill="#A8A7A7" transform="translate(503,63)"/>
<path d="M0 0 C2.97 0 5.94 0 9 0 C7.515 2.475 7.515 2.475 6 5 C6.66 5.33 7.32 5.66 8 6 C7.4225 5.814375 6.845 5.62875 6.25 5.4375 C3.79307475 4.95976454 2.35602466 5.24270636 0 6 C-1.125 2.25 -1.125 2.25 0 0 Z " fill="#AEB0B5" transform="translate(38,142)"/>
<path d="M0 0 C2.31 0.33 4.62 0.66 7 1 C7 2.32 7 3.64 7 5 C7.99 5.33 8.98 5.66 10 6 C8.52093108 6.02689216 7.04172517 6.04634621 5.5625 6.0625 C4.32693359 6.07990234 4.32693359 6.07990234 3.06640625 6.09765625 C1 6 1 6 0 5 C-0.04063832 3.33382885 -0.042721 1.66611905 0 0 Z " fill="#AAAEB2" transform="translate(507,66)"/>
<path d="M0 0 C1.2065625 0.0309375 1.2065625 0.0309375 2.4375 0.0625 C2.4375 1.7125 2.4375 3.3625 2.4375 5.0625 C3.4275 5.0625 4.4175 5.0625 5.4375 5.0625 C5.4375 3.4125 5.4375 1.7625 5.4375 0.0625 C5.7675 0.0625 6.0975 0.0625 6.4375 0.0625 C6.4375 2.0425 6.4375 4.0225 6.4375 6.0625 C3.4675 6.0625 0.4975 6.0625 -2.5625 6.0625 C-2.94468767 4.40635343 -3.27645102 2.73792976 -3.5625 1.0625 C-2.5625 0.0625 -2.5625 0.0625 0 0 Z " fill="#AEAEB5" transform="translate(157.5625,65.9375)"/>
<path d="M0 0 C1.67542976 0.28604898 3.34385343 0.61781233 5 1 C5 3.31 5 5.62 5 8 C3.02 8 1.04 8 -1 8 C-1 6.68 -1 5.36 -1 4 C0.32 4 1.64 4 3 4 C3 3.34 3 2.68 3 2 C1.68 1.67 0.36 1.34 -1 1 C-0.67 0.67 -0.34 0.34 0 0 Z " fill="#5C5D5E" transform="translate(71,16)"/>
<path d="M0 0 C0.99 0.33 1.98 0.66 3 1 C2.67 2.98 2.34 4.96 2 7 C-0.64 7 -3.28 7 -6 7 C-6 5.35 -6 3.7 -6 2 C-4.02 2 -2.04 2 0 2 C0 1.34 0 0.68 0 0 Z " fill="#5CA0D0" transform="translate(154,17)"/>
<path d="M0 0 C0.66 0 1.32 0 2 0 C2 0.66 2 1.32 2 2 C2.99 2.33 3.98 2.66 5 3 C5 4.65 5 6.3 5 8 C3.35 8.33 1.7 8.66 0 9 C0 6.03 0 3.06 0 0 Z " fill="#ADAEB7" transform="translate(16,81)"/>
<path d="M0 0 C0.93423645 3.01031744 1.04449911 3.86650268 0 7 C-1.32 6.67 -2.64 6.34 -4 6 C-4.33 4.68 -4.66 3.36 -5 2 C-5.66 2 -6.32 2 -7 2 C-7.33 3.32 -7.66 4.64 -8 6 C-8 4.35 -8 2.7 -8 1 C-5.23735711 0.40267181 -2.83967231 0 0 0 Z " fill="#A8A5A7" transform="translate(47,83)"/>
<path d="M0 0 C3.96 0.33 7.92 0.66 12 1 C11.34 1.66 10.68 2.32 10 3 C10.99 3.66 11.98 4.32 13 5 C11.41590006 4.88512252 9.83271037 4.75765492 8.25 4.625 C7.36828125 4.55539063 6.4865625 4.48578125 5.578125 4.4140625 C3.00933618 4.00149945 1.24158985 3.28839043 -1 2 C-0.67 1.34 -0.34 0.68 0 0 Z " fill="#E93E3E" transform="translate(546,154)"/>
<path d="M0 0 C0.66 0 1.32 0 2 0 C2.33 0.99 2.66 1.98 3 3 C3.66 3 4.32 3 5 3 C5 4.98 5 6.96 5 9 C3.35 9 1.7 9 0 9 C0 6.03 0 3.06 0 0 Z " fill="#AAAFB5" transform="translate(87,63)"/>
<path d="M0 0 C2.64 0 5.28 0 8 0 C7.34 1.65 6.68 3.3 6 5 C4.68 5 3.36 5 2 5 C1.34 3.35 0.68 1.7 0 0 Z " fill="#6A7078" transform="translate(426,140)"/>
<path d="M0 0 C1.65 0.33 3.3 0.66 5 1 C4.67 2.65 4.34 4.3 4 6 C2.35 5.67 0.7 5.34 -1 5 C-0.67 3.35 -0.34 1.7 0 0 Z " fill="#AFB3B6" transform="translate(235,66)"/>
<path d="M0 0 C0 1.98 0 3.96 0 6 C-0.99 5.67 -1.98 5.34 -3 5 C-3 3.68 -3 2.36 -3 1 C-4.32 1 -5.64 1 -7 1 C-7 2.32 -7 3.64 -7 5 C-6.01 5.33 -5.02 5.66 -4 6 C-5.65 5.67 -7.3 5.34 -9 5 C-8.67 3.35 -8.34 1.7 -8 0 C-4.71303767 -0.79953138 -3.28976808 -1.09658936 0 0 Z " fill="#9CA0A2" transform="translate(226,66)"/>
<path d="M0 0 C4.29 0.33 8.58 0.66 13 1 C13.33 1.99 13.66 2.98 14 4 C12.41590006 3.88512252 10.83271037 3.75765492 9.25 3.625 C8.36828125 3.55539063 7.4865625 3.48578125 6.578125 3.4140625 C4.00933618 3.00149945 2.24158985 2.28839043 0 1 C0 0.67 0 0.34 0 0 Z " fill="#E61B1B" transform="translate(504,150)"/>
<path d="M0 0 C2.66666667 0 5.33333333 0 8 0 C7.67 1.98 7.34 3.96 7 6 C6.34 6 5.68 6 5 6 C4.67 5.34 4.34 4.68 4 4 C3.67 4.66 3.34 5.32 3 6 C2.34 6 1.68 6 1 6 C0.67 4.02 0.34 2.04 0 0 Z " fill="#81AED5" transform="translate(536,142)"/>
<path d="M0 0 C1.32 0.33 2.64 0.66 4 1 C5.04976964 4.14930893 5.10131595 6.38814456 5.0625 9.6875 C5.05347656 10.68136719 5.04445313 11.67523438 5.03515625 12.69921875 C5.02355469 13.45847656 5.01195312 14.21773437 5 15 C4.67 15 4.34 15 4 15 C3.67 11.7 3.34 8.4 3 5 C2.67 7.64 2.34 10.28 2 13 C1.67 13 1.34 13 1 13 C0.67 8.71 0.34 4.42 0 0 Z " fill="#EE6666" transform="translate(591,139)"/>
<path d="M0 0 C1.65 0 3.3 0 5 0 C5 1.65 5 3.3 5 5 C4.360625 5.12375 3.72125 5.2475 3.0625 5.375 C2.0415625 5.684375 2.0415625 5.684375 1 6 C0.67 6.66 0.34 7.32 0 8 C0 5.36 0 2.72 0 0 Z " fill="#908F9C" transform="translate(37,117)"/>
<path d="M0 0 C0.66 0.66 1.32 1.32 2 2 C1.625 4.125 1.625 4.125 1 6 C1.66 6 2.32 6 3 6 C3 5.34 3 4.68 3 4 C3.66 4 4.32 4 5 4 C5.33 4.33 5.66 4.66 6 5 C6 4.01 6 3.02 6 2 C5.34 1.67 4.68 1.34 4 1 C5.32 1 6.64 1 8 1 C8 2.98 8 4.96 8 7 C5.36 7 2.72 7 0 7 C-0.38133299 5.0085944 -0.71325582 3.00720923 -1 1 C-0.67 0.67 -0.34 0.34 0 0 Z " fill="#979598" transform="translate(284,65)"/>
<path d="M0 0 C2.64 0 5.28 0 8 0 C7.1875 2.4375 7.1875 2.4375 6 5 C5.01 5.33 4.02 5.66 3 6 C0 2.25 0 2.25 0 0 Z " fill="#35383D" transform="translate(15,16)"/>
<path d="M0 0 C4 0 4 0 6 1 C5.34 2.32 4.68 3.64 4 5 C4.99 6.485 4.99 6.485 6 8 C4 8 2 8 0 8 C0 5.36 0 2.72 0 0 Z " fill="#7D8891" transform="translate(16,115)"/>
<path d="M0 0 C1.98 0 3.96 0 6 0 C6.33 1.65 6.66 3.3 7 5 C6.01 5.495 6.01 5.495 5 6 C5 4.68 5 3.36 5 2 C4.01 2.495 4.01 2.495 3 3 C3 4.32 3 5.64 3 7 C2.01 7 1.02 7 0 7 C0 4.69 0 2.38 0 0 Z " fill="#A2A0A3" transform="translate(139,83)"/>
<path d="M0 0 C0.78375 0.04125 1.5675 0.0825 2.375 0.125 C2.045 0.785 1.715 1.445 1.375 2.125 C2.035 2.455 2.695 2.785 3.375 3.125 C3.045 4.115 2.715 5.105 2.375 6.125 C0.725 6.125 -0.925 6.125 -2.625 6.125 C-2.295 5.135 -1.965 4.145 -1.625 3.125 C-2.615 2.795 -3.605 2.465 -4.625 2.125 C-2.625 0.125 -2.625 0.125 0 0 Z " fill="#BCC0C1" transform="translate(452.625,65.875)"/>
<path d="M0 0 C2.475 0.495 2.475 0.495 5 1 C4.67 2.65 4.34 4.3 4 6 C3.01 6 2.02 6 1 6 C0.67 6.66 0.34 7.32 0 8 C0 5.36 0 2.72 0 0 Z " fill="#A6A7AE" transform="translate(558,66)"/>
<path d="M0 0 C0.33 0 0.66 0 1 0 C1 2.64 1 5.28 1 8 C-0.65 7.67 -2.3 7.34 -4 7 C-3.67 5.35 -3.34 3.7 -3 2 C-2.01 2 -1.02 2 0 2 C0 1.34 0 0.68 0 0 Z " fill="#A7ADAC" transform="translate(532,64)"/>
<path d="M0 0 C0.66 0 1.32 0 2 0 C2.33 0.66 2.66 1.32 3 2 C3.33 1.34 3.66 0.68 4 0 C4.66 0 5.32 0 6 0 C5.01 2.97 4.02 5.94 3 9 C2.01 9 1.02 9 0 9 C0.33 8.01 0.66 7.02 1 6 C0.72428861 3.99124558 0.39764263 1.98821313 0 0 Z " fill="#45414B" transform="translate(50,17)"/>
<path d="M0 0 C7.75 0.875 7.75 0.875 10 2 C10 2.99 10 3.98 10 5 C8.51793505 4.745504 7.03931385 4.47088238 5.5625 4.1875 C4.73878906 4.03667969 3.91507813 3.88585937 3.06640625 3.73046875 C2.38449219 3.48941406 1.70257812 3.24835938 1 3 C0.67 2.01 0.34 1.02 0 0 Z " fill="#E72424" transform="translate(570,123)"/>
<path d="M0 0 C2.0625 0.4375 2.0625 0.4375 4 1 C4.33 2.65 4.66 4.3 5 6 C3.35 6 1.7 6 0 6 C-0.38218767 4.34385343 -0.71395102 2.67542976 -1 1 C-0.67 0.67 -0.34 0.34 0 0 Z " fill="#C3C4C4" transform="translate(188,66)"/>
<path d="M0 0 C0.66 0 1.32 0 2 0 C2.33 1.32 2.66 2.64 3 4 C3.66 3.67 4.32 3.34 5 3 C5 4.98 5 6.96 5 9 C3.33333333 9 1.66666667 9 0 9 C0 6.03 0 3.06 0 0 Z " fill="#A6A3A4" transform="translate(537,63)"/>
<path d="M0 0 C1.98 0.495 1.98 0.495 4 1 C4 2.65 4 4.3 4 6 C2.35 5.67 0.7 5.34 -1 5 C-0.67 3.35 -0.34 1.7 0 0 Z " fill="#8DBADD" transform="translate(500,142)"/>
<path d="M0 0 C1.98 0.495 1.98 0.495 4 1 C4 2.98 4 4.96 4 7 C2.68 7 1.36 7 0 7 C-1.125 2.25 -1.125 2.25 0 0 Z " fill="#A7ABAD" transform="translate(166,83)"/>
<path d="M0 0 C0.99 0.33 1.98 0.66 3 1 C3.02698189 2.62490954 3.04638757 4.24994633 3.0625 5.875 C3.07410156 6.77992187 3.08570313 7.68484375 3.09765625 8.6171875 C3 11 3 11 2 13 C1.34 13 0.68 13 0 13 C0 8.71 0 4.42 0 0 Z " fill="#534647" transform="translate(131,13)"/>
<path d="M0 0 C0.66 0 1.32 0 2 0 C2 0.66 2 1.32 2 2 C2.99 2 3.98 2 5 2 C5 3.98 5 5.96 5 8 C4.67 6.68 4.34 5.36 4 4 C3.34 4 2.68 4 2 4 C2 5.32 2 6.64 2 8 C1.34 8 0.68 8 0 8 C0 5.36 0 2.72 0 0 Z " fill="#9C9FA2" transform="translate(114,81)"/>
<path d="M0 0 C0.66 0 1.32 0 2 0 C2 0.66 2 1.32 2 2 C2.99 2 3.98 2 5 2 C5 3.98 5 5.96 5 8 C4.67 6.68 4.34 5.36 4 4 C3.34 4 2.68 4 2 4 C2 5.32 2 6.64 2 8 C1.34 8 0.68 8 0 8 C0 5.36 0 2.72 0 0 Z " fill="#A19BA3" transform="translate(100,81)"/>
<path d="M0 0 C1.98 0.495 1.98 0.495 4 1 C3.67 2.65 3.34 4.3 3 6 C1.68 5.67 0.36 5.34 -1 5 C-0.67 3.35 -0.34 1.7 0 0 Z " fill="#AEAFB0" transform="translate(384,66)"/>
<path d="M0 0 C1.98 0.495 1.98 0.495 4 1 C3.67 2.65 3.34 4.3 3 6 C1.68 5.67 0.36 5.34 -1 5 C-0.67 3.35 -0.34 1.7 0 0 Z " fill="#AFAFAF" transform="translate(193,66)"/>
<path d="M0 0 C2.475 0.495 2.475 0.495 5 1 C5 2.65 5 4.3 5 6 C3.35 6 1.7 6 0 6 C0.185625 5.38125 0.37125 4.7625 0.5625 4.125 C1.23686176 1.95839822 1.23686176 1.95839822 0 0 Z " fill="#7EB1D7" transform="translate(505,142)"/>
<path d="M0 0 C2.0625 0.4375 2.0625 0.4375 4 1 C3.125 4.875 3.125 4.875 2 6 C-0.0625 5.5625 -0.0625 5.5625 -2 5 C-1.125 1.125 -1.125 1.125 0 0 Z " fill="#9F9799" transform="translate(128,117)"/>
<path d="M0 0 C0.99 0.33 1.98 0.66 3 1 C3 2.98 3 4.96 3 7 C1.68 6.67 0.36 6.34 -1 6 C-1.625 4.125 -1.625 4.125 -2 2 C-1.34 1.34 -0.68 0.68 0 0 Z " fill="#A7A6AA" transform="translate(24,83)"/>
<path d="M0 0 C0.99 0.33 1.98 0.66 3 1 C3 2.98 3 4.96 3 7 C1.68 6.67 0.36 6.34 -1 6 C-1.625 4.125 -1.625 4.125 -2 2 C-1.34 1.34 -0.68 0.68 0 0 Z " fill="#A8A8A9" transform="translate(122,83)"/>
<path d="M0 0 C1.32 0 2.64 0 4 0 C4 1.98 4 3.96 4 6 C2.35 5.67 0.7 5.34 -1 5 C-0.67 3.35 -0.34 1.7 0 0 Z " fill="#A5A5A6" transform="translate(70,66)"/>
<path d="M0 0 C1.98 0.495 1.98 0.495 4 1 C4 2.65 4 4.3 4 6 C2.35 5.67 0.7 5.34 -1 5 C-0.67 3.35 -0.34 1.7 0 0 Z " fill="#938C8E" transform="translate(23,117)"/>
<path d="M0 0 C0.66 0 1.32 0 2 0 C2 0.66 2 1.32 2 2 C2.99 1.67 3.98 1.34 5 1 C5.33 3.31 5.66 5.62 6 8 C5.34 8 4.68 8 4 8 C3.67 6.68 3.34 5.36 3 4 C2.01 4 1.02 4 0 4 C0 2.68 0 1.36 0 0 Z " fill="#E3E4DE" transform="translate(94,67)"/>
<path d="M0 0 C1.32 0.66 2.64 1.32 4 2 C3.67 3.65 3.34 5.3 3 7 C2.01 7 1.02 7 0 7 C-0.38133299 5.0085944 -0.71325582 3.00720923 -1 1 C-0.67 0.67 -0.34 0.34 0 0 Z " fill="#B9B7B9" transform="translate(460,65)"/>
<path d="M0 0 C1.98 0.495 1.98 0.495 4 1 C4 2.65 4 4.3 4 6 C2.35 6 0.7 6 -1 6 C-0.67 4.02 -0.34 2.04 0 0 Z " fill="#A0A5A8" transform="translate(426,66)"/>
<path d="M0 0 C1.98 0.495 1.98 0.495 4 1 C4 2.65 4 4.3 4 6 C2.35 6 0.7 6 -1 6 C-0.67 4.02 -0.34 2.04 0 0 Z " fill="#9FA4A7" transform="translate(79,66)"/>
<path d="M0 0 C0.66 0 1.32 0 2 0 C2.33 3.63 2.66 7.26 3 11 C2.01 11 1.02 11 0 11 C0 7.37 0 3.74 0 0 Z " fill="#3B425E" transform="translate(97,13)"/>
<path d="M0 0 C0.99 0.33 1.98 0.66 3 1 C2.67 4.3 2.34 7.6 2 11 C1.34 11 0.68 11 0 11 C0 7.37 0 3.74 0 0 Z " fill="#6D6664" transform="translate(78,13)"/>
<path d="M0 0 C2.475 0.495 2.475 0.495 5 1 C4.67 2.65 4.34 4.3 4 6 C2.68 5.67 1.36 5.34 0 5 C0 3.35 0 1.7 0 0 Z " fill="#9FA4AB" transform="translate(345,66)"/>
<path d="M0 0 C1.32 0 2.64 0 4 0 C4.33 0.99 4.66 1.98 5 3 C3.5625 5.6875 3.5625 5.6875 2 8 C1.34 7.67 0.68 7.34 0 7 C0 4.69 0 2.38 0 0 Z " fill="#83ABD3" transform="translate(559,142)"/>
<path d="M0 0 C1.32 0 2.64 0 4 0 C4 0.99 4 1.98 4 3 C3.01 3 2.02 3 1 3 C1 3.66 1 4.32 1 5 C1.99 5.33 2.98 5.66 4 6 C2.35 5.67 0.7 5.34 -1 5 C-0.67 3.35 -0.34 1.7 0 0 Z " fill="#7FA9D4" transform="translate(516,142)"/>
<path d="M0 0 C0.99 0.33 1.98 0.66 3 1 C3.66 0.67 4.32 0.34 5 0 C4.44271087 3.34373475 3.64826111 6.03312999 2 9 C1.34 9 0.68 9 0 9 C0 8.34 0 7.68 0 7 C0.66 7 1.32 7 2 7 C1.34 4.69 0.68 2.38 0 0 Z " fill="#908D94" transform="translate(28,117)"/>
<path d="M0 0 C2.0625 0.4375 2.0625 0.4375 4 1 C3.67 2.65 3.34 4.3 3 6 C1.68 6 0.36 6 -1 6 C-1.042721 4.33388095 -1.04063832 2.66617115 -1 1 C-0.67 0.67 -0.34 0.34 0 0 Z " fill="#868E95" transform="translate(83,117)"/>
<path d="M0 0 C0.66 0 1.32 0 2 0 C2 0.66 2 1.32 2 2 C2.66 2 3.32 2 4 2 C4 1.34 4 0.68 4 0 C4.66 0.33 5.32 0.66 6 1 C5.01 3.31 4.02 5.62 3 8 C2.34 7.67 1.68 7.34 1 7 C0.59270772 4.67843403 0.25561323 2.3431213 0 0 Z " fill="#A4A2A5" transform="translate(51,84)"/>
<path d="M0 0 C1.98 0.495 1.98 0.495 4 1 C4 2.65 4 4.3 4 6 C2.35 6 0.7 6 -1 6 C-1 2 -1 2 0 0 Z " fill="#A1A0A6" transform="translate(77,83)"/>
<path d="M0 0 C1.98 0.495 1.98 0.495 4 1 C3.67 2.65 3.34 4.3 3 6 C1.68 5.67 0.36 5.34 -1 5 C-0.67 3.35 -0.34 1.7 0 0 Z " fill="#9CA3A9" transform="translate(149,66)"/>
<path d="M0 0 C0.66 0 1.32 0 2 0 C2 3.63 2 7.26 2 11 C1.34 11 0.68 11 0 11 C-0.19406478 9.35492782 -0.38007935 7.70890406 -0.5625 6.0625 C-0.66691406 5.14597656 -0.77132812 4.22945312 -0.87890625 3.28515625 C-0.91886719 2.53105469 -0.95882812 1.77695313 -1 1 C-0.67 0.67 -0.34 0.34 0 0 Z " fill="#596578" transform="translate(119,13)"/>
<path d="M0 0 C3.3125 -0.1875 3.3125 -0.1875 7 0 C7.99 0.99 8.98 1.98 10 3 C6.37 3 2.74 3 -1 3 C-0.67 2.01 -0.34 1.02 0 0 Z " fill="#E83434" transform="translate(534,122)"/>
<path d="M0 0 C0.66 0 1.32 0 2 0 C2.66 2.31 3.32 4.62 4 7 C2.02 7 0.04 7 -2 7 C-2 6.01 -2 5.02 -2 4 C-1.01 4 -0.02 4 1 4 C0.67 2.68 0.34 1.36 0 0 Z " fill="#EBECE6" transform="translate(26,117)"/>
<path d="M0 0 C0.66 0 1.32 0 2 0 C2 1.32 2 2.64 2 4 C2.66 4 3.32 4 4 4 C4.33 2.68 4.66 1.36 5 0 C5 1.98 5 3.96 5 6 C3.35 5.67 1.7 5.34 0 5 C0 3.35 0 1.7 0 0 Z " fill="#A6A4A4" transform="translate(82,84)"/>
<path d="M0 0 C0.33 1.32 0.66 2.64 1 4 C1.66 4 2.32 4 3 4 C3 2.68 3 1.36 3 0 C3.66 0 4.32 0 5 0 C5 1.98 5 3.96 5 6 C3.35 5.67 1.7 5.34 0 5 C0 3.35 0 1.7 0 0 Z " fill="#A5A3A3" transform="translate(64,84)"/>
<path d="M0 0 C0.66 0.66 1.32 1.32 2 2 C2.33 1.34 2.66 0.68 3 0 C3.66 0 4.32 0 5 0 C4.34 2.31 3.68 4.62 3 7 C2.01 7 1.02 7 0 7 C0 4.69 0 2.38 0 0 Z " fill="#A0A0A5" transform="translate(549,66)"/>
<path d="M0 0 C1.98 0.495 1.98 0.495 4 1 C3.67 2.32 3.34 3.64 3 5 C1.68 5 0.36 5 -1 5 C-0.67 3.35 -0.34 1.7 0 0 Z " fill="#B9C2C7" transform="translate(251,67)"/>
<path d="M0 0 C0.99 0.33 1.98 0.66 3 1 C3.66 0.67 4.32 0.34 5 0 C4.47731534 2.76276177 3.89130413 5.3260876 3 8 C2.34 8 1.68 8 1 8 C0.67 5.36 0.34 2.72 0 0 Z " fill="#A5A4A5" transform="translate(377,66)"/>
<path d="M0 0 C1.98 0.495 1.98 0.495 4 1 C3.67 2.32 3.34 3.64 3 5 C1.68 4.67 0.36 4.34 -1 4 C-0.67 2.68 -0.34 1.36 0 0 Z " fill="#71A3CD" transform="translate(158,19)"/>
<path d="M0 0 C1.32 0 2.64 0 4 0 C4 1.98 4 3.96 4 6 C2.68 6 1.36 6 0 6 C0.185625 5.38125 0.37125 4.7625 0.5625 4.125 C1.23686176 1.95839822 1.23686176 1.95839822 0 0 Z " fill="#9D9DA0" transform="translate(114,66)"/>
<path d="M0 0 C0.99 0 1.98 0 3 0 C3.26218749 3.14624993 3.24754367 4.61837017 1.5 7.3125 C0.7575 8.1478125 0.7575 8.1478125 0 9 C0 6.03 0 3.06 0 0 Z " fill="#98B6C3" transform="translate(63,18)"/>
<path d="M0 0 C0.33 0.66 0.66 1.32 1 2 C1.66 2 2.32 2 3 2 C2.34 3.65 1.68 5.3 1 7 C-0.32 6.67 -1.64 6.34 -3 6 C-2.34 6 -1.68 6 -1 6 C-0.67 4.02 -0.34 2.04 0 0 Z " fill="#E82F2F" transform="translate(592,152)"/>
<path d="M0 0 C0.33 0.99 0.66 1.98 1 3 C1.99 2.67 2.98 2.34 4 2 C4.33 3.98 4.66 5.96 5 8 C3.35 7.67 1.7 7.34 0 7 C0 4.69 0 2.38 0 0 Z " fill="#619CCC" transform="translate(548,140)"/>
<path d="M0 0 C1.98 0.495 1.98 0.495 4 1 C4.33 2.32 4.66 3.64 5 5 C4.34 5 3.68 5 3 5 C3 4.34 3 3.68 3 3 C2.34 3 1.68 3 1 3 C1 3.66 1 4.32 1 5 C0.34 5 -0.32 5 -1 5 C-0.67 3.35 -0.34 1.7 0 0 Z " fill="#DBE2E5" transform="translate(286,66)"/>
<path d="M0 0 C0 1.98 0 3.96 0 6 C-0.99 5.67 -1.98 5.34 -3 5 C-3 3.68 -3 2.36 -3 1 C-4.32 0.67 -5.64 0.34 -7 0 C-3.98968256 -0.93423645 -3.13349732 -1.04449911 0 0 Z " fill="#969D9F" transform="translate(521,66)"/>
<path d="M0 0 C1.32 0 2.64 0 4 0 C4 1.98 4 3.96 4 6 C2.68 6 1.36 6 0 6 C0 5.01 0 4.02 0 3 C0.99 3 1.98 3 3 3 C3 2.34 3 1.68 3 1 C2.01 0.67 1.02 0.34 0 0 Z " fill="#897D7E" transform="translate(66,117)"/>
<path d="M0 0 C0.66 0 1.32 0 2 0 C3 5.75 3 5.75 3 8 C2.01 7.67 1.02 7.34 0 7 C0 4.69 0 2.38 0 0 Z " fill="#9DA5AF" transform="translate(110,82)"/>
<path d="M0 0 C0.66 0 1.32 0 2 0 C2 1.65 2 3.3 2 5 C2.66 5.33 3.32 5.66 4 6 C3.34 6 2.68 6 2 6 C2 6.66 2 7.32 2 8 C1.34 8 0.68 8 0 8 C0 5.36 0 2.72 0 0 Z " fill="#9A979C" transform="translate(107,66)"/>
<path d="M0 0 C1.65 0 3.3 0 5 0 C4.34 0.66 3.68 1.32 3 2 C2.35232207 4.57061311 2.35232207 4.57061311 2 7 C1.34 7 0.68 7 0 7 C0 4.69 0 2.38 0 0 Z " fill="#4D493E" transform="translate(82,17)"/>
<path d="M0 0 C0.99 0 1.98 0 3 0 C3.125 2.875 3.125 2.875 3 6 C2.34 6.66 1.68 7.32 1 8 C1 7.34 1 6.68 1 6 C0.01 6 -0.98 6 -2 6 C-1.67 5.01 -1.34 4.02 -1 3 C-1 3.66 -1 4.32 -1 5 C-0.34 4.67 0.32 4.34 1 4 C1.33 3.01 1.66 2.02 2 1 C1.34 0.67 0.68 0.34 0 0 Z " fill="#77767F" transform="translate(109,117)"/>
<path d="M0 0 C0.66 0.33 1.32 0.66 2 1 C1.34 2.32 0.68 3.64 0 5 C-1.65 5 -3.3 5 -5 5 C-5 4.01 -5 3.02 -5 2 C-3.68 2 -2.36 2 -1 2 C-0.67 1.34 -0.34 0.68 0 0 Z " fill="#949999" transform="translate(49,16)"/>
</svg>
