<?xml version="1.0" encoding="UTF-8"?>
<svg version="1.1" xmlns="http://www.w3.org/2000/svg" width="624" height="199">
<path d="M0 0 C205.92 0 411.84 0 624 0 C624 65.67 624 131.34 624 199 C418.08 199 212.16 199 0 199 C0 133.33 0 67.66 0 0 Z " fill="#E2EBEF" transform="translate(0,0)"/>
<path d="M0 0 C203.61 0 407.22 0 617 0 C617 25.08 617 50.16 617 76 C413.39 76 209.78 76 0 76 C0 50.92 0 25.84 0 0 Z " fill="#F9F8F8" transform="translate(0,0)"/>
<path d="M0 0 C203.61 0 407.22 0 617 0 C617 9.24 617 18.48 617 28 C413.39 28 209.78 28 0 28 C0 18.76 0 9.52 0 0 Z " fill="#FBFCFC" transform="translate(0,103)"/>
<path d="M0 0 C203.61 0 407.22 0 617 0 C617 8.25 617 16.5 617 25 C413.39 25 209.78 25 0 25 C0 16.75 0 8.5 0 0 Z " fill="#EFF7FC" transform="translate(0,133)"/>
<path d="M0 0 C203.61 0 407.22 0 617 0 C617 7.92 617 15.84 617 24 C413.39 24 209.78 24 0 24 C0 16.08 0 8.16 0 0 Z " fill="#F2F3F3" transform="translate(0,175)"/>
<path d="M0 0 C203.61 0 407.22 0 617 0 C617 4.29 617 8.58 617 13 C413.39 13 209.78 13 0 13 C0 8.71 0 4.42 0 0 Z " fill="#F2F2F1" transform="translate(0,160)"/>
<path d="M0 0 C203.61 0 407.22 0 617 0 C617 1.98 617 3.96 617 6 C413.39 6 209.78 6 0 6 C0 4.02 0 2.04 0 0 Z " fill="#F1F2F2" transform="translate(0,0)"/>
<path d="M0 0 C16.67185504 -0.02311873 33.3437035 -0.04097909 50.01557064 -0.05181217 C57.75607282 -0.05697517 65.49656487 -0.06401793 73.23706055 -0.07543945 C79.98127151 -0.08538619 86.72547515 -0.0918534 93.46969324 -0.09408849 C97.04286866 -0.09539562 100.6160231 -0.09848158 104.18919182 -0.10573006 C108.17162351 -0.11374372 112.15403441 -0.11399114 116.13647461 -0.11352539 C117.32977386 -0.11712067 118.52307312 -0.12071594 119.75253296 -0.12442017 C121.37011253 -0.12235817 121.37011253 -0.12235817 123.02037048 -0.12025452 C123.96336471 -0.12117631 124.90635893 -0.1220981 125.87792873 -0.12304783 C128 0 128 0 129 1 C129.09899523 2.54955559 129.13079524 4.10353673 129.1328125 5.65625 C129.13410156 6.59597656 129.13539063 7.53570313 129.13671875 8.50390625 C129.13285156 9.49261719 129.12898437 10.48132813 129.125 11.5 C129.12886719 12.48871094 129.13273438 13.47742188 129.13671875 14.49609375 C129.13478516 15.90568359 129.13478516 15.90568359 129.1328125 17.34375 C129.13168457 18.21193359 129.13055664 19.08011719 129.12939453 19.97460938 C129 22 129 22 128 23 C126.3424238 23.09611419 124.68073014 23.12187755 123.02037048 23.12025452 C121.40279091 23.12231651 121.40279091 23.12231651 119.75253296 23.12442017 C118.5592337 23.12082489 117.36593445 23.11722961 116.13647461 23.11352539 C114.88787155 23.11367142 113.63926849 23.11381744 112.35282898 23.1139679 C108.91909006 23.11338891 105.48541062 23.10835955 102.05168223 23.10139394 C98.46687541 23.09515998 94.88206787 23.09455657 91.29725647 23.09336853 C84.50449955 23.09025534 77.71175865 23.08204212 70.91900879 23.07201904 C63.18757506 23.06085753 55.45614058 23.05534736 47.72470081 23.05032361 C31.81645766 23.03985949 15.90823152 23.02205982 0 23 C0 15.41 0 7.82 0 0 Z " fill="#EBECED" transform="translate(214,14)"/>
<path d="M0 0 C41.58 0 83.16 0 126 0 C126 7.59 126 15.18 126 23 C84.42 23 42.84 23 0 23 C0 15.41 0 7.82 0 0 Z " fill="#F59402" transform="translate(449,14)"/>
<path d="M0 0 C4.1073201 -0.14977605 8.21355567 -0.25787183 12.32299805 -0.32958984 C13.71683482 -0.3595233 15.11048713 -0.40028771 16.50366211 -0.45263672 C24.53851214 -0.74670012 30.81771468 -0.6757406 37.37695312 4.48706055 C40.5194219 7.41634439 41.84393461 9.25726976 42.234375 13.6171875 C42.46536491 22.32550708 42.46536491 22.32550708 40 26 C38.16015625 27.44921875 38.16015625 27.44921875 36.0625 28.6875 C35.37285156 29.10386719 34.68320313 29.52023438 33.97265625 29.94921875 C30.91774597 31.57648779 28.41019006 32.13791739 25 32.125 C23.9790625 32.12886719 23.9790625 32.12886719 22.9375 32.1328125 C21 32 21 32 18 31 C15.11104008 30.86945147 12.24183337 30.79061322 9.3515625 30.75390625 C7.60676582 30.7209678 5.86197427 30.68775615 4.1171875 30.65429688 C1.36982758 30.6069032 -1.3775115 30.5624641 -4.125 30.52319336 C-6.77886505 30.48339492 -9.43230708 30.43187089 -12.0859375 30.37890625 C-12.9037973 30.3704921 -13.7216571 30.36207794 -14.56430054 30.35340881 C-18.87625174 30.26030519 -22.01892384 29.79763696 -26 28 C-28.21076627 27.64495759 -28.21076627 27.64495759 -30.42578125 27.5859375 C-31.14419189 27.55032715 -31.86260254 27.5147168 -32.6027832 27.47802734 C-33.49698975 27.44402832 -34.39119629 27.4100293 -35.3125 27.375 C-38.179375 27.25125 -41.04625 27.1275 -44 27 C-44 19.41 -44 11.82 -44 4 C-29.48 3.67 -14.96 3.34 0 3 C0 2.01 0 1.02 0 0 Z " fill="#EDEBEC" transform="translate(171,10)"/>
<path d="M0 0 C30.69 0 61.38 0 93 0 C93 7.59 93 15.18 93 23 C62.31 23 31.62 23 0 23 C0 15.41 0 7.82 0 0 Z " fill="#EEEFEF" transform="translate(349,14)"/>
<path d="M0 0 C1.65 0 3.3 0 5 0 C5 65.67 5 131.34 5 199 C3.35 199 1.7 199 0 199 C0 133.33 0 67.66 0 0 Z " fill="#FFFFFF" transform="translate(619,0)"/>
<path d="M0 0 C4.1073201 -0.14977605 8.21355567 -0.25787183 12.32299805 -0.32958984 C13.71683482 -0.3595233 15.11048713 -0.40028771 16.50366211 -0.45263672 C24.53851214 -0.74670012 30.81771468 -0.6757406 37.37695312 4.48706055 C40.5194219 7.41634439 41.84393461 9.25726976 42.234375 13.6171875 C42.46536491 22.32550708 42.46536491 22.32550708 40 26 C38.16015625 27.44921875 38.16015625 27.44921875 36.0625 28.6875 C35.37285156 29.10386719 34.68320313 29.52023438 33.97265625 29.94921875 C30.91774597 31.57648779 28.41019006 32.13791739 25 32.125 C23.9790625 32.12886719 23.9790625 32.12886719 22.9375 32.1328125 C21 32 21 32 18 31 C15.11104008 30.86945147 12.24183337 30.79061322 9.3515625 30.75390625 C7.60676582 30.7209678 5.86197427 30.68775615 4.1171875 30.65429688 C1.36982758 30.6069032 -1.3775115 30.5624641 -4.125 30.52319336 C-6.77886505 30.48339492 -9.43230708 30.43187089 -12.0859375 30.37890625 C-12.9037973 30.3704921 -13.7216571 30.36207794 -14.56430054 30.35340881 C-18.87625174 30.26030519 -22.01892384 29.79763696 -26 28 C-28.21076627 27.64495759 -28.21076627 27.64495759 -30.42578125 27.5859375 C-31.14419189 27.55032715 -31.86260254 27.5147168 -32.6027832 27.47802734 C-33.49698975 27.44402832 -34.39119629 27.4100293 -35.3125 27.375 C-38.179375 27.25125 -41.04625 27.1275 -44 27 C-44 19.41 -44 11.82 -44 4 C-29.48 3.67 -14.96 3.34 0 3 C0 2.01 0 1.02 0 0 Z M5.28662109 5.16259766 C1.54317425 5.33061939 -2.19663136 5.53232335 -5.9375 5.75 C-7.68571045 5.84172485 -7.68571045 5.84172485 -9.46923828 5.93530273 C-17.0098468 6.46455448 -24.43817751 7.43817751 -30 13 C-30.47352565 15.97644694 -30.56805253 18.05397406 -28.984375 20.69140625 C-26.81000749 23.40936563 -25.33430784 24.88856405 -22 26 C-20.16031027 26.10316143 -18.31714603 26.1485127 -16.47460938 26.16113281 C-15.34333618 26.17074036 -14.21206299 26.1803479 -13.04650879 26.19024658 C-11.21364319 26.1966214 -11.21364319 26.1966214 -9.34375 26.203125 C-8.0899353 26.20882507 -6.83612061 26.21452515 -5.54431152 26.22039795 C-2.89132047 26.22984963 -0.23844262 26.23674608 2.41455078 26.24023438 C5.81434548 26.24572825 9.21374152 26.26978079 12.61341095 26.29820633 C15.85682722 26.32129779 19.10026301 26.32327931 22.34375 26.328125 C24.1766156 26.3466452 24.1766156 26.3466452 26.04650879 26.36553955 C27.17778198 26.36253845 28.30905518 26.35953735 29.47460938 26.35644531 C30.4714978 26.36009094 31.46838623 26.36373657 32.4954834 26.36749268 C35.02953218 26.19896013 35.02953218 26.19896013 36.78283691 24.66522217 C39.11783103 21.47067576 39.47377769 18.01504112 39.39379883 14.1237793 C38.6417079 10.06771047 36.27385977 7.40285515 33 5 C29.42837791 4.07561597 26.04005381 4.24682726 22.375 4.4375 C21.34044678 4.46682617 20.30589355 4.49615234 19.23999023 4.52636719 C14.58601965 4.68280317 9.93866289 4.95889878 5.28662109 5.16259766 Z " fill="#BE3E3F" transform="translate(171,10)"/>
<path d="M0 0 C13.53 0 27.06 0 41 0 C41 7.59 41 15.18 41 23 C27.47 23 13.94 23 0 23 C0 15.41 0 7.82 0 0 Z " fill="#EAEBEC" transform="translate(79,14)"/>
<path d="M0 0 C25.74 0 51.48 0 78 0 C78 3.63 78 7.26 78 11 C52.26 11 26.52 11 0 11 C0 7.37 0 3.74 0 0 Z " fill="#C2C2C2" transform="translate(0,161)"/>
<path d="M0 0 C3.97921094 -0.02682614 7.95824341 -0.04675393 11.9375 -0.0625 C13.07380859 -0.07087891 14.21011719 -0.07925781 15.38085938 -0.08789062 C16.46044922 -0.09111328 17.54003906 -0.09433594 18.65234375 -0.09765625 C20.15269165 -0.10551147 20.15269165 -0.10551147 21.68334961 -0.11352539 C24 0 24 0 25 1 C25.09899523 2.54955559 25.13079524 4.10353673 25.1328125 5.65625 C25.13474609 7.06583984 25.13474609 7.06583984 25.13671875 8.50390625 C25.13285156 9.49261719 25.12898437 10.48132813 25.125 11.5 C25.13080078 12.98306641 25.13080078 12.98306641 25.13671875 14.49609375 C25.13542969 15.43582031 25.13414062 16.37554688 25.1328125 17.34375 C25.13168457 18.21193359 25.13055664 19.08011719 25.12939453 19.97460938 C25 22 25 22 24 23 C22.21928754 23.08726223 20.4351686 23.10699041 18.65234375 23.09765625 C17.57275391 23.09443359 16.49316406 23.09121094 15.38085938 23.08789062 C14.24455078 23.07951172 13.10824219 23.07113281 11.9375 23.0625 C10.79732422 23.05798828 9.65714844 23.05347656 8.48242188 23.04882812 C5.65492582 23.0369976 2.82745655 23.0190615 0 23 C0 15.41 0 7.82 0 0 Z " fill="#FE9A05" transform="translate(577,14)"/>
<path d="M0 0 C6.6 0 13.2 0 20 0 C17.59027489 2.40972511 15.04587368 3.50946607 12 5 C10.36069007 6.63930993 10.78998633 8.49743674 10.75 10.75 C10.72421875 11.61109375 10.6984375 12.4721875 10.671875 13.359375 C10.89166456 16.58411971 10.89166456 16.58411971 14 21 C9.38 21 4.76 21 0 21 C0 14.07 0 7.14 0 0 Z " fill="#FAF6F6" transform="translate(128,15)"/>
<path d="M0 0 C7.26 0 14.52 0 22 0 C22 0.66 22 1.32 22 2 C17.71 2 13.42 2 9 2 C9 3.32 9 4.64 9 6 C7.79839233 6.05945801 7.79839233 6.05945801 6.57250977 6.12011719 C2.90130975 6.31204071 -0.76783126 6.53080625 -4.4375 6.75 C-5.69755859 6.811875 -6.95761719 6.87375 -8.25585938 6.9375 C-15.71629466 7.40499464 -21.4091228 8.5017864 -28 12 C-28.99 12.33 -29.98 12.66 -31 13 C-31 15.31 -31 17.62 -31 20 C-33.33043558 16.50434664 -33.58763244 15.1134271 -33 11 C-27.41280743 5.0741897 -20.70757715 3.67934094 -12.91992188 3.38085938 C-11.97697266 3.35830078 -11.03402344 3.33574219 -10.0625 3.3125 C-8.6074707 3.26125977 -8.6074707 3.26125977 -7.12304688 3.20898438 C-4.74881363 3.12711426 -2.37492123 3.05776922 0 3 C0 2.01 0 1.02 0 0 Z " fill="#E62121" transform="translate(171,10)"/>
<path d="M0 0 C6.46013732 -0.70474225 9.86370922 0.49115928 15.078125 4.375 C18.46643023 7.23990849 19.8326594 9.13136325 20.234375 13.6171875 C20.46115816 22.16691247 20.46115816 22.16691247 18 26 C14.97830327 28.41735738 13.01707435 29.91155875 9.125 30.25 C8.42375 30.1675 7.7225 30.085 7 30 C8.97714673 27.95224088 10.86714514 26.09489633 13.1875 24.4375 C15.29101558 23.0382681 15.29101558 23.0382681 16 20 C16.48428409 15.07644507 16.65695878 13.20125425 14.24609375 8.79296875 C11.5647593 5.7748 9.21243306 5.49340273 5.26171875 5.1953125 C3.07082698 5.14236043 0.87902559 5.11987662 -1.3125 5.125 C-2.99569336 5.0940625 -2.99569336 5.0940625 -4.71289062 5.0625 C-7.47600293 5.0154683 -10.2365698 4.99555259 -13 5 C-13 4.01 -13 3.02 -13 2 C-8.71 2 -4.42 2 0 2 C0 1.34 0 0.68 0 0 Z " fill="#E62929" transform="translate(193,10)"/>
<path d="M0 0 C0.99 0 1.98 0 3 0 C3.33 0.66 3.66 1.32 4 2 C6.01669827 3.13350534 6.01669827 3.13350534 8 4 C7.34 4 6.68 4 6 4 C6 4.99 6 5.98 6 7 C6.66 7 7.32 7 8 7 C8 7.66 8 8.32 8 9 C7.360625 8.814375 6.72125 8.62875 6.0625 8.4375 C5.0415625 8.2209375 5.0415625 8.2209375 4 8 C3.67 8.33 3.34 8.66 3 9 C1.00041636 9.04080783 -1.00045254 9.04254356 -3 9 C-3.33 7.35 -3.66 5.7 -4 4 C-4.99 4.495 -4.99 4.495 -6 5 C-6 6.32 -6 7.64 -6 9 C-8.97 9 -11.94 9 -15 9 C-15 7.02 -15 5.04 -15 3 C-12.87630763 2.63807496 -10.7509887 2.28568253 -8.625 1.9375 C-6.84996094 1.64166016 -6.84996094 1.64166016 -5.0390625 1.33984375 C-2 1 -2 1 0 2 C0 1.34 0 0.68 0 0 Z " fill="#96959A" transform="translate(560,86)"/>
<path d="M0 0 C8 0 16 0 24 0 C24.38133299 1.9914056 24.71325582 3.99279077 25 6 C24 7 24 7 20.4375 7.0625 C19.303125 7.041875 18.16875 7.02125 17 7 C17 5.35 17 3.7 17 2 C16.34 2 15.68 2 15 2 C14.67 3.32 14.34 4.64 14 6 C14 4.68 14 3.36 14 2 C13.34 2 12.68 2 12 2 C12 3.65 12 5.3 12 7 C11.34 7 10.68 7 10 7 C10 5.35 10 3.7 10 2 C9.34 2 8.68 2 8 2 C8 3.65 8 5.3 8 7 C5.36 7 2.72 7 0 7 C0 4.69 0 2.38 0 0 Z " fill="#8FB7D9" transform="translate(37,116)"/>
<path d="M0 0 C1.32 0 2.64 0 4 0 C4 0.66 4 1.32 4 2 C5.32 2.33 6.64 2.66 8 3 C8.25 6.3125 8.25 6.3125 8 10 C6.25 11.9375 6.25 11.9375 4 13 C2.68 13 1.36 13 0 13 C0 12.34 0 11.68 0 11 C-1.32 10.67 -2.64 10.34 -4 10 C-4 7.69 -4 5.38 -4 3 C-2.68 2.67 -1.36 2.34 0 2 C0 1.34 0 0.68 0 0 Z " fill="#696F77" transform="translate(589,50)"/>
<path d="M0 0 C1.671549 0.30791692 3.33805547 0.64386903 5 1 C7.23167185 0.63143136 7.23167185 0.63143136 9 0 C9.38218767 1.65614657 9.71395102 3.32457024 10 5 C9.67 5.33 9.34 5.66 9 6 C9.66 6.33 10.32 6.66 11 7 C11 7.66 11 8.32 11 9 C7 9 3 9 -1 9 C-1.625 5.625 -1.625 5.625 -2 2 C-1.34 1.34 -0.68 0.68 0 0 Z " fill="#F3F4F1" transform="translate(475,114)"/>
<path d="M0 0 C0.99 0 1.98 0 3 0 C3 2.97 3 5.94 3 9 C-1.53472086 9 -5.56091024 8.93454521 -10 8 C-9.67 6.35 -9.34 4.7 -9 3 C-2.25 0.875 -2.25 0.875 0 2 C0 1.34 0 0.68 0 0 Z " fill="#A8ABB0" transform="translate(385,21)"/>
<path d="M0 0 C-0.55728913 3.34373475 -1.35173889 6.03312999 -3 9 C-6.27275026 9 -8.846632 8.70074844 -12 8 C-12 5.69 -12 3.38 -12 1 C-8.40527739 -0.79736131 -3.97839649 0 0 0 Z " fill="#E8EEEC" transform="translate(469,141)"/>
<path d="M0 0 C1.69752187 0.25245197 3.38471545 0.57645775 5.0625 0.9375 C5.98160156 1.13214844 6.90070312 1.32679687 7.84765625 1.52734375 C8.91306641 1.76130859 8.91306641 1.76130859 10 2 C10 1.34 10 0.68 10 0 C10.66 0 11.32 0 12 0 C13 5.75 13 5.75 13 8 C11.68 8 10.36 8 9 8 C7.84951172 8.01740234 7.84951172 8.01740234 6.67578125 8.03515625 C5.89589844 8.04417969 5.11601563 8.05320312 4.3125 8.0625 C3.52488281 8.07410156 2.73726562 8.08570312 1.92578125 8.09765625 C0 8 0 8 -1 7 C-1.125 4 -1.125 4 -1 1 C-0.67 0.67 -0.34 0.34 0 0 Z " fill="#90949A" transform="translate(41,87)"/>
<path d="M0 0 C17.82 0 35.64 0 54 0 C53.01 0.99 52.02 1.98 51 3 C51.66 3.66 52.32 4.32 53 5 C50.24921116 5.91692961 48.64051087 6.10886083 45.8125 6.0625 C43.9253125 6.0315625 43.9253125 6.0315625 42 6 C42 5.67 42 5.34 42 5 C44.31 5 46.62 5 49 5 C49 4.34 49 3.68 49 3 C42.77076513 2.2326107 36.64358967 1.81012254 30.37109375 1.68359375 C29.49598648 1.66281265 28.62087921 1.64203156 27.71925354 1.62062073 C24.95873898 1.55590224 22.19813983 1.49660659 19.4375 1.4375 C17.55142399 1.39424063 15.66535614 1.35062415 13.77929688 1.30664062 C9.18628178 1.2003021 4.59318271 1.09882254 0 1 C0 0.67 0 0.34 0 0 Z " fill="#AD4B4D" transform="translate(150,36)"/>
<path d="M0 0 C1.11375 0.2475 1.11375 0.2475 2.25 0.5 C5.18606431 1.03382988 7.13588733 0.73648612 10 0 C10.625 1.875 10.625 1.875 11 4 C10.34 4.66 9.68 5.32 9 6 C9.66 6.33 10.32 6.66 11 7 C11 7.66 11 8.32 11 9 C7.04 9 3.08 9 -1 9 C1 5 1 5 3 2 C1.68 1.67 0.36 1.34 -1 1 C-0.67 0.67 -0.34 0.34 0 0 Z " fill="#BDBFC0" transform="translate(428,114)"/>
<path d="M0 0 C2.64 0 5.28 0 8 0 C8.33 1.65 8.66 3.3 9 5 C1.74 5 -5.52 5 -13 5 C-13 4.01 -13 3.02 -13 2 C-8.71 2 -4.42 2 0 2 C0 1.34 0 0.68 0 0 Z " fill="#BE5D5F" transform="translate(193,10)"/>
<path d="M0 0 C0.66 0 1.32 0 2 0 C2.33 0.66 2.66 1.32 3 2 C4.32 2 5.64 2 7 2 C7 3.65 7 5.3 7 7 C2.38 7 -2.24 7 -7 7 C-7 7.66 -7 8.32 -7 9 C-7.66 9 -8.32 9 -9 9 C-9 6.69 -9 4.38 -9 2 C-6.03 2 -3.06 2 0 2 C0 1.34 0 0.68 0 0 Z " fill="#BCBFC3" transform="translate(50,17)"/>
<path d="M0 0 C0.33 1.32 0.66 2.64 1 4 C1.99 4 2.98 4 4 4 C4 2.68 4 1.36 4 0 C5.98 0 7.96 0 10 0 C10.33 0.66 10.66 1.32 11 2 C11.9075 1.67 12.815 1.34 13.75 1 C17 0 17 0 21 0 C21 0.99 21 1.98 21 3 C20.01 3 19.02 3 18 3 C18 3.66 18 4.32 18 5 C18.99 5.33 19.98 5.66 21 6 C20.28972656 5.91621094 19.57945313 5.83242187 18.84765625 5.74609375 C17.46900391 5.59333984 17.46900391 5.59333984 16.0625 5.4375 C15.14597656 5.33308594 14.22945312 5.22867188 13.28515625 5.12109375 C12.15400391 5.06115234 12.15400391 5.06115234 11 5 C10.67 5.33 10.34 5.66 10 6 C8.50261876 6.0979057 7.00057108 6.12974864 5.5 6.125 C4.6853125 6.12757813 3.870625 6.13015625 3.03125 6.1328125 C1 6 1 6 0 5 C-0.04063832 3.33382885 -0.042721 1.66611905 0 0 Z " fill="#9797A1" transform="translate(106,144)"/>
<path d="M0 0 C2.97 0 5.94 0 9 0 C9 2.64 9 5.28 9 8 C4.545 8.495 4.545 8.495 0 9 C0 6.03 0 3.06 0 0 Z " fill="#BCBCC1" transform="translate(534,86)"/>
<path d="M0 0 C-0.875 3.875 -0.875 3.875 -2 5 C-1.34 5.33 -0.68 5.66 0 6 C0 6.66 0 7.32 0 8 C-3.3 8 -6.6 8 -10 8 C-11.125 3.25 -11.125 3.25 -10 1 C-6.3241179 -0.55203911 -3.80989402 -1.46534385 0 0 Z " fill="#CCCDCC" transform="translate(263,115)"/>
<path d="M0 0 C1.21236328 0.02707031 1.21236328 0.02707031 2.44921875 0.0546875 C3.37154297 0.08949219 3.37154297 0.08949219 4.3125 0.125 C4.3125 1.775 4.3125 3.425 4.3125 5.125 C2.6625 5.125 1.0125 5.125 -0.6875 5.125 C-0.6875 4.465 -0.6875 3.805 -0.6875 3.125 C-2.3375 3.455 -3.9875 3.785 -5.6875 4.125 C-5.730221 5.79111905 -5.72813832 7.45882885 -5.6875 9.125 C-4.63320314 10.38972065 -4.63320314 10.38972065 -2.25 10.375 C-1.404375 10.2925 -0.55875 10.21 0.3125 10.125 C0.9725 9.135 1.6325 8.145 2.3125 7.125 C2.9725 7.125 3.6325 7.125 4.3125 7.125 C3.6525 8.775 2.9925 10.425 2.3125 12.125 C-3.94675926 13.56944444 -3.94675926 13.56944444 -7.1875 11.625 C-8.6875 9.125 -8.6875 9.125 -8.625 5.5 C-7.21114945 0.41013801 -4.87233102 -0.14122699 0 0 Z " fill="#737980" transform="translate(101.6875,18.875)"/>
<path d="M0 0 C0.66 0.33 1.32 0.66 2 1 C2 3.31 2 5.62 2 8 C1.01 7.67 0.02 7.34 -1 7 C-1 5.68 -1 4.36 -1 3 C-1.99 3.495 -1.99 3.495 -3 4 C-3 5.32 -3 6.64 -3 8 C-5.31 8 -7.62 8 -10 8 C-10 6.35 -10 4.7 -10 3 C-10.66 3 -11.32 3 -12 3 C-12.33 4.32 -12.66 5.64 -13 7 C-13 5.35 -13 3.7 -13 2 C-12.14535156 1.93941406 -11.29070312 1.87882812 -10.41015625 1.81640625 C-8.75306641 1.69072266 -8.75306641 1.69072266 -7.0625 1.5625 C-5.96035156 1.48128906 -4.85820312 1.40007813 -3.72265625 1.31640625 C-1.08890097 1.29581916 -1.08890097 1.29581916 0 0 Z " fill="#A5A2A1" transform="translate(249,22)"/>
<path d="M0 0 C2.35694954 0.09031574 4.71153582 0.24688128 7.0625 0.4375 C8.35285156 0.53933594 9.64320312 0.64117187 10.97265625 0.74609375 C12.47119141 0.87177734 12.47119141 0.87177734 14 1 C14 2.98 14 4.96 14 7 C13.34 7 12.68 7 12 7 C12 5.35 12 3.7 12 2 C11.34 2 10.68 2 10 2 C10 3.65 10 5.3 10 7 C8.02 7 6.04 7 4 7 C4 5.68 4 4.36 4 3 C3.34 3 2.68 3 2 3 C2 4.32 2 5.64 2 7 C1.01 7 0.02 7 -1 7 C-1.04254356 5.00045254 -1.04080783 2.99958364 -1 1 C-0.67 0.67 -0.34 0.34 0 0 Z " fill="#9C9D9F" transform="translate(17,88)"/>
<path d="M0 0 C0.94875 0.04125 1.8975 0.0825 2.875 0.125 C1.885 0.62 1.885 0.62 0.875 1.125 C0.875 1.785 0.875 2.445 0.875 3.125 C3.845 3.62 3.845 3.62 6.875 4.125 C6.545 5.115 6.215 6.105 5.875 7.125 C5.875 6.465 5.875 5.805 5.875 5.125 C5.215 5.125 4.555 5.125 3.875 5.125 C3.215 6.445 2.555 7.765 1.875 9.125 C-0.5 9.25 -0.5 9.25 -3.125 9.125 C-5.125 7.125 -5.125 7.125 -5.375 4.625 C-4.98192433 0.69424327 -3.8631953 0.15452781 0 0 Z " fill="#F6F6F7" transform="translate(100.125,20.875)"/>
<path d="M0 0 C6.93 0 13.86 0 21 0 C21 0.66 21 1.32 21 2 C16.71 2 12.42 2 8 2 C8 2.99 8 3.98 8 5 C4.7 5 1.4 5 -2 5 C-1.34 4.67 -0.68 4.34 0 4 C0 2.68 0 1.36 0 0 Z " fill="#E51717" transform="translate(172,10)"/>
<path d="M0 0 C3.34252724 -0.07427838 5.8035914 -0.06546953 9 1 C10 6.75 10 6.75 10 9 C6.66666667 9 3.33333333 9 0 9 C0 6.03 0 3.06 0 0 Z " fill="#A1A3AB" transform="translate(150,86)"/>
<path d="M0 0 C0.99 0 1.98 0 3 0 C3 0.99 3 1.98 3 3 C4.32 3 5.64 3 7 3 C7 4.65 7 6.3 7 8 C6.67 6.68 6.34 5.36 6 4 C5.34 4 4.68 4 4 4 C4 5.65 4 7.3 4 9 C1.69 9 -0.62 9 -3 9 C-3.33 7.35 -3.66 5.7 -4 4 C-2.68 3.34 -1.36 2.68 0 2 C0 1.34 0 0.68 0 0 Z " fill="#8D570E" transform="translate(498,21)"/>
<path d="M0 0 C2.0625 0.4375 2.0625 0.4375 4 1 C4 1.99 4 2.98 4 4 C4.928125 3.2575 4.928125 3.2575 5.875 2.5 C8 1 8 1 10 1 C10.33 2.98 10.66 4.96 11 7 C8.3333581 8.33332095 6.83319697 7.67102033 4 7 C4 7.66 4 8.32 4 9 C2.35 9 0.7 9 -1 9 C-0.38722388 6.03824877 0.25372522 4.61941217 2 2 C1.01 1.67 0.02 1.34 -1 1 C-0.67 0.67 -0.34 0.34 0 0 Z " fill="#A29FAA" transform="translate(295,114)"/>
<path d="M0 0 C0.66 0 1.32 0 2 0 C2.33 0.99 2.66 1.98 3 3 C5.97 3 8.94 3 12 3 C11.01 3.495 11.01 3.495 10 4 C10 5.65 10 7.3 10 9 C6.7 9 3.4 9 0 9 C0 6.03 0 3.06 0 0 Z " fill="#7AA7D1" transform="translate(34,141)"/>
<path d="M0 0 C2.125 0.9375 2.125 0.9375 4 2 C3.34 3.32 2.68 4.64 2 6 C2.66 6.33 3.32 6.66 4 7 C4 7.66 4 8.32 4 9 C0.7 9 -2.6 9 -6 9 C-6.33 7.35 -6.66 5.7 -7 4 C-5.68 3.67 -4.36 3.34 -3 3 C-3.99 3.495 -3.99 3.495 -5 4 C-5 4.99 -5 5.98 -5 7 C-4.34 7 -3.68 7 -3 7 C-2.814375 5.5459375 -2.814375 5.5459375 -2.625 4.0625 C-2.41875 3.051875 -2.2125 2.04125 -2 1 C-1.34 0.67 -0.68 0.34 0 0 Z " fill="#B8BEBE" transform="translate(259,141)"/>
<path d="M0 0 C0.66 0 1.32 0 2 0 C2 2.64 2 5.28 2 8 C0.52168779 8.19412181 -0.95769316 8.38012131 -2.4375 8.5625 C-3.26121094 8.66691406 -4.08492188 8.77132813 -4.93359375 8.87890625 C-5.61550781 8.91886719 -6.29742187 8.95882813 -7 9 C-8 8 -8 8 -8.0625 5.4375 C-8.041875 4.633125 -8.02125 3.82875 -8 3 C-6.8553125 3.0309375 -6.8553125 3.0309375 -5.6875 3.0625 C-2.89814214 3.12942841 -2.89814214 3.12942841 0 2 C0 1.34 0 0.68 0 0 Z " fill="#B7BABE" transform="translate(70,16)"/>
<path d="M0 0 C2.6875 0.875 2.6875 0.875 5 2 C5 3.98 5 5.96 5 8 C4.01 8 3.02 8 2 8 C2 8.66 2 9.32 2 10 C1.34 10 0.68 10 0 10 C0 9.34 0 8.68 0 8 C-0.99 8 -1.98 8 -3 8 C-3.1875 5.125 -3.1875 5.125 -3 2 C-2.01 1.34 -1.02 0.68 0 0 Z " fill="#D2D4D6" transform="translate(590,52)"/>
<path d="M0 0 C2.375 -0.125 2.375 -0.125 5 0 C7 2 7 2 7.25 4.5 C7 7 7 7 5 9 C2.375 9.125 2.375 9.125 0 9 C0 6.03 0 3.06 0 0 Z " fill="#A3A1A1" transform="translate(309,86)"/>
<path d="M0 0 C2.0625 0.4375 2.0625 0.4375 4 1 C3.67 2.98 3.34 4.96 3 7 C2.4225 6.814375 1.845 6.62875 1.25 6.4375 C-1.20692525 5.95976454 -2.64397534 6.24270636 -5 7 C-5 5.35 -5 3.7 -5 2 C-5.66 2 -6.32 2 -7 2 C-7.33 3.32 -7.66 4.64 -8 6 C-8 4.35 -8 2.7 -8 1 C-6.865625 1.020625 -5.73125 1.04125 -4.5625 1.0625 C-1.18424326 1.41577477 -1.18424326 1.41577477 0 0 Z " fill="#979596" transform="translate(193,88)"/>
<path d="M0 0 C1.98 0 3.96 0 6 0 C6 2.97 6 5.94 6 9 C4.33388095 9.042721 2.66617115 9.04063832 1 9 C0 8 0 8 -0.09765625 6.15234375 C-0.06510417 4.1015625 -0.03255208 2.05078125 0 0 Z " fill="#AAAEB2" transform="translate(432,86)"/>
<path d="M0 0 C0 3 0 3 -1 6 C-3.31 6 -5.62 6 -8 6 C-8 4.35 -8 2.7 -8 1 C-8.66 1 -9.32 1 -10 1 C-10.33 2.32 -10.66 3.64 -11 5 C-11 3.35 -11 1.7 -11 0 C-3.375 -1.125 -3.375 -1.125 0 0 Z " fill="#A4A3A3" transform="translate(408,24)"/>
<path d="M0 0 C4 4 4 4 4.4375 7.9375 C4.25837232 11.62339648 3.30400443 14.05087433 1 17 C0.67 17 0.34 17 0 17 C0 11.39 0 5.78 0 0 Z " fill="#B9ADAF" transform="translate(206,18)"/>
<path d="M0 0 C0.66 0 1.32 0 2 0 C2 0.66 2 1.32 2 2 C4.64 2 7.28 2 10 2 C10 3.32 10 4.64 10 6 C10.66 6 11.32 6 12 6 C12.33 4.68 12.66 3.36 13 2 C13 3.65 13 5.3 13 7 C10.69 7 8.38 7 6 7 C6 5.68 6 4.36 6 3 C5.34 3 4.68 3 4 3 C4 4.32 4 5.64 4 7 C2.68 7 1.36 7 0 7 C0 4.69 0 2.38 0 0 Z " fill="#A8ACB1" transform="translate(26,30)"/>
<path d="M0 0 C3.3 0 6.6 0 10 0 C10 2 10 4 10 6 C7.03 6 4.06 6 1 6 C0 1.125 0 1.125 0 0 Z " fill="#96979C" transform="translate(128,144)"/>
<path d="M0 0 C0.99 0 1.98 0 3 0 C3.33 0.66 3.66 1.32 4 2 C6.01669827 3.13350534 6.01669827 3.13350534 8 4 C7.34 4 6.68 4 6 4 C6 4.99 6 5.98 6 7 C6.66 7 7.32 7 8 7 C8 7.66 8 8.32 8 9 C7.401875 8.835 6.80375 8.67 6.1875 8.5 C3.88655664 7.8885876 3.88655664 7.8885876 1 8 C0.01 7.67 -0.98 7.34 -2 7 C-2 5.35 -2 3.7 -2 2 C-1.34 2 -0.68 2 0 2 C0 1.34 0 0.68 0 0 Z " fill="#B8BABB" transform="translate(560,86)"/>
<path d="M0 0 C2.02408755 0.09002398 4.04544287 0.24641038 6.0625 0.4375 C7.71958984 0.59025391 7.71958984 0.59025391 9.41015625 0.74609375 C10.26480469 0.82988281 11.11945312 0.91367187 12 1 C12 2.65 12 4.3 12 6 C11.360625 5.814375 10.72125 5.62875 10.0625 5.4375 C9.0415625 5.2209375 9.0415625 5.2209375 8 5 C7.67 5.33 7.34 5.66 7 6 C4.66702567 6.04092937 2.33294775 6.04241723 0 6 C-0.38218767 4.34385343 -0.71395102 2.67542976 -1 1 C-0.67 0.67 -0.34 0.34 0 0 Z " fill="#AAAEB3" transform="translate(41,31)"/>
<path d="M0 0 C0.66 0.33 1.32 0.66 2 1 C2.33 1.99 2.66 2.98 3 4 C2.01 4 1.02 4 0 4 C0 5.65 0 7.3 0 9 C1.32 9 2.64 9 4 9 C4 9.66 4 10.32 4 11 C1.69 10.67 -0.62 10.34 -3 10 C-3.33 8.35 -3.66 6.7 -4 5 C-4.99 5.495 -4.99 5.495 -6 6 C-4.98545548 3.4636387 -4.3146444 2.20648539 -2 0.6875 C-1.34 0.460625 -0.68 0.23375 0 0 Z " fill="#A09599" transform="translate(147,19)"/>
<path d="M0 0 C0.66 0 1.32 0 2 0 C2.33 1.98 2.66 3.96 3 6 C3.33 5.01 3.66 4.02 4 3 C5.65 3 7.3 3 9 3 C9 4.98 9 6.96 9 9 C2.84765625 9.09765625 2.84765625 9.09765625 1 9 C0 8 0 8 -0.09765625 6.15234375 C-0.06510417 4.1015625 -0.03255208 2.05078125 0 0 Z " fill="#908B95" transform="translate(129,86)"/>
<path d="M0 0 C0.66 0 1.32 0 2 0 C2.33 1.98 2.66 3.96 3 6 C3.33 4.68 3.66 3.36 4 2 C5.32 2.33 6.64 2.66 8 3 C8 4.98 8 6.96 8 9 C5.36 9 2.72 9 0 9 C0 6.03 0 3.06 0 0 Z " fill="#8E9397" transform="translate(7,86)"/>
<path d="M0 0 C1.32 0.33 2.64 0.66 4 1 C4 3.31 4 5.62 4 8 C2.35 8.33 0.7 8.66 -1 9 C-2.0326802 6.21176345 -2.04509293 5.1322726 -1.0625 2.25 C-0.711875 1.5075 -0.36125 0.765 0 0 Z " fill="#9E9CA4" transform="translate(277,114)"/>
<path d="M0 0 C1.32 0.33 2.64 0.66 4 1 C4 3.31 4 5.62 4 8 C2.35 8.33 0.7 8.66 -1 9 C-2.25541557 5.23375329 -1.37061958 3.62811066 0 0 Z " fill="#979BA0" transform="translate(442,141)"/>
<path d="M0 0 C1.32 0.33 2.64 0.66 4 1 C4 3.31 4 5.62 4 8 C2.35 8.33 0.7 8.66 -1 9 C-2.0326802 6.21176345 -2.04509293 5.1322726 -1.0625 2.25 C-0.711875 1.5075 -0.36125 0.765 0 0 Z " fill="#9799A3" transform="translate(277,141)"/>
<path d="M0 0 C1.32 0.33 2.64 0.66 4 1 C4 3.31 4 5.62 4 8 C2.35 8.33 0.7 8.66 -1 9 C-2.0326802 6.21176345 -2.04509293 5.1322726 -1.0625 2.25 C-0.711875 1.5075 -0.36125 0.765 0 0 Z " fill="#989CA0" transform="translate(419,141)"/>
<path d="M0 0 C1.65 0 3.3 0 5 0 C5.33 1.65 5.66 3.3 6 5 C5.01 5.33 4.02 5.66 3 6 C3 6.99 3 7.98 3 9 C2.01 9 1.02 9 0 9 C0 6.03 0 3.06 0 0 Z " fill="#A39F9E" transform="translate(410,86)"/>
<path d="M0 0 C0.99 0.33 1.98 0.66 3 1 C3.33 3.31 3.66 5.62 4 8 C2.35 8.33 0.7 8.66 -1 9 C-1.59732819 6.23735711 -2 3.83967231 -2 1 C-1.34 0.67 -0.68 0.34 0 0 Z " fill="#969BA1" transform="translate(459,141)"/>
<path d="M0 0 C0.66 0 1.32 0 2 0 C2 0.99 2 1.98 2 3 C3.32 3 4.64 3 6 3 C6.042721 4.66611905 6.04063832 6.33382885 6 8 C5 9 5 9 2.4375 9.0625 C1.633125 9.041875 0.82875 9.02125 0 9 C0 6.03 0 3.06 0 0 Z " fill="#9A9895" transform="translate(139,86)"/>
<path d="M0 0 C2.69082872 0.17635452 5.32851446 0.61835921 8 1 C7.67 1.99 7.34 2.98 7 4 C6.01 4 5.02 4 4 4 C3.67 5.32 3.34 6.64 3 8 C1.68 7.67 0.36 7.34 -1 7 C-1.04254356 5.00045254 -1.04080783 2.99958364 -1 1 C-0.67 0.67 -0.34 0.34 0 0 Z " fill="#B3B2B1" transform="translate(41,87)"/>
<path d="M0 0 C1.65 0 3.3 0 5 0 C5.33 1.65 5.66 3.3 6 5 C4.68 5.33 3.36 5.66 2 6 C2 6.99 2 7.98 2 9 C1.34 9 0.68 9 0 9 C0 6.03 0 3.06 0 0 Z " fill="#9D9797" transform="translate(286,86)"/>
<path d="M0 0 C0.99 0 1.98 0 3 0 C3 1.32 3 2.64 3 4 C3.2981424 5.34164079 3.62243192 6.67851173 4 8 C2.35 8.33 0.7 8.66 -1 9 C-1.625 5.625 -1.625 5.625 -2 2 C-1.34 1.34 -0.68 0.68 0 0 Z " fill="#9B979F" transform="translate(475,114)"/>
<path d="M0 0 C0.66 0 1.32 0 2 0 C2 1.32 2 2.64 2 4 C3.32 4 4.64 4 6 4 C6 4.99 6 5.98 6 7 C4.68 7 3.36 7 2 7 C2 8.32 2 9.64 2 11 C1.34 11 0.68 11 0 11 C0 9.35 0 7.7 0 6 C-1.32 5.67 -2.64 5.34 -4 5 C-2.68 5 -1.36 5 0 5 C0 3.35 0 1.7 0 0 Z " fill="#B3BBC1" transform="translate(71,140)"/>
<path d="M0 0 C0.38133299 1.9914056 0.71325582 3.99279077 1 6 C0 7 0 7 -3.5625 7.0625 C-4.696875 7.041875 -5.83125 7.02125 -7 7 C-7 5.35 -7 3.7 -7 2 C-4.35261084 0.5393715 -3.10551666 0 0 0 Z " fill="#DBDFE6" transform="translate(61,116)"/>
<path d="M0 0 C1.32 0 2.64 0 4 0 C4 2.64 4 5.28 4 8 C3.34 8 2.68 8 2 8 C2 6.68 2 5.36 2 4 C1.34 4 0.68 4 0 4 C-0.33 5.32 -0.66 6.64 -1 8 C-1.66 8 -2.32 8 -3 8 C-3.33 6.02 -3.66 4.04 -4 2 C-3.01 3.485 -3.01 3.485 -2 5 C-1.34 3.35 -0.68 1.7 0 0 Z " fill="#94B4D8" transform="translate(4,114)"/>
<path d="M0 0 C0.66 0 1.32 0 2 0 C2 1.32 2 2.64 2 4 C3.32 4 4.64 4 6 4 C6 4.99 6 5.98 6 7 C4.68 7 3.36 7 2 7 C2 8.32 2 9.64 2 11 C1.34 11 0.68 11 0 11 C0 9.35 0 7.7 0 6 C-1.32 5.67 -2.64 5.34 -4 5 C-2.68 5 -1.36 5 0 5 C0 3.35 0 1.7 0 0 Z " fill="#BABDC1" transform="translate(71,113)"/>
<path d="M0 0 C0.66 0 1.32 0 2 0 C2 0.99 2 1.98 2 3 C3.32 3.33 4.64 3.66 6 4 C5.67 5.32 5.34 6.64 5 8 C3.35 8.33 1.7 8.66 0 9 C0 6.03 0 3.06 0 0 Z " fill="#948E96" transform="translate(260,86)"/>
<path d="M0 0 C0.99 0.33 1.98 0.66 3 1 C3.73046875 2.84765625 3.73046875 2.84765625 4.1875 5.0625 C4.34605469 5.79597656 4.50460938 6.52945313 4.66796875 7.28515625 C4.83232422 8.13400391 4.83232422 8.13400391 5 9 C4.34 9 3.68 9 3 9 C3 8.34 3 7.68 3 7 C1.35 7.66 -0.3 8.32 -2 9 C-1.125 2.25 -1.125 2.25 0 0 Z " fill="#83878D" transform="translate(108,86)"/>
<path d="M0 0 C1.98 0 3.96 0 6 0 C6 0.66 6 1.32 6 2 C4.68 2 3.36 2 2 2 C2 2.66 2 3.32 2 4 C2.99 4.33 3.98 4.66 5 5 C4.01 5 3.02 5 2 5 C2 5.66 2 6.32 2 7 C3.32 7 4.64 7 6 7 C6 7.66 6 8.32 6 9 C4.02 9 2.04 9 0 9 C0 6.03 0 3.06 0 0 Z " fill="#8B8A8C" transform="translate(534,86)"/>
<path d="M0 0 C0.66 0 1.32 0 2 0 C2 0.66 2 1.32 2 2 C2.99 2.33 3.98 2.66 5 3 C5 4.65 5 6.3 5 8 C3.35 8.33 1.7 8.66 0 9 C0 6.03 0 3.06 0 0 Z " fill="#93909A" transform="translate(425,86)"/>
<path d="M0 0 C-0.99 2.31 -1.98 4.62 -3 7 C-4.65 6.67 -6.3 6.34 -8 6 C-7.8125 3.625 -7.8125 3.625 -7 1 C-2.77108434 -1.38554217 -2.77108434 -1.38554217 0 0 Z " fill="#B4B6B8" transform="translate(383,23)"/>
<path d="M0 0 C2.97 0 5.94 0 9 0 C7.38262276 3.23475448 6.52370777 4.70572021 4 7 C0 2.25 0 2.25 0 0 Z " fill="#6A7078" transform="translate(417,22)"/>
<path d="M0 0 C0.66 0.66 1.32 1.32 2 2 C2.33 1.34 2.66 0.68 3 0 C3.66 0 4.32 0 5 0 C5 2.31 5 4.62 5 7 C3.35 7.33 1.7 7.66 0 8 C-0.98120464 4.94736336 -0.98120464 3.05263664 0 0 Z " fill="#999698" transform="translate(418,115)"/>
<path d="M0 0 C2.64 0 5.28 0 8 0 C7.43628586 3.26954202 6.50037734 4.82575883 4 7 C0 2.25 0 2.25 0 0 Z " fill="#8A9096" transform="translate(376,87)"/>
<path d="M0 0 C2.64 0 5.28 0 8 0 C6.75023244 3.65316671 6.32901247 4.78065836 3 7 C0 3.375 0 3.375 0 0 Z " fill="#8A9197" transform="translate(212,87)"/>
<path d="M0 0 C2.64 0 5.28 0 8 0 C7.43628586 3.26954202 6.50037734 4.82575883 4 7 C0 2.25 0 2.25 0 0 Z " fill="#352A1A" transform="translate(585,22)"/>
<path d="M0 0 C0.99 0.33 1.98 0.66 3 1 C3.33 3.31 3.66 5.62 4 8 C2.35 8.33 0.7 8.66 -1 9 C-1 8.01 -1 7.02 -1 6 C0.485 6.99 0.485 6.99 2 8 C1.34 7.401875 0.68 6.80375 0 6.1875 C-2 4 -2 4 -2 1 C-1.34 0.67 -0.68 0.34 0 0 Z " fill="#8D9197" transform="translate(338,141)"/>
<path d="M0 0 C1.32 0.66 2.64 1.32 4 2 C4 3.98 4 5.96 4 8 C2.35 8.33 0.7 8.66 -1 9 C-1 8.01 -1 7.02 -1 6 C0.485 6.99 0.485 6.99 2 8 C2 7.01 2 6.02 2 5 C0.68 4.67 -0.64 4.34 -2 4 C-1.34 2.68 -0.68 1.36 0 0 Z " fill="#7B7885" transform="translate(320,141)"/>
<path d="M0 0 C1.32 0.66 2.64 1.32 4 2 C4 3.98 4 5.96 4 8 C2.35 8.33 0.7 8.66 -1 9 C-1 8.01 -1 7.02 -1 6 C0.485 6.99 0.485 6.99 2 8 C2 7.01 2 6.02 2 5 C0.68 4.67 -0.64 4.34 -2 4 C-1.34 2.68 -0.68 1.36 0 0 Z " fill="#8D8F99" transform="translate(475,141)"/>
<path d="M0 0 C0.99 0.33 1.98 0.66 3 1 C2.01 1.495 2.01 1.495 1 2 C1.7734375 2.61875 1.7734375 2.61875 2.5625 3.25 C3.036875 3.8275 3.51125 4.405 4 5 C3.6875 7.1875 3.6875 7.1875 3 9 C-0.875 8.125 -0.875 8.125 -2 7 C-2.1875 4.5625 -2.1875 4.5625 -2 2 C-1.34 1.34 -0.68 0.68 0 0 Z " fill="#91969D" transform="translate(338,114)"/>
<path d="M0 0 C1.98 0 3.96 0 6 0 C6 0.99 6 1.98 6 3 C6.66 3.33 7.32 3.66 8 4 C7.34 4 6.68 4 6 4 C6 4.66 6 5.32 6 6 C4.02 6 2.04 6 0 6 C0 4.02 0 2.04 0 0 Z " fill="#A2A7A8" transform="translate(545,89)"/>
<path d="M0 0 C0.66 0 1.32 0 2 0 C2.66 2.64 3.32 5.28 4 8 C2.35 7.67 0.7 7.34 -1 7 C-1 7.66 -1 8.32 -1 9 C-1.66 9 -2.32 9 -3 9 C-2.5020163 5.26512223 -2.12508244 3.18762365 0 0 Z " fill="#82858D" transform="translate(370,21)"/>
<path d="M0 0 C1.32 0.66 2.64 1.32 4 2 C4 3.98 4 5.96 4 8 C2.35 8.33 0.7 8.66 -1 9 C-1 8.01 -1 7.02 -1 6 C0.485 6.99 0.485 6.99 2 8 C2 7.01 2 6.02 2 5 C0.68 4.67 -0.64 4.34 -2 4 C-1.34 2.68 -0.68 1.36 0 0 Z " fill="#8B8D98" transform="translate(302,141)"/>
<path d="M0 0 C2.0625 0.4375 2.0625 0.4375 4 1 C3.67 2.65 3.34 4.3 3 6 C4.32 6.33 5.64 6.66 7 7 C7 7.66 7 8.32 7 9 C4.36 9 1.72 9 -1 9 C-0.690625 8.401875 -0.38125 7.80375 -0.0625 7.1875 C1.10209704 4.91043228 1.10209704 4.91043228 2 2 C1.01 1.67 0.02 1.34 -1 1 C-0.67 0.67 -0.34 0.34 0 0 Z " fill="#979494" transform="translate(344,114)"/>
<path d="M0 0 C1.98 0 3.96 0 6 0 C6 0.99 6 1.98 6 3 C5.34 3 4.68 3 4 3 C3.67 3.99 3.34 4.98 3 6 C3.99 6.33 4.98 6.66 6 7 C6 7.66 6 8.32 6 9 C4.02 9 2.04 9 0 9 C0.61277612 6.03824877 1.25372522 4.61941217 3 2 C2.01 2 1.02 2 0 2 C0 1.34 0 0.68 0 0 Z " fill="#80888E" transform="translate(171,86)"/>
<path d="M0 0 C2.64 0 5.28 0 8 0 C7.34 1.65 6.68 3.3 6 5 C4.68 5 3.36 5 2 5 C1.34 4.34 0.68 3.68 0 3 C0 2.01 0 1.02 0 0 Z " fill="#888F95" transform="translate(500,87)"/>
<path d="M0 0 C0 2.31 0 4.62 0 7 C-0.99 6.67 -1.98 6.34 -3 6 C-3 4.68 -3 3.36 -3 2 C-3.99 2.495 -3.99 2.495 -5 3 C-4.67 3.99 -4.34 4.98 -4 6 C-4.66 6 -5.32 6 -6 6 C-6 5.34 -6 4.68 -6 4 C-6.66 4 -7.32 4 -8 4 C-7.67 2.68 -7.34 1.36 -7 0 C-2.25 -1.125 -2.25 -1.125 0 0 Z " fill="#83878E" transform="translate(251,23)"/>
<path d="M0 0 C0.33 1.32 0.66 2.64 1 4 C3.64 4.33 6.28 4.66 9 5 C9 5.33 9 5.66 9 6 C1.58982977 6.11459026 -5.64206267 5.91160286 -13 5 C-13 4.67 -13 4.34 -13 4 C-6.565 3.505 -6.565 3.505 0 3 C0 2.01 0 1.02 0 0 Z " fill="#E93E3E" transform="translate(171,10)"/>
<path d="M0 0 C1.32 0 2.64 0 4 0 C4 0.66 4 1.32 4 2 C3.01 2 2.02 2 1 2 C1 2.66 1 3.32 1 4 C2.32 4.33 3.64 4.66 5 5 C4.67 6.32 4.34 7.64 4 9 C2.35 9 0.7 9 -1 9 C-1 8.34 -1 7.68 -1 7 C-0.01 6.67 0.98 6.34 2 6 C1.01 5.34 0.02 4.68 -1 4 C-0.67 2.68 -0.34 1.36 0 0 Z " fill="#84878C" transform="translate(327,86)"/>
<path d="M0 0 C3.96 0 7.92 0 12 0 C11.67 0.66 11.34 1.32 11 2 C11.66 2.66 12.32 3.32 13 4 C10.24921116 4.91692961 8.64051087 5.10886083 5.8125 5.0625 C3.9253125 5.0315625 3.9253125 5.0315625 2 5 C2 4.67 2 4.34 2 4 C4.31 4 6.62 4 9 4 C9 3.34 9 2.68 9 2 C6.03 1.67 3.06 1.34 0 1 C0 0.67 0 0.34 0 0 Z " fill="#E78585" transform="translate(190,37)"/>
<path d="M0 0 C2.64 0 5.28 0 8 0 C7.34 1.65 6.68 3.3 6 5 C4.68 5 3.36 5 2 5 C1.34 3.35 0.68 1.7 0 0 Z " fill="#60676F" transform="translate(318,22)"/>
<path d="M0 0 C0.4125 0.474375 0.825 0.94875 1.25 1.4375 C3.182185 3.16266518 4.48192275 3.56584875 7 4 C7 4.66 7 5.32 7 6 C4 8 4 8 1.8125 7.625 C1.214375 7.41875 0.61625 7.2125 0 7 C-0.38133299 5.0085944 -0.71325582 3.00720923 -1 1 C-0.67 0.67 -0.34 0.34 0 0 Z " fill="#AAA6A8" transform="translate(140,115)"/>
<path d="M0 0 C1.65 0.33 3.3 0.66 5 1 C5 2.98 5 4.96 5 7 C3.35 7 1.7 7 0 7 C0 4.66666667 0 2.33333333 0 0 Z " fill="#979AA1" transform="translate(120,88)"/>
<path d="M0 0 C1.22589844 0.01353516 1.22589844 0.01353516 2.4765625 0.02734375 C3.41628906 0.04474609 3.41628906 0.04474609 4.375 0.0625 C4.375 1.7125 4.375 3.3625 4.375 5.0625 C2.725 5.0625 1.075 5.0625 -0.625 5.0625 C-0.625 4.4025 -0.625 3.7425 -0.625 3.0625 C-2.605 3.0625 -4.585 3.0625 -6.625 3.0625 C-6.625 2.4025 -6.625 1.7425 -6.625 1.0625 C-4.21954362 -0.14022819 -2.67503047 -0.03821472 0 0 Z " fill="#6B7178" transform="translate(101.625,18.9375)"/>
<path d="M0 0 C2.0625 0.4375 2.0625 0.4375 4 1 C4 2.65 4 4.3 4 6 C2.0625 6.5625 2.0625 6.5625 0 7 C-1 6 -1 6 -1.125 3.5 C-1 1 -1 1 0 0 Z " fill="#92979D" transform="translate(179,88)"/>
<path d="M0 0 C1.65 0 3.3 0 5 0 C5 1.65 5 3.3 5 5 C3.125 5.625 3.125 5.625 1 6 C0.34 5.34 -0.32 4.68 -1 4 C-0.625 1.875 -0.625 1.875 0 0 Z " fill="#95959B" transform="translate(390,24)"/>
<path d="M0 0 C0.33 0.66 0.66 1.32 1 2 C2.32 2 3.64 2 5 2 C4.75 3.875 4.75 3.875 4 6 C1.9375 7.25 1.9375 7.25 0 8 C-0.185625 7.071875 -0.185625 7.071875 -0.375 6.125 C-0.87197356 3.80879168 -0.87197356 3.80879168 -3 2 C-2.01 1.34 -1.02 0.68 0 0 Z " fill="#EFF3F3" transform="translate(341,114)"/>
<path d="M0 0 C2.97 0.495 2.97 0.495 6 1 C6 2.32 6 3.64 6 5 C5.34 5 4.68 5 4 5 C4 4.01 4 3.02 4 2 C3.34 2 2.68 2 2 2 C2 4.31 2 6.62 2 9 C1.34 9 0.68 9 0 9 C0 6.03 0 3.06 0 0 Z " fill="#8D8486" transform="translate(576,86)"/>
<path d="M0 0 C2.0625 0.4375 2.0625 0.4375 4 1 C4 2.98 4 4.96 4 7 C2.35 7 0.7 7 -1 7 C-1.04254356 5.00045254 -1.04080783 2.99958364 -1 1 C-0.67 0.67 -0.34 0.34 0 0 Z " fill="#92979C" transform="translate(293,23)"/>
<path d="M0 0 C1.67542976 0.28604898 3.34385343 0.61781233 5 1 C4.67 2.32 4.34 3.64 4 5 C2.68 5.33 1.36 5.66 0 6 C-0.38218767 4.34385343 -0.71395102 2.67542976 -1 1 C-0.67 0.67 -0.34 0.34 0 0 Z " fill="#727479" transform="translate(153,24)"/>
<path d="M0 0 C2.0625 0.4375 2.0625 0.4375 4 1 C4 2.98 4 4.96 4 7 C2.35 6.67 0.7 6.34 -1 6 C-1.042721 4.33388095 -1.04063832 2.66617115 -1 1 C-0.67 0.67 -0.34 0.34 0 0 Z " fill="#97959A" transform="translate(123,116)"/>
<path d="M0 0 C0.66 0 1.32 0 2 0 C2 2.64 2 5.28 2 8 C0.35 7.67 -1.3 7.34 -3 7 C-2.38722388 4.03824877 -1.74627478 2.61941217 0 0 Z " fill="#838590" transform="translate(303,86)"/>
<path d="M0 0 C0.99 0.33 1.98 0.66 3 1 C3.33 3.31 3.66 5.62 4 8 C2.35 7.67 0.7 7.34 -1 7 C-0.67 4.69 -0.34 2.38 0 0 Z " fill="#7E8389" transform="translate(1,86)"/>
<path d="M0 0 C2.475 0.495 2.475 0.495 5 1 C5.33 2.32 5.66 3.64 6 5 C5.34 5 4.68 5 4 5 C4 4.01 4 3.02 4 2 C3.34 2 2.68 2 2 2 C2 4.31 2 6.62 2 9 C1.34 9 0.68 9 0 9 C0 6.03 0 3.06 0 0 Z " fill="#898286" transform="translate(451,86)"/>
<path d="M0 0 C2.475 0.495 2.475 0.495 5 1 C5.33 2.32 5.66 3.64 6 5 C5.34 5 4.68 5 4 5 C4 4.01 4 3.02 4 2 C3.34 2 2.68 2 2 2 C2 4.31 2 6.62 2 9 C1.34 9 0.68 9 0 9 C0 6.03 0 3.06 0 0 Z " fill="#888185" transform="translate(246,86)"/>
<path d="M0 0 C2.0625 0.4375 2.0625 0.4375 4 1 C3.814375 1.763125 3.62875 2.52625 3.4375 3.3125 C2.77180827 6.08967375 2.77180827 6.08967375 4 9 C2.35 9 0.7 9 -1 9 C-0.690625 8.401875 -0.38125 7.80375 -0.0625 7.1875 C1.10209704 4.91043228 1.10209704 4.91043228 2 2 C1.01 1.67 0.02 1.34 -1 1 C-0.67 0.67 -0.34 0.34 0 0 Z " fill="#87898D" transform="translate(149,141)"/>
<path d="M0 0 C2.0625 0.4375 2.0625 0.4375 4 1 C3.814375 1.763125 3.62875 2.52625 3.4375 3.3125 C2.77180827 6.08967375 2.77180827 6.08967375 4 9 C2.35 9 0.7 9 -1 9 C-0.690625 8.401875 -0.38125 7.80375 -0.0625 7.1875 C1.10209704 4.91043228 1.10209704 4.91043228 2 2 C1.01 1.67 0.02 1.34 -1 1 C-0.67 0.67 -0.34 0.34 0 0 Z " fill="#8D8B8D" transform="translate(149,114)"/>
<path d="M0 0 C2.66666667 0 5.33333333 0 8 0 C7.67 1.65 7.34 3.3 7 5 C5.35 5.33 3.7 5.66 2 6 C1.34 4.02 0.68 2.04 0 0 Z " fill="#7BA7D0" transform="translate(15,117)"/>
<path d="M0 0 C2.0625 0.4375 2.0625 0.4375 4 1 C3.67 2.65 3.34 4.3 3 6 C3.66 6.33 4.32 6.66 5 7 C5 7.66 5 8.32 5 9 C3.02 9 1.04 9 -1 9 C0.20381448 6.50638429 1.45428722 4.31856917 3 2 C1.68 1.67 0.36 1.34 -1 1 C-0.67 0.67 -0.34 0.34 0 0 Z " fill="#8A8994" transform="translate(481,114)"/>
<path d="M0 0 C2.3828125 0.2421875 2.3828125 0.2421875 5.125 0.875 C6.03507813 1.07867187 6.94515625 1.28234375 7.8828125 1.4921875 C8.58148438 1.65976562 9.28015625 1.82734375 10 2 C10 2.66 10 3.32 10 4 C8.37536158 4.05395478 6.75021459 4.09277195 5.125 4.125 C4.22007812 4.14820313 3.31515625 4.17140625 2.3828125 4.1953125 C0 4 0 4 -2 2 C-1.34 1.34 -0.68 0.68 0 0 Z " fill="#E62020" transform="translate(189,37)"/>
<path d="M0 0 C-1.36983503 3.16115776 -1.9890638 3.9927092 -5 6 C-7.6875 6.125 -7.6875 6.125 -10 6 C-4.2 0 -4.2 0 0 0 Z " fill="#E31D1D" transform="translate(210,34)"/>
<path d="M0 0 C1.32 0 2.64 0 4 0 C4 1.98 4 3.96 4 6 C2.68 6.33 1.36 6.66 0 7 C-0.38133299 5.0085944 -0.71325582 3.00720923 -1 1 C-0.67 0.67 -0.34 0.34 0 0 Z " fill="#B1B5B9" transform="translate(62,32)"/>
<path d="M0 0 C1.98 0.495 1.98 0.495 4 1 C4 2.98 4 4.96 4 7 C2.35 6.67 0.7 6.34 -1 6 C-1 2 -1 2 0 0 Z " fill="#6D4A13" transform="translate(474,23)"/>
<path d="M0 0 C2.475 0.495 2.475 0.495 5 1 C5.33 2.32 5.66 3.64 6 5 C4.34385343 5.38218767 2.67542976 5.71395102 1 6 C0 5 0 5 -0.0625 2.4375 C-0.041875 1.633125 -0.02125 0.82875 0 0 Z " fill="#C3C6C9" transform="translate(62,19)"/>
<path d="M0 0 C2.375 -0.1875 2.375 -0.1875 5 0 C7 3 7 3 7 6 C3 6 3 6 1 5 C0.375 2.4375 0.375 2.4375 0 0 Z " fill="#78A8D2" transform="translate(15,144)"/>
<path d="M0 0 C0.99 0 1.98 0 3 0 C3 0.66 3 1.32 3 2 C4.32 2.66 5.64 3.32 7 4 C6.01 4 5.02 4 4 4 C4 4.66 4 5.32 4 6 C2.35 6.33 0.7 6.66 -1 7 C-1 3 -1 3 0 0 Z " fill="#98969C" transform="translate(360,116)"/>
<path d="M0 0 C2.0625 0.4375 2.0625 0.4375 4 1 C3.125 4.875 3.125 4.875 2 6 C2.66 6.33 3.32 6.66 4 7 C4 7.66 4 8.32 4 9 C2.35 9 0.7 9 -1 9 C0.875 4.25 0.875 4.25 2 2 C1.01 1.67 0.02 1.34 -1 1 C-0.67 0.67 -0.34 0.34 0 0 Z " fill="#878690" transform="translate(465,114)"/>
<path d="M0 0 C2.0625 0.4375 2.0625 0.4375 4 1 C3.814375 1.763125 3.62875 2.52625 3.4375 3.3125 C2.77180827 6.08967375 2.77180827 6.08967375 4 9 C2.35 9 0.7 9 -1 9 C-0.690625 8.401875 -0.38125 7.80375 -0.0625 7.1875 C1.10209704 4.91043228 1.10209704 4.91043228 2 2 C1.01 1.67 0.02 1.34 -1 1 C-0.67 0.67 -0.34 0.34 0 0 Z " fill="#8A888A" transform="translate(326,114)"/>
<path d="M0 0 C2.0625 0.4375 2.0625 0.4375 4 1 C3.814375 1.763125 3.62875 2.52625 3.4375 3.3125 C2.77180827 6.08967375 2.77180827 6.08967375 4 9 C2.35 9 0.7 9 -1 9 C-0.690625 8.401875 -0.38125 7.80375 -0.0625 7.1875 C1.10209704 4.91043228 1.10209704 4.91043228 2 2 C1.01 1.67 0.02 1.34 -1 1 C-0.67 0.67 -0.34 0.34 0 0 Z " fill="#878592" transform="translate(288,114)"/>
<path d="M0 0 C2.0625 0.4375 2.0625 0.4375 4 1 C3.125 4.875 3.125 4.875 2 6 C2.66 6.33 3.32 6.66 4 7 C4 7.66 4 8.32 4 9 C2.35 9 0.7 9 -1 9 C-0.38722388 6.03824877 0.25372522 4.61941217 2 2 C1.01 1.67 0.02 1.34 -1 1 C-0.67 0.67 -0.34 0.34 0 0 Z " fill="#878B8F" transform="translate(259,114)"/>
<path d="M0 0 C0.66 0 1.32 0 2 0 C2 1.32 2 2.64 2 4 C2.66 4 3.32 4 4 4 C4 2.68 4 1.36 4 0 C4.66 0 5.32 0 6 0 C6 1.98 6 3.96 6 6 C4.33388095 6.042721 2.66617115 6.04063832 1 6 C0 5 0 5 -0.0625 2.4375 C-0.041875 1.633125 -0.02125 0.82875 0 0 Z " fill="#88868C" transform="translate(253,89)"/>
<path d="M0 0 C1.65 0 3.3 0 5 0 C5 1.98 5 3.96 5 6 C3.35 6 1.7 6 0 6 C0 4.02 0 2.04 0 0 Z " fill="#8E8F99" transform="translate(253,24)"/>
<path d="M0 0 C1.32 0.66 2.64 1.32 4 2 C3.34 3.32 2.68 4.64 2 6 C2.66 6.33 3.32 6.66 4 7 C4 7.66 4 8.32 4 9 C2.35 9 0.7 9 -1 9 C-0.38722388 6.03824877 0.25372522 4.61941217 2 2 C1.01 1.67 0.02 1.34 -1 1 C-0.67 0.67 -0.34 0.34 0 0 Z " fill="#81868B" transform="translate(259,141)"/>
<path d="M0 0 C1.98 0.495 1.98 0.495 4 1 C4 2.98 4 4.96 4 7 C2.35 6.67 0.7 6.34 -1 6 C-0.67 4.02 -0.34 2.04 0 0 Z " fill="#7DAED5" transform="translate(28,116)"/>
<path d="M0 0 C2.0625 0.4375 2.0625 0.4375 4 1 C3.814375 1.763125 3.62875 2.52625 3.4375 3.3125 C2.77180827 6.08967375 2.77180827 6.08967375 4 9 C2.35 9 0.7 9 -1 9 C0.20381448 6.50638429 1.45428722 4.31856917 3 2 C1.68 1.67 0.36 1.34 -1 1 C-0.67 0.67 -0.34 0.34 0 0 Z " fill="#88878B" transform="translate(428,114)"/>
<path d="M0 0 C1.65 0 3.3 0 5 0 C5 1.98 5 3.96 5 6 C3.35 6 1.7 6 0 6 C0 4.02 0 2.04 0 0 Z " fill="#8F8889" transform="translate(418,89)"/>
<path d="M0 0 C3 1 3 1 4 3 C4.66 2.01 5.32 1.02 6 0 C6 2.31 6 4.62 6 7 C5.01 6.67 4.02 6.34 3 6 C2.67 5.34 2.34 4.68 2 4 C1.34 4.99 0.68 5.98 0 7 C0 4.69 0 2.38 0 0 Z " fill="#776A6C" transform="translate(318,87)"/>
<path d="M0 0 C2.0625 0.4375 2.0625 0.4375 4 1 C3.67 2.98 3.34 4.96 3 7 C1.68 6.67 0.36 6.34 -1 6 C-1.042721 4.33388095 -1.04063832 2.66617115 -1 1 C-0.67 0.67 -0.34 0.34 0 0 Z " fill="#898F97" transform="translate(193,88)"/>
<path d="M0 0 C1.65 0 3.3 0 5 0 C5 1.98 5 3.96 5 6 C3.35 6 1.7 6 0 6 C0 4.02 0 2.04 0 0 Z " fill="#664215" transform="translate(480,24)"/>
<path d="M0 0 C1.32 0 2.64 0 4 0 C4 0.66 4 1.32 4 2 C3.01 2 2.02 2 1 2 C1 2.66 1 3.32 1 4 C1.99 4 2.98 4 4 4 C3.67 5.65 3.34 7.3 3 9 C2.01 8.67 1.02 8.34 0 8 C0.99 7.01 1.98 6.02 3 5 C1.68 5 0.36 5 -1 5 C-0.67 3.35 -0.34 1.7 0 0 Z " fill="#82888A" transform="translate(344,141)"/>
<path d="M0 0 C1.32 0 2.64 0 4 0 C4 0.66 4 1.32 4 2 C3.01 2 2.02 2 1 2 C1 2.66 1 3.32 1 4 C1.99 4 2.98 4 4 4 C3.67 5.65 3.34 7.3 3 9 C2.01 8.67 1.02 8.34 0 8 C0.99 7.01 1.98 6.02 3 5 C1.68 5 0.36 5 -1 5 C-0.67 3.35 -0.34 1.7 0 0 Z " fill="#87818D" transform="translate(481,141)"/>
<path d="M0 0 C1.32 0 2.64 0 4 0 C4 2.97 4 5.94 4 9 C3.34 9 2.68 9 2 9 C1.855625 8.2575 1.71125 7.515 1.5625 6.75 C1.09812508 4.47972261 0.58136431 2.24240521 0 0 Z " fill="#A0BCDD" transform="translate(4,141)"/>
<path d="M0 0 C0.99 0.33 1.98 0.66 3 1 C3 2.98 3 4.96 3 7 C1.68 6.67 0.36 6.34 -1 6 C-1.625 4.125 -1.625 4.125 -2 2 C-1.34 1.34 -0.68 0.68 0 0 Z " fill="#87AFD5" transform="translate(11,116)"/>
<path d="M0 0 C0.66 0 1.32 0 2 0 C2.33 1.98 2.66 3.96 3 6 C0.50907189 7.24546405 -0.41080733 6.7767578 -3 6 C-1.125 1.125 -1.125 1.125 0 0 Z " fill="#837E83" transform="translate(467,87)"/>
<path d="M0 0 C2.46800047 1.15173355 4.04783565 2.04783565 6 4 C5.875 5.9375 5.875 5.9375 5 8 C2.9375 9.75 2.9375 9.75 1 11 C1.66 9.02 2.32 7.04 3 5 C2.2575 4.319375 2.2575 4.319375 1.5 3.625 C0 2 0 2 0 0 Z " fill="#B8C3C4" transform="translate(555,51)"/>
<path d="M0 0 C1.32 0 2.64 0 4 0 C4 1.98 4 3.96 4 6 C2.35 5.67 0.7 5.34 -1 5 C-0.67 3.35 -0.34 1.7 0 0 Z " fill="#8C8D8D" transform="translate(304,24)"/>
<path d="M0 0 C1.32 0 2.64 0 4 0 C4 1.98 4 3.96 4 6 C2.35 5.67 0.7 5.34 -1 5 C-0.67 3.35 -0.34 1.7 0 0 Z " fill="#8A8C90" transform="translate(273,24)"/>
<path d="M0 0 C0 1.65 0 3.3 0 5 C-0.66 5 -1.32 5 -2 5 C-2.33 3.68 -2.66 2.36 -3 1 C-3.33 2.32 -3.66 3.64 -4 5 C-4.99 4.67 -5.98 4.34 -7 4 C-7 2.68 -7 1.36 -7 0 C-3.98968256 -0.93423645 -3.13349732 -1.04449911 0 0 Z " fill="#A5AAAE" transform="translate(32,19)"/>
<path d="M0 0 C0.99 0.33 1.98 0.66 3 1 C2.67 2.65 2.34 4.3 2 6 C2.66 6.33 3.32 6.66 4 7 C4 7.66 4 8.32 4 9 C2.35 9 0.7 9 -1 9 C-0.38722388 6.03824877 0.25372522 4.61941217 2 2 C1.01 1.67 0.02 1.34 -1 1 C-0.67 0.67 -0.34 0.34 0 0 Z " fill="#857F8B" transform="translate(295,114)"/>
<path d="M0 0 C2.0625 0.4375 2.0625 0.4375 4 1 C4 1.99 4 2.98 4 4 C3.01 4.33 2.02 4.66 1 5 C1.66 5.66 2.32 6.32 3 7 C1.68 6.67 0.36 6.34 -1 6 C-1.042721 4.33388095 -1.04063832 2.66617115 -1 1 C-0.67 0.67 -0.34 0.34 0 0 Z " fill="#8F8E94" transform="translate(247,116)"/>
<path d="M0 0 C0.66 0.66 1.32 1.32 2 2 C1.67 2.99 1.34 3.98 1 5 C1.66 5 2.32 5 3 5 C3.66 3.68 4.32 2.36 5 1 C5 2.98 5 4.96 5 7 C3.33388095 7.042721 1.66617115 7.04063832 0 7 C-1 6 -1 6 -1.125 3.5 C-1 1 -1 1 0 0 Z " fill="#7C7B89" transform="translate(557,88)"/>
<path d="M0 0 C0.99 0 1.98 0 3 0 C3.33 1.98 3.66 3.96 4 6 C2.35 6.33 0.7 6.66 -1 7 C-1 3 -1 3 0 0 Z " fill="#949799" transform="translate(63,88)"/>
<path d="M0 0 C0.66 0.33 1.32 0.66 2 1 C1.01 2.32 0.02 3.64 -1 5 C-0.505 5.45375 -0.01 5.9075 0.5 6.375 C2 8 2 8 2 10 C-0.62187494 8.95125002 -1.79371361 8.35068687 -3.25 5.875 C-3.4975 5.25625 -3.745 4.6375 -4 4 C-2.68 2.68 -1.36 1.36 0 0 Z " fill="#B6C1C2" transform="translate(513,52)"/>
<path d="M0 0 C1.32 0 2.64 0 4 0 C4 1.98 4 3.96 4 6 C2.35 5.67 0.7 5.34 -1 5 C-0.67 3.35 -0.34 1.7 0 0 Z " fill="#664113" transform="translate(532,24)"/>
<path d="M0 0 C0.66 0 1.32 0 2 0 C2 2.31 2 4.62 2 7 C2.99 7 3.98 7 5 7 C5 7.66 5 8.32 5 9 C3.35 9 1.7 9 0 9 C0 6.03 0 3.06 0 0 Z " fill="#684412" transform="translate(467,21)"/>
<path d="M0 0 C1.65 0 3.3 0 5 0 C5 0.99 5 1.98 5 3 C4.01 3 3.02 3 2 3 C2 3.66 2 4.32 2 5 C2.99 5.33 3.98 5.66 5 6 C3.35 5.67 1.7 5.34 0 5 C0 3.35 0 1.7 0 0 Z " fill="#818793" transform="translate(246,144)"/>
<path d="M0 0 C1.32 0 2.64 0 4 0 C4 1.98 4 3.96 4 6 C2.35 5.67 0.7 5.34 -1 5 C-0.67 3.35 -0.34 1.7 0 0 Z " fill="#6EA7D3" transform="translate(28,144)"/>
<path d="M0 0 C1.65 0 3.3 0 5 0 C5.25 2.25 5.25 2.25 5 5 C3 7.3125 3 7.3125 1 9 C1.66 6.69 2.32 4.38 3 2 C2.01 2 1.02 2 0 2 C0 1.34 0 0.68 0 0 Z " fill="#8A8C96" transform="translate(325,141)"/>
<path d="M0 0 C2.475 0.495 2.475 0.495 5 1 C5 2.65 5 4.3 5 6 C4.67 5.34 4.34 4.68 4 4 C3.34 4 2.68 4 2 4 C2.33 4.99 2.66 5.98 3 7 C2.01 6.67 1.02 6.34 0 6 C0 4 0 2 0 0 Z " fill="#8E858D" transform="translate(128,116)"/>
<path d="M0 0 C0.66 0 1.32 0 2 0 C2.268125 0.598125 2.53625 1.19625 2.8125 1.8125 C3.98493467 3.97224808 5.19369282 5.35790256 7 7 C5.68 7 4.36 7 3 7 C2.67 7.66 2.34 8.32 2 9 C1.34 8.67 0.68 8.34 0 8 C0 5.36 0 2.72 0 0 Z " fill="#C7D3D8" transform="translate(323,86)"/>
<path d="M0 0 C1.32 0 2.64 0 4 0 C4 1.98 4 3.96 4 6 C2.68 5.67 1.36 5.34 0 5 C-0.5625 3.0625 -0.5625 3.0625 -1 1 C-0.67 0.67 -0.34 0.34 0 0 Z " fill="#666365" transform="translate(174,24)"/>
<path d="M0 0 C1.98 0 3.96 0 6 0 C5.67 0.99 5.34 1.98 5 3 C4.01 3 3.02 3 2 3 C1.67 4.32 1.34 5.64 1 7 C0.34 6.34 -0.32 5.68 -1 5 C-0.625 2.375 -0.625 2.375 0 0 Z " fill="#DBE2E2" transform="translate(251,23)"/>
<path d="M0 0 C1.32 0 2.64 0 4 0 C4 0.99 4 1.98 4 3 C3.01 3 2.02 3 1 3 C1 3.66 1 4.32 1 5 C1.99 5.33 2.98 5.66 4 6 C2.35 5.67 0.7 5.34 -1 5 C-0.67 3.35 -0.34 1.7 0 0 Z " fill="#81848D" transform="translate(123,144)"/>
<path d="M0 0 C0.33 1.32 0.66 2.64 1 4 C1.66 4 2.32 4 3 4 C3 2.68 3 1.36 3 0 C3.66 0 4.32 0 5 0 C5 1.98 5 3.96 5 6 C3.35 6 1.7 6 0 6 C0 4.02 0 2.04 0 0 Z " fill="#888F90" transform="translate(353,117)"/>
<path d="M0 0 C0.33 1.32 0.66 2.64 1 4 C1.66 4 2.32 4 3 4 C3 2.68 3 1.36 3 0 C3.66 0 4.32 0 5 0 C5 1.98 5 3.96 5 6 C3.35 6 1.7 6 0 6 C0 4.02 0 2.04 0 0 Z " fill="#7A7B89" transform="translate(56,89)"/>
<path d="M0 0 C0.33 0.66 0.66 1.32 1 2 C1.66 2 2.32 2 3 2 C3 1.34 3 0.68 3 0 C3.66 0.33 4.32 0.66 5 1 C3.515 4.465 3.515 4.465 2 8 C1.34 8 0.68 8 0 8 C0 5.36 0 2.72 0 0 Z " fill="#7C7E86" transform="translate(162,89)"/>
<path d="M0 0 C2.475 0.495 2.475 0.495 5 1 C4.67 2.32 4.34 3.64 4 5 C2.68 4.67 1.36 4.34 0 4 C0 2.68 0 1.36 0 0 Z " fill="#B4B8BC" transform="translate(67,32)"/>
<path d="M0 0 C0.33 0 0.66 0 1 0 C1.66 2.97 2.32 5.94 3 9 C2.01 9.66 1.02 10.32 0 11 C-2 8 -2 8 -1.6875 6.0625 C-1.460625 5.381875 -1.23375 4.70125 -1 4 C-0.814375 3.2575 -0.62875 2.515 -0.4375 1.75 C-0.293125 1.1725 -0.14875 0.595 0 0 Z " fill="#E83737" transform="translate(140,23)"/>
<path d="M0 0 C1.65 0 3.3 0 5 0 C4.44271087 3.34373475 3.64826111 6.03312999 2 9 C1 6 1 6 1.9375 3.8125 C2.4634375 2.9153125 2.4634375 2.9153125 3 2 C2.01 2 1.02 2 0 2 C0 1.34 0 0.68 0 0 Z " fill="#848690" transform="translate(464,141)"/>
<path d="M0 0 C1.32 0.33 2.64 0.66 4 1 C3.690625 1.598125 3.38125 2.19625 3.0625 2.8125 C1.89790296 5.08956772 1.89790296 5.08956772 1 8 C0.34 8 -0.32 8 -1 8 C-1.33 7.01 -1.66 6.02 -2 5 C-1.34 4.01 -0.68 3.02 0 2 C0 1.34 0 0.68 0 0 Z " fill="#F6F2E8" transform="translate(293,115)"/>
<path d="M0 0 C1.65 0 3.3 0 5 0 C4.01 0.495 4.01 0.495 3 1 C3 2.65 3 4.3 3 6 C2.01 6 1.02 6 0 6 C0 4.02 0 2.04 0 0 Z " fill="#98BCDB" transform="translate(41,144)"/>
<path d="M0 0 C1.32 0 2.64 0 4 0 C4 2.64 4 5.28 4 8 C3.34 8 2.68 8 2 8 C2 6.02 2 4.04 2 2 C1.34 2 0.68 2 0 2 C0 1.34 0 0.68 0 0 Z " fill="#8684A4" transform="translate(287,142)"/>
<path d="M0 0 C0.66 0 1.32 0 2 0 C2.33 2.64 2.66 5.28 3 8 C2.01 8.33 1.02 8.66 0 9 C0 6.03 0 3.06 0 0 Z " fill="#92C0E5" transform="translate(34,141)"/>
<path d="M0 0 C1.65 0 3.3 0 5 0 C4.38461538 5.53846154 4.38461538 5.53846154 2.4375 7.875 C1.963125 8.24625 1.48875 8.6175 1 9 C1.66 6.69 2.32 4.38 3 2 C2.01 2 1.02 2 0 2 C0 1.34 0 0.68 0 0 Z " fill="#92888B" transform="translate(457,114)"/>
<path d="M0 0 C1.32 0 2.64 0 4 0 C4 2.64 4 5.28 4 8 C3.34 8 2.68 8 2 8 C2 6.02 2 4.04 2 2 C1.34 2 0.68 2 0 2 C0 1.34 0 0.68 0 0 Z " fill="#B3A791" transform="translate(450,115)"/>
<path d="M0 0 C1.98 0 3.96 0 6 0 C5.40138258 2.35171131 4.73075648 4.6859378 4 7 C3.01 7.495 3.01 7.495 2 8 C2.33 6.35 2.66 4.7 3 3 C2.01 2.67 1.02 2.34 0 2 C0 1.34 0 0.68 0 0 Z " fill="#8B8994" transform="translate(318,114)"/>
<path d="M0 0 C1.32 0 2.64 0 4 0 C4 2.64 4 5.28 4 8 C3.34 8 2.68 8 2 8 C2 6.02 2 4.04 2 2 C1.34 2 0.68 2 0 2 C0 1.34 0 0.68 0 0 Z " fill="#6D6F73" transform="translate(533,53)"/>
<path d="M0 0 C0.99 0.33 1.98 0.66 3 1 C3 4 3 4 2 7 C1.01 7 0.02 7 -1 7 C-1.04254356 5.00045254 -1.04080783 2.99958364 -1 1 C-0.67 0.67 -0.34 0.34 0 0 Z " fill="#694612" transform="translate(558,23)"/>
<path d="M0 0 C2.475 0.495 2.475 0.495 5 1 C5 1.66 5 2.32 5 3 C4.01 3.33 3.02 3.66 2 4 C2.66 4.66 3.32 5.32 4 6 C2.68 5.67 1.36 5.34 0 5 C0 3.35 0 1.7 0 0 Z " fill="#584113" transform="translate(551,24)"/>
<path d="M0 0 C0.66 0.33 1.32 0.66 2 1 C1.67 2.65 1.34 4.3 1 6 C1.66 6 2.32 6 3 6 C3 6.66 3 7.32 3 8 C1.68 7.67 0.36 7.34 -1 7 C-1.04254356 5.00045254 -1.04080783 2.99958364 -1 1 C-0.67 0.67 -0.34 0.34 0 0 Z " fill="#8E8988" transform="translate(288,22)"/>
<path d="M0 0 C0.99 0.33 1.98 0.66 3 1 C3.6875 3.0625 3.6875 3.0625 4 5 C2.35 5.33 0.7 5.66 -1 6 C-0.67 4.02 -0.34 2.04 0 0 Z " fill="#929295" transform="translate(282,24)"/>
<path d="M0 0 C0.66 0 1.32 0 2 0 C2 2.97 2 5.94 2 9 C1.34 9 0.68 9 0 9 C-0.87890625 2.84765625 -0.87890625 2.84765625 -1 1 C-0.67 0.67 -0.34 0.34 0 0 Z " fill="#7C86B0" transform="translate(314,141)"/>
<path d="M0 0 C0.66 0 1.32 0 2 0 C2 2.97 2 5.94 2 9 C1.34 9 0.68 9 0 9 C-0.87890625 2.84765625 -0.87890625 2.84765625 -1 1 C-0.67 0.67 -0.34 0.34 0 0 Z " fill="#7E8CB6" transform="translate(296,141)"/>
<path d="M0 0 C0.66 0 1.32 0 2 0 C2 2.97 2 5.94 2 9 C1.34 9 0.68 9 0 9 C-0.87890625 2.84765625 -0.87890625 2.84765625 -1 1 C-0.67 0.67 -0.34 0.34 0 0 Z " fill="#909692" transform="translate(436,141)"/>
<path d="M0 0 C0.66 0 1.32 0 2 0 C2 2.97 2 5.94 2 9 C1.34 9 0.68 9 0 9 C-0.87890625 2.84765625 -0.87890625 2.84765625 -1 1 C-0.67 0.67 -0.34 0.34 0 0 Z " fill="#8F9794" transform="translate(413,141)"/>
<path d="M0 0 C0.66 0 1.32 0 2 0 C2 2.97 2 5.94 2 9 C1.34 9 0.68 9 0 9 C-0.87890625 2.84765625 -0.87890625 2.84765625 -1 1 C-0.67 0.67 -0.34 0.34 0 0 Z " fill="#7D80A7" transform="translate(271,141)"/>
<path d="M0 0 C0.99 0 1.98 0 3 0 C3.33 1.98 3.66 3.96 4 6 C2.68 6.33 1.36 6.66 0 7 C0.66 6.67 1.32 6.34 2 6 C2 5.34 2 4.68 2 4 C1.01 3.67 0.02 3.34 -1 3 C-0.67 2.01 -0.34 1.02 0 0 Z " fill="#83B0D7" transform="translate(58,116)"/>
<path d="M0 0 C0.66 0 1.32 0 2 0 C2 2.97 2 5.94 2 9 C1.34 9 0.68 9 0 9 C-0.87890625 2.84765625 -0.87890625 2.84765625 -1 1 C-0.67 0.67 -0.34 0.34 0 0 Z " fill="#969A93" transform="translate(413,114)"/>
<path d="M0 0 C0.66 0 1.32 0 2 0 C2 2.97 2 5.94 2 9 C1.34 9 0.68 9 0 9 C-0.87890625 2.84765625 -0.87890625 2.84765625 -1 1 C-0.67 0.67 -0.34 0.34 0 0 Z " fill="#8288B0" transform="translate(314,114)"/>
<path d="M0 0 C1.65 0 3.3 0 5 0 C4.67 1.98 4.34 3.96 4 6 C3.01 5.67 2.02 5.34 1 5 C0.67 3.35 0.34 1.7 0 0 Z " fill="#87868A" transform="translate(458,89)"/>
<path d="M0 0 C1.32 0.33 2.64 0.66 4 1 C4 2.98 4 4.96 4 7 C3.34 7 2.68 7 2 7 C2 6.34 2 5.68 2 5 C1.34 5 0.68 5 0 5 C0 3.35 0 1.7 0 0 Z " fill="#E8E8E1" transform="translate(159,88)"/>
<path d="M0 0 C1.98 0.495 1.98 0.495 4 1 C3.01 1 2.02 1 1 1 C1 1.99 1 2.98 1 4 C1.99 4 2.98 4 4 4 C4 4.66 4 5.32 4 6 C2.35 5.67 0.7 5.34 -1 5 C-0.67 3.35 -0.34 1.7 0 0 Z " fill="#8D8B92" transform="translate(275,89)"/>
<path d="M0 0 C0.66 0 1.32 0 2 0 C2.33 2.97 2.66 5.94 3 9 C2.01 8.67 1.02 8.34 0 8 C0 5.36 0 2.72 0 0 Z " fill="#8E888E" transform="translate(267,86)"/>
<path d="M0 0 C0.66 0 1.32 0 2 0 C2.33 2.31 2.66 4.62 3 7 C2.01 7 1.02 7 0 7 C0 4.69 0 2.38 0 0 Z " fill="#C5C8CA" transform="translate(26,30)"/>
<path d="M0 0 C1.32 0.66 2.64 1.32 4 2 C4 3.32 4 4.64 4 6 C2.68 6 1.36 6 0 6 C-0.38218767 4.34385343 -0.71395102 2.67542976 -1 1 C-0.67 0.67 -0.34 0.34 0 0 Z " fill="#BBBEC2" transform="translate(41,31)"/>
<path d="M0 0 C0.66 0 1.32 0 2 0 C3 5.75 3 5.75 3 8 C2.01 7.67 1.02 7.34 0 7 C-1.125 2.25 -1.125 2.25 0 0 Z " fill="#7E7C8B" transform="translate(299,22)"/>
<path d="M0 0 C0.66 0 1.32 0 2 0 C3 5.75 3 5.75 3 8 C2.01 7.67 1.02 7.34 0 7 C-1.125 2.25 -1.125 2.25 0 0 Z " fill="#4B4212" transform="translate(527,22)"/>
<path d="M0 0 C1.32 0 2.64 0 4 0 C4 1.65 4 3.3 4 5 C2.68 5 1.36 5 0 5 C0 3.35 0 1.7 0 0 Z " fill="#ABAFB3" transform="translate(53,19)"/>
<path d="M0 0 C0 0.33 0 0.66 0 1 C-1.98 1.33 -3.96 1.66 -6 2 C-6 2.66 -6 3.32 -6 4 C-7.32 4.33 -8.64 4.66 -10 5 C-10 3.68 -10 2.36 -10 1 C-6.78548731 -0.60725635 -3.56387464 -0.05748185 0 0 Z " fill="#C82C2D" transform="translate(158,14)"/>
<path d="M0 0 C1.98 0.99 1.98 0.99 4 2 C3.67 3.32 3.34 4.64 3 6 C2.01 6 1.02 6 0 6 C0 4.02 0 2.04 0 0 Z " fill="#989898" transform="translate(609,164)"/>
<path d="M0 0 C0.99 0 1.98 0 3 0 C3 2.64 3 5.28 3 8 C2.34 8 1.68 8 1 8 C0.67 5.36 0.34 2.72 0 0 Z " fill="#A19B87" transform="translate(451,142)"/>
<path d="M0 0 C0.99 0 1.98 0 3 0 C3 2.64 3 5.28 3 8 C2.34 8 1.68 8 1 8 C0.67 5.36 0.34 2.72 0 0 Z " fill="#9E9987" transform="translate(428,142)"/>
<path d="M0 0 C0.99 0.33 1.98 0.66 3 1 C3.33 2.65 3.66 4.3 4 6 C2.68 6 1.36 6 0 6 C0 4.02 0 2.04 0 0 Z " fill="#8A8C8D" transform="translate(35,89)"/>
<path d="M0 0 C0.66 0 1.32 0 2 0 C3 5.75 3 5.75 3 8 C2.01 7.67 1.02 7.34 0 7 C0 4.69 0 2.38 0 0 Z " fill="#737D89" transform="translate(157,87)"/>
<path d="M0 0 C0.66 0 1.32 0 2 0 C3 5.75 3 5.75 3 8 C2.01 7.67 1.02 7.34 0 7 C0 4.69 0 2.38 0 0 Z " fill="#827E7E" transform="translate(51,87)"/>
<path d="M0 0 C1.65 0 3.3 0 5 0 C4.67 1.65 4.34 3.3 4 5 C3.01 4.67 2.02 4.34 1 4 C0.3125 1.9375 0.3125 1.9375 0 0 Z " fill="#85868B" transform="translate(113,89)"/>
<path d="M0 0 C0.66 0 1.32 0 2 0 C3 5.75 3 5.75 3 8 C2.01 7.67 1.02 7.34 0 7 C0 4.69 0 2.38 0 0 Z " fill="#59485C" transform="translate(186,22)"/>
<path d="M0 0 C0.99 0.33 1.98 0.66 3 1 C3 4 3 4 2 7 C1.01 6.67 0.02 6.34 -1 6 C-0.34 6 0.32 6 1 6 C1 5.34 1 4.68 1 4 C0.34 4 -0.32 4 -1 4 C-0.67 2.68 -0.34 1.36 0 0 Z " fill="#868D98" transform="translate(405,23)"/>
<path d="M0 0 C1.32 0.33 2.64 0.66 4 1 C3.67 2.65 3.34 4.3 3 6 C2.01 6 1.02 6 0 6 C0 4.02 0 2.04 0 0 Z " fill="#634214" transform="translate(521,24)"/>
<path d="M0 0 C1.32 0.33 2.64 0.66 4 1 C3.34 1 2.68 1 2 1 C2 1.99 2 2.98 2 4 C2.66 4.33 3.32 4.66 4 5 C3.34 5 2.68 5 2 5 C2 5.66 2 6.32 2 7 C1.34 7 0.68 7 0 7 C0 4.69 0 2.38 0 0 Z " fill="#A9ADB2" transform="translate(41,19)"/>
<path d="M0 0 C1.32 0.66 2.64 1.32 4 2 C4 2.66 4 3.32 4 4 C2.02 4 0.04 4 -2 4 C-1.34 2.68 -0.68 1.36 0 0 Z " fill="#A0A5AD" transform="translate(320,141)"/>
<path d="M0 0 C0.33 1.32 0.66 2.64 1 4 C2.32 4.33 3.64 4.66 5 5 C3.68 5 2.36 5 1 5 C0.67 6.32 0.34 7.64 0 9 C0 7.68 0 6.36 0 5 C-1.32 4.67 -2.64 4.34 -4 4 C-2.68 4 -1.36 4 0 4 C0 2.68 0 1.36 0 0 Z " fill="#404751" transform="translate(71,141)"/>
<path d="M0 0 C0.99 0.33 1.98 0.66 3 1 C3.33 2.65 3.66 4.3 4 6 C2.68 6 1.36 6 0 6 C0 4 0 2 0 0 Z " fill="#958D8F" transform="translate(134,117)"/>
<path d="M0 0 C0.66 0 1.32 0 2 0 C2 2.64 2 5.28 2 8 C1.34 8 0.68 8 0 8 C-0.38063221 5.6739143 -0.71269945 3.33944736 -1 1 C-0.67 0.67 -0.34 0.34 0 0 Z " fill="#7C7BA2" transform="translate(271,114)"/>
<path d="M0 0 C0.33 1.32 0.66 2.64 1 4 C2.32 4.33 3.64 4.66 5 5 C3.68 5 2.36 5 1 5 C0.67 6.32 0.34 7.64 0 9 C0 7.68 0 6.36 0 5 C-1.32 4.67 -2.64 4.34 -4 4 C-2.68 4 -1.36 4 0 4 C0 2.68 0 1.36 0 0 Z " fill="#3F4751" transform="translate(71,114)"/>
<path d="M0 0 C4 0 4 0 6 1 C5.34 2.32 4.68 3.64 4 5 C3.01 4.67 2.02 4.34 1 4 C0.3125 1.9375 0.3125 1.9375 0 0 Z " fill="#7E8189" transform="translate(293,89)"/>
<path d="M0 0 C1.32 0.33 2.64 0.66 4 1 C3.34 1 2.68 1 2 1 C2 1.99 2 2.98 2 4 C2.66 4 3.32 4 4 4 C4 4.66 4 5.32 4 6 C2.68 5.67 1.36 5.34 0 5 C0 3.35 0 1.7 0 0 Z " fill="#85858D" transform="translate(439,89)"/>
<path d="M0 0 C0.99 0.33 1.98 0.66 3 1 C3 2.32 3 3.64 3 5 C1.68 4.67 0.36 4.34 -1 4 C-0.67 2.68 -0.34 1.36 0 0 Z " fill="#70767D" transform="translate(590,54)"/>
<path d="M0 0 C1.65 0 3.3 0 5 0 C4.67 1.65 4.34 3.3 4 5 C2.64567325 3.68799596 1.31266518 2.35368596 0 1 C0 0.67 0 0.34 0 0 Z " fill="#2A241C" transform="translate(586,24)"/>
<path d="M0 0 C1.65 0 3.3 0 5 0 C4.67 1.32 4.34 2.64 4 4 C2.68 4 1.36 4 0 4 C0 2.68 0 1.36 0 0 Z " fill="#F8FAFB" transform="translate(147,24)"/>
</svg>
