<?xml version="1.0" encoding="UTF-8"?>
<svg version="1.1" xmlns="http://www.w3.org/2000/svg" width="624" height="148">
<path d="M0 0 C205.92 0 411.84 0 624 0 C624 48.84 624 97.68 624 148 C418.08 148 212.16 148 0 148 C0 99.16 0 50.32 0 0 Z " fill="#F7F7F7" transform="translate(0,0)"/>
<path d="M0 0 C0.33 0 0.66 0 1 0 C1 42.9 1 85.8 1 130 C-177.53 130 -356.06 130 -540 130 C-540 115.15 -540 100.3 -540 85 C-366.09 85 -192.18 85 -13 85 C-13 84.34 -13 83.68 -13 83 C-82.96 83 -152.92 83 -225 83 C-225 81.68 -225 80.36 -225 79 C-315.75 78.67 -406.5 78.34 -500 78 C-500 77.67 -500 77.34 -500 77 C-498.35 77 -496.7 77 -495 77 C-495 76.34 -495 75.68 -495 75 C-495.99 75.495 -495.99 75.495 -497 76 C-498.52148326 76.08372659 -500.04655778 76.10730027 -501.5703125 76.09765625 C-502.46621094 76.09443359 -503.36210937 76.09121094 -504.28515625 76.08789062 C-505.69087891 76.07532227 -505.69087891 76.07532227 -507.125 76.0625 C-508.06988281 76.05798828 -509.01476562 76.05347656 -509.98828125 76.04882812 C-512.32558387 76.03702357 -514.66276061 76.02055759 -517 76 C-517 75.67 -517 75.34 -517 75 C-511.39 75 -505.78 75 -500 75 C-500 74.01 -500 73.02 -500 72 C-501.04800781 72.01160156 -502.09601563 72.02320312 -503.17578125 72.03515625 C-504.55468572 72.04453655 -505.93359211 72.0536365 -507.3125 72.0625 C-508.00279297 72.07087891 -508.69308594 72.07925781 -509.40429688 72.08789062 C-512.5483025 72.10307906 -514.99420019 72.00193327 -518 71 C-518 71.99 -518 72.98 -518 74 C-518.99 74 -519.98 74 -521 74 C-521 74.66 -521 75.32 -521 76 C-519.68 76.66 -518.36 77.32 -517 78 C-524.26 78 -531.52 78 -539 78 C-539 77.67 -539 77.34 -539 77 C-534.05 76.505 -534.05 76.505 -529 76 C-529 74.02 -529 72.04 -529 70 C-530.65 70 -532.3 70 -534 70 C-534 69.67 -534 69.34 -534 69 C-492.09 69 -450.18 69 -407 69 C-406.67 70.98 -406.34 72.96 -406 75 C-405.37432129 74.99476318 -404.74864258 74.98952637 -404.10400391 74.98413086 C-401.27767943 74.96338382 -398.45137095 74.95034714 -395.625 74.9375 C-394.64015625 74.92912109 -393.6553125 74.92074219 -392.640625 74.91210938 C-391.22910156 74.90727539 -391.22910156 74.90727539 -389.7890625 74.90234375 C-388.91975098 74.89710693 -388.05043945 74.89187012 -387.15478516 74.88647461 C-385 75 -385 75 -383 76 C-383 74.68 -383 73.36 -383 72 C-383.97582031 72.09539062 -384.95164062 72.19078125 -385.95703125 72.2890625 C-387.22933594 72.39992188 -388.50164062 72.51078125 -389.8125 72.625 C-391.70935547 72.79902344 -391.70935547 72.79902344 -393.64453125 72.9765625 C-397 73 -397 73 -400 71 C-400.33 71.99 -400.66 72.98 -401 74 C-401.66 73.01 -402.32 72.02 -403 71 C-403.99 70.34 -404.98 69.68 -406 69 C-396.76 69 -387.52 69 -378 69 C-378.33 70.65 -378.66 72.3 -379 74 C-377.68 74 -376.36 74 -375 74 C-375.33 72.35 -375.66 70.7 -376 69 C-374.02 69 -372.04 69 -370 69 C-370.33 70.65 -370.66 72.3 -371 74 C-369.68 74.33 -368.36 74.66 -367 75 C-367.33 72.69 -367.66 70.38 -368 68 C-250.85 67.67 -133.7 67.34 -13 67 C-12.67 47.53 -12.34 28.06 -12 8 C-8.04 8 -4.08 8 0 8 C0 5.36 0 2.72 0 0 Z " fill="#F2F2F2" transform="translate(618,18)"/>
<path d="M0 0 C205.92 0 411.84 0 624 0 C624 4.29 624 8.58 624 13 C617.73 13 611.46 13 605 13 C605 16.96 605 20.92 605 25 C604.01 25 603.02 25 602 25 C602 25.99 602 26.98 602 28 C536 28 470 28 402 28 C402 29.32 402 30.64 402 32 C362.4 32 322.8 32 282 32 C282 30.68 282 29.36 282 28 C215.67 28 149.34 28 81 28 C81 27.01 81 26.02 81 25 C80.01 25 79.02 25 78 25 C78 21.04 78 17.08 78 13 C52.26 13 26.52 13 0 13 C0 8.71 0 4.42 0 0 Z " fill="#1E7F05" transform="translate(0,0)"/>
<path d="M0 0 C25.41 0 50.82 0 77 0 C77 1.65 77 3.3 77 5 C75.68 5 74.36 5 73 5 C73 47.57 73 90.14 73 134 C48.91 134 24.82 134 0 134 C0 89.78 0 45.56 0 0 Z " fill="#FDFDFD" transform="translate(0,14)"/>
<path d="M0 0 C25.74 0 51.48 0 78 0 C78 3.96 78 7.92 78 12 C78.99 12 79.98 12 81 12 C81 12.99 81 13.98 81 15 C147.33 15 213.66 15 282 15 C282 16.32 282 17.64 282 19 C321.6 19 361.2 19 402 19 C402 17.68 402 16.36 402 15 C468 15 534 15 602 15 C602 14.01 602 13.02 602 12 C602.99 12 603.98 12 605 12 C605 8.04 605 4.08 605 0 C611.27 0 617.54 0 624 0 C624 44.55 624 89.1 624 135 C622.35 135 620.7 135 619 135 C618.67 94.74 618.34 54.48 618 13 C614.04 13 610.08 13 606 13 C606.00523682 14.78204834 606.01047363 16.56409668 606.01586914 18.40014648 C606.03196742 24.27546682 606.04347258 30.15078638 606.05181217 36.02612209 C606.05703995 39.58977422 606.06413569 43.15340257 606.07543945 46.71704102 C606.08834176 50.81006097 606.09322906 54.9030558 606.09765625 58.99609375 C606.10281754 60.28148544 606.10797882 61.56687714 606.11329651 62.89122009 C606.11337204 64.07236893 606.11344757 65.25351776 606.11352539 66.47045898 C606.115746 67.51636703 606.11796661 68.56227509 606.12025452 69.63987732 C606 72 606 72 605 73 C603.11300732 73.09763161 601.22230217 73.12371339 599.33278561 73.12304783 C597.47489089 73.1260344 597.47489089 73.1260344 595.57946295 73.12908131 C594.18716599 73.12622772 592.79486922 73.12328211 591.40257263 73.12025452 C589.93740526 73.12069009 588.47223796 73.12156474 587.00707108 73.12284368 C582.96176187 73.12509139 578.91647889 73.12106362 574.87117302 73.11606562 C570.51600335 73.11176523 566.16083526 73.11320725 561.80566406 73.1139679 C554.25367823 73.11449339 546.701701 73.11134391 539.14971733 73.10573006 C528.23068593 73.09761853 517.31165871 73.09500019 506.39262462 73.09374207 C488.67914648 73.091551 470.96567292 73.08488943 453.25219727 73.07543945 C436.04060896 73.06626675 418.8290219 73.05918522 401.61743164 73.05493164 C400.55731093 73.05466892 399.49719023 73.05440619 398.40494465 73.05413551 C393.08687 73.05283051 387.76879534 73.0515668 382.45072067 73.05032361 C338.30047726 73.03994929 294.15023887 73.02232949 250 73 C250.33 75.31 250.66 77.62 251 80 C249.35 79.67 247.7 79.34 246 79 C246.33 77.68 246.66 76.36 247 75 C245.68 75 244.36 75 243 75 C243.33 76.65 243.66 78.3 244 80 C242.35 80 240.7 80 239 80 C238.4375 78.0625 238.4375 78.0625 238 76 C238.33 75.67 238.66 75.34 239 75 C231.08 75 223.16 75 215 75 C215.66 75.66 216.32 76.32 217 77 C218.32 77 219.64 77 221 77 C225.66666667 77 230.33333333 77 235 77 C235 78.32 235 79.64 235 81 C231.18751574 81.02887236 227.3750593 81.04675492 223.5625 81.0625 C222.47388672 81.07087891 221.38527344 81.07925781 220.26367188 81.08789062 C219.22919922 81.09111328 218.19472656 81.09433594 217.12890625 81.09765625 C216.17056885 81.10289307 215.21223145 81.10812988 214.22485352 81.11352539 C212 81 212 81 211 80 C211 78.02 211 76.04 211 74 C170.74 74.33 130.48 74.66 89 75 C89 76.98 89 78.96 89 81 C87.35 81.33 85.7 81.66 84 82 C88.95 82 93.9 82 99 82 C98.34 81.67 97.68 81.34 97 81 C97 80.34 97 79.68 97 79 C97.99 79 98.98 79 100 79 C100 78.01 100 77.02 100 76 C102.62506802 75.97309156 105.24986173 75.95320596 107.875 75.9375 C108.62136719 75.92912109 109.36773437 75.92074219 110.13671875 75.91210938 C115.7734375 75.88671875 115.7734375 75.88671875 118 77 C118 77.99 118 78.98 118 80 C119.65 80 121.3 80 123 80 C123 80.66 123 81.32 123 82 C361.59 82.495 361.59 82.495 605 83 C605 83.33 605 83.66 605 84 C535.04 84 465.08 84 393 84 C393 85.32 393 86.64 393 88 C461.97 88 530.94 88 602 88 C602.33 87.01 602.66 86.02 603 85 C603 85.99 603 86.98 603 88 C603.66 88 604.32 88 605 88 C605 88.66 605 89.32 605 90 C431.09 90 257.18 90 78 90 C78 104.85 78 119.7 78 135 C76.35 135 74.7 135 73 135 C73 92.43 73 49.86 73 6 C74.32 6 75.64 6 77 6 C77 5.34 77 4.68 77 4 C76.01 3.67 75.02 3.34 74 3 C74.99 3 75.98 3 77 3 C77 2.34 77 1.68 77 1 C51.59 1 26.18 1 0 1 C0 0.67 0 0.34 0 0 Z M79 23 C78.67 39.17 78.34 55.34 78 72 C251.91 72 425.82 72 605 72 C605 55.83 605 39.66 605 23 C431.42 23 257.84 23 79 23 Z " fill="#EFF0F0" transform="translate(0,13)"/>
<path d="M0 0 C205.92 0 411.84 0 624 0 C624 4.29 624 8.58 624 13 C418.08 13 212.16 13 0 13 C0 8.71 0 4.42 0 0 Z " fill="#232F3E" transform="translate(0,0)"/>
<path d="M0 0 C0 3.96 0 7.92 0 12 C-161.04 11.67 -322.08 11.34 -488 11 C-488 10.67 -488 10.34 -488 10 C-486.35 10 -484.7 10 -483 10 C-483 9.34 -483 8.68 -483 8 C-483.66 8.33 -484.32 8.66 -485 9 C-486.52148326 9.08372659 -488.04655778 9.10730027 -489.5703125 9.09765625 C-490.46621094 9.09443359 -491.36210937 9.09121094 -492.28515625 9.08789062 C-493.22230469 9.07951172 -494.15945313 9.07113281 -495.125 9.0625 C-496.54232422 9.05573242 -496.54232422 9.05573242 -497.98828125 9.04882812 C-500.32558387 9.03702357 -502.66276061 9.02055759 -505 9 C-505 8.67 -505 8.34 -505 8 C-499.39 8 -493.78 8 -488 8 C-488 7.01 -488 6.02 -488 5 C-489.04800781 5.01160156 -490.09601563 5.02320312 -491.17578125 5.03515625 C-492.55468572 5.04453655 -493.93359211 5.0536365 -495.3125 5.0625 C-496.00279297 5.07087891 -496.69308594 5.07925781 -497.40429688 5.08789062 C-500.5483025 5.10307906 -502.99420019 5.00193327 -506 4 C-506 4.99 -506 5.98 -506 7 C-506.99 7 -507.98 7 -509 7 C-509 7.66 -509 8.32 -509 9 C-507.68 9.66 -506.36 10.32 -505 11 C-512.26 11 -519.52 11 -527 11 C-527 10.67 -527 10.34 -527 10 C-523.7 9.67 -520.4 9.34 -517 9 C-517 7.02 -517 5.04 -517 3 C-518.65 3 -520.3 3 -522 3 C-522 2.67 -522 2.34 -522 2 C-480.09 2 -438.18 2 -395 2 C-394.67 3.98 -394.34 5.96 -394 8 C-393.37432129 7.99476318 -392.74864258 7.98952637 -392.10400391 7.98413086 C-389.27767943 7.96338382 -386.45137095 7.95034714 -383.625 7.9375 C-382.14773438 7.92493164 -382.14773438 7.92493164 -380.640625 7.91210938 C-379.22910156 7.90727539 -379.22910156 7.90727539 -377.7890625 7.90234375 C-376.48509521 7.89448853 -376.48509521 7.89448853 -375.15478516 7.88647461 C-373 8 -373 8 -371 9 C-371 7.68 -371 6.36 -371 5 C-372.46373047 5.14308594 -372.46373047 5.14308594 -373.95703125 5.2890625 C-375.22933594 5.39992188 -376.50164062 5.51078125 -377.8125 5.625 C-379.07707031 5.74101563 -380.34164062 5.85703125 -381.64453125 5.9765625 C-385 6 -385 6 -388 4 C-388.33 4.99 -388.66 5.98 -389 7 C-389.99 5.515 -389.99 5.515 -391 4 C-391.99 3.34 -392.98 2.68 -394 2 C-384.76 2 -375.52 2 -366 2 C-366.33 3.65 -366.66 5.3 -367 7 C-365.68 7 -364.36 7 -363 7 C-363.33 5.35 -363.66 3.7 -364 2 C-362.02 2 -360.04 2 -358 2 C-358.33 3.65 -358.66 5.3 -359 7 C-357.02 7.495 -357.02 7.495 -355 8 C-355.33 5.69 -355.66 3.38 -356 1 C-310.79211984 0.87258945 -265.58423964 0.74519364 -220.37635938 0.61781773 C-215.0450957 0.60279656 -209.71383203 0.58777527 -204.38256836 0.57275391 C-203.32116243 0.56976329 -202.25975649 0.56677268 -201.16618674 0.56369144 C-183.95620212 0.51520033 -166.74621754 0.46669928 -149.53623296 0.41819459 C-131.89108453 0.36846365 -114.24593607 0.31874333 -96.60078758 0.26903296 C-85.70353668 0.2383326 -74.80628581 0.20762386 -63.90903496 0.17690456 C-56.4470985 0.15587019 -48.98516201 0.13484608 -41.52322549 0.11383021 C-37.21130922 0.10168578 -32.89939296 0.08953666 -28.58747673 0.07737541 C-24.64664049 0.06626085 -20.70580422 0.05515906 -16.76496791 0.0440678 C-15.33292727 0.04003508 -13.90088664 0.03599751 -12.46884603 0.03195482 C-10.53496885 0.02649612 -8.60109163 0.02105616 -6.66721439 0.01561737 C-5.58918838 0.01257961 -4.51116236 0.00954185 -3.40046889 0.00641203 C-1 0 -1 0 0 0 Z " fill="#F2FAFD" transform="translate(606,85)"/>
<path d="M0 0 C25.74 0 51.48 0 78 0 C78 3.96 78 7.92 78 12 C78.99 12.33 79.98 12.66 81 13 C80.01 13 79.02 13 78 13 C78 32.47 78 51.94 78 72 C251.91 72 425.82 72 605 72 C605 72.33 605 72.66 605 73 C487.85 73 370.7 73 250 73 C250.33 75.31 250.66 77.62 251 80 C249.35 79.67 247.7 79.34 246 79 C246.33 77.68 246.66 76.36 247 75 C245.68 75 244.36 75 243 75 C243.33 76.65 243.66 78.3 244 80 C242.35 80 240.7 80 239 80 C238.4375 78.0625 238.4375 78.0625 238 76 C238.33 75.67 238.66 75.34 239 75 C231.08 75 223.16 75 215 75 C215.66 75.66 216.32 76.32 217 77 C218.32 77 219.64 77 221 77 C225.66666667 77 230.33333333 77 235 77 C235 78.32 235 79.64 235 81 C231.18751574 81.02887236 227.3750593 81.04675492 223.5625 81.0625 C222.47388672 81.07087891 221.38527344 81.07925781 220.26367188 81.08789062 C219.22919922 81.09111328 218.19472656 81.09433594 217.12890625 81.09765625 C216.17056885 81.10289307 215.21223145 81.10812988 214.22485352 81.11352539 C212 81 212 81 211 80 C211 78.02 211 76.04 211 74 C170.74 74.33 130.48 74.66 89 75 C89 76.98 89 78.96 89 81 C87.35 81.33 85.7 81.66 84 82 C88.95 82 93.9 82 99 82 C98.34 81.67 97.68 81.34 97 81 C97 80.34 97 79.68 97 79 C97.99 79 98.98 79 100 79 C100 78.01 100 77.02 100 76 C102.62506802 75.97309156 105.24986173 75.95320596 107.875 75.9375 C108.62136719 75.92912109 109.36773437 75.92074219 110.13671875 75.91210938 C115.7734375 75.88671875 115.7734375 75.88671875 118 77 C118 77.99 118 78.98 118 80 C119.65 80 121.3 80 123 80 C123 80.66 123 81.32 123 82 C361.59 82.495 361.59 82.495 605 83 C605 83.33 605 83.66 605 84 C535.04 84 465.08 84 393 84 C393 85.32 393 86.64 393 88 C461.97 88 530.94 88 602 88 C602.33 87.01 602.66 86.02 603 85 C603 85.99 603 86.98 603 88 C603.66 88 604.32 88 605 88 C605 88.66 605 89.32 605 90 C431.09 90 257.18 90 78 90 C78 104.85 78 119.7 78 135 C76.35 135 74.7 135 73 135 C73 92.43 73 49.86 73 6 C74.32 6 75.64 6 77 6 C77 5.34 77 4.68 77 4 C76.01 3.67 75.02 3.34 74 3 C74.99 3 75.98 3 77 3 C77 2.34 77 1.68 77 1 C51.59 1 26.18 1 0 1 C0 0.67 0 0.34 0 0 Z " fill="#D3D5D5" transform="translate(0,13)"/>
<path d="M0 0 C135.63 0 271.26 0 411 0 C411 0.66 411 1.32 411 2 C409.865625 2.144375 408.73125 2.28875 407.5625 2.4375 C404.19222799 2.61171478 404.19222799 2.61171478 403 4 C401.21928754 4.08726223 399.4351686 4.10699041 397.65234375 4.09765625 C396.57275391 4.09443359 395.49316406 4.09121094 394.38085938 4.08789062 C393.24455078 4.07951172 392.10824219 4.07113281 390.9375 4.0625 C389.79732422 4.05798828 388.65714844 4.05347656 387.48242188 4.04882812 C384.65489649 4.03699747 381.8274736 4.0205141 379 4 C379.33 4.66 379.66 5.32 380 6 C382.88265149 6.96088383 384.67662271 7.11670941 387.66796875 7.09765625 C388.56064453 7.09443359 389.45332031 7.09121094 390.37304688 7.08789062 C391.30181641 7.07951172 392.23058594 7.07113281 393.1875 7.0625 C394.12787109 7.05798828 395.06824219 7.05347656 396.03710938 7.04882812 C398.35813712 7.03704626 400.67903644 7.02059558 403 7 C403 7.66 403 8.32 403 9 C403.66 9.33 404.32 9.66 405 10 C271.02 10 137.04 10 -1 10 C-0.67 6.7 -0.34 3.4 0 0 Z " fill="#FCFCFC" transform="translate(79,75)"/>
<path d="M0 0 C68.97 0 137.94 0 209 0 C209 2.64 209 5.28 209 8 C140.03 8 71.06 8 0 8 C0 5.36 0 2.72 0 0 Z " fill="#FCFCFD" transform="translate(85,53)"/>
<path d="M0 0 C41.91 0 83.82 0 127 0 C127.33 1.98 127.66 3.96 128 6 C128.62567871 5.99476318 129.25135742 5.98952637 129.89599609 5.98413086 C132.72232057 5.96338382 135.54862905 5.95034714 138.375 5.9375 C139.85226563 5.92493164 139.85226563 5.92493164 141.359375 5.91210938 C142.77089844 5.90727539 142.77089844 5.90727539 144.2109375 5.90234375 C145.51490479 5.89448853 145.51490479 5.89448853 146.84521484 5.88647461 C149 6 149 6 151 7 C151 5.68 151 4.36 151 3 C149.53626953 3.14308594 149.53626953 3.14308594 148.04296875 3.2890625 C146.77066406 3.39992188 145.49835938 3.51078125 144.1875 3.625 C142.92292969 3.74101563 141.65835938 3.85703125 140.35546875 3.9765625 C137 4 137 4 134 2 C133.67 2.99 133.34 3.98 133 5 C132.01 3.515 132.01 3.515 131 2 C130.01 1.34 129.02 0.68 128 0 C137.24 0 146.48 0 156 0 C155.67 1.65 155.34 3.3 155 5 C156.32 5 157.64 5 159 5 C158.67 3.35 158.34 1.7 158 0 C159.98 0 161.96 0 164 0 C163.67 1.65 163.34 3.3 163 5 C164.98 5.495 164.98 5.495 167 6 C166.67 4.02 166.34 2.04 166 0 C188.11 0 210.22 0 233 0 C231.68 0.66 230.36 1.32 229 2 C229 3.32 229 4.64 229 6 C229.61617187 5.82855469 230.23234375 5.65710938 230.8671875 5.48046875 C235.32467596 4.79683897 239.63357522 5.07729626 244.125 5.3125 C245.48431641 5.36567383 245.48431641 5.36567383 246.87109375 5.41992188 C247.74121094 5.46310547 248.61132812 5.50628906 249.5078125 5.55078125 C250.29816895 5.58856689 251.08852539 5.62635254 251.90283203 5.6652832 C254 6 254 6 257 8 C185.06 8 113.12 8 39 8 C39 7.34 39 6.68 39 6 C38.34 6.33 37.68 6.66 37 7 C35.47851674 7.08372659 33.95344222 7.10730027 32.4296875 7.09765625 C31.53378906 7.09443359 30.63789062 7.09121094 29.71484375 7.08789062 C28.77769531 7.07951172 27.84054688 7.07113281 26.875 7.0625 C25.93011719 7.05798828 24.98523438 7.05347656 24.01171875 7.04882812 C21.67441613 7.03702357 19.33723939 7.02055759 17 7 C17 6.67 17 6.34 17 6 C22.61 6 28.22 6 34 6 C34 5.01 34 4.02 34 3 C32.95199219 3.01160156 31.90398437 3.02320312 30.82421875 3.03515625 C29.44531428 3.04453655 28.06640789 3.0536365 26.6875 3.0625 C25.99720703 3.07087891 25.30691406 3.07925781 24.59570312 3.08789062 C21.4516975 3.10307906 19.00579981 3.00193327 16 2 C16 2.99 16 3.98 16 5 C15.01 5 14.02 5 13 5 C13 5.66 13 6.32 13 7 C14.32 7.66 15.64 8.32 17 9 C9.74 9 2.48 9 -5 9 C-5 8.67 -5 8.34 -5 8 C-1.7 7.67 1.6 7.34 5 7 C5 5.02 5 3.04 5 1 C3.35 1 1.7 1 0 1 C0 0.67 0 0.34 0 0 Z " fill="#F1F9FC" transform="translate(84,87)"/>
<path d="M0 0 C39.6 0 79.2 0 120 0 C120 1.65 120 3.3 120 5 C186 5 252 5 320 5 C320 5.33 320 5.66 320 6 C254 6 188 6 120 6 C120 7.32 120 8.64 120 10 C80.4 10 40.8 10 0 10 C0 8.68 0 7.36 0 6 C-66.33 6 -132.66 6 -201 6 C-200.67 5.01 -200.34 4.02 -200 3 C-200 3.66 -200 4.32 -200 5 C-134 5 -68 5 0 5 C0 3.35 0 1.7 0 0 Z " fill="#43663F" transform="translate(282,22)"/>
<path d="M0 0 C0.33 0 0.66 0 1 0 C1 42.9 1 85.8 1 130 C-3.29 130 -7.58 130 -12 130 C-12 89.74 -12 49.48 -12 8 C-8.04 8 -4.08 8 0 8 C0 5.36 0 2.72 0 0 Z " fill="#FDFDFD" transform="translate(618,18)"/>
<path d="M0 0 C57.42 0 114.84 0 174 0 C174 2.97 174 5.94 174 9 C116.58 9 59.16 9 0 9 C0 6.03 0 3.06 0 0 Z " fill="#16191F" transform="translate(56,2)"/>
<path d="M0 0 C173.91 0 347.82 0 527 0 C527 0.33 527 0.66 527 1 C409.85 1 292.7 1 172 1 C172.33 3.31 172.66 5.62 173 8 C171.35 7.67 169.7 7.34 168 7 C168.33 5.68 168.66 4.36 169 3 C167.68 3 166.36 3 165 3 C165.33 4.65 165.66 6.3 166 8 C164.35 8 162.7 8 161 8 C160.4375 6.0625 160.4375 6.0625 160 4 C160.33 3.67 160.66 3.34 161 3 C153.08 3 145.16 3 137 3 C137.99 3.99 137.99 3.99 139 5 C140.32 5 141.64 5 143 5 C147.66666667 5 152.33333333 5 157 5 C157 6.32 157 7.64 157 9 C153.18751574 9.02887236 149.3750593 9.04675492 145.5625 9.0625 C144.47388672 9.07087891 143.38527344 9.07925781 142.26367188 9.08789062 C141.22919922 9.09111328 140.19472656 9.09433594 139.12890625 9.09765625 C137.69140015 9.10551147 137.69140015 9.10551147 136.22485352 9.11352539 C134 9 134 9 133 8 C133 6.02 133 4.04 133 2 C92.74 2.33 52.48 2.66 11 3 C11 4.98 11 6.96 11 9 C9.35 9.33 7.7 9.66 6 10 C10.95 10 15.9 10 21 10 C20.34 9.67 19.68 9.34 19 9 C19 8.34 19 7.68 19 7 C19.99 7 20.98 7 22 7 C22 6.01 22 5.02 22 4 C24.62506802 3.97309156 27.24986173 3.95320596 29.875 3.9375 C30.62136719 3.92912109 31.36773437 3.92074219 32.13671875 3.91210938 C37.7734375 3.88671875 37.7734375 3.88671875 40 5 C40 5.99 40 6.98 40 8 C41.65 8 43.3 8 45 8 C45 8.66 45 9.32 45 10 C283.59 10.495 283.59 10.495 527 11 C527 11.33 527 11.66 527 12 C353.09 12 179.18 12 0 12 C0 8.04 0 4.08 0 0 Z " fill="#B5D5EA" transform="translate(78,85)"/>
<path d="M0 0 C0.33 0.66 0.66 1.32 1 2 C-69.95 2 -140.9 2 -214 2 C-214 4.64 -214 7.28 -214 10 C-143.05 10 -72.1 10 1 10 C0.67 10.66 0.34 11.32 0 12 C-160.71 11.67 -321.42 11.34 -487 11 C-487 10.67 -487 10.34 -487 10 C-414.4 9.67 -341.8 9.34 -267 9 C-279.61969016 7.79124677 -279.61969016 7.79124677 -292 9 C-292.38218767 7.34385343 -292.71395102 5.67542976 -293 4 C-292.67 3.67 -292.34 3.34 -292 3 C-312.79 2.67 -333.58 2.34 -355 2 C-355 1.67 -355 1.34 -355 1 C-179.275 0.505 -179.275 0.505 0 0 Z " fill="#DDEEF9" transform="translate(605,85)"/>
<path d="M0 0 C46.20214284 -0.09659231 92.40090904 0.16241499 138.60200536 0.44538212 C148.70941936 0.50721674 158.81684499 0.56704303 168.9242717 0.62675762 C189.61619412 0.74904742 210.30810182 0.87367971 231 1 C231 4.63 231 8.26 231 12 C207.12503329 12.17154707 183.25003403 12.33809224 159.375 12.5 C158.49874922 12.50594854 157.62249845 12.51189708 156.71969461 12.51802588 C69.99967555 13.10615044 69.99967555 13.10615044 29.4375 13.0625 C28.63576103 13.06164398 27.83402206 13.06078796 27.00798798 13.05990601 C18.00529428 13.04949784 9.00265123 13.03018998 0 13 C0 8.71 0 4.42 0 0 Z M56 2 C56 4.97 56 7.94 56 11 C113.42 11 170.84 11 230 11 C230 8.03 230 5.06 230 2 C172.58 2 115.16 2 56 2 Z " fill="#2E3946" transform="translate(0,0)"/>
<path d="M0 0 C101.64 0 203.28 0 308 0 C308 0.99 308 1.98 308 3 C206.36 3 104.72 3 0 3 C0 2.01 0 1.02 0 0 Z " fill="#C1C0C0" transform="translate(84,98)"/>
<path d="M0 0 C11.96073154 -0.06939946 23.92141546 -0.12276002 35.88230705 -0.15543652 C41.43577034 -0.17111672 46.98909626 -0.19239788 52.54248047 -0.22631836 C57.89816774 -0.25882792 63.25372259 -0.27683526 68.60950089 -0.28463173 C70.65652681 -0.29019038 72.70354519 -0.30104452 74.75051498 -0.31719017 C77.60971702 -0.33885281 80.46836632 -0.34197163 83.32763672 -0.34057617 C84.18071411 -0.351362 85.0337915 -0.36214783 85.91271973 -0.3732605 C88.26681519 -0.36076355 88.26681519 -0.36076355 92 0 C92.99 1.485 92.99 1.485 94 3 C94.9590625 2.7215625 94.9590625 2.7215625 95.9375 2.4375 C100.07334611 1.84666484 103.8851173 2.41728241 108 3 C107.125 6.875 107.125 6.875 106 8 C103.91380978 8.09417773 101.82439523 8.11742878 99.73608398 8.11352539 C98.7556311 8.11374443 98.7556311 8.11374443 97.75537109 8.1139679 C95.58557872 8.11326883 93.41587121 8.10547678 91.24609375 8.09765625 C89.74536689 8.09579205 88.24463943 8.09436816 86.74391174 8.09336853 C82.78681774 8.08954352 78.82976022 8.0797134 74.87268066 8.06866455 C70.83765151 8.05845006 66.80261647 8.05387083 62.76757812 8.04882812 C54.84503531 8.03809111 46.92252219 8.0210149 39 8 C39 7.34 39 6.68 39 6 C38.34 6.33 37.68 6.66 37 7 C35.47851674 7.08372659 33.95344222 7.10730027 32.4296875 7.09765625 C31.53378906 7.09443359 30.63789062 7.09121094 29.71484375 7.08789062 C28.77769531 7.07951172 27.84054688 7.07113281 26.875 7.0625 C25.93011719 7.05798828 24.98523438 7.05347656 24.01171875 7.04882812 C21.67441613 7.03702357 19.33723939 7.02055759 17 7 C17 6.67 17 6.34 17 6 C22.61 6 28.22 6 34 6 C34 5.01 34 4.02 34 3 C32.95199219 3.01160156 31.90398437 3.02320312 30.82421875 3.03515625 C29.44531428 3.04453655 28.06640789 3.0536365 26.6875 3.0625 C25.99720703 3.07087891 25.30691406 3.07925781 24.59570312 3.08789062 C21.4516975 3.10307906 19.00579981 3.00193327 16 2 C16 2.99 16 3.98 16 5 C15.01 5 14.02 5 13 5 C13 5.66 13 6.32 13 7 C14.32 7.66 15.64 8.32 17 9 C9.74 9 2.48 9 -5 9 C-5 8.67 -5 8.34 -5 8 C-1.7 7.67 1.6 7.34 5 7 C5 5.02 5 3.04 5 1 C3.35 1 1.7 1 0 1 C0 0.67 0 0.34 0 0 Z " fill="#F1F9FD" transform="translate(84,87)"/>
<path d="M0 0 C6.99258648 -0.02541962 13.98516097 -0.04289615 20.9777832 -0.05493164 C23.35506638 -0.05995076 25.73234648 -0.06676746 28.10961914 -0.07543945 C31.53272257 -0.08761112 34.95578507 -0.09325262 38.37890625 -0.09765625 C39.9652462 -0.10539818 39.9652462 -0.10539818 41.58363342 -0.11329651 C46.82480903 -0.11369218 51.84819722 -0.01067044 57 1 C57.495 1.495 57.495 1.495 58 2 C60.32817964 2.36760731 62.6618385 2.70241581 65 3 C65 3.66 65 4.32 65 5 C64.34 5 63.68 5 63 5 C63 5.66 63 6.32 63 7 C48.81644454 9.64334428 35.0814335 10.41961034 20.66601562 10.28125 C17.31629559 10.24944257 13.96704522 10.24019915 10.6171875 10.234375 C8.48176502 10.22522733 6.34634734 10.21485882 4.2109375 10.203125 C3.21218597 10.19887512 2.21343445 10.19462524 1.18441772 10.19024658 C-0.1900502 10.17583527 -0.1900502 10.17583527 -1.59228516 10.16113281 C-2.39799957 10.15430481 -3.20371399 10.14747681 -4.03384399 10.14044189 C-6 10 -6 10 -8 9 C-8 8.34 -8 7.68 -8 7 C-8.99 7.33 -9.98 7.66 -11 8 C-13.8243887 8.12255168 -16.61326762 8.18512869 -19.4375 8.1875 C-20.20126953 8.19974609 -20.96503906 8.21199219 -21.75195312 8.22460938 C-28.67585851 8.24268746 -28.67585851 8.24268746 -32 6 C-32 5.34 -32 4.68 -32 4 C-31.27820557 3.97494385 -30.55641113 3.9498877 -29.81274414 3.92407227 C-26.562465 3.80848698 -23.31250312 3.68559226 -20.0625 3.5625 C-18.92619141 3.52318359 -17.78988281 3.48386719 -16.61914062 3.44335938 C-14.99975586 3.38051758 -14.99975586 3.38051758 -13.34765625 3.31640625 C-12.34742432 3.27974854 -11.34719238 3.24309082 -10.31665039 3.20532227 C-8.03930812 3.25328159 -8.03930812 3.25328159 -7 2 C-4.66702567 1.95907063 -2.33294775 1.95758277 0 2 C0 1.34 0 0.68 0 0 Z " fill="#FCF5F5" transform="translate(490,75)"/>
<path d="M0 0 C39.6 0 79.2 0 120 0 C120 1.65 120 3.3 120 5 C186 5 252 5 320 5 C320 5.33 320 5.66 320 6 C253.67 6 187.34 6 119 6 C119 6.99 119 7.98 119 9 C111.41 9 103.82 9 96 9 C97.32 8.67 98.64 8.34 100 8 C100 6.68 100 5.36 100 4 C99.01 4 98.02 4 97 4 C96.67 4.99 96.34 5.98 96 7 C95.01 5.02 95.01 5.02 94 3 C93.01 3.33 92.02 3.66 91 4 C91.495 6.475 91.495 6.475 92 9 C88.37 9 84.74 9 81 9 C81.33 8.34 81.66 7.68 82 7 C83.65 7 85.3 7 87 7 C86.24849977 3.72226496 86.24849977 3.72226496 83 2 C80.32854463 2.80161791 80.32854463 2.80161791 78 4 C78.495 6.475 78.495 6.475 79 9 C75.37 9 71.74 9 68 9 C68.33 8.34 68.66 7.68 69 7 C70.65 7.33 72.3 7.66 74 8 C73.505 5.03 73.505 5.03 73 2 C70.69 1.67 68.38 1.34 66 1 C64.98459888 5.10223585 64.98459888 5.10223585 66 9 C62.37 9 58.74 9 55 9 C55.66 8.34 56.32 7.68 57 7 C57.99 7 58.98 7 60 7 C60 6.01 60 5.02 60 4 C59.01 4 58.02 4 57 4 C56.67 4.66 56.34 5.32 56 6 C55.505 4.02 55.505 4.02 55 2 C36.85 1.67 18.7 1.34 0 1 C0 0.67 0 0.34 0 0 Z " fill="#40613D" transform="translate(282,22)"/>
<path d="M0 0 C21.45 0 42.9 0 65 0 C65 3.3 65 6.6 65 10 C41.24 10 17.48 10 -7 10 C-7 9.67 -7 9.34 -7 9 C-0.4 8.34 6.2 7.68 13 7 C13 6.34 13 5.68 13 5 C13.66 5 14.32 5 15 5 C15 4.34 15 3.68 15 3 C13.865625 3.020625 12.73125 3.04125 11.5625 3.0625 C8 3 8 3 7 2 C4.67182036 1.63239269 2.3381615 1.29758419 0 1 C0 0.67 0 0.34 0 0 Z " fill="#FEFDFD" transform="translate(540,75)"/>
<path d="M0 0 C7.10245508 -0.02464156 14.20488551 -0.042832 21.30737305 -0.05493164 C23.72567172 -0.05997349 26.14396733 -0.06680678 28.56225586 -0.07543945 C32.02979283 -0.08751157 35.49728966 -0.09322963 38.96484375 -0.09765625 C40.05337143 -0.10281754 41.14189911 -0.10797882 42.26341248 -0.11329651 C43.76485558 -0.11340981 43.76485558 -0.11340981 45.29663086 -0.11352539 C46.62566689 -0.11685631 46.62566689 -0.11685631 47.98155212 -0.12025452 C50 0 50 0 51 1 C51.0979057 2.49738124 51.12974864 3.99942892 51.125 5.5 C51.12886719 6.72203125 51.12886719 6.72203125 51.1328125 7.96875 C51 10 51 10 50 11 C48.43452952 11.09326716 46.86487228 11.11745582 45.29663086 11.11352539 C44.29566879 11.11344986 43.29470673 11.11337433 42.26341248 11.11329651 C41.1748848 11.10813522 40.08635712 11.10297394 38.96484375 11.09765625 C37.85645645 11.0962413 36.74806915 11.09482635 35.60609436 11.09336853 C32.04986931 11.08775033 28.49370617 11.07519475 24.9375 11.0625 C22.53320403 11.05748734 20.12890708 11.05292403 17.72460938 11.04882812 C11.81638223 11.03777499 5.90820163 11.02049816 0 11 C0 7.37 0 3.74 0 0 Z " fill="#E6E7E8" transform="translate(446,38)"/>
<path d="M0 0 C20.13 0 40.26 0 61 0 C61 2.97 61 5.94 61 9 C40.87 9 20.74 9 0 9 C0 6.03 0 3.06 0 0 Z " fill="#FEA21A" transform="translate(538,39)"/>
<path d="M0 0 C1.32 0 2.64 0 4 0 C4 42.57 4 85.14 4 129 C2.68 129 1.36 129 0 129 C0 86.43 0 43.86 0 0 Z " fill="#C2C2C2" transform="translate(619,19)"/>
<path d="M0 0 C1.32 0 2.64 0 4 0 C4 42.57 4 85.14 4 129 C2.68 129 1.36 129 0 129 C0 86.43 0 43.86 0 0 Z " fill="#C2C2C2" transform="translate(73,19)"/>
<path d="M0 0 C5.25105442 -0.02464928 10.50207545 -0.04283568 15.75317383 -0.05493164 C17.54094021 -0.05997218 19.32870245 -0.06680454 21.11645508 -0.07543945 C23.68051168 -0.0875173 26.24451397 -0.09323094 28.80859375 -0.09765625 C29.6127623 -0.10281754 30.41693085 -0.10797882 31.24546814 -0.11329651 C33.16401715 -0.11349215 35.08245368 -0.06201983 37 0 C38.89885096 1.89885096 38.12367506 4.57247903 38.1328125 7.08984375 C38 9 38 9 37 11 C31.89136104 11.0246501 26.78275641 11.04283607 21.67407227 11.05493164 C19.93480832 11.05997204 18.19554864 11.0668043 16.45629883 11.07543945 C13.96174063 11.08751792 11.46723827 11.09323108 8.97265625 11.09765625 C8.19036148 11.10281754 7.40806671 11.10797882 6.60206604 11.11329651 C4.73432886 11.11349226 2.86670796 11.06199694 1 11 C0 10 0 10 -0.09765625 7.71484375 C-0.08605469 6.79832031 -0.07445312 5.88179687 -0.0625 4.9375 C-0.05347656 4.01839844 -0.04445313 3.09929688 -0.03515625 2.15234375 C-0.02355469 1.44207031 -0.01195312 0.73179688 0 0 Z " fill="#E5E6E7" transform="translate(499,38)"/>
<path d="M0 0 C57.42 0 114.84 0 174 0 C174 2.97 174 5.94 174 9 C172.02 9 170.04 9 168 9 C167.67 8.34 167.34 7.68 167 7 C163.7 7 160.4 7 157 7 C157 5.35 157 3.7 157 2 C113.11 2 69.22 2 24 2 C24 3.32 24 4.64 24 6 C19.91556885 7.53166168 16.20544343 6.63081652 12 6 C11.67 5.01 11.34 4.02 11 3 C11.33 2.34 11.66 1.68 12 1 C10.02 1.33 8.04 1.66 6 2 C6.66 3.98 7.32 5.96 8 8 C7 9 7 9 3.4375 9.0625 C2.303125 9.041875 1.16875 9.02125 0 9 C0 6.03 0 3.06 0 0 Z " fill="#1B1F24" transform="translate(56,2)"/>
<path d="M0 0 C0.68429077 -0.00095673 1.36858154 -0.00191345 2.0736084 -0.00289917 C3.52286877 -0.0035808 4.97213218 -0.00172773 6.42138672 0.00244141 C8.64687928 0.00778998 10.87217001 0.0024959 13.09765625 -0.00390625 C14.50260461 -0.00324547 15.90755285 -0.0019643 17.3125 0 C18.59962891 0.00112793 19.88675781 0.00225586 21.21289062 0.00341797 C24.15625 0.1328125 24.15625 0.1328125 25.15625 1.1328125 C25.2541557 2.63019374 25.28599864 4.13224142 25.28125 5.6328125 C25.28511719 6.85484375 25.28511719 6.85484375 25.2890625 8.1015625 C25.15625 10.1328125 25.15625 10.1328125 24.15625 11.1328125 C21.87677208 11.2330218 19.59417865 11.26362553 17.3125 11.265625 C16.62820923 11.26658173 15.94391846 11.26753845 15.2388916 11.26852417 C13.78963123 11.2692058 12.34036782 11.26735273 10.89111328 11.26318359 C8.66562072 11.25783502 6.44032999 11.2631291 4.21484375 11.26953125 C2.80989539 11.26887047 1.40494715 11.2675893 0 11.265625 C-1.28712891 11.26449707 -2.57425781 11.26336914 -3.90039062 11.26220703 C-6.84375 11.1328125 -6.84375 11.1328125 -7.84375 10.1328125 C-7.9416557 8.63543126 -7.97349864 7.13338358 -7.96875 5.6328125 C-7.97132813 4.818125 -7.97390625 4.0034375 -7.9765625 3.1640625 C-7.67868426 -1.39172232 -3.73099349 0.00326952 0 0 Z " fill="#F5F6F6" transform="translate(418.84375,37.8671875)"/>
<path d="M0 0 C6.27 0 12.54 0 19 0 C19 44.55 19 89.1 19 135 C18.67 135 18.34 135 18 135 C18 92.43 18 49.86 18 6 C16.68 6 15.36 6 14 6 C13.67 8.31 13.34 10.62 13 13 C8.05 13 3.1 13 -2 13 C-2.33 13.66 -2.66 14.32 -3 15 C-3 14.01 -3 13.02 -3 12 C-2.01 12 -1.02 12 0 12 C0 8.04 0 4.08 0 0 Z " fill="#E7E9E7" transform="translate(605,13)"/>
<path d="M0 0 C1.34888732 0.00015905 2.69778075 0.00584927 4.04663086 0.01586914 C5.10991859 0.01799156 5.10991859 0.01799156 6.19468689 0.02015686 C8.46699173 0.02577096 10.73919936 0.03832576 13.01147461 0.05102539 C14.54858257 0.05603858 16.08569206 0.0606018 17.62280273 0.06469727 C21.39823103 0.07574497 25.17358632 0.09301898 28.94897461 0.11352539 C28.94897461 3.41352539 28.94897461 6.71352539 28.94897461 10.11352539 C18.05897461 10.11352539 7.16897461 10.11352539 -4.05102539 10.11352539 C-4.05102539 0.15073432 -4.05102539 0.15073432 0 0 Z " fill="#ECECED" transform="translate(303.051025390625,51.886474609375)"/>
<path d="M0 0 C56.43 0 112.86 0 171 0 C171.33 2.31 171.66 4.62 172 7 C170.35 6.67 168.7 6.34 167 6 C167.33 4.68 167.66 3.36 168 2 C166.68 2 165.36 2 164 2 C164.33 3.65 164.66 5.3 165 7 C163.35 7 161.7 7 160 7 C159.4375 5.0625 159.4375 5.0625 159 3 C159.33 2.67 159.66 2.34 160 2 C152.08 2 144.16 2 136 2 C136.99 2.99 136.99 2.99 138 4 C139.32 4 140.64 4 142 4 C146.66666667 4 151.33333333 4 156 4 C156 5.32 156 6.64 156 8 C152.18751574 8.02887236 148.3750593 8.04675492 144.5625 8.0625 C143.47388672 8.07087891 142.38527344 8.07925781 141.26367188 8.08789062 C140.22919922 8.09111328 139.19472656 8.09433594 138.12890625 8.09765625 C136.69140015 8.10551147 136.69140015 8.10551147 135.22485352 8.11352539 C133 8 133 8 132 7 C132 5.02 132 3.04 132 1 C88.44 1 44.88 1 0 1 C0 0.67 0 0.34 0 0 Z " fill="#D9EDF8" transform="translate(79,86)"/>
<path d="M0 0 C5.19209404 -0.21192221 9.126739 0.4087311 14 2 C14.625 3.875 14.625 3.875 15 6 C14.34 6.66 13.68 7.32 13 8 C10.66666667 8 8.33333333 8 6 8 C5.0409375 8.495 5.0409375 8.495 4.0625 9 C0.72807589 10.61669048 -2.32304638 10.17791711 -6 10 C-6.66 9.67 -7.32 9.34 -8 9 C-8 8.34 -8 7.68 -8 7 C-8.99 7.33 -9.98 7.66 -11 8 C-13.8243887 8.12255168 -16.61326762 8.18512869 -19.4375 8.1875 C-20.20126953 8.19974609 -20.96503906 8.21199219 -21.75195312 8.22460938 C-28.67585851 8.24268746 -28.67585851 8.24268746 -32 6 C-32 5.34 -32 4.68 -32 4 C-31.27820557 3.97494385 -30.55641113 3.9498877 -29.81274414 3.92407227 C-26.562465 3.80848698 -23.31250312 3.68559226 -20.0625 3.5625 C-18.92619141 3.52318359 -17.78988281 3.48386719 -16.61914062 3.44335938 C-14.99975586 3.38051758 -14.99975586 3.38051758 -13.34765625 3.31640625 C-12.34742432 3.27974854 -11.34719238 3.24309082 -10.31665039 3.20532227 C-8.03930812 3.25328159 -8.03930812 3.25328159 -7 2 C-4.66702567 1.95907063 -2.33294775 1.95758277 0 2 C0 1.34 0 0.68 0 0 Z " fill="#E62626" transform="translate(490,75)"/>
<path d="M0 0 C8.33333333 0 16.66666667 0 25 0 C25 0.66 25 1.32 25 2 C31.27 2 37.54 2 44 2 C44 3.32 44 4.64 44 6 C39.31367437 7.19536461 34.77970671 7.12759836 29.98046875 7.09765625 C28.69261223 7.09553383 28.69261223 7.09553383 27.3787384 7.09336853 C24.64828951 7.08779057 21.91792393 7.07524214 19.1875 7.0625 C17.3313814 7.05748215 15.4752615 7.05291974 13.61914062 7.04882812 C9.0793952 7.03782836 4.5397117 7.02057893 0 7 C0 4.69 0 2.38 0 0 Z " fill="#FA9500" transform="translate(539,40)"/>
<path d="M0 0 C25.74 0 51.48 0 78 0 C78 3.96 78 7.92 78 12 C78.99 12.33 79.98 12.66 81 13 C80.01 13 79.02 13 78 13 C78 36.43 78 59.86 78 84 C79.65 84 81.3 84 83 84 C83 85.65 83 87.3 83 89 C81.35 89 79.7 89 78 89 C78 104.18 78 119.36 78 135 C77.67 135 77.34 135 77 135 C77 91.77 77 48.54 77 4 C76.01 3.67 75.02 3.34 74 3 C74.99 3 75.98 3 77 3 C77 2.34 77 1.68 77 1 C51.59 1 26.18 1 0 1 C0 0.67 0 0.34 0 0 Z " fill="#CDD0D0" transform="translate(0,13)"/>
<path d="M0 0 C39.6 0 79.2 0 120 0 C120 0.33 120 0.66 120 1 C118.90534424 1.01981934 117.81068848 1.03963867 116.68286133 1.06005859 C112.61052971 1.13629437 108.53854704 1.2249838 104.46655273 1.31738281 C102.70620629 1.35559841 100.94578374 1.39046413 99.18530273 1.421875 C96.65060275 1.46768714 94.11642336 1.52565417 91.58203125 1.5859375 C90.40674614 1.60326431 90.40674614 1.60326431 89.2077179 1.62094116 C85.0573424 1.73232389 81.73850886 2.14538725 78 4 C78.495 6.475 78.495 6.475 79 9 C75.37 9 71.74 9 68 9 C68.33 8.34 68.66 7.68 69 7 C70.65 7.33 72.3 7.66 74 8 C73.505 5.03 73.505 5.03 73 2 C70.69 1.67 68.38 1.34 66 1 C64.98459888 5.10223585 64.98459888 5.10223585 66 9 C62.37 9 58.74 9 55 9 C55.66 8.34 56.32 7.68 57 7 C57.99 7 58.98 7 60 7 C60 6.01 60 5.02 60 4 C59.01 4 58.02 4 57 4 C56.67 4.66 56.34 5.32 56 6 C55.505 4.02 55.505 4.02 55 2 C36.85 1.67 18.7 1.34 0 1 C0 0.67 0 0.34 0 0 Z " fill="#1F700B" transform="translate(282,22)"/>
<path d="M0 0 C2.31 0.33 4.62 0.66 7 1 C7.33 2.98 7.66 4.96 8 7 C9.32 7 10.64 7 12 7 C11.67 5.68 11.34 4.36 11 3 C13.33214148 1.79371992 15.49642139 0.8345262 18 0 C18 0.66 18 1.32 18 2 C18.99 2.33 19.98 2.66 21 3 C21 3.99 21 4.98 21 6 C19.35 6.33 17.7 6.66 16 7 C18.97 7 21.94 7 25 7 C24.505 5.02 24.505 5.02 24 3 C25.32 2.34 26.64 1.68 28 1 C28.99 1.66 29.98 2.32 31 3 C31.99 3 32.98 3 34 3 C34 4.32 34 5.64 34 7 C40.27 7.33 46.54 7.66 53 8 C53.33 7.01 53.66 6.02 54 5 C54 6.32 54 7.64 54 9 C32.88 9 11.76 9 -10 9 C-10 8.67 -10 8.34 -10 8 C-5.545 7.505 -5.545 7.505 -1 7 C-1.33 5.68 -1.66 4.36 -2 3 C-1.34 2.01 -0.68 1.02 0 0 Z " fill="#353A3F" transform="translate(348,23)"/>
<path d="M0 0 C1.13179687 -0.00128906 2.26359375 -0.00257812 3.4296875 -0.00390625 C4.61304688 -0.00003906 5.79640625 0.00382812 7.015625 0.0078125 C8.18351563 0.00394531 9.35140625 0.00007813 10.5546875 -0.00390625 C16.22715783 0.00252512 21.68136299 0.10413266 27.265625 1.1328125 C27.265625 1.7928125 27.265625 2.4528125 27.265625 3.1328125 C26.605625 3.1328125 25.945625 3.1328125 25.265625 3.1328125 C25.265625 3.7928125 25.265625 4.4528125 25.265625 5.1328125 C21.74936716 6.21531683 18.48725329 6.26199488 14.8203125 6.265625 C13.57894531 6.26691406 12.33757813 6.26820312 11.05859375 6.26953125 C9.11919922 6.26373047 9.11919922 6.26373047 7.140625 6.2578125 C5.83996094 6.26167969 4.53929687 6.26554687 3.19921875 6.26953125 C1.34103516 6.26759766 1.34103516 6.26759766 -0.5546875 6.265625 C-2.26035889 6.26393311 -2.26035889 6.26393311 -4.00048828 6.26220703 C-6.734375 6.1328125 -6.734375 6.1328125 -8.734375 5.1328125 C-8.734375 3.8128125 -8.734375 2.4928125 -8.734375 1.1328125 C-5.57304946 0.07903732 -3.31881467 0.00363791 0 0 Z " fill="#E62222" transform="translate(527.734375,76.8671875)"/>
<path d="M0 0 C1.48831242 0.00667405 2.97660807 0.01863442 4.46484375 0.03515625 C5.22345703 0.03966797 5.98207031 0.04417969 6.76367188 0.04882812 C8.64326246 0.06064945 10.52281274 0.07858547 12.40234375 0.09765625 C12.42922526 1.74340191 12.44868498 3.38927038 12.46484375 5.03515625 C12.47644531 5.95167969 12.48804688 6.86820313 12.5 7.8125 C12.40234375 10.09765625 12.40234375 10.09765625 11.40234375 11.09765625 C8.89098271 11.19740657 6.4133096 11.23647808 3.90234375 11.22265625 C3.19980469 11.22652344 2.49726563 11.23039062 1.7734375 11.234375 C-3.47104247 11.22427003 -3.47104247 11.22427003 -4.59765625 10.09765625 C-4.69556195 8.60027501 -4.72740489 7.09822733 -4.72265625 5.59765625 C-4.72523438 4.78296875 -4.7278125 3.96828125 -4.73046875 3.12890625 C-4.49652069 -0.44912289 -3.73496194 0.10138333 0 0 Z " fill="#D0D1D4" transform="translate(396.59765625,37.90234375)"/>
<path d="M0 0 C8.16568047 -0.40828402 8.16568047 -0.40828402 12 3 C12.99 3 13.98 3 15 3 C15 3.99 15 4.98 15 6 C13.02 6.99 13.02 6.99 11 8 C11 8.33 11 8.66 11 9 C-7.48 9 -25.96 9 -45 9 C-45 8.67 -45 8.34 -45 8 C-32.46 7.67 -19.92 7.34 -7 7 C-7 5.35 -7 3.7 -7 2 C-5.35 2 -3.7 2 -2 2 C-2.33 3.98 -2.66 5.96 -3 8 C-2.01 7.67 -1.02 7.34 0 7 C-0.185625 6.401875 -0.37125 5.80375 -0.5625 5.1875 C-1 3 -1 3 0 0 Z " fill="#373B40" transform="translate(327,23)"/>
<path d="M0 0 C0.68429077 -0.00095673 1.36858154 -0.00191345 2.0736084 -0.00289917 C3.52286877 -0.0035808 4.97213218 -0.00172773 6.42138672 0.00244141 C8.64687928 0.00778998 10.87217001 0.0024959 13.09765625 -0.00390625 C14.50260461 -0.00324547 15.90755285 -0.0019643 17.3125 0 C18.59962891 0.00112793 19.88675781 0.00225586 21.21289062 0.00341797 C24.15625 0.1328125 24.15625 0.1328125 25.15625 1.1328125 C25.2541557 2.63019374 25.28599864 4.13224142 25.28125 5.6328125 C25.28511719 6.85484375 25.28511719 6.85484375 25.2890625 8.1015625 C25.15625 10.1328125 25.15625 10.1328125 24.15625 11.1328125 C21.87677208 11.2330218 19.59417865 11.26362553 17.3125 11.265625 C16.62820923 11.26658173 15.94391846 11.26753845 15.2388916 11.26852417 C13.78963123 11.2692058 12.34036782 11.26735273 10.89111328 11.26318359 C8.66562072 11.25783502 6.44032999 11.2631291 4.21484375 11.26953125 C2.80989539 11.26887047 1.40494715 11.2675893 0 11.265625 C-1.28712891 11.26449707 -2.57425781 11.26336914 -3.90039062 11.26220703 C-6.84375 11.1328125 -6.84375 11.1328125 -7.84375 10.1328125 C-7.9416557 8.63543126 -7.97349864 7.13338358 -7.96875 5.6328125 C-7.97132813 4.818125 -7.97390625 4.0034375 -7.9765625 3.1640625 C-7.67868426 -1.39172232 -3.73099349 0.00326952 0 0 Z M-6.84375 2.1328125 C-6.84375 4.4428125 -6.84375 6.7528125 -6.84375 9.1328125 C3.05625 9.1328125 12.95625 9.1328125 23.15625 9.1328125 C23.15625 6.4928125 23.15625 3.8528125 23.15625 1.1328125 C19.0445244 1.10815504 14.93282722 1.08997291 10.82104492 1.07788086 C9.42129772 1.0728417 8.0215558 1.06601034 6.62182617 1.05737305 C4.61379223 1.0452893 2.60572043 1.04011443 0.59765625 1.03515625 C-0.61204834 1.02991943 -1.82175293 1.02468262 -3.06811523 1.01928711 C-5.75187017 0.81505965 -5.75187017 0.81505965 -6.84375 2.1328125 Z " fill="#D6D7D9" transform="translate(418.84375,37.8671875)"/>
<path d="M0 0 C6.74233419 -0.12910853 13.30386804 0.202163 20 1 C20 1.99 20 2.98 20 4 C20.66 4 21.32 4 22 4 C22 4.66 22 5.32 22 6 C14.08 6 6.16 6 -2 6 C-1.34 4.02 -0.68 2.04 0 0 Z " fill="#C7A1AF" transform="translate(10,65)"/>
<path d="M0 0 C2.62506802 -0.02690844 5.24986173 -0.04679404 7.875 -0.0625 C8.62136719 -0.07087891 9.36773437 -0.07925781 10.13671875 -0.08789062 C15.7734375 -0.11328125 15.7734375 -0.11328125 18 1 C18 1.99 18 2.98 18 4 C19.65 4 21.3 4 23 4 C23 4.66 23 5.32 23 6 C18.81936147 7.00303228 14.85587757 7.16588178 10.5625 7.1875 C8.64630859 7.20876953 8.64630859 7.20876953 6.69140625 7.23046875 C3.09718029 7.00606734 0.33803042 6.30528856 -3 5 C-3 4.34 -3 3.68 -3 3 C-2.01 3 -1.02 3 0 3 C0 2.01 0 1.02 0 0 Z " fill="#CA7E83" transform="translate(100,89)"/>
<path d="M0 0 C7.66666667 0 15.33333333 0 23 0 C23 0.99 23 1.98 23 3 C19.37 3.33 15.74 3.66 12 4 C12.99 4.66 13.98 5.32 15 6 C15 6.66 15 7.32 15 8 C11.04 8 7.08 8 3 8 C3 7.01 3 6.02 3 5 C3.99 5 4.98 5 6 5 C6 4.34 6 3.68 6 3 C4.02 3 2.04 3 0 3 C0 2.01 0 1.02 0 0 Z " fill="#EEEFF0" transform="translate(367,40)"/>
<path d="M0 0 C2.31 0 4.62 0 7 0 C6.67 1.65 6.34 3.3 6 5 C15.9 5 25.8 5 36 5 C34 7 34 7 30.65185547 7.22705078 C29.22359367 7.22673375 27.79530788 7.21541361 26.3671875 7.1953125 C25.23943405 7.19106766 25.23943405 7.19106766 24.08889771 7.18673706 C21.68410422 7.17552874 19.27968119 7.15042352 16.875 7.125 C15.24609912 7.11497102 13.61719242 7.10584503 11.98828125 7.09765625 C7.99204444 7.07558735 3.99608506 7.04105351 0 7 C0 4.69 0 2.38 0 0 Z " fill="#FCFBFB" transform="translate(447,40)"/>
<path d="M0 0 C3.16858572 0.36298834 6.30368619 0.83084519 9.453125 1.328125 C12.74289475 1.8145501 14.79657152 2.06780949 18 1 C20.26171875 1.12109375 20.26171875 1.12109375 22.6875 1.4375 C23.49574219 1.53933594 24.30398438 1.64117187 25.13671875 1.74609375 C25.75160156 1.82988281 26.36648438 1.91367188 27 2 C26.67 3.32 26.34 4.64 26 6 C25.35450195 5.96447021 24.70900391 5.92894043 24.04394531 5.89233398 C21.11292664 5.73450585 18.18151013 5.5859077 15.25 5.4375 C13.72632813 5.35338867 13.72632813 5.35338867 12.171875 5.26757812 C11.1921875 5.21923828 10.2125 5.17089844 9.203125 5.12109375 C7.85202637 5.05039673 7.85202637 5.05039673 6.47363281 4.97827148 C4.12542592 4.99889825 2.23793298 5.32176929 0 6 C-0.38218767 4.34385343 -0.71395102 2.67542976 -1 1 C-0.67 0.67 -0.34 0.34 0 0 Z " fill="#C6CFD5" transform="translate(313,88)"/>
<path d="M0 0 C0.71607422 0.01353516 1.43214844 0.02707031 2.16992188 0.04101562 C4.13434939 0.07924823 6.09846275 0.1327745 8.0625 0.1875 C9.3825 0.1875 10.7025 0.1875 12.0625 0.1875 C13.3825 0.1875 14.7025 0.1875 16.0625 0.1875 C16.0625 1.8375 16.0625 3.4875 16.0625 5.1875 C13.06225053 5.24194001 10.06300961 5.2813836 7.0625 5.3125 C6.22332031 5.32925781 5.38414062 5.34601563 4.51953125 5.36328125 C-0.99004877 5.40599117 -5.64798292 4.74252007 -10.9375 3.1875 C-8.21644055 -0.84644416 -4.37785164 -0.15285247 0 0 Z " fill="#C9DBEB" transform="translate(157.9375,77.8125)"/>
<path d="M0 0 C4.22910869 -0.05817206 8.45811409 -0.09365463 12.6875 -0.125 C13.88568359 -0.14175781 15.08386719 -0.15851563 16.31835938 -0.17578125 C17.47529297 -0.18222656 18.63222656 -0.18867187 19.82421875 -0.1953125 C21.41882935 -0.21102295 21.41882935 -0.21102295 23.0456543 -0.22705078 C26.08126781 0.00624569 28.25623267 0.71794865 31 2 C31 2.66 31 3.32 31 4 C28.98177083 3.96744792 26.96354167 3.93489583 24.9453125 3.90234375 C22.91814596 3.87350758 22.91814596 3.87350758 21 5 C20.67 3.68 20.34 2.36 20 1 C19.34 1 18.68 1 18 1 C17.67 1.99 17.34 2.98 17 4 C11.39 3.67 5.78 3.34 0 3 C0 2.01 0 1.02 0 0 Z " fill="#CDCFCF" transform="translate(10,75)"/>
<path d="M0 0 C8.04212755 -0.16677223 15.98603754 0.3533402 24 1 C24 2.32 24 3.64 24 5 C16.08 5 8.16 5 0 5 C0 3.35 0 1.7 0 0 Z " fill="#8C8D90" transform="translate(85,41)"/>
<path d="M0 0 C8.25 0 16.5 0 25 0 C21 4 21 4 17.03125 4.4609375 C15.52058257 4.45300054 14.0099029 4.42370655 12.5 4.375 C11.36111328 4.37306641 11.36111328 4.37306641 10.19921875 4.37109375 C6.35021203 4.31042639 3.2586587 4.16666137 0 2 C0 1.34 0 0.68 0 0 Z " fill="#E51D1D" transform="translate(458,79)"/>
<path d="M0 0 C0.67804688 0.0721875 1.35609375 0.144375 2.0546875 0.21875 C11.55352117 1.16600211 20.53044399 1.22187819 30 0 C30 1.32 30 2.64 30 4 C20.1 4 10.2 4 0 4 C0 2.68 0 1.36 0 0 Z " fill="#CED1D3" transform="translate(162,55)"/>
<path d="M0 0 C0.86625 0.495 0.86625 0.495 1.75 1 C4.19883862 2.27075898 4.19883862 2.27075898 8 2 C12.66666667 2 17.33333333 2 22 2 C22 3.32 22 4.64 22 6 C14.41 6 6.82 6 -1 6 C-1.33 4.68 -1.66 3.36 -2 2 C-1.34 1.34 -0.68 0.68 0 0 Z " fill="#B8D0BC" transform="translate(213,88)"/>
<path d="M0 0 C4.66666667 0 9.33333333 0 14 0 C14.74378906 -0.01160156 15.48757812 -0.02320312 16.25390625 -0.03515625 C17.39666016 -0.04869141 17.39666016 -0.04869141 18.5625 -0.0625 C19.70912109 -0.07990234 19.70912109 -0.07990234 20.87890625 -0.09765625 C23 0 23 0 26 1 C25.67 1.99 25.34 2.98 25 4 C21.77085248 4.02917228 18.54173917 4.04685663 15.3125 4.0625 C13.94448242 4.07506836 13.94448242 4.07506836 12.54882812 4.08789062 C11.66259766 4.09111328 10.77636719 4.09433594 9.86328125 4.09765625 C9.05157471 4.10289307 8.23986816 4.10812988 7.40356445 4.11352539 C4.85135327 3.9929791 2.48973863 3.559949 0 3 C0 2.01 0 1.02 0 0 Z " fill="#B1CFE6" transform="translate(165,89)"/>
<path d="M0 0 C3.06255961 -0.0270491 6.1248786 -0.04686298 9.1875 -0.0625 C10.05181641 -0.07087891 10.91613281 -0.07925781 11.80664062 -0.08789062 C16.00286769 -0.10396812 19.90936886 -0.07559038 24 1 C23.34 2.32 22.68 3.64 22 5 C10.615 4.505 10.615 4.505 -1 4 C-0.67 2.68 -0.34 1.36 0 0 Z " fill="#AFB1B2" transform="translate(404,67)"/>
<path d="M0 0 C0 0.66 0 1.32 0 2 C-9.24 2 -18.48 2 -28 2 C-28 1.01 -28 0.02 -28 -1 C-18.65404422 -2.64928631 -9.31133778 -1.51579917 0 0 Z " fill="#9B9DA0" transform="translate(314,27)"/>
<path d="M0 0 C2.97 0 5.94 0 9 0 C9 2.97 9 5.94 9 9 C6.03 9 3.06 9 0 9 C0 6.03 0 3.06 0 0 Z " fill="#FE9E10" transform="translate(590,39)"/>
<path d="M0 0 C2.97 0 5.94 0 9 0 C7.515 2.475 7.515 2.475 6 5 C11.94 5 17.88 5 24 5 C22 7 22 7 19.75341797 7.22705078 C18.84221191 7.21657715 17.93100586 7.20610352 16.9921875 7.1953125 C15.51298828 7.18564453 15.51298828 7.18564453 14.00390625 7.17578125 C12.45509766 7.15064453 12.45509766 7.15064453 10.875 7.125 C9.83472656 7.11597656 8.79445313 7.10695313 7.72265625 7.09765625 C5.14820908 7.07403747 2.57421788 7.04110149 0 7 C0 4.69 0 2.38 0 0 Z " fill="#FBFCFC" transform="translate(412,40)"/>
<path d="M0 0 C2.97 0 5.94 0 9 0 C8.01 0.495 8.01 0.495 7 1 C6.67 2.32 6.34 3.64 6 5 C10.62 5 15.24 5 20 5 C20.33 5.66 20.66 6.32 21 7 C14.07 7 7.14 7 0 7 C0 4.69 0 2.38 0 0 Z " fill="#FDFDFD" transform="translate(500,40)"/>
<path d="M0 0 C5.61 0 11.22 0 17 0 C17 0.66 17 1.32 17 2 C18.65 1.34 20.3 0.68 22 0 C22 0.66 22 1.32 22 2 C22.66 2 23.32 2 24 2 C24 2.99 24 3.98 24 5 C16.08 4.67 8.16 4.34 0 4 C0 2.68 0 1.36 0 0 Z " fill="#83B66E" transform="translate(90,17)"/>
<path d="M0 0 C0 1.98 0 3.96 0 6 C-4.62 6 -9.24 6 -14 6 C-14 4.35 -14 2.7 -14 1 C-9.23692563 0.04738513 -4.8333472 -0.08333357 0 0 Z " fill="#1E2227" transform="translate(227,3)"/>
<path d="M0 0 C0.33 0.66 0.66 1.32 1 2 C3.32156597 2.40729228 5.6568787 2.74438677 8 3 C8.33 2.34 8.66 1.68 9 1 C9 1.66 9 2.32 9 3 C9.66 3.33 10.32 3.66 11 4 C-0.88 4 -12.76 4 -25 4 C-24.67 3.34 -24.34 2.68 -24 2 C-16.30314569 0.75857188 -7.57810587 -0.22573739 0 2 C0 1.34 0 0.68 0 0 Z " fill="#FEFEFE" transform="translate(152,57)"/>
<path d="M0 0 C2.10353495 -0.0810206 4.20795952 -0.13919907 6.3125 -0.1875 C7.48425781 -0.22230469 8.65601563 -0.25710937 9.86328125 -0.29296875 C13 0 13 0 14.91796875 1.38671875 C16 3 16 3 16 5 C10.72 5 5.44 5 0 5 C0 3.35 0 1.7 0 0 Z " fill="#F29201" transform="translate(545,40)"/>
<path d="M0 0 C0 0.99 0 1.98 0 3 C-6.6 3 -13.2 3 -20 3 C-20 2.34 -20 1.68 -20 1 C-20.66 0.67 -21.32 0.34 -22 0 C-15.54822678 -1.2003299 -5.96412904 -2.98206452 0 0 Z " fill="#7EB46D" transform="translate(201,18)"/>
<path d="M0 0 C4.29 0 8.58 0 13 0 C12.67 1.98 12.34 3.96 12 6 C12.33 6.66 12.66 7.32 13 8 C9.37 8 5.74 8 2 8 C2.66 7.34 3.32 6.68 4 6 C4.99 6 5.98 6 7 6 C7 5.01 7 4.02 7 3 C6.01 3 5.02 3 4 3 C3.67 3.66 3.34 4.32 3 5 C2.87625 4.360625 2.7525 3.72125 2.625 3.0625 C2.315625 2.0415625 2.315625 2.0415625 2 1 C1.34 0.67 0.68 0.34 0 0 Z " fill="#2F3238" transform="translate(335,23)"/>
<path d="M0 0 C1.65 0 3.3 0 5 0 C5 1.65 5 3.3 5 5 C6.32 5 7.64 5 9 5 C9.33 3.35 9.66 1.7 10 0 C11.32 0 12.64 0 14 0 C14 2.31 14 4.62 14 7 C9.38 7 4.76 7 0 7 C0 4.69 0 2.38 0 0 Z " fill="#FDFDFD" transform="translate(394,40)"/>
<path d="M0 0 C2.31 0 4.62 0 7 0 C7 0.66 7 1.32 7 2 C7.66 2 8.32 2 9 2 C9 1.34 9 0.68 9 0 C13.33168317 -0.26252625 16.8803623 0.70756464 21 2 C20.67 2.66 20.34 3.32 20 4 C13.4 4 6.8 4 0 4 C0 2.68 0 1.36 0 0 Z " fill="#BAC2C8" transform="translate(485,89)"/>
<path d="M0 0 C5.61 0 11.22 0 17 0 C16.67 1.32 16.34 2.64 16 4 C9.73 4 3.46 4 -3 4 C-2.67 3.01 -2.34 2.02 -2 1 C-1.34 1.33 -0.68 1.66 0 2 C0 1.34 0 0.68 0 0 Z " fill="#70AD5C" transform="translate(160,17)"/>
<path d="M0 0 C5.94 0 11.88 0 18 0 C17.67 1.65 17.34 3.3 17 5 C15.02090602 5.02686553 13.04171029 5.04633375 11.0625 5.0625 C9.96035156 5.07410156 8.85820312 5.08570312 7.72265625 5.09765625 C5 5 5 5 4 4 C2.68 4 1.36 4 0 4 C0 2.68 0 1.36 0 0 Z " fill="#C6D9E9" transform="translate(175,78)"/>
<path d="M0 0 C6.6 0.33 13.2 0.66 20 1 C20 1.99 20 2.98 20 4 C13.4 4 6.8 4 0 4 C0 2.68 0 1.36 0 0 Z " fill="#BCBEBE" transform="translate(10,55)"/>
<path d="M0 0 C1.27875 0.165 2.5575 0.33 3.875 0.5 C8.9284158 1.07041736 13.92062649 1.09543708 19 1 C19.33 1.99 19.66 2.98 20 4 C13.4 4 6.8 4 0 4 C0 2.68 0 1.36 0 0 Z " fill="#DADBDC" transform="translate(30,114)"/>
<path d="M0 0 C5.94 0.33 11.88 0.66 18 1 C18 1.99 18 2.98 18 4 C11.73 4 5.46 4 -1 4 C-0.67 2.68 -0.34 1.36 0 0 Z " fill="#C8CACA" transform="translate(22,94)"/>
<path d="M0 0 C0.89203125 0.0721875 1.7840625 0.144375 2.703125 0.21875 C3.87359375 0.3115625 5.0440625 0.404375 6.25 0.5 C7.41015625 0.5928125 8.5703125 0.685625 9.765625 0.78125 C12.17268658 0.94404644 14.58743951 1 17 1 C18.68698082 1.61344757 20.35965807 2.27095914 22 3 C22 3.33 22 3.66 22 4 C14.81949816 4.71148265 8.12971149 5.25818438 1 4 C0.67 2.68 0.34 1.36 0 0 Z " fill="#CCCECE" transform="translate(26,84)"/>
<path d="M0 0 C7.59 0 15.18 0 23 0 C22.67 1.32 22.34 2.64 22 4 C20.2709226 4.02725341 18.54171824 4.04650987 16.8125 4.0625 C15.36810547 4.07990234 15.36810547 4.07990234 13.89453125 4.09765625 C11.13724949 4.00463055 8.69041257 3.57395468 6 3 C4.0003559 2.96227087 1.99945939 2.95350094 0 3 C0 2.01 0 1.02 0 0 Z " fill="#C5C7C7" transform="translate(19,22)"/>
<path d="M0 0 C6.6 0 13.2 0 20 0 C20 0.99 20 1.98 20 3 C13.4 3 6.8 3 0 3 C0 2.01 0 1.02 0 0 Z " fill="#A6680B" transform="translate(563,42)"/>
<path d="M0 0 C2.31 0.33 4.62 0.66 7 1 C7.33 2.98 7.66 4.96 8 7 C5.03 7 2.06 7 -1 7 C-1.33 5.68 -1.66 4.36 -2 3 C-1.34 2.01 -0.68 1.02 0 0 Z " fill="#43464B" transform="translate(348,23)"/>
<path d="M0 0 C1.32 0 2.64 0 4 0 C5.36705078 -0.01740234 5.36705078 -0.01740234 6.76171875 -0.03515625 C7.72722656 -0.04417969 8.69273437 -0.05320312 9.6875 -0.0625 C10.66074219 -0.07410156 11.63398438 -0.08570312 12.63671875 -0.09765625 C15 0 15 0 16 1 C16.66 0.67 17.32 0.34 18 0 C18 1.32 18 2.64 18 4 C16.68 4 15.36 4 14 4 C13.67 3.67 13.34 3.34 13 3 C12.01 3.33 11.02 3.66 10 4 C8.27204648 4.06802967 6.54164635 4.08495645 4.8125 4.0625 C3.46091797 4.04896484 3.46091797 4.04896484 2.08203125 4.03515625 C1.39496094 4.02355469 0.70789063 4.01195313 0 4 C0 2.68 0 1.36 0 0 Z " fill="#B5D2E8" transform="translate(146,89)"/>
<path d="M0 0 C0.5775 0.165 1.155 0.33 1.75 0.5 C4.26664369 1.14462031 4.26664369 1.14462031 8 1 C9.66666667 1 11.33333333 1 13 1 C12.67 2.32 12.34 3.64 12 5 C10.58456585 5.19658808 9.16755969 5.38187546 7.75 5.5625 C6.96109375 5.66691406 6.1721875 5.77132812 5.359375 5.87890625 C2.99467126 6.00027349 1.2488963 5.69633257 -1 5 C-0.67 3.35 -0.34 1.7 0 0 Z " fill="#D0DDC9" transform="translate(313,77)"/>
<path d="M0 0 C5.61 0.33 11.22 0.66 17 1 C17 2.32 17 3.64 17 5 C11.39 4.67 5.78 4.34 0 4 C0 2.68 0 1.36 0 0 Z " fill="#C1D3BB" transform="translate(218,78)"/>
<path d="M0 0 C5.94 0 11.88 0 18 0 C18 0.99 18 1.98 18 3 C12.06 3 6.12 3 0 3 C0 2.01 0 1.02 0 0 Z " fill="#B9BCBC" transform="translate(263,68)"/>
<path d="M0 0 C5.94 0 11.88 0 18 0 C18 0.99 18 1.98 18 3 C12.06 3 6.12 3 0 3 C0 2.01 0 1.02 0 0 Z " fill="#B9BCBC" transform="translate(211,68)"/>
<path d="M0 0 C5.94 0 11.88 0 18 0 C18 0.99 18 1.98 18 3 C12.06 3 6.12 3 0 3 C0 2.01 0 1.02 0 0 Z " fill="#B9BCBC" transform="translate(146,68)"/>
<path d="M0 0 C2.97 0.495 2.97 0.495 6 1 C6.66 2.98 7.32 4.96 8 7 C7 8 7 8 3.4375 8.0625 C2.303125 8.041875 1.16875 8.02125 0 8 C0 5.36 0 2.72 0 0 Z " fill="#2F3237" transform="translate(56,3)"/>
<path d="M0 0 C2.79437453 0.11237502 5.58792393 0.23180895 8.38134766 0.3659668 C9.35330078 0.40141602 10.32525391 0.43686523 11.32666016 0.47338867 C12.72658203 0.53816406 12.72658203 0.53816406 14.15478516 0.60424805 C15.4413501 0.66092651 15.4413501 0.66092651 16.75390625 0.71875 C19.00634766 1.0534668 19.00634766 1.0534668 22.00634766 3.0534668 C12.43634766 3.0534668 2.86634766 3.0534668 -6.99365234 3.0534668 C-5.67365234 2.3934668 -4.35365234 1.7334668 -2.99365234 1.0534668 C-1.99365234 0.0534668 -1.99365234 0.0534668 0 0 Z " fill="#F5FDFE" transform="translate(318.99365234375,91.946533203125)"/>
<path d="M0 0 C3.66842161 0.73368432 7.07311046 0.62587948 10.8125 0.5625 C10.8125 1.5525 10.8125 2.5425 10.8125 3.5625 C9.4925 3.8925 8.1725 4.2225 6.8125 4.5625 C6.8125 3.9025 6.8125 3.2425 6.8125 2.5625 C5.760625 2.913125 4.70875 3.26375 3.625 3.625 C0.0170319 4.51220527 -1.71382489 4.61512882 -5.1875 3.5625 C-5.1875 2.5725 -5.1875 1.5825 -5.1875 0.5625 C-2.1875 -0.4375 -2.1875 -0.4375 0 0 Z " fill="#B8B7B8" transform="translate(268.1875,78.4375)"/>
<path d="M0 0 C0.33 1.32 0.66 2.64 1 4 C-4.61 4 -10.22 4 -16 4 C-16 3.01 -16 2.02 -16 1 C-8.08 0.505 -8.08 0.505 0 0 Z " fill="#7FB770" transform="translate(132,17)"/>
<path d="M0 0 C5.61 0 11.22 0 17 0 C17 0.99 17 1.98 17 3 C11.06 3 5.12 3 -1 3 C-0.67 2.01 -0.34 1.02 0 0 Z " fill="#CBCED1" transform="translate(130,56)"/>
<path d="M0 0 C5.94 0 11.88 0 18 0 C18 0.99 18 1.98 18 3 C12.06 3 6.12 3 0 3 C0 2.01 0 1.02 0 0 Z " fill="#B8BBBC" transform="translate(453,42)"/>
<path d="M0 0 C5.28 0 10.56 0 16 0 C16 0.99 16 1.98 16 3 C10.39 3 4.78 3 -1 3 C-0.67 2.01 -0.34 1.02 0 0 Z " fill="#CDCFD2" transform="translate(106,56)"/>
<path d="M0 0 C3.96 0 7.92 0 12 0 C10 2 10 2 7 3 C7.33 4.65 7.66 6.3 8 8 C4.37 8 0.74 8 -3 8 C-2.67 7.34 -2.34 6.68 -2 6 C-0.35 6.33 1.3 6.66 3 7 C2.65772428 4.02934491 2.65772428 4.02934491 2 1 C1.34 0.67 0.68 0.34 0 0 Z " fill="#272A30" transform="translate(353,23)"/>
<path d="M0 0 C3.3 0 6.6 0 10 0 C10 1.98 10 3.96 10 6 C7.69 6.33 5.38 6.66 3 7 C4.32 6.34 5.64 5.68 7 5 C4.69 4.67 2.38 4.34 0 4 C0 2.68 0 1.36 0 0 Z " fill="#71706E" transform="translate(6,3)"/>
<path d="M0 0 C5.28 0 10.56 0 16 0 C16 1.32 16 2.64 16 4 C10.72 3.67 5.44 3.34 0 3 C0 2.01 0 1.02 0 0 Z " fill="#7CB56B" transform="translate(134,18)"/>
<path d="M0 0 C1.20366211 0.00483398 1.20366211 0.00483398 2.43164062 0.00976562 C3.68170898 0.02233398 3.68170898 0.02233398 4.95703125 0.03515625 C5.80201172 0.03966797 6.64699219 0.04417969 7.51757812 0.04882812 C9.6015928 0.06060222 11.68557102 0.07853735 13.76953125 0.09765625 C12.77953125 0.59265625 12.77953125 0.59265625 11.76953125 1.09765625 C11.76953125 1.75765625 11.76953125 2.41765625 11.76953125 3.09765625 C9.16508777 3.1516033 6.56176127 3.19130094 3.95703125 3.22265625 C3.21904297 3.23941406 2.48105469 3.25617187 1.72070312 3.2734375 C-2.14293301 3.30840253 -3.93950543 3.2916318 -7.23046875 1.09765625 C-4.46481493 0.17577164 -2.84763173 -0.02019597 0 0 Z " fill="#272A31" transform="translate(293.23046875,22.90234375)"/>
<path d="M0 0 C0.66 0 1.32 0 2 0 C2 2.64 2 5.28 2 8 C6.62 8 11.24 8 16 8 C16 8.66 16 9.32 16 10 C13.52076199 10.02685095 11.0418116 10.04676547 8.5625 10.0625 C7.85544922 10.07087891 7.14839844 10.07925781 6.41992188 10.08789062 C4.61306441 10.09653588 2.80612397 10.05220011 1 10 C0 9 0 9 -0.09765625 6.93359375 C-0.08605469 6.10988281 -0.07445312 5.28617188 -0.0625 4.4375 C-0.05347656 3.61121094 -0.04445313 2.78492188 -0.03515625 1.93359375 C-0.02355469 1.29550781 -0.01195312 0.65742187 0 0 Z " fill="#DADCDD" transform="translate(392,39)"/>
<path d="M0 0 C0.33 0.66 0.66 1.32 1 2 C1.99 2.33 2.98 2.66 4 3 C4 3.99 4 4.98 4 6 C-0.455 6.495 -0.455 6.495 -5 7 C-5.33 5.68 -5.66 4.36 -6 3 C-4 2 -2 1 0 0 Z " fill="#7D7F82" transform="translate(365,23)"/>
<path d="M0 0 C0.99773437 0.02320313 1.99546875 0.04640625 3.0234375 0.0703125 C4.52777344 0.09738281 4.52777344 0.09738281 6.0625 0.125 C6.83335937 0.14820313 7.60421875 0.17140625 8.3984375 0.1953125 C8.3984375 1.8453125 8.3984375 3.4953125 8.3984375 5.1953125 C5.84698926 6.12577183 4.65837272 6.28095341 2.0390625 5.41796875 C1.25015625 5.03511719 0.46125 4.65226562 -0.3515625 4.2578125 C-1.15078125 3.87753906 -1.95 3.49726562 -2.7734375 3.10546875 C-3.37671875 2.80511719 -3.98 2.50476562 -4.6015625 2.1953125 C-2.6015625 0.1953125 -2.6015625 0.1953125 0 0 Z " fill="#E5E6E7" transform="translate(381.6015625,42.8046875)"/>
<path d="M0 0 C1.1446875 0.495 1.1446875 0.495 2.3125 1 C4.99069135 2.17436686 4.99069135 2.17436686 8 2 C8 3.32 8 4.64 8 6 C1.9453125 6.9765625 1.9453125 6.9765625 0 7 C-0.66 6.34 -1.32 5.68 -2 5 C-1.46428571 1.46428571 -1.46428571 1.46428571 0 0 Z " fill="#7B7E81" transform="translate(374,24)"/>
<path d="M0 0 C0.33 0.66 0.66 1.32 1 2 C2.010625 1.649375 3.02125 1.29875 4.0625 0.9375 C7.92337378 -0.1892448 11.05394586 0.19468283 15 1 C15 1.99 15 2.98 15 4 C11.16783176 5.37958057 7.95029223 4.63486839 4 4 C2.68 4 1.36 4 0 4 C0 2.68 0 1.36 0 0 Z " fill="#C9CBCB" transform="translate(11,104)"/>
<path d="M0 0 C0.639375 0.165 1.27875 0.33 1.9375 0.5 C5.97586652 1.15932515 9.91807258 1.08003779 14 1 C14 1.99 14 2.98 14 4 C9.38 4 4.76 4 0 4 C0 2.68 0 1.36 0 0 Z " fill="#B7B9BB" transform="translate(572,67)"/>
<path d="M0 0 C4.29 0.33 8.58 0.66 13 1 C13 1.99 13 2.98 13 4 C8.71 4 4.42 4 0 4 C-0.33 3.34 -0.66 2.68 -1 2 C-0.67 1.34 -0.34 0.68 0 0 Z " fill="#CFD1CF" transform="translate(20,31)"/>
<path d="M0 0 C2.08304538 -0.05418326 4.16649768 -0.09287551 6.25 -0.125 C7.99023438 -0.15980469 7.99023438 -0.15980469 9.765625 -0.1953125 C12.82786046 -0.0103949 14.44202751 0.39176977 17 2 C13.93466836 3.53266582 10.73245728 3.10276471 7.375 3.0625 C6.66859375 3.05798828 5.9621875 3.05347656 5.234375 3.04882812 C3.48954725 3.03703875 1.744763 3.01910324 0 3 C0 2.01 0 1.02 0 0 Z " fill="#BDBEBE" transform="translate(101,79)"/>
<path d="M0 0 C6 0 12 0 18 0 C18 0.99 18 1.98 18 3 C12.06 3 6.12 3 0 3 C0 2.01 0 1.02 0 0 Z " fill="#B4B6B7" transform="translate(418,42)"/>
<path d="M0 0 C4.95 0 9.9 0 15 0 C15 0.99 15 1.98 15 3 C9.76528314 3.75612577 5.22745859 4.2063366 0 3 C0 2.01 0 1.02 0 0 Z " fill="#5D656D" transform="translate(599,5)"/>
<path d="M0 0 C3.63 0.33 7.26 0.66 11 1 C11.33 1.99 11.66 2.98 12 4 C7.38 4 2.76 4 -2 4 C-1.34 2.68 -0.68 1.36 0 0 Z " fill="#AFCEE6" transform="translate(374,89)"/>
<path d="M0 0 C4.95 0 9.9 0 15 0 C15 0.99 15 1.98 15 3 C10.05 3 5.1 3 0 3 C0 2.01 0 1.02 0 0 Z " fill="#C0BFC1" transform="translate(403,79)"/>
<path d="M0 0 C4.62 0 9.24 0 14 0 C14 0.99 14 1.98 14 3 C9.38 3 4.76 3 0 3 C0 2.01 0 1.02 0 0 Z " fill="#C2D4BB" transform="translate(327,79)"/>
<path d="M0 0 C1.00289063 0.10183594 2.00578125 0.20367187 3.0390625 0.30859375 C3.80992187 0.39238281 4.58078125 0.47617188 5.375 0.5625 C5.705 1.5525 6.035 2.5425 6.375 3.5625 C1.755 3.5625 -2.865 3.5625 -7.625 3.5625 C-7.625 2.5725 -7.625 1.5825 -7.625 0.5625 C-4.89657939 -0.80171031 -3.01546682 -0.31557211 0 0 Z " fill="#B9D1E6" transform="translate(379.625,78.4375)"/>
<path d="M0 0 C0.66 0 1.32 0 2 0 C2.33 0.33 2.66 0.66 3 1 C4.85287502 1.07226502 6.70833878 1.0838122 8.5625 1.0625 C9.57441406 1.05347656 10.58632813 1.04445312 11.62890625 1.03515625 C12.41136719 1.02355469 13.19382812 1.01195312 14 1 C14 1.99 14 2.98 14 4 C9.38 4 4.76 4 0 4 C0 2.68 0 1.36 0 0 Z " fill="#C7C9C9" transform="translate(11,133)"/>
<path d="M0 0 C6.27 0 12.54 0 19 0 C19 0.99 19 1.98 19 3 C12.73 3 6.46 3 0 3 C0 2.01 0 1.02 0 0 Z " fill="#C0C2C1" transform="translate(10,114)"/>
<path d="M0 0 C1.62490954 -0.02698189 3.24994633 -0.04638757 4.875 -0.0625 C5.77992188 -0.07410156 6.68484375 -0.08570312 7.6171875 -0.09765625 C10 0 10 0 12 1 C12 1.99 12 2.98 12 4 C7.71 4 3.42 4 -1 4 C-0.67 2.68 -0.34 1.36 0 0 Z " fill="#B2B2B4" transform="translate(524,67)"/>
<path d="M0 0 C1.62490954 -0.02698189 3.24994633 -0.04638757 4.875 -0.0625 C5.77992188 -0.07410156 6.68484375 -0.08570312 7.6171875 -0.09765625 C10 0 10 0 12 1 C12 1.99 12 2.98 12 4 C7.71 4 3.42 4 -1 4 C-0.67 2.68 -0.34 1.36 0 0 Z " fill="#B2B2B4" transform="translate(459,67)"/>
<path d="M0 0 C0.886875 0.185625 1.77375 0.37125 2.6875 0.5625 C5.85609492 1.16768856 5.85609492 1.16768856 8.375 0.5 C12.09946082 -0.20942111 15.25851494 0.42926499 19 1 C19 1.66 19 2.32 19 3 C12.73 3 6.46 3 0 3 C0 2.01 0 1.02 0 0 Z " fill="#CCCFD1" transform="translate(350,45)"/>
<path d="M0 0 C4.29 0.33 8.58 0.66 13 1 C13 1.99 13 2.98 13 4 C8.71 4 4.42 4 0 4 C0 2.68 0 1.36 0 0 Z " fill="#CBCECE" transform="translate(11,41)"/>
<path d="M0 0 C1.63001953 0.01353516 1.63001953 0.01353516 3.29296875 0.02734375 C4.12441406 0.03894531 4.95585937 0.05054688 5.8125 0.0625 C5.8125 1.0525 5.8125 2.0425 5.8125 3.0625 C0.8625 3.0625 -4.0875 3.0625 -9.1875 3.0625 C-9.1875 2.4025 -9.1875 1.7425 -9.1875 1.0625 C-5.90230525 -0.03256492 -3.45086585 -0.03710608 0 0 Z " fill="#CCCED1" transform="translate(384.1875,39.9375)"/>
<path d="M0 0 C4.29 0 8.58 0 13 0 C13 0.99 13 1.98 13 3 C6.565 3.495 6.565 3.495 0 4 C0 2.68 0 1.36 0 0 Z " fill="#BFD2B8" transform="translate(342,79)"/>
<path d="M0 0 C0.495 0.165 0.99 0.33 1.5 0.5 C5.03444089 1.20688818 8.39690701 1.06005155 12 1 C12 1.99 12 2.98 12 4 C7.71 4 3.42 4 -1 4 C-0.67 2.68 -0.34 1.36 0 0 Z " fill="#B3B6B6" transform="translate(362,67)"/>
<path d="M0 0 C10.55808656 -0.18451025 10.55808656 -0.18451025 15 1 C15 1.66 15 2.32 15 3 C9.72 3 4.44 3 -1 3 C-0.67 2.01 -0.34 1.02 0 0 Z " fill="#B4B6B7" transform="translate(507,42)"/>
<path d="M0 0 C4.62 0 9.24 0 14 0 C14.33 0.99 14.66 1.98 15 3 C10.38 3 5.76 3 1 3 C0.67 2.01 0.34 1.02 0 0 Z " fill="#757D87" transform="translate(35,5)"/>
<path d="M0 0 C1.31291016 -0.03867188 1.31291016 -0.03867188 2.65234375 -0.078125 C5.0625 0.25 5.0625 0.25 8.0625 3.25 C3.1125 3.25 -1.8375 3.25 -6.9375 3.25 C-6.9375 2.59 -6.9375 1.93 -6.9375 1.25 C-4.48367866 0.02308933 -2.73765897 0.04824069 0 0 Z " fill="#C9CBCA" transform="translate(28.9375,140.75)"/>
<path d="M0 0 C1.18851562 0.00902344 2.37703125 0.01804687 3.6015625 0.02734375 C4.51679688 0.03894531 5.43203125 0.05054687 6.375 0.0625 C6.375 1.0525 6.375 2.0425 6.375 3.0625 C1.425 3.0625 -3.525 3.0625 -8.625 3.0625 C-8.625 2.4025 -8.625 1.7425 -8.625 1.0625 C-5.74084117 -0.37957941 -3.20778472 -0.03144887 0 0 Z " fill="#B6BBC0" transform="translate(411.625,89.9375)"/>
<path d="M0 0 C4.29 0 8.58 0 13 0 C13 0.99 13 1.98 13 3 C8.71 3 4.42 3 0 3 C0 2.01 0 1.02 0 0 Z " fill="#B5B7B8" transform="translate(375,68)"/>
<path d="M0 0 C3.96 0 7.92 0 12 0 C12 0.99 12 1.98 12 3 C8.04 3 4.08 3 0 3 C0 2.01 0 1.02 0 0 Z " fill="#CCCECD" transform="translate(32,124)"/>
<path d="M0 0 C0.66 0 1.32 0 2 0 C2 0.66 2 1.32 2 2 C2.60328125 1.855625 3.2065625 1.71125 3.828125 1.5625 C5.02695313 1.2840625 5.02695313 1.2840625 6.25 1 C7.43335938 0.7215625 7.43335938 0.7215625 8.640625 0.4375 C11 0 11 0 15 0 C15 0.99 15 1.98 15 3 C10.05 3 5.1 3 0 3 C0 2.01 0 1.02 0 0 Z " fill="#C7C9C8" transform="translate(10,85)"/>
<path d="M0 0 C3.96 0 7.92 0 12 0 C12 0.99 12 1.98 12 3 C8.04 3 4.08 3 0 3 C0 2.01 0 1.02 0 0 Z " fill="#B6B9BA" transform="translate(327,68)"/>
<path d="M0 0 C3.96 0 7.92 0 12 0 C12 0.99 12 1.98 12 3 C8.04 3 4.08 3 0 3 C0 2.01 0 1.02 0 0 Z " fill="#C0C0C2" transform="translate(309,56)"/>
<path d="M0 0 C3.3 0 6.6 0 10 0 C10.33 0.99 10.66 1.98 11 3 C7.37 3.66 3.74 4.32 0 5 C0 3.35 0 1.7 0 0 Z " fill="#A8A9AB" transform="translate(85,41)"/>
<path d="M0 0 C0.66 0 1.32 0 2 0 C2 0.66 2 1.32 2 2 C2.67546875 1.84402344 3.3509375 1.68804687 4.046875 1.52734375 C4.93890625 1.33269531 5.8309375 1.13804688 6.75 0.9375 C7.63171875 0.74027344 8.5134375 0.54304688 9.421875 0.33984375 C11.98679028 0.00174128 13.57091639 0.18841365 16 1 C16 1.66 16 2.32 16 3 C10.72 3 5.44 3 0 3 C0 2.01 0 1.02 0 0 Z " fill="#9E620C" transform="translate(545,42)"/>
<path d="M0 0 C4.95 0.33 9.9 0.66 15 1 C15 1.33 15 1.66 15 2 C13.02 2 11.04 2 9 2 C9 2.66 9 3.32 9 4 C6.03 4 3.06 4 0 4 C0 2.68 0 1.36 0 0 Z " fill="#6CAC5D" transform="translate(90,17)"/>
<path d="M0 0 C4.29 0 8.58 0 13 0 C13 0.66 13 1.32 13 2 C10.47524538 3.26237731 8.68799534 3.09856404 5.875 3.0625 C4.96492188 3.05347656 4.05484375 3.04445313 3.1171875 3.03515625 C2.41851562 3.02355469 1.71984375 3.01195313 1 3 C0.67 2.01 0.34 1.02 0 0 Z " fill="#AFB3B3" transform="translate(312,68)"/>
<path d="M0 0 C3.3 0 6.6 0 10 0 C10 0.99 10 1.98 10 3 C7.36 3.33 4.72 3.66 2 4 C1.34 2.68 0.68 1.36 0 0 Z " fill="#B8BABB" transform="translate(282,68)"/>
<path d="M0 0 C2.97 0.495 2.97 0.495 6 1 C5.49396008 3.16874252 5.00016187 4.99967627 4 7 C2.68 7 1.36 7 0 7 C0 4.69 0 2.38 0 0 Z " fill="#D78205" transform="translate(590,40)"/>
<path d="M0 0 C3.63 0.33 7.26 0.66 11 1 C11 1.99 11 2.98 11 4 C9.741875 4.020625 8.48375 4.04125 7.1875 4.0625 C6.47980469 4.07410156 5.77210937 4.08570312 5.04296875 4.09765625 C3 4 3 4 0 3 C0 2.01 0 1.02 0 0 Z " fill="#C8CAC9" transform="translate(27,104)"/>
<path d="M0 0 C3.3 0.33 6.6 0.66 10 1 C10 1.99 10 2.98 10 4 C6.7 4 3.4 4 0 4 C0 2.68 0 1.36 0 0 Z " fill="#B4B7B8" transform="translate(429,67)"/>
<path d="M0 0 C2.97 0.33 5.94 0.66 9 1 C8.34 2.32 7.68 3.64 7 5 C4.36 4.67 1.72 4.34 -1 4 C-0.67 2.68 -0.34 1.36 0 0 Z " fill="#BDC0C1" transform="translate(419,67)"/>
<path d="M0 0 C1.22589844 0.15275391 1.22589844 0.15275391 2.4765625 0.30859375 C3.41628906 0.43427734 3.41628906 0.43427734 4.375 0.5625 C4.045 1.5525 3.715 2.5425 3.375 3.5625 C0.405 3.5625 -2.565 3.5625 -5.625 3.5625 C-5.955 2.5725 -6.285 1.5825 -6.625 0.5625 C-4.10446405 -0.69776798 -2.7707902 -0.35624445 0 0 Z " fill="#CED0D0" transform="translate(40.625,31.4375)"/>
<path d="M0 0 C2.33944736 0.28730055 4.6739143 0.61936779 7 1 C7 1.99 7 2.98 7 4 C2.545 4.495 2.545 4.495 -2 5 C-1 1 -1 1 0 0 Z " fill="#848689" transform="translate(335,25)"/>
<path d="M0 0 C2.97 0.33 5.94 0.66 9 1 C9 1.99 9 2.98 9 4 C5.6875 4.6875 5.6875 4.6875 2 5 C0.0625 3.5625 0.0625 3.5625 -1 2 C-0.67 1.34 -0.34 0.68 0 0 Z " fill="#C9CACB" transform="translate(11,94)"/>
<path d="M0 0 C0 0.99 0 1.98 0 3 C-3.3 3 -6.6 3 -10 3 C-10 2.01 -10 1.02 -10 0 C-6.7169902 -1.6415049 -3.57454967 -0.51888624 0 0 Z " fill="#BDD2E6" transform="translate(371,79)"/>
<path d="M0 0 C0.33 0.66 0.66 1.32 1 2 C4.3 1.67 7.6 1.34 11 1 C11.33 1.99 11.66 2.98 12 4 C7.91556885 5.53166168 4.20544343 4.63081652 0 4 C0 2.68 0 1.36 0 0 Z " fill="#445054" transform="translate(68,4)"/>
<path d="M0 0 C0.99 0.33 1.98 0.66 3 1 C2.125 4.875 2.125 4.875 1 6 C-0.66617115 6.04063832 -2.33388095 6.042721 -4 6 C-2.25 1.125 -2.25 1.125 0 0 Z " fill="#E73232" transform="translate(502,77)"/>
<path d="M0 0 C2.31 0 4.62 0 7 0 C7 1.32 7 2.64 7 4 C6.34 4 5.68 4 5 4 C4.67 4.33 4.34 4.66 4 5 C2.32457024 4.71395102 0.65614657 4.38218767 -1 4 C-0.67 2.68 -0.34 1.36 0 0 Z " fill="#D4D5D4" transform="translate(11,21)"/>
<path d="M0 0 C1.98 0 3.96 0 6 0 C6 1.65 6 3.3 6 5 C4.02 5 2.04 5 0 5 C0 3.35 0 1.7 0 0 Z " fill="#818890" transform="translate(481,4)"/>
<path d="M0 0 C1.98 0 3.96 0 6 0 C6 1.65 6 3.3 6 5 C4.02 5 2.04 5 0 5 C0 3.35 0 1.7 0 0 Z " fill="#8A9099" transform="translate(27,4)"/>
<path d="M0 0 C6.93 0.495 6.93 0.495 14 1 C14 1.66 14 2.32 14 3 C9.38 3 4.76 3 0 3 C0 2.01 0 1.02 0 0 Z " fill="#C5C6C4" transform="translate(30,114)"/>
<path d="M0 0 C2.97 0.495 2.97 0.495 6 1 C6 1.33 6 1.66 6 2 C8.97 2.495 8.97 2.495 12 3 C12 3.33 12 3.66 12 4 C7.05 4.33 2.1 4.66 -3 5 C-3 4.34 -3 3.68 -3 3 C-2.01 3 -1.02 3 0 3 C0 2.01 0 1.02 0 0 Z " fill="#C9C9CB" transform="translate(100,89)"/>
<path d="M0 0 C0.99 0.495 0.99 0.495 2 1 C3.37342831 1.0689472 4.75002102 1.08467708 6.125 1.0625 C7.40375 1.041875 8.6825 1.02125 10 1 C10 1.99 10 2.98 10 4 C8.68 4.33 7.36 4.66 6 5 C6 4.34 6 3.68 6 3 C4.02 3.33 2.04 3.66 0 4 C0 2.68 0 1.36 0 0 Z " fill="#AEB3B9" transform="translate(269,89)"/>
<path d="M0 0 C1.32 0 2.64 0 4 0 C4 1.98 4 3.96 4 6 C2.35 6 0.7 6 -1 6 C-1.042721 4.33388095 -1.04063832 2.66617115 -1 1 C-0.67 0.67 -0.34 0.34 0 0 Z " fill="#E2E3E5" transform="translate(85,77)"/>
<path d="M0 0 C3.3 0 6.6 0 10 0 C9.67 0.99 9.34 1.98 9 3 C6.03 3 3.06 3 0 3 C0 2.01 0 1.02 0 0 Z " fill="#B0B3B4" transform="translate(231,68)"/>
<path d="M0 0 C2.64 0 5.28 0 8 0 C8 1.32 8 2.64 8 4 C5.03 4 2.06 4 -1 4 C-0.67 2.68 -0.34 1.36 0 0 Z " fill="#B3B4B5" transform="translate(484,67)"/>
<path d="M0 0 C1.134375 0.020625 2.26875 0.04125 3.4375 0.0625 C3.4375 1.3825 3.4375 2.7025 3.4375 4.0625 C2.7775 4.0625 2.1175 4.0625 1.4375 4.0625 C1.1075 3.7325 0.7775 3.4025 0.4375 3.0625 C-1.5425 4.0525 -1.5425 4.0525 -3.5625 5.0625 C-4.125 3.125 -4.125 3.125 -4.5625 1.0625 C-3.5625 0.0625 -3.5625 0.0625 0 0 Z " fill="#D3D4D3" transform="translate(14.5625,30.9375)"/>
<path d="M0 0 C3.96 0.33 7.92 0.66 12 1 C12 1.66 12 2.32 12 3 C7.91556885 4.53166168 4.20544343 3.63081652 0 3 C0 2.01 0 1.02 0 0 Z " fill="#838A93" transform="translate(586,5)"/>
<path d="M0 0 C-0.33 0.99 -0.66 1.98 -1 3 C-3.64 3 -6.28 3 -9 3 C-9.33 2.01 -9.66 1.02 -10 0 C-6.7169902 -1.6415049 -3.57454967 -0.51888624 0 0 Z " fill="#AECCE5" transform="translate(371,90)"/>
<path d="M0 0 C-0.33 0.99 -0.66 1.98 -1 3 C-4.3 2.67 -7.6 2.34 -11 2 C-8.74490247 -2.51019507 -4.15738698 -0.70597137 0 0 Z " fill="#A4C8E3" transform="translate(191,90)"/>
<path d="M0 0 C2.97 0.33 5.94 0.66 9 1 C9 1.99 9 2.98 9 4 C6.03 4 3.06 4 0 4 C0 2.68 0 1.36 0 0 Z " fill="#B4B4B7" transform="translate(538,67)"/>
<path d="M0 0 C2.97 0.33 5.94 0.66 9 1 C9 1.99 9 2.98 9 4 C6.03 4 3.06 4 0 4 C0 2.68 0 1.36 0 0 Z " fill="#B4B4B7" transform="translate(473,67)"/>
<path d="M0 0 C2.64 0.33 5.28 0.66 8 1 C7.67 1.99 7.34 2.98 7 4 C4.36 4 1.72 4 -1 4 C-0.67 2.68 -0.34 1.36 0 0 Z " fill="#CFD2D4" transform="translate(96,55)"/>
<path d="M0 0 C0.53625 0.185625 1.0725 0.37125 1.625 0.5625 C4.61990614 1.11419324 7.03745829 0.60597444 10 0 C10 0.99 10 1.98 10 3 C6.37 3 2.74 3 -1 3 C-0.67 2.01 -0.34 1.02 0 0 Z " fill="#B3B5B6" transform="translate(473,42)"/>
<path d="M0 0 C2.97 0.495 2.97 0.495 6 1 C5.67 2.65 5.34 4.3 5 6 C3.68 5.34 2.36 4.68 1 4 C1.33 3.34 1.66 2.68 2 2 C1.34 2 0.68 2 0 2 C-0.33 3.32 -0.66 4.64 -1 6 C-1.33 5.01 -1.66 4.02 -2 3 C-1.34 2.01 -0.68 1.02 0 0 Z " fill="#C6C9CC" transform="translate(119,40)"/>
<path d="M0 0 C1.45823212 -0.0270043 2.91660675 -0.04639787 4.375 -0.0625 C5.18710938 -0.07410156 5.99921875 -0.08570312 6.8359375 -0.09765625 C9 0 9 0 11 1 C11 1.66 11 2.32 11 3 C7.37 3 3.74 3 0 3 C0 2.01 0 1.02 0 0 Z " fill="#C2C4C3" transform="translate(10,124)"/>
<path d="M0 0 C1.32 0.66 2.64 1.32 4 2 C3.67 3.32 3.34 4.64 3 6 C1.35 5.67 -0.3 5.34 -2 5 C-1.125 1.125 -1.125 1.125 0 0 Z " fill="#98C795" transform="translate(213,88)"/>
<path d="M0 0 C0 0.66 0 1.32 0 2 C0.66 2.33 1.32 2.66 2 3 C-4.27 3 -10.54 3 -17 3 C-17 2.67 -17 2.34 -17 2 C-16.15695312 1.93941406 -15.31390625 1.87882812 -14.4453125 1.81640625 C-13.34960938 1.73261719 -12.25390625 1.64882812 -11.125 1.5625 C-10.03445313 1.48128906 -8.94390625 1.40007812 -7.8203125 1.31640625 C-4.81774102 0.97955266 -3.05142118 0 0 0 Z " fill="#FDF1F1" transform="translate(482,82)"/>
<path d="M0 0 C1.32 0.66 2.64 1.32 4 2 C3.67 3.32 3.34 4.64 3 6 C1.35 5.67 -0.3 5.34 -2 5 C-1.125 1.125 -1.125 1.125 0 0 Z " fill="#A0CA95" transform="translate(213,77)"/>
<path d="M0 0 C1.32 0.66 2.64 1.32 4 2 C3.67 3.32 3.34 4.64 3 6 C1.35 5.67 -0.3 5.34 -2 5 C-1.125 1.125 -1.125 1.125 0 0 Z " fill="#808285" transform="translate(348,24)"/>
<path d="M0 0 C4.29 0.33 8.58 0.66 13 1 C13 1.66 13 2.32 13 3 C9.04 3 5.08 3 1 3 C0.67 2.01 0.34 1.02 0 0 Z " fill="#91969E" transform="translate(572,5)"/>
<path d="M0 0 C2.66666667 0 5.33333333 0 8 0 C8 1.32 8 2.64 8 4 C5.36 4 2.72 4 0 4 C0 2.68 0 1.36 0 0 Z " fill="#BEC7CA" transform="translate(524,89)"/>
<path d="M0 0 C2.31 0 4.62 0 7 0 C7 0.66 7 1.32 7 2 C7.66 2.33 8.32 2.66 9 3 C2.25 4 2.25 4 0 4 C0 2.68 0 1.36 0 0 Z " fill="#BAC1CE" transform="translate(475,89)"/>
<path d="M0 0 C1.98 0.495 1.98 0.495 4 1 C3.67 2.65 3.34 4.3 3 6 C1.68 5.67 0.36 5.34 -1 5 C-0.67 3.35 -0.34 1.7 0 0 Z " fill="#B8C0C6" transform="translate(313,88)"/>
<path d="M0 0 C1.98 0.495 1.98 0.495 4 1 C3.67 2.65 3.34 4.3 3 6 C1.68 5.67 0.36 5.34 -1 5 C-0.67 3.35 -0.34 1.7 0 0 Z " fill="#A0CA95" transform="translate(313,77)"/>
<path d="M0 0 C-0.33 0.99 -0.66 1.98 -1 3 C-4.375 3.125 -4.375 3.125 -8 3 C-8.66 2.34 -9.32 1.68 -10 1 C-6.1496895 -1.56687367 -4.41430237 -0.83288724 0 0 Z " fill="#B5CFE5" transform="translate(157,79)"/>
<path d="M0 0 C1.98 0.495 1.98 0.495 4 1 C3.67 2.65 3.34 4.3 3 6 C1.68 5.67 0.36 5.34 -1 5 C-0.67 3.35 -0.34 1.7 0 0 Z " fill="#77B269" transform="translate(83,16)"/>
<path d="M0 0 C1.32 0.66 2.64 1.32 4 2 C4 2.99 4 3.98 4 5 C0.25 6.125 0.25 6.125 -2 5 C-1.125 1.125 -1.125 1.125 0 0 Z " fill="#B6B9BC" transform="translate(611,16)"/>
<path d="M0 0 C1.65 0.33 3.3 0.66 5 1 C4.67 2.32 4.34 3.64 4 5 C2.35 4.67 0.7 4.34 -1 4 C-0.67 2.68 -0.34 1.36 0 0 Z " fill="#858C94" transform="translate(515,4)"/>
<path d="M0 0 C1.65 0.33 3.3 0.66 5 1 C4.67 2.32 4.34 3.64 4 5 C2.35 4.67 0.7 4.34 -1 4 C-0.67 2.68 -0.34 1.36 0 0 Z " fill="#949AA1" transform="translate(531,4)"/>
<path d="M0 0 C3.63 0.33 7.26 0.66 11 1 C11 1.66 11 2.32 11 3 C7.37 3 3.74 3 0 3 C0 2.01 0 1.02 0 0 Z " fill="#BFC2C1" transform="translate(10,141)"/>
<path d="M0 0 C0 0.66 0 1.32 0 2 C-3.96 2 -7.92 2 -12 2 C-12 1.34 -12 0.68 -12 0 C-10.56359829 -0.19573608 -9.12580496 -0.38127816 -7.6875 -0.5625 C-6.88699219 -0.66691406 -6.08648437 -0.77132812 -5.26171875 -0.87890625 C-3 -1 -3 -1 0 0 Z " fill="#C9CCCE" transform="translate(382,46)"/>
<path d="M0 0 C2.31 0.33 4.62 0.66 7 1 C7 1.99 7 2.98 7 4 C4.69 4.33 2.38 4.66 0 5 C0 3.35 0 1.7 0 0 Z " fill="#424D52" transform="translate(213,4)"/>
<path d="M0 0 C1.65 0 3.3 0 5 0 C5 1.65 5 3.3 5 5 C3.35 4.67 1.7 4.34 0 4 C0 2.68 0 1.36 0 0 Z " fill="#E9E9E8" transform="translate(78,97)"/>
<path d="M0 0 C-2 2 -2 2 -5.125 2.125 C-6.548125 2.063125 -6.548125 2.063125 -8 2 C-8.33 1.01 -8.66 0.02 -9 -1 C-5.22102349 -2.0497157 -3.35080929 -2.10976881 0 0 Z " fill="#B9C1C5" transform="translate(467,91)"/>
<path d="M0 0 C1.32 0 2.64 0 4 0 C4.33 1.65 4.66 3.3 5 5 C3.35 5 1.7 5 0 5 C-0.5625 3.0625 -0.5625 3.0625 -1 1 C-0.67 0.67 -0.34 0.34 0 0 Z " fill="#A8B0B7" transform="translate(239,88)"/>
<path d="M0 0 C-0.66 1.32 -1.32 2.64 -2 4 C-3.65 3.67 -5.3 3.34 -7 3 C-7 2.01 -7 1.02 -7 0 C-3.86650268 -1.04449911 -3.01031744 -0.93423645 0 0 Z " fill="#D4D5D7" transform="translate(270,79)"/>
<path d="M0 0 C0 0.33 0 0.66 0 1 C-6.88577812 2.01593448 -13.09811029 1.83854735 -20 1 C-20 0.67 -20 0.34 -20 0 C-13.09811029 -0.83854735 -6.88577812 -1.01593448 0 0 Z " fill="#FAD3D3" transform="translate(547,76)"/>
<path d="M0 0 C2.97 0 5.94 0 9 0 C8.67 0.66 8.34 1.32 8 2 C7.01 2 6.02 2 5 2 C5 2.66 5 3.32 5 4 C3.02 4 1.04 4 -1 4 C-0.67 2.68 -0.34 1.36 0 0 Z " fill="#BCBDBE" transform="translate(404,67)"/>
<path d="M0 0 C1.98 0.495 1.98 0.495 4 1 C3.67 2.65 3.34 4.3 3 6 C1.68 5.34 0.36 4.68 -1 4 C-0.67 2.68 -0.34 1.36 0 0 Z " fill="#A1A5A9" transform="translate(593,53)"/>
<path d="M0 0 C1.65 0 3.3 0 5 0 C5 1.32 5 2.64 5 4 C3.02 4 1.04 4 -1 4 C-0.67 2.68 -0.34 1.36 0 0 Z " fill="#ACADAF" transform="translate(104,42)"/>
<path d="M0 0 C1.65 0.33 3.3 0.66 5 1 C4 3 4 3 3 4 C3.66 4.66 4.32 5.32 5 6 C2.03 5.505 2.03 5.505 -1 5 C-0.67 3.35 -0.34 1.7 0 0 Z " fill="#AAAEB2" transform="translate(610,28)"/>
<path d="M0 0 C1.65 0 3.3 0 5 0 C4.67 1.65 4.34 3.3 4 5 C2.68 5 1.36 5 0 5 C0 3.35 0 1.7 0 0 Z " fill="#888B8D" transform="translate(320,25)"/>
<path d="M0 0 C3.3 0 6.6 0 10 0 C9.01 0.33 8.02 0.66 7 1 C7 1.66 7 2.32 7 3 C4.69 3 2.38 3 0 3 C0 2.01 0 1.02 0 0 Z " fill="#71AF63" transform="translate(116,18)"/>
<path d="M0 0 C3.625 -0.1875 3.625 -0.1875 7 0 C7 0.99 7 1.98 7 3 C4.03 3 1.06 3 -2 3 C-1.34 2.01 -0.68 1.02 0 0 Z " fill="#C0C3C2" transform="translate(24,124)"/>
<path d="M0 0 C1.98 0.495 1.98 0.495 4 1 C4 2.32 4 3.64 4 5 C2.35 4.67 0.7 4.34 -1 4 C-0.67 2.68 -0.34 1.36 0 0 Z " fill="#AAB2B8" transform="translate(247,88)"/>
<path d="M0 0 C0.66 0.33 1.32 0.66 2 1 C2.99 0.67 3.98 0.34 5 0 C7.6875 0.9375 7.6875 0.9375 10 2 C10 2.33 10 2.66 10 3 C6.37 3 2.74 3 -1 3 C-0.67 2.01 -0.34 1.02 0 0 Z " fill="#BEC0C0" transform="translate(38,85)"/>
<path d="M0 0 C-0.33 1.32 -0.66 2.64 -1 4 C-3.97 3.505 -3.97 3.505 -7 3 C-6.67 2.01 -6.34 1.02 -6 0 C-3.42525708 -0.99667468 -2.51072708 -1.25536354 0 0 Z " fill="#B8D1E5" transform="translate(193,79)"/>
<path d="M0 0 C1.98 0.495 1.98 0.495 4 1 C4 2.32 4 3.64 4 5 C2.35 4.67 0.7 4.34 -1 4 C-0.67 2.68 -0.34 1.36 0 0 Z " fill="#B0B4B8" transform="translate(247,77)"/>
<path d="M0 0 C1.98 0.495 1.98 0.495 4 1 C4 2.32 4 3.64 4 5 C2.35 4.67 0.7 4.34 -1 4 C-0.67 2.68 -0.34 1.36 0 0 Z " fill="#ADB0B4" transform="translate(239,77)"/>
<path d="M0 0 C2.64 0.33 5.28 0.66 8 1 C8 1.66 8 2.32 8 3 C5.03 3 2.06 3 -1 3 C-0.67 2.01 -0.34 1.02 0 0 Z " fill="#7E838F" transform="translate(547,5)"/>
<path d="M0 0 C1.65 0 3.3 0 5 0 C5 1.32 5 2.64 5 4 C3.02 4 1.04 4 -1 4 C-0.67 2.68 -0.34 1.36 0 0 Z " fill="#B8BFC5" transform="translate(548,89)"/>
<path d="M0 0 C2.31 0 4.62 0 7 0 C6.67 0.99 6.34 1.98 6 3 C4.02 3.33 2.04 3.66 0 4 C0 2.68 0 1.36 0 0 Z " fill="#B6BEC3" transform="translate(540,89)"/>
<path d="M0 0 C1.65 0 3.3 0 5 0 C5 1.32 5 2.64 5 4 C3.35 4 1.7 4 0 4 C0 2.68 0 1.36 0 0 Z " fill="#BEC6C9" transform="translate(533,89)"/>
<path d="M0 0 C1.65 0 3.3 0 5 0 C5 1.32 5 2.64 5 4 C3.35 4 1.7 4 0 4 C0 2.68 0 1.36 0 0 Z " fill="#3A90C9" transform="translate(84,89)"/>
<path d="M0 0 C1.65 0 3.3 0 5 0 C5 1.32 5 2.64 5 4 C3.35 4 1.7 4 0 4 C0 2.68 0 1.36 0 0 Z " fill="#338CC7" transform="translate(84,67)"/>
<path d="M0 0 C1.98 0 3.96 0 6 0 C6 1.32 6 2.64 6 4 C3.03 3.505 3.03 3.505 0 3 C0 2.01 0 1.02 0 0 Z " fill="#CACCCF" transform="translate(154,56)"/>
<path d="M0 0 C5.75 -0.125 5.75 -0.125 8 1 C8 1.66 8 2.32 8 3 C5.36 3 2.72 3 0 3 C0 2.01 0 1.02 0 0 Z " fill="#97C4E1" transform="translate(127,42)"/>
<path d="M0 0 C1.32 0.33 2.64 0.66 4 1 C4 2.32 4 3.64 4 5 C2.68 5.33 1.36 5.66 0 6 C0 4.02 0 2.04 0 0 Z " fill="#D0D2D5" transform="translate(112,40)"/>
<path d="M0 0 C1.98 0 3.96 0 6 0 C6 0.99 6 1.98 6 3 C3.69 3 1.38 3 -1 3 C-0.67 2.01 -0.34 1.02 0 0 Z " fill="#C4C6C7" transform="translate(27,32)"/>
<path d="M0 0 C3.3 0.33 6.6 0.66 10 1 C10 1.66 10 2.32 10 3 C6.42355152 4.2380014 3.66305234 3.74926071 0 3 C0 2.01 0 1.02 0 0 Z " fill="#90969D" transform="translate(599,5)"/>
<path d="M0 0 C2.31 0.66 4.62 1.32 7 2 C7 2.66 7 3.32 7 4 C5.02 4 3.04 4 1 4 C0.67 2.68 0.34 1.36 0 0 Z " fill="#D0D2D2" transform="translate(34,75)"/>
<path d="M0 0 C2.475 0.495 2.475 0.495 5 1 C5 1.99 5 2.98 5 4 C3.35 4 1.7 4 0 4 C0 2.68 0 1.36 0 0 Z " fill="#BCBCBC" transform="translate(165,67)"/>
<path d="M0 0 C2.31 0 4.62 0 7 0 C7 0.99 7 1.98 7 3 C4.69 3 2.38 3 0 3 C0 2.01 0 1.02 0 0 Z " fill="#CDD0D2" transform="translate(367,40)"/>
<path d="M0 0 C0.33 0.66 0.66 1.32 1 2 C1.99 2.33 2.98 2.66 4 3 C4 3.99 4 4.98 4 6 C2.68 6 1.36 6 0 6 C-0.38218767 4.34385343 -0.71395102 2.67542976 -1 1 C-0.67 0.67 -0.34 0.34 0 0 Z " fill="#5D6063" transform="translate(365,23)"/>
<path d="M0 0 C2.97 0.495 2.97 0.495 6 1 C6 1.99 6 2.98 6 4 C3.69 4 1.38 4 -1 4 C-0.01 3.67 0.98 3.34 2 3 C2 2.34 2 1.68 2 1 C1.34 0.67 0.68 0.34 0 0 Z " fill="#76B067" transform="translate(195,17)"/>
<path d="M0 0 C2.64 0.33 5.28 0.66 8 1 C8 1.66 8 2.32 8 3 C5.36 3 2.72 3 0 3 C0 2.01 0 1.02 0 0 Z " fill="#93B9D8" transform="translate(39,141)"/>
<path d="M0 0 C1.65 0 3.3 0 5 0 C5.33 0.99 5.66 1.98 6 3 C2.25 4.125 2.25 4.125 0 3 C0 2.01 0 1.02 0 0 Z " fill="#B8C0CA" transform="translate(468,89)"/>
<path d="M0 0 C2.475 0.495 2.475 0.495 5 1 C5 1.99 5 2.98 5 4 C3.35 4 1.7 4 0 4 C0 2.68 0 1.36 0 0 Z " fill="#B2BCBE" transform="translate(420,89)"/>
<path d="M0 0 C1.98 0 3.96 0 6 0 C6 0.66 6 1.32 6 2 C5.34 2 4.68 2 4 2 C4 2.66 4 3.32 4 4 C3.01 4 2.02 4 1 4 C0.67 2.68 0.34 1.36 0 0 Z " fill="#E33031" transform="translate(549,78)"/>
<path d="M0 0 C1.65 0 3.3 0 5 0 C5 1.32 5 2.64 5 4 C3.35 3.67 1.7 3.34 0 3 C0 2.01 0 1.02 0 0 Z " fill="#C1C2C3" transform="translate(303,55)"/>
<path d="M0 0 C0.99 0.66 1.98 1.32 3 2 C3 2.99 3 3.98 3 5 C1.35 4.67 -0.3 4.34 -2 4 C-1.34 2.68 -0.68 1.36 0 0 Z " fill="#C3C6C9" transform="translate(89,54)"/>
<path d="M0 0 C0.99 0 1.98 0 3 0 C3 1.32 3 2.64 3 4 C0.36 4.33 -2.28 4.66 -5 5 C-2 3 -2 3 0 3 C0 2.01 0 1.02 0 0 Z " fill="#5E6165" transform="translate(379,26)"/>
<path d="M0 0 C0 0.33 0 0.66 0 1 C-3.63 1 -7.26 1 -11 1 C-6.68398307 -1.87734462 -4.56105874 -2.76921423 0 0 Z " fill="#262A2F" transform="translate(348,30)"/>
<path d="M0 0 C2.31 0 4.62 0 7 0 C6.67 1.32 6.34 2.64 6 4 C4.68 3.67 3.36 3.34 2 3 C2 2.34 2 1.68 2 1 C1.34 0.67 0.68 0.34 0 0 Z " fill="#5EA54D" transform="translate(170,17)"/>
<path d="M0 0 C1.98 0 3.96 0 6 0 C6 0.66 6 1.32 6 2 C6.66 2.33 7.32 2.66 8 3 C2.25 3.125 2.25 3.125 0 2 C0 1.34 0 0.68 0 0 Z " fill="#76B166" transform="translate(166,18)"/>
<path d="M0 0 C2.31 0 4.62 0 7 0 C7 1.32 7 2.64 7 4 C5.68 3.67 4.36 3.34 3 3 C3 2.34 3 1.68 3 1 C2.01 1.33 1.02 1.66 0 2 C0 1.34 0 0.68 0 0 Z " fill="#72AF62" transform="translate(143,18)"/>
<path d="M0 0 C0.66 0 1.32 0 2 0 C2.33 1.32 2.66 2.64 3 4 C1.68 4.33 0.36 4.66 -1 5 C-1 1 -1 1 0 0 Z " fill="#9AA0A6" transform="translate(500,4)"/>
<path d="M0 0 C0 1.32 0 2.64 0 4 C-2.97 3.505 -2.97 3.505 -6 3 C-6 2.34 -6 1.68 -6 1 C-4 0 -4 0 0 0 Z " fill="#3A454B" transform="translate(227,5)"/>
<path d="M0 0 C-0.33 0.99 -0.66 1.98 -1 3 C-3.31 3 -5.62 3 -8 3 C-8 2.34 -8 1.68 -8 1 C-5.29120665 -0.35439668 -2.99066732 -0.06501451 0 0 Z " fill="#AFB5BC" transform="translate(411,90)"/>
<path d="M0 0 C0 0.99 0 1.98 0 3 C-1.65 3 -3.3 3 -5 3 C-5.33 2.01 -5.66 1.02 -6 0 C-3.50907189 -1.24546405 -2.58919267 -0.7767578 0 0 Z " fill="#BBBEBF" transform="translate(536,68)"/>
<path d="M0 0 C0 0.99 0 1.98 0 3 C-1.65 3 -3.3 3 -5 3 C-5.33 2.01 -5.66 1.02 -6 0 C-3.50907189 -1.24546405 -2.58919267 -0.7767578 0 0 Z " fill="#BBBEBF" transform="translate(471,68)"/>
<path d="M0 0 C0 0.99 0 1.98 0 3 C-2.97 2.67 -5.94 2.34 -9 2 C-5.23312136 0.11656068 -3.97041037 -0.22057835 0 0 Z " fill="#AFB3B4" transform="translate(281,68)"/>
<path d="M0 0 C0 0.99 0 1.98 0 3 C-2.97 2.67 -5.94 2.34 -9 2 C-5.23312136 0.11656068 -3.97041037 -0.22057835 0 0 Z " fill="#AFB3B4" transform="translate(229,68)"/>
<path d="M0 0 C0 0.99 0 1.98 0 3 C-2.97 2.67 -5.94 2.34 -9 2 C-5.23312136 0.11656068 -3.97041037 -0.22057835 0 0 Z " fill="#AFB3B4" transform="translate(164,68)"/>
<path d="M0 0 C2.64 0 5.28 0 8 0 C8 0.99 8 1.98 8 3 C4.62537285 2.45276317 2.91765 1.9451 0 0 Z " fill="#BABDBE" transform="translate(366,68)"/>
<path d="M0 0 C2.31 0 4.62 0 7 0 C7 0.99 7 1.98 7 3 C4.69 3 2.38 3 0 3 C0 2.01 0 1.02 0 0 Z " fill="#D3D5D8" transform="translate(115,56)"/>
</svg>
