<?xml version="1.0" encoding="UTF-8"?>
<svg version="1.1" xmlns="http://www.w3.org/2000/svg" width="185" height="57">
<path d="M0 0 C61.05 0 122.1 0 185 0 C185 18.81 185 37.62 185 57 C123.95 57 62.9 57 0 57 C0 38.19 0 19.38 0 0 Z " fill="#7E6339" transform="translate(0,0)"/>
<path d="M0 0 C61.05 0 122.1 0 185 0 C185 4.95 185 9.9 185 15 C164.86566995 15.02329305 144.7313438 15.04106761 124.59700298 15.05181217 C115.24524663 15.05693686 105.89349887 15.06390525 96.54174805 15.07543945 C88.37703072 15.08550468 80.21231963 15.09188114 72.04759628 15.09408849 C67.73694543 15.09537582 63.4263124 15.09833267 59.11566734 15.10573006 C39.38165891 15.1383212 19.71675305 14.92320974 0 14 C0 9.38 0 4.76 0 0 Z " fill="#6B4308" transform="translate(0,0)"/>
<path d="M0 0 C61.05 0 122.1 0 185 0 C185 1.32 185 2.64 185 4 C148.66451677 4.80774377 112.33723293 5.11125124 75.99316406 5.12338257 C72.84106119 5.12498548 69.68896585 5.12853494 66.53686523 5.13256836 C44.33784206 5.1578061 22.176053 5.13713441 0 4 C0 2.68 0 1.36 0 0 Z " fill="#5F3C08" transform="translate(0,6)"/>
</svg>
