<?xml version="1.0" encoding="UTF-8"?>
<svg version="1.1" xmlns="http://www.w3.org/2000/svg" width="624" height="299">
<path d="M0 0 C205.92 0 411.84 0 624 0 C624 98.67 624 197.34 624 299 C418.08 299 212.16 299 0 299 C0 200.33 0 101.66 0 0 Z " fill="#1D1E24" transform="translate(0,0)"/>
<path d="M0 0 C205.92 0 411.84 0 624 0 C624 4.62 624 9.24 624 14 C418.08 14 212.16 14 0 14 C0 9.38 0 4.76 0 0 Z " fill="#131317" transform="translate(0,0)"/>
<path d="M0 0 C74.25 0 148.5 0 225 0 C225 3.3 225 6.6 225 10 C150.75 10 76.5 10 0 10 C0 6.7 0 3.4 0 0 Z " fill="#16171B" transform="translate(137,63)"/>
<path d="M0 0 C1.96756712 0.00138269 1.96756712 0.00138269 3.97488308 0.00279331 C5.0664732 0.00151167 5.0664732 0.00151167 6.18011564 0.00020415 C8.63691133 -0.00145281 11.09363987 0.00407421 13.55042934 0.00952244 C15.30424911 0.00980429 17.058069 0.00964662 18.81188869 0.00907993 C23.58854689 0.00879188 28.3651802 0.01468988 33.14183259 0.02165389 C38.12800074 0.02788611 43.1141694 0.02849112 48.10034084 0.0296793 C57.54929315 0.032793 66.99823394 0.04100692 76.44718117 0.05102879 C87.20153264 0.06218871 97.95588466 0.06770007 108.71024048 0.07272422 C130.83918682 0.0831895 152.96812279 0.1007897 175.0970602 0.12304783 C175.0970602 3.42304783 175.0970602 6.72304783 175.0970602 10.12304783 C116.0270602 10.12304783 56.9570602 10.12304783 -3.9029398 10.12304783 C-3.9029398 0.16543515 -3.9029398 0.16543515 0 0 Z " fill="#18181B" transform="translate(232.90293979644775,1.8769521713256836)"/>
<path d="M0 0 C0 2.31 0 4.62 0 7 C-6.435 7.495 -6.435 7.495 -13 8 C92.6 8.33 198.2 8.66 307 9 C307 9.33 307 9.66 307 10 C189.52 10 72.04 10 -49 10 C-49 9.67 -49 9.34 -49 9 C-37.98906587 7.87479505 -27.05561292 7.90079709 -16 8 C-16 7.34 -16 6.68 -16 6 C-23.26 6 -30.52 6 -38 6 C-38 4.35 -38 2.7 -38 1 C-12.23623663 -0.19388403 -12.23623663 -0.19388403 0 0 Z " fill="#24252C" transform="translate(185,187)"/>
<path d="M0 0 C1.43653931 -0.00472824 1.43653931 -0.00472824 2.90209961 -0.009552 C3.94374268 -0.00752777 4.98538574 -0.00550354 6.05859375 -0.00341797 C7.12021729 -0.00437469 8.18184082 -0.00533142 9.27563477 -0.00631714 C11.52522847 -0.00699911 13.77482412 -0.00514366 16.02441406 -0.00097656 C19.48116446 0.00437143 22.93778492 -0.00092101 26.39453125 -0.00732422 C28.57421904 -0.00666344 30.75390675 -0.00538228 32.93359375 -0.00341797 C34.49605835 -0.00645432 34.49605835 -0.00645432 36.09008789 -0.009552 C37.04778076 -0.00639984 38.00547363 -0.00324768 38.9921875 0 C39.83966553 0.00079559 40.68714355 0.00159119 41.56030273 0.00241089 C43.49609375 0.12939453 43.49609375 0.12939453 44.49609375 1.12939453 C44.59433312 2.79368505 44.62583006 4.46221384 44.62109375 6.12939453 C44.62496094 7.49064453 44.62496094 7.49064453 44.62890625 8.87939453 C44.49609375 11.12939453 44.49609375 11.12939453 43.49609375 12.12939453 C41.99739327 12.22770599 40.49410836 12.25737909 38.9921875 12.25878906 C37.55564819 12.2635173 37.55564819 12.2635173 36.09008789 12.26834106 C35.04844482 12.26631683 34.00680176 12.2642926 32.93359375 12.26220703 C31.87197021 12.26316376 30.81034668 12.26412048 29.71655273 12.2651062 C27.46695903 12.26578817 25.21736338 12.26393272 22.96777344 12.25976562 C19.51102304 12.25441763 16.05440258 12.25971007 12.59765625 12.26611328 C10.41796846 12.2654525 8.23828075 12.26417135 6.05859375 12.26220703 C5.01695068 12.26423126 3.97530762 12.26625549 2.90209961 12.26834106 C1.94440674 12.2651889 0.98671387 12.26203674 0 12.25878906 C-0.84747803 12.25799347 -1.69495605 12.25719788 -2.56811523 12.25637817 C-4.50390625 12.12939453 -4.50390625 12.12939453 -5.50390625 11.12939453 C-5.60214562 9.46510402 -5.63364256 7.79657522 -5.62890625 6.12939453 C-5.63148438 5.22189453 -5.6340625 4.31439453 -5.63671875 3.37939453 C-5.39913615 -0.64553417 -3.56468358 0.00334644 0 0 Z " fill="#349CE6" transform="translate(447.50390625,61.87060546875)"/>
<path d="M0 0 C1.22244667 0.00333092 1.22244667 0.00333092 2.46958923 0.00672913 C3.39046829 0.00680466 4.31134735 0.00688019 5.26013184 0.00695801 C6.2611644 0.01211929 7.26219696 0.01728058 8.29356384 0.02259827 C9.31316696 0.02401321 10.33277008 0.02542816 11.38327026 0.02688599 C14.65417867 0.03250355 17.92501972 0.04505902 21.19590759 0.05775452 C23.40749515 0.06276725 25.61908377 0.06733055 27.83067322 0.07142639 C33.26494413 0.08247869 38.69916443 0.09975508 44.13340759 0.12025452 C44.13340759 3.42025452 44.13340759 6.72025452 44.13340759 10.12025452 C37.6006142 10.14489798 31.06784762 10.16308743 24.53501892 10.17518616 C22.31073028 10.18022768 20.08644496 10.18706074 17.86216736 10.19569397 C14.67262451 10.2077675 11.4831253 10.21348447 8.29356384 10.21791077 C6.792015 10.22565269 6.792015 10.22565269 5.26013184 10.23355103 C4.33925278 10.23362656 3.41837372 10.23370209 2.46958923 10.23377991 C1.24714256 10.23711082 1.24714256 10.23711082 0 10.24050903 C-1.86659241 10.12025452 -1.86659241 10.12025452 -2.86659241 9.12025452 C-2.99940491 7.30775452 -2.99940491 7.30775452 -2.99159241 5.12025452 C-2.99417053 4.39837952 -2.99674866 3.67650452 -2.99940491 2.93275452 C-2.81601552 0.43002882 -2.50307649 0.16125976 0 0 Z " fill="#191A1F" transform="translate(370.86659240722656,62.87974548339844)"/>
<path d="M0 0 C1.1653125 -0.00128906 2.330625 -0.00257812 3.53125 -0.00390625 C4.7584375 -0.00003906 5.985625 0.00382812 7.25 0.0078125 C9.09078125 0.00201172 9.09078125 0.00201172 10.96875 -0.00390625 C12.71671875 -0.00197266 12.71671875 -0.00197266 14.5 0 C15.57765625 0.00112793 16.6553125 0.00225586 17.765625 0.00341797 C20.25 0.1328125 20.25 0.1328125 21.25 1.1328125 C21.375 4.1328125 21.375 4.1328125 21.25 7.1328125 C19.47550406 8.90730844 16.89982739 8.26311322 14.5 8.265625 C13.3346875 8.26691406 12.169375 8.26820312 10.96875 8.26953125 C9.7415625 8.26566406 8.514375 8.26179688 7.25 8.2578125 C5.40921875 8.26361328 5.40921875 8.26361328 3.53125 8.26953125 C2.3659375 8.26824219 1.200625 8.26695313 0 8.265625 C-1.07765625 8.26449707 -2.1553125 8.26336914 -3.265625 8.26220703 C-5.75 8.1328125 -5.75 8.1328125 -6.75 7.1328125 C-6.875 4.1328125 -6.875 4.1328125 -6.75 1.1328125 C-4.97550406 -0.64168344 -2.39982739 0.00251178 0 0 Z " fill="#434448" transform="translate(34.75,16.8671875)"/>
<path d="M0 0 C0 0.66 0 1.32 0 2 C5.61 2 11.22 2 17 2 C17 3.32 17 4.64 17 6 C-14.28475147 7.85762426 -14.28475147 7.85762426 -20 5 C-21.67654729 5.27942455 -23.34608154 5.60828247 -25 6 C-25.33 4.68 -25.66 3.36 -26 2 C-26.66 2 -27.32 2 -28 2 C-28 1.34 -28 0.68 -28 0 C-25.70858714 -0.05384521 -23.41681812 -0.09272087 -21.125 -0.125 C-19.21074219 -0.15980469 -19.21074219 -0.15980469 -17.2578125 -0.1953125 C-14 0 -14 0 -12 2 C-11.01 2 -10.02 2 -9 2 C-8.67 1.34 -8.34 0.68 -8 0 C-4.71585695 -0.95067299 -3.30306592 -1.10102197 0 0 Z " fill="#3297DF" transform="translate(471,64)"/>
<path d="M0 0 C10.23 0 20.46 0 31 0 C31 1.98 31 3.96 31 6 C20.77 6 10.54 6 0 6 C0 4.02 0 2.04 0 0 Z " fill="#610EDE" transform="translate(147,267)"/>
<path d="M0 0 C8.25 0 16.5 0 25 0 C25 1.98 25 3.96 25 6 C16.75 6 8.5 6 0 6 C0 4.02 0 2.04 0 0 Z " fill="#B7A41C" transform="translate(147,214)"/>
<path d="M0 0 C7.92 0 15.84 0 24 0 C24 1.98 24 3.96 24 6 C16.08 6 8.16 6 0 6 C0 4.02 0 2.04 0 0 Z " fill="#487CE5" transform="translate(147,108)"/>
<path d="M0 0 C14.19 0 28.38 0 43 0 C43 1.32 43 2.64 43 4 C28.81 4 14.62 4 0 4 C0 2.68 0 1.36 0 0 Z " fill="#383A41" transform="translate(148,100)"/>
<path d="M0 0 C0.66 0 1.32 0 2 0 C2 0.66 2 1.32 2 2 C3.32 2 4.64 2 6 2 C6 1.34 6 0.68 6 0 C6.66 0 7.32 0 8 0 C8 0.66 8 1.32 8 2 C10.53346458 2.07037402 12.7237863 2.07102638 15.1875 1.4375 C17 1 17 1 19 2 C20.66619446 2.0396713 22.33391013 2.04384447 24 2 C24 3.65 24 5.3 24 7 C22.82630859 6.98259766 22.82630859 6.98259766 21.62890625 6.96484375 C20.61699219 6.95582031 19.60507813 6.94679688 18.5625 6.9375 C17.04849609 6.92009766 17.04849609 6.92009766 15.50390625 6.90234375 C13.05978933 6.71387324 13.05978933 6.71387324 12 8 C9.32941149 8.14115161 6.67567762 8.04247107 4 8 C4 6.35 4 4.7 4 3 C3.34 3 2.68 3 2 3 C2 4.32 2 5.64 2 7 C1.34 7 0.68 7 0 7 C0 4.69 0 2.38 0 0 Z " fill="#9DA3AB" transform="translate(155,38)"/>
<path d="M0 0 C6.93 0 13.86 0 21 0 C21 1.98 21 3.96 21 6 C14.07 6 7.14 6 0 6 C0 4.02 0 2.04 0 0 Z " fill="#DBBD41" transform="translate(147,161)"/>
<path d="M0 0 C1.18613892 0.00785522 1.18613892 0.00785522 2.39624023 0.01586914 C3.67724609 0.02070313 3.67724609 0.02070313 4.98413086 0.02563477 C5.88196289 0.03401367 6.77979492 0.04239258 7.70483398 0.05102539 C8.6065332 0.05553711 9.50823242 0.06004883 10.43725586 0.06469727 C12.67234712 0.07652315 14.90730835 0.09300319 17.14233398 0.11352539 C17.14233398 2.09352539 17.14233398 4.07352539 17.14233398 6.11352539 C10.54233398 6.11352539 3.94233398 6.11352539 -2.85766602 6.11352539 C-2.85766602 0.17463723 -2.85766602 0.17463723 0 0 Z " fill="#459062" transform="translate(149.857666015625,292.886474609375)"/>
<path d="M0 0 C6.6 0 13.2 0 20 0 C19.67 1.65 19.34 3.3 19 5 C13.44860651 7.48351814 8.83475015 6.85330338 3 6 C3 5.34 3 4.68 3 4 C2.01 4.33 1.02 4.66 0 5 C0 3.35 0 1.7 0 0 Z " fill="#1D1E23" transform="translate(416,63)"/>
<path d="M0 0 C0.74886475 0.00523682 1.49772949 0.01047363 2.26928711 0.01586914 C3.07817383 0.0190918 3.88706055 0.02231445 4.72045898 0.02563477 C5.5705957 0.03401367 6.42073242 0.04239258 7.29663086 0.05102539 C8.15063477 0.05553711 9.00463867 0.06004883 9.88452148 0.06469727 C12.00108749 0.07652166 14.11761771 0.0944577 16.23413086 0.11352539 C16.23413086 2.09352539 16.23413086 4.07352539 16.23413086 6.11352539 C9.96413086 6.11352539 3.69413086 6.11352539 -2.76586914 6.11352539 C-2.76586914 0.17781407 -2.76586914 0.17781407 0 0 Z " fill="#2ABD91" transform="translate(149.765869140625,239.886474609375)"/>
<path d="M0 0 C7.26 0 14.52 0 22 0 C22 1.65 22 3.3 22 5 C14.74 5 7.48 5 0 5 C0 3.35 0 1.7 0 0 Z " fill="#367678" transform="translate(147,188)"/>
<path d="M0 0 C13.2 0 26.4 0 40 0 C40 0.99 40 1.98 40 3 C26.65131342 3.74380741 13.36929696 4.13751277 0 4 C0 2.68 0 1.36 0 0 Z " fill="#45464D" transform="translate(148,153)"/>
<path d="M0 0 C5.28 0 10.56 0 16 0 C16 1.65 16 3.3 16 5 C15 6 15 6 11.875 6.1328125 C10.59625 6.13023437 9.3175 6.12765625 8 6.125 C6.72125 6.12757813 5.4425 6.13015625 4.125 6.1328125 C1 6 1 6 0 5 C0 3.35 0 1.7 0 0 Z " fill="#CD076C" transform="translate(147,135)"/>
<path d="M0 0 C2.48340903 -0.26727014 4.71472068 -0.34866334 7.1953125 -0.29296875 C8.25647781 -0.28660149 8.25647781 -0.28660149 9.33908081 -0.28010559 C11.60143905 -0.26329547 13.86291048 -0.22564128 16.125 -0.1875 C17.65753923 -0.17245607 19.1900924 -0.15876716 20.72265625 -0.14648438 C24.48211318 -0.11338462 28.24090618 -0.06158825 32 0 C32 0.33 32 0.66 32 1 C33.98 1.33 35.96 1.66 38 2 C38 2.33 38 2.66 38 3 C24.8 3 11.6 3 -2 3 C-1.34 2.01 -0.68 1.02 0 0 Z M22 1 C26 2 26 2 26 2 Z " fill="#36A5F4" transform="translate(453,70)"/>
<path d="M0 0 C2.29141286 -0.05384521 4.58318188 -0.09272087 6.875 -0.125 C8.78925781 -0.15980469 8.78925781 -0.15980469 10.7421875 -0.1953125 C14 0 14 0 16 2 C18.32275177 2.40047444 20.65739357 2.7397104 23 3 C23 3.99 23 4.98 23 6 C20.87506859 6.02693575 18.75004088 6.04636628 16.625 6.0625 C15.44164062 6.07410156 14.25828125 6.08570312 13.0390625 6.09765625 C10 6 10 6 8 5 C6.32345271 5.27942455 4.65391846 5.60828247 3 6 C2.67 4.68 2.34 3.36 2 2 C1.34 2 0.68 2 0 2 C0 1.34 0 0.68 0 0 Z " fill="#2C86C8" transform="translate(443,64)"/>
<path d="M0 0 C4.95 0 9.9 0 15 0 C15 1.98 15 3.96 15 6 C10.05 6 5.1 6 0 6 C0 4.02 0 2.04 0 0 Z " fill="#D90772" transform="translate(180,267)"/>
<path d="M0 0 C4.95 0 9.9 0 15 0 C15 1.98 15 3.96 15 6 C10.05 6 5.1 6 0 6 C0 4.02 0 2.04 0 0 Z " fill="#CC0369" transform="translate(167,240)"/>
<path d="M0 0 C4.95 0 9.9 0 15 0 C15 1.98 15 3.96 15 6 C10.05 6 5.1 6 0 6 C0 4.02 0 2.04 0 0 Z " fill="#CD046B" transform="translate(173,214)"/>
<path d="M0 0 C4.95 0 9.9 0 15 0 C15 1.98 15 3.96 15 6 C10.05 6 5.1 6 0 6 C0 4.02 0 2.04 0 0 Z " fill="#DD0B75" transform="translate(172,108)"/>
<path d="M0 0 C2.31243792 -0.02685412 4.6249627 -0.04632841 6.9375 -0.0625 C8.22527344 -0.07410156 9.51304687 -0.08570313 10.83984375 -0.09765625 C14 0 14 0 15 1 C15 2.65 15 4.3 15 6 C10.05 6 5.1 6 0 6 C0 4.02 0 2.04 0 0 Z " fill="#E40777" transform="translate(169,293)"/>
<path d="M0 0 C4.62 0 9.24 0 14 0 C14 1.98 14 3.96 14 6 C9.38 6 4.76 6 0 6 C0 4.02 0 2.04 0 0 Z " fill="#CE0E71" transform="translate(171,187)"/>
<path d="M0 0 C4.62 0 9.24 0 14 0 C14 1.98 14 3.96 14 6 C9.38 6 4.76 6 0 6 C0 4.02 0 2.04 0 0 Z " fill="#DE0875" transform="translate(170,161)"/>
<path d="M0 0 C1.084021 0.00523682 2.16804199 0.01047363 3.28491211 0.01586914 C5.03964844 0.02070313 5.03964844 0.02070313 6.82983398 0.02563477 C8.67738281 0.03820312 8.67738281 0.03820312 10.56225586 0.05102539 C12.41560547 0.05779297 12.41560547 0.05779297 14.30639648 0.06469727 C17.37089703 0.07652931 20.43530307 0.09301366 23.49975586 0.11352539 C23.49975586 0.44352539 23.49975586 0.77352539 23.49975586 1.11352539 C15.90975586 1.44352539 8.31975586 1.77352539 0.49975586 2.11352539 C0.82975586 3.43352539 1.15975586 4.75352539 1.49975586 6.11352539 C8.75975586 6.44352539 16.01975586 6.77352539 23.49975586 7.11352539 C23.49975586 7.44352539 23.49975586 7.77352539 23.49975586 8.11352539 C19.18726976 8.14239076 14.87480824 8.16027794 10.56225586 8.17602539 C9.33055664 8.1844043 8.09885742 8.1927832 6.82983398 8.20141602 C5.66000977 8.20463867 4.49018555 8.20786133 3.28491211 8.21118164 C1.65888062 8.21903687 1.65888062 8.21903687 0 8.22705078 C-2.50024414 8.11352539 -2.50024414 8.11352539 -3.50024414 7.11352539 C-3.62524414 4.11352539 -3.62524414 4.11352539 -3.50024414 1.11352539 C-2.50024414 0.11352539 -2.50024414 0.11352539 0 0 Z " fill="#35363B" transform="translate(31.500244140625,16.886474609375)"/>
<path d="M0 0 C9.57 0 19.14 0 29 0 C29 0.99 29 1.98 29 3 C23.54436699 3.77937614 18.8630079 4.00951702 13.41796875 3.2578125 C8.95831469 2.78230819 4.47901567 2.92465207 0 3 C0 2.01 0 1.02 0 0 Z " fill="#255A8B" transform="translate(148,253)"/>
<path d="M0 0 C9.57 0 19.14 0 29 0 C29 0.99 29 1.98 29 3 C23.54436699 3.77937614 18.8630079 4.00951702 13.41796875 3.2578125 C8.95831469 2.78230819 4.47901567 2.92465207 0 3 C0 2.01 0 1.02 0 0 Z " fill="#3F4149" transform="translate(148,259)"/>
<path d="M0 0 C3.54164915 -0.0292067 7.08326697 -0.04686814 10.625 -0.0625 C11.62402344 -0.07087891 12.62304688 -0.07925781 13.65234375 -0.08789062 C18.55020275 -0.1041087 23.18656199 -0.04318537 28 1 C25.28492656 3.71507344 22.68034686 3.78140764 19 4 C15.67813104 3.9730939 12.37663475 3.78176215 9.0625 3.5625 C8.18787109 3.51029297 7.31324219 3.45808594 6.41210938 3.40429688 C4.27435368 3.2757979 2.13711331 3.13877359 0 3 C0 2.01 0 1.02 0 0 Z " fill="#717982" transform="translate(160,84)"/>
<path d="M0 0 C8.58 0 17.16 0 26 0 C26 0.99 26 1.98 26 3 C17.42 3 8.84 3 0 3 C0 2.01 0 1.02 0 0 Z " fill="#A676F0" transform="translate(150,268)"/>
<path d="M0 0 C0.33 0.99 0.66 1.98 1 3 C2.09054688 2.87431641 2.09054688 2.87431641 3.203125 2.74609375 C9.74937922 2.08307569 15.81329163 2.13074152 22.3515625 2.80859375 C25.37493669 3.02709719 28.06005393 2.73498652 31 2 C31 2.66 31 3.32 31 4 C30.030625 4.309375 29.06125 4.61875 28.0625 4.9375 C25.15934208 5.69523342 25.15934208 5.69523342 24 7 C22.14712498 7.07226502 20.29166122 7.0838122 18.4375 7.0625 C17.42558594 7.05347656 16.41367188 7.04445313 15.37109375 7.03515625 C14.19740234 7.01775391 14.19740234 7.01775391 13 7 C12.67 6.01 12.34 5.02 12 4 C8.04 4 4.08 4 0 4 C0 2.68 0 1.36 0 0 Z " fill="#1F252F" transform="translate(147,253)"/>
<path d="M0 0 C4.02992782 0.55312735 8.02022924 1.1558062 12 2 C12 3.65 12 5.3 12 7 C8.04 7 4.08 7 0 7 C0 4.69 0 2.38 0 0 Z " fill="#959EA6" transform="translate(136,38)"/>
<path d="M0 0 C7.26 0 14.52 0 22 0 C22 1.32 22 2.64 22 4 C15.07 4 8.14 4 1 4 C0.67 2.68 0.34 1.36 0 0 Z " fill="#3F4147" transform="translate(165,285)"/>
<path d="M0 0 C7.26 0 14.52 0 22 0 C22 0.99 22 1.98 22 3 C20.18818595 3.19401633 18.37551468 3.38004375 16.5625 3.5625 C15.04849609 3.71912109 15.04849609 3.71912109 13.50390625 3.87890625 C12.26447266 3.93884766 12.26447266 3.93884766 11 4 C10.67 3.67 10.34 3.34 10 3 C8.31391034 2.92794489 6.62499341 2.91613932 4.9375 2.9375 C4.01839844 2.94652344 3.09929687 2.95554688 2.15234375 2.96484375 C1.44207031 2.97644531 0.73179687 2.98804688 0 3 C0 2.01 0 1.02 0 0 Z " fill="#3D3F47" transform="translate(198,206)"/>
<path d="M0 0 C6.93 0.33 13.86 0.66 21 1 C20.67 1.99 20.34 2.98 20 4 C13.07 4 6.14 4 -1 4 C-0.67 2.68 -0.34 1.36 0 0 Z " fill="#6C7374" transform="translate(421,128)"/>
<path d="M0 0 C7.26 0 14.52 0 22 0 C22 0.99 22 1.98 22 3 C14.74 3 7.48 3 0 3 C0 2.01 0 1.02 0 0 Z " fill="#3C3E46" transform="translate(160,127)"/>
<path d="M0 0 C6.93 0.33 13.86 0.66 21 1 C21 1.99 21 2.98 21 4 C14.07 4 7.14 4 0 4 C0 2.68 0 1.36 0 0 Z " fill="#3D3F47" transform="translate(164,232)"/>
<path d="M0 0 C3.12498063 -0.02895976 6.2499269 -0.04678483 9.375 -0.0625 C10.70917969 -0.07506836 10.70917969 -0.07506836 12.0703125 -0.08789062 C13.34648437 -0.09272461 13.34648437 -0.09272461 14.6484375 -0.09765625 C15.43395996 -0.10289307 16.21948242 -0.10812988 17.02880859 -0.11352539 C19 0 19 0 21 1 C20.67 1.99 20.34 2.98 20 4 C13.4 4 6.8 4 0 4 C0 2.68 0 1.36 0 0 Z " fill="#245078" transform="translate(148,94)"/>
<path d="M0 0 C7.59 0 15.18 0 23 0 C23 0.99 23 1.98 23 3 C15.41 3 7.82 3 0 3 C0 2.01 0 1.02 0 0 Z " fill="#717882" transform="translate(420,84)"/>
<path d="M0 0 C7.26 0 14.52 0 22 0 C22 0.99 22 1.98 22 3 C14.74 3 7.48 3 0 3 C0 2.01 0 1.02 0 0 Z " fill="#3C3F46" transform="translate(147,206)"/>
<path d="M0 0 C6.93 0.33 13.86 0.66 21 1 C21 1.99 21 2.98 21 4 C14.07 4 7.14 4 0 4 C0 2.68 0 1.36 0 0 Z " fill="#3E4047" transform="translate(168,179)"/>
<path d="M0 0 C7.92 0 15.84 0 24 0 C24 0.99 24 1.98 24 3 C22.18818595 3.19401633 20.37551468 3.38004375 18.5625 3.5625 C17.04849609 3.71912109 17.04849609 3.71912109 15.50390625 3.87890625 C14.26447266 3.93884766 14.26447266 3.93884766 13 4 C12.67 3.67 12.34 3.34 12 3 C10.52351124 2.90176004 9.04224583 2.87026481 7.5625 2.875 C6.75941406 2.87242187 5.95632812 2.86984375 5.12890625 2.8671875 C2.94602069 2.86421674 2.94602069 2.86421674 1 4 C0.34 3.67 -0.32 3.34 -1 3 C-0.67 2.01 -0.34 1.02 0 0 Z " fill="#255786" transform="translate(148,200)"/>
<path d="M0 0 C2.62506802 -0.02690844 5.24986173 -0.04679404 7.875 -0.0625 C8.62136719 -0.07087891 9.36773437 -0.07925781 10.13671875 -0.08789062 C15.7734375 -0.11328125 15.7734375 -0.11328125 18 1 C17.67 1.99 17.34 2.98 17 4 C11.39 4 5.78 4 0 4 C0 2.68 0 1.36 0 0 Z " fill="#575E65" transform="translate(370,66)"/>
<path d="M0 0 C1.32 0.33 2.64 0.66 4 1 C3.67 1.99 3.34 2.98 3 4 C5.1462026 3.85970581 7.29196218 3.71261836 9.4375 3.5625 C11.22994141 3.44068359 11.22994141 3.44068359 13.05859375 3.31640625 C15.88570244 3.32343886 15.88570244 3.32343886 17 2 C13.04 1.67 9.08 1.34 5 1 C5 0.67 5 0.34 5 0 C9.95 0 14.9 0 20 0 C20 1.65 20 3.3 20 5 C13.4 5 6.8 5 0 5 C0 3.35 0 1.7 0 0 Z " fill="#5CC785" transform="translate(147,294)"/>
<path d="M0 0 C6.6 0 13.2 0 20 0 C19.67 0.99 19.34 1.98 19 3 C18.34 3 17.68 3 17 3 C15.60330643 3.15929703 14.20757693 3.32711611 12.8125 3.5 C8.83802493 3.95661445 4.99729725 4.08504888 1 4 C0.67 2.68 0.34 1.36 0 0 Z " fill="#3D3F47" transform="translate(177,206)"/>
<path d="M0 0 C0.33 -0.33 0.66 -0.66 1 -1 C1.66 -1 2.32 -1 3 -1 C3.33 -0.34 3.66 0.32 4 1 C5.32 0.67 6.64 0.34 8 0 C8 1.32 8 2.64 8 4 C-8 4 -8 4 -11 3 C-10.67 2.01 -10.34 1.02 -10 0 C-6.31030849 -1.22989717 -3.80233187 -0.56330842 0 0 Z " fill="#727274" transform="translate(25,6)"/>
<path d="M0 0 C0.92941406 0.0721875 1.85882813 0.144375 2.81640625 0.21875 C4.05261719 0.3115625 5.28882813 0.404375 6.5625 0.5 C7.78066406 0.5928125 8.99882812 0.685625 10.25390625 0.78125 C13.84634216 0.99102728 17.40247543 1.03704015 21 1 C21 1.99 21 2.98 21 4 C14.07 4 7.14 4 0 4 C0 2.68 0 1.36 0 0 Z " fill="#3F4149" transform="translate(178,258)"/>
<path d="M0 0 C0 2.31 0 4.62 0 7 C-3 7 -6 7 -9 7 C-9 5.02 -9 3.04 -9 1 C-5.8035914 -0.06546953 -3.34252724 -0.07427838 0 0 Z " fill="#7B838C" transform="translate(189,38)"/>
<path d="M0 0 C0.66 0 1.32 0 2 0 C2 0.99 2 1.98 2 3 C7.28 3 12.56 3 18 3 C17.67 2.01 17.34 1.02 17 0 C17.99 0 18.98 0 20 0 C20 1.65 20 3.3 20 5 C13.4 5 6.8 5 0 5 C0 3.35 0 1.7 0 0 Z " fill="#F4D446" transform="translate(148,162)"/>
<path d="M0 0 C2.75006608 -0.0270203 5.49986546 -0.04684883 8.25 -0.0625 C9.02730469 -0.07087891 9.80460937 -0.07925781 10.60546875 -0.08789062 C11.73662109 -0.09272461 11.73662109 -0.09272461 12.890625 -0.09765625 C13.92751465 -0.10551147 13.92751465 -0.10551147 14.98535156 -0.11352539 C17.09973898 0.00562029 18.96641515 0.42381763 21 1 C21 1.66 21 2.32 21 3 C14.07 3 7.14 3 0 3 C0 2.01 0 1.02 0 0 Z " fill="#707780" transform="translate(420,102)"/>
<path d="M0 0 C3.29944222 -0.1571163 5.69895469 -0.11372823 8.8125 1.0625 C13.08367492 2.31872792 16.66244373 1.71328703 21 1 C21 1.99 21 2.98 21 4 C15.06 4 9.12 4 3 4 C3 3.01 3 2.02 3 1 C2.34 1 1.68 1 1 1 C1 2.65 1 4.3 1 6 C0.67 6 0.34 6 0 6 C0 4.02 0 2.04 0 0 Z " fill="#33569D" transform="translate(147,108)"/>
<path d="M0 0 C5.61 0.33 11.22 0.66 17 1 C17 1.66 17 2.32 17 3 C13.99686252 4.50156874 11.20932478 4.09281204 7.875 4.0625 C6.59367188 4.05347656 5.31234375 4.04445313 3.9921875 4.03515625 C2.51105469 4.01775391 2.51105469 4.01775391 1 4 C0.67 2.68 0.34 1.36 0 0 Z " fill="#245381" transform="translate(147,279)"/>
<path d="M0 0 C0.66 0 1.32 0 2 0 C2 1.65 2 3.3 2 5 C6.62 5 11.24 5 16 5 C16 5.33 16 5.66 16 6 C9.565 6.495 9.565 6.495 3 7 C3 7.33 3 7.66 3 8 C-4.59 8 -12.18 8 -20 8 C-20 7.67 -20 7.34 -20 7 C-13.4 7 -6.8 7 0 7 C0 4.69 0 2.38 0 0 Z " fill="#3C1D34" transform="translate(169,188)"/>
<path d="M0 0 C5.28 0.33 10.56 0.66 16 1 C16 1.99 16 2.98 16 4 C10.72 4 5.44 4 0 4 C0 2.68 0 1.36 0 0 Z " fill="#3A3D44" transform="translate(148,285)"/>
<path d="M0 0 C-0.33 1.32 -0.66 2.64 -1 4 C-1.51046875 3.84660156 -2.0209375 3.69320312 -2.546875 3.53515625 C-5.7749338 2.83094597 -8.95418001 2.65111796 -12.25 2.4375 C-13.51328125 2.35371094 -14.7765625 2.26992187 -16.078125 2.18359375 C-17.04234375 2.12300781 -18.0065625 2.06242188 -19 2 C-19 1.34 -19 0.68 -19 0 C-12.42150508 -0.95494281 -6.58183362 -0.8931507 0 0 Z " fill="#255482" transform="translate(167,174)"/>
<path d="M0 0 C5.61 0 11.22 0 17 0 C16.67 0.99 16.34 1.98 16 3 C11.05 3 6.1 3 1 3 C0.67 2.01 0.34 1.02 0 0 Z " fill="#36A4F2" transform="translate(470,63)"/>
<path d="M0 0 C2.31 0 4.62 0 7 0 C7.04254356 1.99954746 7.04080783 4.00041636 7 6 C6 7 6 7 2.9375 7.0625 C1.4834375 7.0315625 1.4834375 7.0315625 0 7 C0 4.69 0 2.38 0 0 Z " fill="#01A499" transform="translate(17,18)"/>
<path d="M0 0 C6.27 0 12.54 0 19 0 C18.67 1.32 18.34 2.64 18 4 C17.20335937 3.855625 16.40671875 3.71125 15.5859375 3.5625 C13.99652344 3.2840625 13.99652344 3.2840625 12.375 3 C11.33085937 2.814375 10.28671875 2.62875 9.2109375 2.4375 C6.09425135 2.01284203 3.14069188 1.92454794 0 2 C0 1.34 0 0.68 0 0 Z " fill="#43464F" transform="translate(148,180)"/>
<path d="M0 0 C6.6 0 13.2 0 20 0 C20 1.32 20 2.64 20 4 C13.07 3.67 6.14 3.34 -1 3 C-0.67 2.01 -0.34 1.02 0 0 Z " fill="#23699B" transform="translate(468,66)"/>
<path d="M0 0 C4.62 0 9.24 0 14 0 C13.67 0.66 13.34 1.32 13 2 C12.01 2 11.02 2 10 2 C9.67 2.99 9.34 3.98 9 5 C7.02 5.33 5.04 5.66 3 6 C2.67 4.68 2.34 3.36 2 2 C1.34 2 0.68 2 0 2 C0 1.34 0 0.68 0 0 Z " fill="#2671A6" transform="translate(443,64)"/>
<path d="M0 0 C4.95 0 9.9 0 15 0 C15.33 0.99 15.66 1.98 16 3 C10.72 3 5.44 3 0 3 C0 2.01 0 1.02 0 0 Z " fill="#46474C" transform="translate(261,6)"/>
<path d="M0 0 C2.08410658 0.08733973 4.16734669 0.19552278 6.25 0.3125 C7.99023438 0.39951172 7.99023438 0.39951172 9.765625 0.48828125 C13 1 13 1 17 4 C11.39 4 5.78 4 0 4 C0 2.68 0 1.36 0 0 Z " fill="#36383E" transform="translate(148,66)"/>
<path d="M0 0 C6.6 0.33 13.2 0.66 20 1 C20.33 1.66 20.66 2.32 21 3 C14.07 3 7.14 3 0 3 C0 2.01 0 1.02 0 0 Z " fill="#595C62" transform="translate(32,19)"/>
<path d="M0 0 C2.19050021 0.09017996 4.378466 0.24666208 6.5625 0.4375 C7.76003906 0.53933594 8.95757812 0.64117187 10.19140625 0.74609375 C11.11824219 0.82988281 12.04507813 0.91367188 13 1 C13 1.99 13 2.98 13 4 C11.25008666 4.02715383 9.50005055 4.04646551 7.75 4.0625 C6.28820312 4.07990234 6.28820312 4.07990234 4.796875 4.09765625 C2.34241322 4.01195577 0.33831086 3.70706066 -2 3 C-1 1 -1 1 0 0 Z " fill="#404249" transform="translate(150,232)"/>
<path d="M0 0 C0 1.98 0 3.96 0 6 C-3.63 6 -7.26 6 -11 6 C-10.67 5.01 -10.34 4.02 -10 3 C-6.97980376 1.53071534 -3.42569911 0 0 0 Z " fill="#15161B" transform="translate(436,67)"/>
<path d="M0 0 C0.66 0 1.32 0 2 0 C2 0.66 2 1.32 2 2 C3.32 2 4.64 2 6 2 C6.33 1.34 6.66 0.68 7 0 C7 2.31 7 4.62 7 7 C8.65 6.67 10.3 6.34 12 6 C12 6.66 12 7.32 12 8 C9.36 8 6.72 8 4 8 C4 6.35 4 4.7 4 3 C3.34 3 2.68 3 2 3 C2 4.32 2 5.64 2 7 C1.34 7 0.68 7 0 7 C0 4.69 0 2.38 0 0 Z " fill="#5B6569" transform="translate(155,38)"/>
<path d="M0 0 C1.25425781 0.00902344 2.50851563 0.01804688 3.80078125 0.02734375 C4.75339844 0.03894531 5.70601562 0.05054688 6.6875 0.0625 C6.6875 1.0525 6.6875 2.0425 6.6875 3.0625 C0.4175 3.0625 -5.8525 3.0625 -12.3125 3.0625 C-12.3125 2.4025 -12.3125 1.7425 -12.3125 1.0625 C-8.15623632 0.05323521 -4.26884906 -0.03989579 0 0 Z " fill="#42444C" transform="translate(181.3125,152.9375)"/>
<path d="M0 0 C4.95 0 9.9 0 15 0 C15 0.99 15 1.98 15 3 C13.25008666 3.02715383 11.50005055 3.04646551 9.75 3.0625 C8.28820312 3.07990234 8.28820312 3.07990234 6.796875 3.09765625 C4.34241322 3.01195577 2.33831086 2.70706066 0 2 C0 1.34 0 0.68 0 0 Z " fill="#25598B" transform="translate(148,227)"/>
<path d="M0 0 C3.3 0 6.6 0 10 0 C10 1.32 10 2.64 10 4 C6.7 4 3.4 4 0 4 C0 2.68 0 1.36 0 0 Z " fill="#565D65" transform="translate(448,128)"/>
<path d="M0 0 C0 0.99 0 1.98 0 3 C-2.27020744 3.19493195 -4.54120289 3.38070418 -6.8125 3.5625 C-8.07707031 3.66691406 -9.34164063 3.77132812 -10.64453125 3.87890625 C-14 4 -14 4 -17 3 C-17 2.34 -17 1.68 -17 1 C-11.33357449 -0.22517308 -5.76291482 -0.09228867 0 0 Z " fill="#798185" transform="translate(406,66)"/>
<path d="M0 0 C3.96 0.33 7.92 0.66 12 1 C12 1.66 12 2.32 12 3 C9.47524538 4.26237731 7.68799534 4.09856404 4.875 4.0625 C3.96492188 4.05347656 3.05484375 4.04445313 2.1171875 4.03515625 C1.41851562 4.02355469 0.71984375 4.01195312 0 4 C0 2.68 0 1.36 0 0 Z " fill="#61656F" transform="translate(420,287)"/>
<path d="M0 0 C0 0.99 0 1.98 0 3 C-1.79158489 3.02696365 -3.58328473 3.04637917 -5.375 3.0625 C-6.37273437 3.07410156 -7.37046875 3.08570312 -8.3984375 3.09765625 C-11 3 -11 3 -13 2 C-13 1.34 -13 0.68 -13 0 C-9.03230578 -1.98384711 -4.14470514 -1.32630565 0 0 Z " fill="#21405E" transform="translate(161,121)"/>
<path d="M0 0 C4.29 0 8.58 0 13 0 C13 0.99 13 1.98 13 3 C9.04 3 5.08 3 1 3 C0.67 2.01 0.34 1.02 0 0 Z " fill="#70767E" transform="translate(477,84)"/>
<path d="M0 0 C3.96 0 7.92 0 12 0 C12.33 0.99 12.66 1.98 13 3 C8.71 3 4.42 3 0 3 C0 2.01 0 1.02 0 0 Z " fill="#666973" transform="translate(420,208)"/>
<path d="M0 0 C3.96 0 7.92 0 12 0 C12.33 0.99 12.66 1.98 13 3 C8.71 3 4.42 3 0 3 C0 2.01 0 1.02 0 0 Z " fill="#5D6068" transform="translate(420,261)"/>
<path d="M0 0 C0 1.65 0 3.3 0 5 C-1.98 5 -3.96 5 -6 5 C-6 4.67 -6 4.34 -6 4 C-7.65 3.67 -9.3 3.34 -11 3 C-11 2.34 -11 1.68 -11 1 C-7.26562152 0.12132271 -3.83225427 -0.08912219 0 0 Z " fill="#EE3994" transform="translate(185,188)"/>
<path d="M0 0 C5.61 0 11.22 0 17 0 C17 0.99 17 1.98 17 3 C11.39 2.67 5.78 2.34 0 2 C0 1.34 0 0.68 0 0 Z " fill="#97B8B9" transform="translate(150,189)"/>
<path d="M0 0 C3.3 0 6.6 0 10 0 C10 1.32 10 2.64 10 4 C6.7 4 3.4 4 0 4 C0 2.68 0 1.36 0 0 Z " fill="#5B6168" transform="translate(442,181)"/>
<path d="M0 0 C5.94 0 11.88 0 18 0 C18 1.98 18 3.96 18 6 C17.67 6 17.34 6 17 6 C17 4.35 17 2.7 17 1 C16.19175781 1.16757813 15.38351563 1.33515625 14.55078125 1.5078125 C13.48214844 1.71148437 12.41351563 1.91515625 11.3125 2.125 C10.25675781 2.33382812 9.20101562 2.54265625 8.11328125 2.7578125 C4.75602341 3.01897936 2.9770956 2.49130948 0 1 C0 0.67 0 0.34 0 0 Z " fill="#416DC7" transform="translate(153,108)"/>
<path d="M0 0 C1.2065625 0.0309375 1.2065625 0.0309375 2.4375 0.0625 C3.5625 3.8125 3.5625 3.8125 2.4375 6.0625 C0.7875 6.0625 -0.8625 6.0625 -2.5625 6.0625 C-2.94468767 4.40635343 -3.27645102 2.73792976 -3.5625 1.0625 C-2.5625 0.0625 -2.5625 0.0625 0 0 Z " fill="#75A580" transform="translate(8.5625,3.9375)"/>
<path d="M0 0 C5.28 0.33 10.56 0.66 16 1 C16 1.66 16 2.32 16 3 C10.72 3 5.44 3 0 3 C0 2.01 0 1.02 0 0 Z " fill="#A78F2F" transform="translate(150,162)"/>
<path d="M0 0 C0.98484375 0.00902344 1.9696875 0.01804688 2.984375 0.02734375 C4.10585937 0.04474609 4.10585937 0.04474609 5.25 0.0625 C5.58 1.0525 5.91 2.0425 6.25 3.0625 C3.95858714 3.11634521 1.66681812 3.15522087 -0.625 3.1875 C-2.53925781 3.22230469 -2.53925781 3.22230469 -4.4921875 3.2578125 C-7.75 3.0625 -7.75 3.0625 -9.75 1.0625 C-6.43929162 0.06140485 -3.44915231 -0.04106134 0 0 Z " fill="#26629A" transform="translate(159.75,146.9375)"/>
<path d="M0 0 C4.29 0 8.58 0 13 0 C13 0.99 13 1.98 13 3 C11.58344207 3.0272415 10.16672955 3.04650467 8.75 3.0625 C7.56664062 3.07990234 7.56664062 3.07990234 6.359375 3.09765625 C4.09308998 3.00385306 2.1711105 2.63241063 0 2 C0 1.34 0 0.68 0 0 Z " fill="#676B74" transform="translate(420,182)"/>
<path d="M0 0 C1.79158489 -0.02696365 3.58328473 -0.04637917 5.375 -0.0625 C6.37273437 -0.07410156 7.37046875 -0.08570313 8.3984375 -0.09765625 C11 0 11 0 13 1 C13 1.66 13 2.32 13 3 C8.38926889 4.29676812 4.66159911 3.71109139 0 3 C0 2.01 0 1.02 0 0 Z " fill="#686C77" transform="translate(420,155)"/>
<path d="M0 0 C2.31 0.33 4.62 0.66 7 1 C7 1.66 7 2.32 7 3 C9.31 3 11.62 3 14 3 C14 3.33 14 3.66 14 4 C9.05 4 4.1 4 -1 4 C-0.67 2.68 -0.34 1.36 0 0 Z " fill="#5E646E" transform="translate(421,128)"/>
<path d="M0 0 C3.63 0.33 7.26 0.66 11 1 C11 1.99 11 2.98 11 4 C7.37 4 3.74 4 0 4 C0 2.68 0 1.36 0 0 Z " fill="#35373F" transform="translate(148,126)"/>
<path d="M0 0 C6.625 -0.125 6.625 -0.125 10 1 C10 1.99 10 2.98 10 4 C6.7 4 3.4 4 0 4 C0 2.68 0 1.36 0 0 Z " fill="#5E656B" transform="translate(442,260)"/>
<path d="M0 0 C4.29 0.33 8.58 0.66 13 1 C13 1.66 13 2.32 13 3 C8.38926889 4.29676812 4.66159911 3.71109139 0 3 C0 2.01 0 1.02 0 0 Z " fill="#6A6E78" transform="translate(420,234)"/>
<path d="M0 0 C3.3 0 6.6 0 10 0 C10 0.99 10 1.98 10 3 C3.375 4 3.375 4 0 4 C0 2.68 0 1.36 0 0 Z " fill="#60666C" transform="translate(442,234)"/>
<path d="M0 0 C0 0.99 0 1.98 0 3 C-3.3 3 -6.6 3 -10 3 C-10 2.01 -10 1.02 -10 0 C-6.33694766 -0.74926071 -3.57644848 -1.2380014 0 0 Z " fill="#5E666E" transform="translate(458,102)"/>
<path d="M0 0 C3.3 0 6.6 0 10 0 C10 0.99 10 1.98 10 3 C6.7 3.33 3.4 3.66 0 4 C0 2.68 0 1.36 0 0 Z " fill="#61676E" transform="translate(442,287)"/>
<path d="M0 0 C1.65 0 3.3 0 5 0 C5.625 1.875 5.625 1.875 6 4 C5.34 4.66 4.68 5.32 4 6 C1.875 5.625 1.875 5.625 0 5 C0 3.35 0 1.7 0 0 Z " fill="#29292F" transform="translate(138,260)"/>
<path d="M0 0 C3.3 0 6.6 0 10 0 C10 0.99 10 1.98 10 3 C6.30458414 3.95024979 3.69541586 3.95024979 0 3 C0 2.01 0 1.02 0 0 Z " fill="#61686E" transform="translate(442,155)"/>
<path d="M0 0 C2.31243792 -0.02685412 4.6249627 -0.04632841 6.9375 -0.0625 C8.22527344 -0.07410156 9.51304687 -0.08570313 10.83984375 -0.09765625 C14 0 14 0 15 1 C15.04063832 2.66617115 15.042721 4.33388095 15 6 C14.34 6 13.68 6 13 6 C13 4.68 13 3.36 13 2 C8.71 1.67 4.42 1.34 0 1 C0 0.67 0 0.34 0 0 Z " fill="#B20760" transform="translate(169,293)"/>
<path d="M0 0 C0.33 0.66 0.66 1.32 1 2 C3.52733235 2.65555119 3.52733235 2.65555119 6 3 C6 3.99 6 4.98 6 6 C4.02 6.33 2.04 6.66 0 7 C0 4.69 0 2.38 0 0 Z " fill="#A8ACB1" transform="translate(162,38)"/>
<path d="M0 0 C2.97 0.495 2.97 0.495 6 1 C6 2.65 6 4.3 6 6 C3.69 6 1.38 6 -1 6 C-0.67 4.02 -0.34 2.04 0 0 Z " fill="#9DA3AA" transform="translate(142,39)"/>
<path d="M0 0 C2.97 0 5.94 0 9 0 C9.33 0.99 9.66 1.98 10 3 C6.7 3 3.4 3 0 3 C0 2.01 0 1.02 0 0 Z " fill="#4C4D52" transform="translate(249,6)"/>
<path d="M0 0 C3.3 0 6.6 0 10 0 C10 0.99 10 1.98 10 3 C6.7 3 3.4 3 0 3 C0 2.01 0 1.02 0 0 Z " fill="#636A70" transform="translate(442,208)"/>
<path d="M0 0 C2.0625 0.4375 2.0625 0.4375 4 1 C4 2.65 4 4.3 4 6 C2.35 6 0.7 6 -1 6 C-1.042721 4.33388095 -1.04063832 2.66617115 -1 1 C-0.67 0.67 -0.34 0.34 0 0 Z " fill="#28292F" transform="translate(139,153)"/>
<path d="M0 0 C2.0625 0.4375 2.0625 0.4375 4 1 C4 2.65 4 4.3 4 6 C2.35 6 0.7 6 -1 6 C-1.042721 4.33388095 -1.04063832 2.66617115 -1 1 C-0.67 0.67 -0.34 0.34 0 0 Z " fill="#292A30" transform="translate(139,127)"/>
<path d="M0 0 C0.66 0 1.32 0 2 0 C2 1.65 2 3.3 2 5 C-4.27 4.67 -10.54 4.34 -17 4 C-17 3.67 -17 3.34 -17 3 C-11.39 3 -5.78 3 0 3 C0 2.01 0 1.02 0 0 Z " fill="#4474D8" transform="translate(168,109)"/>
<path d="M0 0 C1.65 0 3.3 0 5 0 C5 1.65 5 3.3 5 5 C3.0625 5.5625 3.0625 5.5625 1 6 C0 5 0 5 -0.0625 2.4375 C-0.041875 1.633125 -0.02125 0.82875 0 0 Z " fill="#29292F" transform="translate(138,101)"/>
<path d="M0 0 C0.33 1.32 0.66 2.64 1 4 C-2.81684076 4.08876374 -6.30704038 4.02582212 -10 3 C-10.66 2.34 -11.32 1.68 -12 1 C-6.06 0.505 -6.06 0.505 0 0 Z " fill="#42444B" transform="translate(190,100)"/>
<path d="M0 0 C1.65 0 3.3 0 5 0 C5 1.65 5 3.3 5 5 C3.0625 5.5625 3.0625 5.5625 1 6 C0 5 0 5 -0.0625 2.4375 C-0.041875 1.633125 -0.02125 0.82875 0 0 Z " fill="#292A30" transform="translate(138,83)"/>
<path d="M0 0 C2.97 0.33 5.94 0.66 9 1 C9 1.99 9 2.98 9 4 C6.03 3.67 3.06 3.34 0 3 C0 2.01 0 1.02 0 0 Z " fill="#434449" transform="translate(239,5)"/>
<path d="M0 0 C0.33 0 0.66 0 1 0 C1 2.31 1 4.62 1 7 C-0.65 7 -2.3 7 -4 7 C-4 5.35 -4 3.7 -4 2 C-2.68 2 -1.36 2 0 2 C0 1.34 0 0.68 0 0 Z " fill="#AFB5BB" transform="translate(188,38)"/>
<path d="M0 0 C3.3 0 6.6 0 10 0 C10.33 0.99 10.66 1.98 11 3 C3.57142857 3.14285714 3.57142857 3.14285714 0 2 C0 1.34 0 0.68 0 0 Z " fill="#47484D" transform="translate(287,6)"/>
<path d="M0 0 C2.31 0 4.62 0 7 0 C7 0.99 7 1.98 7 3 C2.545 3.495 2.545 3.495 -2 4 C-1.34 2.68 -0.68 1.36 0 0 Z " fill="#24507A" transform="translate(170,253)"/>
<path d="M0 0 C1.65 0 3.3 0 5 0 C5 1.65 5 3.3 5 5 C3.35 5 1.7 5 0 5 C0 3.35 0 1.7 0 0 Z " fill="#2A2B31" transform="translate(138,207)"/>
<path d="M0 0 C1.65 0 3.3 0 5 0 C5 1.65 5 3.3 5 5 C3.35 5 1.7 5 0 5 C0 3.35 0 1.7 0 0 Z " fill="#292A30" transform="translate(138,181)"/>
<path d="M0 0 C1.32 0.33 2.64 0.66 4 1 C4 1.33 4 1.66 4 2 C7.63 2.33 11.26 2.66 15 3 C15 3.33 15 3.66 15 4 C10.05 4 5.1 4 0 4 C0 2.68 0 1.36 0 0 Z " fill="#213C58" transform="translate(148,147)"/>
<path d="M0 0 C2.97 0.33 5.94 0.66 9 1 C9 1.66 9 2.32 9 3 C5.52176885 4.15941038 3.54104422 3.70820884 0 3 C0 2.01 0 1.02 0 0 Z " fill="#EE5EA7" transform="translate(172,294)"/>
<path d="M0 0 C2.97 0.33 5.94 0.66 9 1 C9 1.66 9 2.32 9 3 C6.03 3 3.06 3 0 3 C0 2.01 0 1.02 0 0 Z " fill="#EF5FA8" transform="translate(170,241)"/>
<path d="M0 0 C-0.33 0.99 -0.66 1.98 -1 3 C-3.97 2.67 -6.94 2.34 -10 2 C-10 1.34 -10 0.68 -10 0 C-6.30458414 -0.95024979 -3.69541586 -0.95024979 0 0 Z " fill="#737C81" transform="translate(388,67)"/>
<path d="M0 0 C2.97 0 5.94 0 9 0 C8.67 1.32 8.34 2.64 8 4 C5.69 4 3.38 4 1 4 C0.67 2.68 0.34 1.36 0 0 Z " fill="#363940" transform="translate(165,285)"/>
<path d="M0 0 C1.22589844 0.01353516 1.22589844 0.01353516 2.4765625 0.02734375 C3.41628906 0.04474609 3.41628906 0.04474609 4.375 0.0625 C4.045 1.3825 3.715 2.7025 3.375 4.0625 C0.02066891 3.11316101 -3.31746505 2.16501165 -6.625 1.0625 C-4.21954362 -0.14022819 -2.67503047 -0.03821472 0 0 Z " fill="#265D8D" transform="translate(162.625,173.9375)"/>
<path d="M0 0 C2.97 0 5.94 0 9 0 C9 0.99 9 1.98 9 3 C6.03 3 3.06 3 0 3 C0 2.01 0 1.02 0 0 Z " fill="#ED67AB" transform="translate(151,136)"/>
<path d="M0 0 C8.57142857 -0.14285714 8.57142857 -0.14285714 12 1 C12 1.66 12 2.32 12 3 C10.56344146 3.08131463 9.1255517 3.13933559 7.6875 3.1875 C6.48673828 3.23970703 6.48673828 3.23970703 5.26171875 3.29296875 C2.52148416 2.93801608 1.70828921 2.10633718 0 0 Z " fill="#656D6C" transform="translate(429,102)"/>
<path d="M0 0 C2.0625 0.4375 2.0625 0.4375 4 1 C4 2.65 4 4.3 4 6 C2.68 5.67 1.36 5.34 0 5 C-0.5625 3.0625 -0.5625 3.0625 -1 1 C-0.67 0.67 -0.34 0.34 0 0 Z " fill="#A5ACB3" transform="translate(191,39)"/>
<path d="M0 0 C2.64 0 5.28 0 8 0 C7.67 0.99 7.34 1.98 7 3 C4.69 3 2.38 3 0 3 C0 2.01 0 1.02 0 0 Z " fill="#48494E" transform="translate(278,6)"/>
<path d="M0 0 C2.97 0 5.94 0 9 0 C9 0.99 9 1.98 9 3 C6.03 3 3.06 3 0 3 C0 2.01 0 1.02 0 0 Z " fill="#EE6AAD" transform="translate(176,215)"/>
<path d="M0 0 C2.97 0.33 5.94 0.66 9 1 C9 1.99 9 2.98 9 4 C6.36 3.67 3.72 3.34 1 3 C0.67 2.01 0.34 1.02 0 0 Z " fill="#788389" transform="translate(418,66)"/>
<path d="M0 0 C0 0.66 0 1.32 0 2 C-3.63 2 -7.26 2 -11 2 C-10.67 1.34 -10.34 0.68 -10 0 C-6.35526801 -0.89093449 -3.57257469 -1.23666047 0 0 Z " fill="#226899" transform="translate(466,67)"/>
<path d="M0 0 C2.97 0 5.94 0 9 0 C9 0.99 9 1.98 9 3 C6.03 2.67 3.06 2.34 0 2 C0 1.34 0 0.68 0 0 Z " fill="#EE68AE" transform="translate(183,268)"/>
<path d="M0 0 C1.98 0 3.96 0 6 0 C6 1.65 6 3.3 6 5 C3.03 4.505 3.03 4.505 0 4 C0.99 3.67 1.98 3.34 3 3 C3 2.34 3 1.68 3 1 C2.01 0.67 1.02 0.34 0 0 Z " fill="#E90E7C" transform="translate(176,241)"/>
<path d="M0 0 C1.65 0 3.3 0 5 0 C5.33 1.32 5.66 2.64 6 4 C4.02 4 2.04 4 0 4 C0 2.68 0 1.36 0 0 Z " fill="#596169" transform="translate(434,181)"/>
<path d="M0 0 C2.64 0.33 5.28 0.66 8 1 C8 1.66 8 2.32 8 3 C5.36 3.33 2.72 3.66 0 4 C0 2.68 0 1.36 0 0 Z " fill="#265E91" transform="translate(148,94)"/>
<path d="M0 0 C1.32 0.66 2.64 1.32 4 2 C3.67 3.32 3.34 4.64 3 6 C1.68 5.34 0.36 4.68 -1 4 C-0.67 2.68 -0.34 1.36 0 0 Z " fill="#393B41" transform="translate(140,65)"/>
<path d="M0 0 C0.66 0 1.32 0 2 0 C2 0.66 2 1.32 2 2 C2.99 2 3.98 2 5 2 C5 3.65 5 5.3 5 7 C4.67 5.68 4.34 4.36 4 3 C3.34 3 2.68 3 2 3 C2 4.32 2 5.64 2 7 C1.34 7 0.68 7 0 7 C0 4.69 0 2.38 0 0 Z " fill="#C2D1D7" transform="translate(155,38)"/>
<path d="M0 0 C0.33 1.32 0.66 2.64 1 4 C4.27773504 3.24849977 4.27773504 3.24849977 6 0 C6 1.98 6 3.96 6 6 C4.02 6 2.04 6 0 6 C0 4.02 0 2.04 0 0 Z " fill="#02B8AD" transform="translate(17,19)"/>
<path d="M0 0 C1.65 0 3.3 0 5 0 C5.33 1.32 5.66 2.64 6 4 C4.02 4 2.04 4 0 4 C0 2.68 0 1.36 0 0 Z " fill="#5C636C" transform="translate(434,287)"/>
<path d="M0 0 C0 0.99 0 1.98 0 3 C-2.97 2.67 -5.94 2.34 -9 2 C-5.5647952 -0.29013653 -4.014669 -0.17842973 0 0 Z " fill="#414249" transform="translate(164,286)"/>
<path d="M0 0 C1.65 0 3.3 0 5 0 C5.33 1.32 5.66 2.64 6 4 C4.02 4 2.04 4 0 4 C0 2.68 0 1.36 0 0 Z " fill="#5B636C" transform="translate(434,234)"/>
<path d="M0 0 C0 0.99 0 1.98 0 3 C1.65 3 3.3 3 5 3 C5 3.33 5 3.66 5 4 C-2.42857143 4.28571429 -2.42857143 4.28571429 -6 2 C-3 0 -3 0 0 0 Z " fill="#313239" transform="translate(169,153)"/>
<path d="M0 0 C2.97 0.495 2.97 0.495 6 1 C6.33 1.99 6.66 2.98 7 4 C4.69 4 2.38 4 0 4 C0 2.68 0 1.36 0 0 Z " fill="#383A42" transform="translate(148,153)"/>
<path d="M0 0 C1.32 0 2.64 0 4 0 C4 1.65 4 3.3 4 5 C2.68 5 1.36 5 0 5 C0 3.35 0 1.7 0 0 Z " fill="#ACB2B8" transform="translate(150,40)"/>
<path d="M0 0 C0.598125 0.33 1.19625 0.66 1.8125 1 C4.05386471 2.20787988 4.05386471 2.20787988 7 2 C7 2.66 7 3.32 7 4 C4.03 4 1.06 4 -2 4 C-1.34 2.68 -0.68 1.36 0 0 Z " fill="#E80A7B" transform="translate(175,215)"/>
<path d="M0 0 C4.29 0 8.58 0 13 0 C13 0.99 13 1.98 13 3 C12.01 3 11.02 3 10 3 C10 2.34 10 1.68 10 1 C6.7 1 3.4 1 0 1 C0 0.67 0 0.34 0 0 Z " fill="#35363D" transform="translate(207,206)"/>
<path d="M0 0 C-0.33 1.32 -0.66 2.64 -1 4 C-3.97 3.505 -3.97 3.505 -7 3 C-4.49955934 -0.00052879 -4.2621484 0 0 0 Z " fill="#393A41" transform="translate(167,180)"/>
<path d="M0 0 C2.97 0.33 5.94 0.66 9 1 C9 1.66 9 2.32 9 3 C6.03 3 3.06 3 0 3 C0 2.01 0 1.02 0 0 Z " fill="#EF73B2" transform="translate(173,162)"/>
<path d="M0 0 C2.97 0.495 2.97 0.495 6 1 C6 1.99 6 2.98 6 4 C4.02 4 2.04 4 0 4 C0 2.68 0 1.36 0 0 Z " fill="#255787" transform="translate(155,120)"/>
<path d="M0 0 C2.31 0.33 4.62 0.66 7 1 C6.67 1.66 6.34 2.32 6 3 C4.02 3 2.04 3 0 3 C0 2.01 0 1.02 0 0 Z " fill="#717582" transform="translate(420,261)"/>
<path d="M0 0 C1.65 0 3.3 0 5 0 C5 0.99 5 1.98 5 3 C3.35 3.33 1.7 3.66 0 4 C0 2.68 0 1.36 0 0 Z " fill="#5E656E" transform="translate(434,155)"/>
<path d="M0 0 C0 0.66 0 1.32 0 2 C-2.97 2 -5.94 2 -9 2 C-4 -1.33333333 -4 -1.33333333 0 0 Z " fill="#255580" transform="translate(166,148)"/>
<path d="M0 0 C2.97 0.33 5.94 0.66 9 1 C9 1.66 9 2.32 9 3 C6.03 3 3.06 3 0 3 C0 2.01 0 1.02 0 0 Z " fill="#EF69B0" transform="translate(175,109)"/>
<path d="M0 0 C2.31 0.33 4.62 0.66 7 1 C6.67 1.66 6.34 2.32 6 3 C2.9375 3.625 2.9375 3.625 0 4 C0 2.68 0 1.36 0 0 Z " fill="#454750" transform="translate(148,100)"/>
</svg>
