<?xml version="1.0" encoding="UTF-8"?>
<svg version="1.1" xmlns="http://www.w3.org/2000/svg" width="624" height="364">
<path d="M0 0 C205.92 0 411.84 0 624 0 C624 120.12 624 240.24 624 364 C418.08 364 212.16 364 0 364 C0 243.88 0 123.76 0 0 Z " fill="#FAFBFC" transform="translate(0,0)"/>
<path d="M0 0 C205.92 0 411.84 0 624 0 C624 120.12 624 240.24 624 364 C418.08 364 212.16 364 0 364 C0 243.88 0 123.76 0 0 Z M7 53 C7 154.31 7 255.62 7 360 C207.64 360 408.28 360 615 360 C615 258.69 615 157.38 615 53 C441.75 53 268.5 53 90 53 C91.40375831 56.54321888 91.40375831 56.54321888 93 60 C94.37195756 76.07150284 89.9571071 90.22932503 80 103 C77.48512346 105.13477218 75.01013403 106.67158404 72 108 C71.01 108.495 71.01 108.495 70 109 C66.81846201 109.24068851 63.62712973 109.18520695 60.4375 109.1875 C59.56802734 109.19974609 58.69855469 109.21199219 57.80273438 109.22460938 C48.79130942 109.24476916 41.49869477 108.01225133 34 102.875 C33.4011499 102.47539063 32.8022998 102.07578125 32.18530273 101.6640625 C22.78636834 95.26909381 12.65207902 87.17809231 9 76 C7.85060793 68.01474982 9.4890918 62.56132102 14 56 C14.66 55.01 15.32 54.02 16 53 C13.03 53 10.06 53 7 53 Z " fill="#F8F8F8" transform="translate(0,0)"/>
<path d="M0 0 C189.09 0 378.18 0 573 0 C573 13.53 573 27.06 573 41 C383.91 41 194.82 41 0 41 C0 27.47 0 13.94 0 0 Z " fill="#EEF6FB" transform="translate(24,122)"/>
<path d="M0 0 C205.92 0 411.84 0 624 0 C624 120.12 624 240.24 624 364 C418.08 364 212.16 364 0 364 C0 243.88 0 123.76 0 0 Z M7 2 C7 120.14 7 238.28 7 360 C207.64 360 408.28 360 615 360 C615 241.86 615 123.72 615 2 C414.36 2 213.72 2 7 2 Z " fill="#E9EBEB" transform="translate(0,0)"/>
<path d="M0 0 C1.01804214 -0.00281982 2.03608429 -0.00563965 3.0849762 -0.00854492 C4.77438576 -0.00550858 4.77438576 -0.00550858 6.4979248 -0.00241089 C7.67664658 -0.00416321 8.85536835 -0.00591553 10.06980896 -0.00772095 C13.31146276 -0.01137903 16.55307601 -0.01050609 19.79472923 -0.00734186 C23.18021101 -0.0048178 26.56569 -0.00715593 29.95117188 -0.00872803 C35.63749684 -0.01054959 41.32380884 -0.00814377 47.01013184 -0.00338745 C53.59312686 0.00205515 60.17609091 0.00029248 66.75908518 -0.00521386 C72.40153981 -0.00974537 78.04398509 -0.01039535 83.68644094 -0.00777519 C87.0606242 -0.00621262 90.43479289 -0.00601808 93.80897522 -0.00931168 C97.56859464 -0.01183648 101.32815366 -0.00800003 105.08776855 -0.00241089 C106.2140416 -0.00443512 107.34031464 -0.00645935 108.50071716 -0.00854492 C110.02778038 -0.00431519 110.02778038 -0.00431519 111.58569336 0 C112.47576836 0.00037703 113.36584335 0.00075405 114.28289032 0.0011425 C116.29284668 0.12698364 116.29284668 0.12698364 117.29284668 1.12698364 C117.39231121 2.89557557 117.42364885 4.66809815 117.42565918 6.43948364 C117.42694824 7.51456177 117.4282373 8.58963989 117.42956543 9.69729614 C117.42569824 10.82909302 117.42183105 11.96088989 117.41784668 13.12698364 C117.42171387 14.25878052 117.42558105 15.39057739 117.42956543 16.55667114 C117.42827637 17.63174927 117.4269873 18.70682739 117.42565918 19.81448364 C117.42453125 20.80835083 117.42340332 21.80221802 117.42224121 22.82620239 C117.29284668 25.12698364 117.29284668 25.12698364 116.29284668 26.12698364 C114.72629209 26.22506389 113.15531516 26.25330241 111.58569336 26.25396729 C110.05863014 26.25819702 110.05863014 26.25819702 108.50071716 26.26251221 C106.8113076 26.25947586 106.8113076 26.25947586 105.08776855 26.25637817 C103.90904678 26.25813049 102.73032501 26.25988281 101.5158844 26.26168823 C98.2742306 26.26534632 95.03261735 26.26447338 91.79096413 26.26130915 C88.40548235 26.25878509 85.02000336 26.26112321 81.63452148 26.26269531 C75.94819652 26.26451687 70.26188452 26.26211105 64.57556152 26.25735474 C57.9925665 26.25191214 51.40960245 26.2536748 44.82660818 26.25918114 C39.18415355 26.26371266 33.54170827 26.26436263 27.89925241 26.26174247 C24.52506916 26.26017991 21.15090047 26.25998537 17.77671814 26.26327896 C14.01709872 26.26580376 10.2575397 26.26196732 6.4979248 26.25637817 C5.37165176 26.2584024 4.24537872 26.26042664 3.0849762 26.26251221 C2.06693405 26.25969238 1.04889191 26.25687256 0 26.25396729 C-0.890075 26.25359026 -1.78014999 26.25321323 -2.69719696 26.25282478 C-4.70715332 26.12698364 -4.70715332 26.12698364 -5.70715332 25.12698364 C-5.80661785 23.35839171 -5.83795549 21.58586913 -5.83996582 19.81448364 C-5.84125488 18.73940552 -5.84254395 17.66432739 -5.84387207 16.55667114 C-5.83807129 14.85897583 -5.83807129 14.85897583 -5.83215332 13.12698364 C-5.83602051 11.99518677 -5.8398877 10.86338989 -5.84387207 9.69729614 C-5.84258301 8.62221802 -5.84129395 7.54713989 -5.83996582 6.43948364 C-5.83883789 5.44561646 -5.83770996 4.45174927 -5.83654785 3.42776489 C-5.6034116 -0.7176616 -3.66720421 0.00155339 0 0 Z " fill="#F9FAF9" transform="translate(27.7071533203125,173.87301635742188)"/>
<path d="M0 0 C3.86671397 0.94150457 7.66101532 1.27178221 11.625 1.51953125 C13.85110232 1.71724428 15.85331626 2.12422936 18 2.73046875 C18 1.74046875 18 0.75046875 18 -0.26953125 C24.31869891 -0.69077784 30.10343569 0.38492574 36 2.73046875 C39.73535481 6.11007548 39.98115643 7.63625088 41 12.73046875 C24.17 12.73046875 7.34 12.73046875 -10 12.73046875 C-10 20.98046875 -10 29.23046875 -10 37.73046875 C4.52 37.73046875 19.04 37.73046875 34 37.73046875 C31.89166239 44.05548158 29.86682401 48.52521951 24.5625 52.60546875 C19.01556375 55.04070905 13.08390087 54.94067642 7.125 54.98046875 C6.36058594 55.00109375 5.59617188 55.02171875 4.80859375 55.04296875 C-8.34166757 55.13227443 -18.6217922 47.21653265 -27.73583984 38.41137695 C-28.3592627 37.79480225 -28.98268555 37.17822754 -29.625 36.54296875 C-30.22908691 35.94895264 -30.83317383 35.35493652 -31.45556641 34.74291992 C-36.66497122 29.42855282 -38.30158467 25.41178595 -38.5 17.85546875 C-38.33863636 10.12615057 -38.33863636 10.12615057 -35.75 6.73046875 C-24.78402593 -3.40983198 -13.62393101 -3.77851211 0 0 Z " fill="#FDFBFB" transform="translate(50,52.26953125)"/>
<path d="M0 0 C6.97691058 1.44981514 13.88789238 1.03785521 20.97265625 0.80664062 C28.59318302 0.67022379 37.64749946 0.7651103 44.20898438 5.16967773 C47.9417173 8.7944222 49.69554956 12.02652904 49.85742188 17.21362305 C49.89763472 31.43054093 44.94063074 43.65177682 36.42578125 54.97265625 C29.83601327 61.02050252 24.28987607 62.44715391 15.61328125 62.28515625 C14.76185547 62.28837891 13.91042969 62.29160156 13.03320312 62.29492188 C4.18866538 62.22082445 -3.14505642 60.94073353 -10.51171875 55.91015625 C-11.10799072 55.513125 -11.7042627 55.11609375 -12.31860352 54.70703125 C-22.02215901 48.09813727 -32.79293764 39.50996046 -36.57421875 27.97265625 C-37.55116846 21.18542665 -36.81532732 15.71761257 -33.1171875 9.90625 C-30.65298616 6.81820022 -28.02115838 4.86291346 -24.57421875 2.97265625 C-23.89359375 2.58078125 -23.21296875 2.18890625 -22.51171875 1.78515625 C-15.051597 -2.05147779 -8.03102964 -1.82574651 0 0 Z M-31.6484375 12.71875 C-34.09658872 18.6790169 -33.69065397 26.03867973 -31.4296875 31.98046875 C-29.11217376 35.71776459 -26.43104264 38.68990899 -23.32421875 41.78515625 C-22.71594238 42.39319092 -22.10766602 43.00122559 -21.48095703 43.62768555 C-11.65633467 53.09525392 -1.50205829 59.14899432 12.23828125 59.16015625 C13.41100586 59.17852539 13.41100586 59.17852539 14.60742188 59.19726562 C21.51878364 59.21458733 27.74726459 58.20466608 33.42578125 53.97265625 C35.28281578 51.5905339 35.28281578 51.5905339 36.73828125 48.91015625 C37.25003906 48.03230469 37.76179688 47.15445313 38.2890625 46.25 C39.57464779 44.09862408 39.57464779 44.09862408 39.42578125 41.97265625 C24.90578125 41.97265625 10.38578125 41.97265625 -4.57421875 41.97265625 C-4.57421875 33.72265625 -4.57421875 25.47265625 -4.57421875 16.97265625 C12.25578125 16.97265625 29.08578125 16.97265625 46.42578125 16.97265625 C45.13919817 10.74782143 45.13919817 10.74782143 41.42578125 6.97265625 C35.54192184 4.69593995 29.71238391 3.55354941 23.42578125 3.97265625 C23.42578125 4.96265625 23.42578125 5.95265625 23.42578125 6.97265625 C20.42502344 6.51891263 17.42524783 6.05979629 14.42578125 5.59765625 C13.58660156 5.47132812 12.74742188 5.345 11.8828125 5.21484375 C7.9120896 4.5992278 4.01876876 3.91653233 0.12890625 2.90234375 C-11.3784647 0.01336244 -24.12303651 2.79587612 -31.6484375 12.71875 Z " fill="#F3F3F4" transform="translate(44.57421875,48.02734375)"/>
<path d="M0 0 C6.97691058 1.44981514 13.88789238 1.03785521 20.97265625 0.80664062 C28.59318302 0.67022379 37.64749946 0.7651103 44.20898438 5.16967773 C47.9417173 8.7944222 49.69554956 12.02652904 49.85742188 17.21362305 C49.89763472 31.43054093 44.94063074 43.65177682 36.42578125 54.97265625 C29.83601327 61.02050252 24.28987607 62.44715391 15.61328125 62.28515625 C14.76185547 62.28837891 13.91042969 62.29160156 13.03320312 62.29492188 C4.18866538 62.22082445 -3.14505642 60.94073353 -10.51171875 55.91015625 C-11.10799072 55.513125 -11.7042627 55.11609375 -12.31860352 54.70703125 C-22.02215901 48.09813727 -32.79293764 39.50996046 -36.57421875 27.97265625 C-37.55116846 21.18542665 -36.81532732 15.71761257 -33.1171875 9.90625 C-30.65298616 6.81820022 -28.02115838 4.86291346 -24.57421875 2.97265625 C-23.89359375 2.58078125 -23.21296875 2.18890625 -22.51171875 1.78515625 C-15.051597 -2.05147779 -8.03102964 -1.82574651 0 0 Z M-31.6484375 12.71875 C-34.09658872 18.6790169 -33.69065397 26.03867973 -31.4296875 31.98046875 C-29.11217376 35.71776459 -26.43104264 38.68990899 -23.32421875 41.78515625 C-22.71594238 42.39319092 -22.10766602 43.00122559 -21.48095703 43.62768555 C-11.65633467 53.09525392 -1.50205829 59.14899432 12.23828125 59.16015625 C13.41100586 59.17852539 13.41100586 59.17852539 14.60742188 59.19726562 C21.47164589 59.21446919 27.83868731 58.26679095 33.42578125 53.97265625 C34.93627358 51.82420977 36.19508275 49.82999954 37.42578125 47.53515625 C37.76609375 46.91261963 38.10640625 46.29008301 38.45703125 45.64868164 C39.46851325 43.76723891 40.45155261 41.87361482 41.42578125 39.97265625 C41.96203125 38.93882813 42.49828125 37.905 43.05078125 36.83984375 C46.96785145 28.49381349 48.14870141 20.23209673 45.23828125 11.34765625 C41.45700008 6.39287403 36.36683067 4.94788512 30.42578125 3.97265625 C28.06059556 3.8343152 25.7978687 3.87381927 23.42578125 3.97265625 C23.42578125 4.96265625 23.42578125 5.95265625 23.42578125 6.97265625 C20.42502344 6.51891263 17.42524783 6.05979629 14.42578125 5.59765625 C13.58660156 5.47132812 12.74742188 5.345 11.8828125 5.21484375 C7.9120896 4.5992278 4.01876876 3.91653233 0.12890625 2.90234375 C-11.3784647 0.01336244 -24.12303651 2.79587612 -31.6484375 12.71875 Z " fill="#E72F2F" transform="translate(44.57421875,48.02734375)"/>
<path d="M0 0 C1.01804214 -0.00281982 2.03608429 -0.00563965 3.0849762 -0.00854492 C4.77438576 -0.00550858 4.77438576 -0.00550858 6.4979248 -0.00241089 C7.67664658 -0.00416321 8.85536835 -0.00591553 10.06980896 -0.00772095 C13.31146276 -0.01137903 16.55307601 -0.01050609 19.79472923 -0.00734186 C23.18021101 -0.0048178 26.56569 -0.00715593 29.95117188 -0.00872803 C35.63749684 -0.01054959 41.32380884 -0.00814377 47.01013184 -0.00338745 C53.59312686 0.00205515 60.17609091 0.00029248 66.75908518 -0.00521386 C72.40153981 -0.00974537 78.04398509 -0.01039535 83.68644094 -0.00777519 C87.0606242 -0.00621262 90.43479289 -0.00601808 93.80897522 -0.00931168 C97.56859464 -0.01183648 101.32815366 -0.00800003 105.08776855 -0.00241089 C106.2140416 -0.00443512 107.34031464 -0.00645935 108.50071716 -0.00854492 C110.02778038 -0.00431519 110.02778038 -0.00431519 111.58569336 0 C112.47576836 0.00037703 113.36584335 0.00075405 114.28289032 0.0011425 C116.29284668 0.12698364 116.29284668 0.12698364 117.29284668 1.12698364 C117.39231121 2.89557557 117.42364885 4.66809815 117.42565918 6.43948364 C117.42694824 7.51456177 117.4282373 8.58963989 117.42956543 9.69729614 C117.42569824 10.82909302 117.42183105 11.96088989 117.41784668 13.12698364 C117.42171387 14.25878052 117.42558105 15.39057739 117.42956543 16.55667114 C117.42827637 17.63174927 117.4269873 18.70682739 117.42565918 19.81448364 C117.42453125 20.80835083 117.42340332 21.80221802 117.42224121 22.82620239 C117.29284668 25.12698364 117.29284668 25.12698364 116.29284668 26.12698364 C114.72629209 26.22506389 113.15531516 26.25330241 111.58569336 26.25396729 C110.05863014 26.25819702 110.05863014 26.25819702 108.50071716 26.26251221 C106.8113076 26.25947586 106.8113076 26.25947586 105.08776855 26.25637817 C103.90904678 26.25813049 102.73032501 26.25988281 101.5158844 26.26168823 C98.2742306 26.26534632 95.03261735 26.26447338 91.79096413 26.26130915 C88.40548235 26.25878509 85.02000336 26.26112321 81.63452148 26.26269531 C75.94819652 26.26451687 70.26188452 26.26211105 64.57556152 26.25735474 C57.9925665 26.25191214 51.40960245 26.2536748 44.82660818 26.25918114 C39.18415355 26.26371266 33.54170827 26.26436263 27.89925241 26.26174247 C24.52506916 26.26017991 21.15090047 26.25998537 17.77671814 26.26327896 C14.01709872 26.26580376 10.2575397 26.26196732 6.4979248 26.25637817 C5.37165176 26.2584024 4.24537872 26.26042664 3.0849762 26.26251221 C2.06693405 26.25969238 1.04889191 26.25687256 0 26.25396729 C-0.890075 26.25359026 -1.78014999 26.25321323 -2.69719696 26.25282478 C-4.70715332 26.12698364 -4.70715332 26.12698364 -5.70715332 25.12698364 C-5.80661785 23.35839171 -5.83795549 21.58586913 -5.83996582 19.81448364 C-5.84125488 18.73940552 -5.84254395 17.66432739 -5.84387207 16.55667114 C-5.83807129 14.85897583 -5.83807129 14.85897583 -5.83215332 13.12698364 C-5.83602051 11.99518677 -5.8398877 10.86338989 -5.84387207 9.69729614 C-5.84258301 8.62221802 -5.84129395 7.54713989 -5.83996582 6.43948364 C-5.83883789 5.44561646 -5.83770996 4.45174927 -5.83654785 3.42776489 C-5.6034116 -0.7176616 -3.66720421 0.00155339 0 0 Z M-4.70715332 2.12698364 C-4.70715332 9.38698364 -4.70715332 16.64698364 -4.70715332 24.12698364 C34.89284668 24.12698364 74.49284668 24.12698364 115.29284668 24.12698364 C115.29284668 16.86698364 115.29284668 9.60698364 115.29284668 2.12698364 C75.69284668 2.12698364 36.09284668 2.12698364 -4.70715332 2.12698364 Z " fill="#AEB1B6" transform="translate(27.7071533203125,173.87301635742188)"/>
<path d="M0 0 C-0.33 0.99 -0.66 1.98 -1 3 C-27.07 3 -53.14 3 -80 3 C-80.33 2.01 -80.66 1.02 -81 0 C-73.68747047 -0.15623604 -66.3748191 -0.30432793 -59.06193352 -0.4429636 C-55.66359508 -0.50762429 -52.26534823 -0.57474323 -48.8671875 -0.64819336 C-32.52705405 -0.99566291 -16.3158502 -1.02495089 0 0 Z " fill="#E72728" transform="translate(136,146)"/>
<path d="M0 0 C0.33 0 0.66 0 1 0 C1.03738281 1.01320312 1.07476562 2.02640625 1.11328125 3.0703125 C1.17898388 4.42190939 1.24542971 5.77347029 1.3125 7.125 C1.33505859 7.79015625 1.35761719 8.4553125 1.38085938 9.140625 C1.81327085 17.15989231 5.28993511 21.87458381 10.75 27.3125 C11.31203125 27.87428955 11.8740625 28.4360791 12.453125 29.01489258 C22.02449887 38.21238466 33.4309323 45.08659661 46.8125 45.625 C47.60076172 45.66367188 48.38902344 45.70234375 49.20117188 45.7421875 C51.1337538 45.83588844 53.06684376 45.91900779 55 46 C54.505 46.99 54.505 46.99 54 48 C34.42547211 48.46421805 22.56986863 43.77424547 8.1953125 30.27734375 C2.25235633 24.11231982 -2.13859144 19.33072319 -2.1875 10.625 C-2.20167969 9.48289062 -2.21585938 8.34078125 -2.23046875 7.1640625 C-2.01170034 4.16063184 -1.57080637 2.52074066 0 0 Z " fill="#E83131" transform="translate(11,62)"/>
<path d="M0 0 C0.66 0 1.32 0 2 0 C2 0.99 2 1.98 2 3 C2.66 3.33 3.32 3.66 4 4 C3.34 4 2.68 4 2 4 C2 4.66 2 5.32 2 6 C2.99 6 3.98 6 5 6 C5 4.68 5 3.36 5 2 C9.95 2 14.9 2 20 2 C20 2.99 20 3.98 20 5 C21.32 5.33 22.64 5.66 24 6 C24 4.35 24 2.7 24 1 C24.99 1.33 25.98 1.66 27 2 C26.67 3.32 26.34 4.64 26 6 C26.66 6 27.32 6 28 6 C28 4.68 28 3.36 28 2 C30.31 2 32.62 2 35 2 C35.495 3.485 35.495 3.485 36 5 C35.34 5 34.68 5 34 5 C34 4.34 34 3.68 34 3 C33.34 3 32.68 3 32 3 C32 4.32 32 5.64 32 7 C21.44 7 10.88 7 0 7 C0 4.69 0 2.38 0 0 Z " fill="#B6ACAF" transform="translate(58,139)"/>
<path d="M0 0 C2.9375 0.75 2.9375 0.75 4.9375 2.75 C5.3125 6.1875 5.3125 6.1875 4.9375 9.75 C3.3125 11.75 3.3125 11.75 0.9375 12.75 C-2.1875 12.625 -2.1875 12.625 -5.0625 11.75 C-7.0625 8.75 -7.0625 8.75 -6.875 5.1875 C-5.81721331 0.71224863 -4.63605151 -0.37845318 0 0 Z " fill="#DEE0E1" transform="translate(29.0625,262.25)"/>
<path d="M0 0 C2.73251347 1.99399631 3.83247946 3.1623973 4.5 6.5 C3.83247946 9.8376027 2.73251347 11.00600369 0 13 C-2.87523324 13.49089348 -4.29445572 13.41359492 -6.8125 11.9375 C-8.67036623 8.90624457 -8.37133265 6.46577141 -8 3 C-5.9566042 -0.33396157 -3.74826026 -0.63994687 0 0 Z " fill="#78B5DB" transform="translate(47,136)"/>
<path d="M0 0 C4 0 8 0 12 0 C12.33 0.66 12.66 1.32 13 2 C12.01 2 11.02 2 10 2 C10 2.66 10 3.32 10 4 C10.99 4.33 11.98 4.66 13 5 C12.67 6.32 12.34 7.64 12 9 C5.565 9.495 5.565 9.495 -1 10 C-1.9765625 3.9453125 -1.9765625 3.9453125 -2 2 C-1.34 1.34 -0.68 0.68 0 0 Z " fill="#B5BBBF" transform="translate(418,138)"/>
<path d="M0 0 C1.1859375 0.00257812 2.371875 0.00515625 3.59375 0.0078125 C4.7796875 0.00523438 5.965625 0.00265625 7.1875 0 C10.09375 0.1328125 10.09375 0.1328125 11.09375 1.1328125 C11.13455783 3.13239614 11.13629356 5.13326504 11.09375 7.1328125 C6.54727102 8.3060974 1.76347706 8.67409717 -2.90625 8.1328125 C-3.56625 7.4728125 -4.22625 6.8128125 -4.90625 6.1328125 C-4.18165054 0.19109693 -4.18165054 0.19109693 0 0 Z " fill="#EFF2F0" transform="translate(129.90625,72.8671875)"/>
<path d="M0 0 C-0.33 1.32 -0.66 2.64 -1 4 C-0.5875 3.525625 -0.175 3.05125 0.25 2.5625 C2.182185 0.83733482 3.48192275 0.43415125 6 0 C6.042721 1.66611905 6.04063832 3.33382885 6 5 C5 6 5 6 1.6875 6.0625 C-0.1378125 6.0315625 -0.1378125 6.0315625 -2 6 C-3.32 6 -4.64 6 -6 6 C-6 4.35 -6 2.7 -6 1 C-6.66 1 -7.32 1 -8 1 C-8 2.65 -8 4.3 -8 6 C-11.11257569 6 -13.10765685 5.82638376 -16 5 C-15.67 3.35 -15.34 1.7 -15 0 C-13.06325815 -0.19517554 -11.12555991 -0.38087873 -9.1875 -0.5625 C-8.10855469 -0.66691406 -7.02960938 -0.77132812 -5.91796875 -0.87890625 C-3 -1 -3 -1 0 0 Z " fill="#A9A8A9" transform="translate(131,216)"/>
<path d="M0 0 C0.70664795 0.14493896 1.4132959 0.28987793 2.14135742 0.43920898 C5.00076861 1.00015078 7.86365437 1.49611383 10.73828125 1.97265625 C11.80498047 2.14990234 12.87167969 2.32714844 13.97070312 2.50976562 C15.62489258 2.78336914 15.62489258 2.78336914 17.3125 3.0625 C18.43462891 3.24876953 19.55675781 3.43503906 20.71289062 3.62695312 C23.47513964 4.08536892 26.23751221 4.54302564 29 5 C29 5.99 29 6.98 29 8 C19.26571024 6.99337378 9.59441093 5.98650799 0 4 C0 2.68 0 1.36 0 0 Z " fill="#E73D3E" transform="translate(258,147)"/>
<path d="M0 0 C0.78375 0.04125 1.5675 0.0825 2.375 0.125 C1.385 0.785 0.395 1.445 -0.625 2.125 C-1.35465366 4.68782742 -1.35465366 4.68782742 -1.625 7.125 C0.025 7.125 1.675 7.125 3.375 7.125 C3.705 5.805 4.035 4.485 4.375 3.125 C6.75 2.5 6.75 2.5 9.375 2.125 C10.035 2.785 10.695 3.445 11.375 4.125 C11 6.75 11 6.75 10.375 9.125 C8.5625 9.75 8.5625 9.75 6.375 10.125 C5.385 9.465 4.395 8.805 3.375 8.125 C3.375 8.785 3.375 9.445 3.375 10.125 C-1.07436709 10.48575949 -1.07436709 10.48575949 -3.4375 8.9375 C-5.02699375 6.5114306 -4.98987512 4.97102594 -4.625 2.125 C-2.625 0.125 -2.625 0.125 0 0 Z " fill="#7B7D82" transform="translate(43.625,20.875)"/>
<path d="M0 0 C6.27 0 12.54 0 19 0 C18.67 0.66 18.34 1.32 18 2 C18.66 2.33 19.32 2.66 20 3 C19.67 3.99 19.34 4.98 19 6 C15 6 11 6 7 6 C7 4.35 7 2.7 7 1 C6.34 1 5.68 1 5 1 C5 2.65 5 4.3 5 6 C4.34 6 3.68 6 3 6 C3 4.35 3 2.7 3 1 C2.34 1 1.68 1 1 1 C0.67 2.32 0.34 3.64 0 5 C0 3.35 0 1.7 0 0 Z " fill="#A19EA0" transform="translate(277,216)"/>
<path d="M0 0 C0.33 0.33 0.66 0.66 1 1 C1 0.34 1 -0.32 1 -1 C4.63 -1 8.26 -1 12 -1 C12 0.98 12 2.96 12 5 C11.34 5 10.68 5 10 5 C10 3.35 10 1.7 10 0 C9.34 0 8.68 0 8 0 C8 1.65 8 3.3 8 5 C4.7 5 1.4 5 -2 5 C-2.33 3.35 -2.66 1.7 -3 0 C-3.99 0.495 -3.99 0.495 -5 1 C-5 2.32 -5 3.64 -5 5 C-5.99 4.67 -6.98 4.34 -8 4 C-7.34 4 -6.68 4 -6 4 C-6 3.34 -6 2.68 -6 2 C-6.66 2 -7.32 2 -8 2 C-8 1.01 -8 0.02 -8 -1 C-3.375 -2.25 -3.375 -2.25 0 0 Z " fill="#9F9CA0" transform="translate(201,217)"/>
<path d="M0 0 C0.99 0 1.98 0 3 0 C3 0.99 3 1.98 3 3 C3.66 3 4.32 3 5 3 C5 4.65 5 6.3 5 8 C-0.09604866 8.66833425 -4.85203553 9 -10 9 C-10 7.02 -10 5.04 -10 3 C-6.7 3 -3.4 3 0 3 C0 2.01 0 1.02 0 0 Z " fill="#E1E2DC" transform="translate(161,264)"/>
<path d="M0 0 C0.99 0 1.98 0 3 0 C3 0.66 3 1.32 3 2 C4.65 2.33 6.3 2.66 8 3 C8.33 4.32 8.66 5.64 9 7 C5.44690227 9.03034156 2.83930435 9.4087343 -1.25 8.5 C-1.8275 8.335 -2.405 8.17 -3 8 C-3 6.02 -3 4.04 -3 2 C-2.01 2 -1.02 2 0 2 C0 1.34 0 0.68 0 0 Z " fill="#9D9BAA" transform="translate(226,264)"/>
<path d="M0 0 C5.28 0 10.56 0 16 0 C16 1.98 16 3.96 16 6 C12 6 8 6 4 6 C4 4.35 4 2.7 4 1 C3.34 1 2.68 1 2 1 C2 2.65 2 4.3 2 6 C1.34 6 0.68 6 0 6 C0 4.02 0 2.04 0 0 Z " fill="#B3B3B7" transform="translate(528,216)"/>
<path d="M0 0 C4.64442669 1.79784259 4.64442669 1.79784259 6.73828125 2.98828125 C14.3763012 7.06683559 22.53592002 6.80564684 31 7 C30.67 7.66 30.34 8.32 30 9 C8.29456346 9.51475344 8.29456346 9.51475344 -1 2 C-0.67 1.34 -0.34 0.68 0 0 Z " fill="#E61F1F" transform="translate(35,101)"/>
<path d="M0 0 C1.32 0 2.64 0 4 0 C4.66 1.32 5.32 2.64 6 4 C6.33 3.01 6.66 2.02 7 1 C7.66 1 8.32 1 9 1 C9 3.64 9 6.28 9 9 C8.01 8.67 7.02 8.34 6 8 C5.67 7.34 5.34 6.68 5 6 C4.67 6.99 4.34 7.98 4 9 C3.34 9 2.68 9 2 9 C2 9.66 2 10.32 2 11 C1.01 10.67 0.02 10.34 -1 10 C-2.25 3.375 -2.25 3.375 0 0 Z " fill="#93908B" transform="translate(367,72)"/>
<path d="M0 0 C1.32 0 2.64 0 4 0 C4 0.99 4 1.98 4 3 C5.32 3.33 6.64 3.66 8 4 C8 5.32 8 6.64 8 8 C2.39 8 -3.22 8 -9 8 C-9 6.35 -9 4.7 -9 3 C-6.66666667 3 -4.33333333 3 -2 3 C-2 4.32 -2 5.64 -2 7 C-1.34 7 -0.68 7 0 7 C0.59070014 5.05396726 0.59070014 5.05396726 1 3 C0.67 2.67 0.34 2.34 0 2 C0 1.34 0 0.68 0 0 Z " fill="#A1939B" transform="translate(120,138)"/>
<path d="M0 0 C3.71599191 -0.20086443 4.77208445 -0.1519437 8 2 C7.67 3.65 7.34 5.3 7 7 C7.99 7 8.98 7 10 7 C9.67 6.01 9.34 5.02 9 4 C9.66 3.34 10.32 2.68 11 2 C11.625 4.375 11.625 4.375 12 7 C10 9 10 9 7.6171875 9.1953125 C6.71226562 9.17210937 5.80734375 9.14890625 4.875 9.125 C3.50988281 9.09792969 3.50988281 9.09792969 2.1171875 9.0703125 C1.41851562 9.04710937 0.71984375 9.02390625 0 9 C0 6.03 0 3.06 0 0 Z " fill="#9CA2AA" transform="translate(310,138)"/>
<path d="M0 0 C5.28 0 10.56 0 16 0 C16.33 0.99 16.66 1.98 17 3 C16.34 3 15.68 3 15 3 C15 2.34 15 1.68 15 1 C14.34 1 13.68 1 13 1 C13.7763932 4.0745356 13.7763932 4.0745356 16 6 C12 6 8 6 4 6 C4 4.35 4 2.7 4 1 C3.34 1 2.68 1 2 1 C2 2.65 2 4.3 2 6 C1.34 6 0.68 6 0 6 C0 4.02 0 2.04 0 0 Z " fill="#A8A8A8" transform="translate(369,216)"/>
<path d="M0 0 C5.94 0 11.88 0 18 0 C18 1.98 18 3.96 18 6 C17.67 6 17.34 6 17 6 C17 4.35 17 2.7 17 1 C16.34 1 15.68 1 15 1 C15 2.65 15 4.3 15 6 C14.34 6 13.68 6 13 6 C13 4.35 13 2.7 13 1 C12.34 1 11.68 1 11 1 C11 2.65 11 4.3 11 6 C10.34 6 9.68 6 9 6 C9 4.35 9 2.7 9 1 C8.34 1 7.68 1 7 1 C7 2.65 7 4.3 7 6 C6.34 6 5.68 6 5 6 C5 5.01 5 4.02 5 3 C4.01 3.495 4.01 3.495 3 4 C3.33 4.66 3.66 5.32 4 6 C2.68 5.67 1.36 5.34 0 5 C0 3.35 0 1.7 0 0 Z " fill="#ACABB1" transform="translate(163,284)"/>
<path d="M0 0 C4.19161906 0 7.88857686 0.13443723 12 1 C11.67 2.65 11.34 4.3 11 6 C8.03 6 5.06 6 2 6 C2 6.66 2 7.32 2 8 C1.34 8 0.68 8 0 8 C0 5.36 0 2.72 0 0 Z " fill="#B6B8BD" transform="translate(141,301)"/>
<path d="M0 0 C1.32 0 2.64 0 4 0 C4 1.65 4 3.3 4 5 C2.35 5 0.7 5 -1 5 C-1 4.34 -1 3.68 -1 3 C-2.65 3.33 -4.3 3.66 -6 4 C-6.042721 5.66611905 -6.04063832 7.33382885 -6 9 C-4.93354885 10.29633621 -4.93354885 10.29633621 -2.4375 10.0625 C-1.633125 10.041875 -0.82875 10.02125 0 10 C0.66 8.68 1.32 7.36 2 6 C2.66 6 3.32 6 4 6 C3.44299928 9.23060419 2.70784878 11.0658223 0 13 C-2.4375 13.5 -2.4375 13.5 -5 13 C-7.375 10.8125 -7.375 10.8125 -9 8 C-8.9303003 5.07261258 -8.40278716 3.58404138 -6.75 1.1875 C-4.37992055 -0.4207682 -2.82103117 -0.20641691 0 0 Z " fill="#747A81" transform="translate(592,266)"/>
<path d="M0 0 C0.94875 0.04125 1.8975 0.0825 2.875 0.125 C2.875 3.095 2.875 6.065 2.875 9.125 C-0.5 9.25 -0.5 9.25 -4.125 9.125 C-4.785 8.465 -5.445 7.805 -6.125 7.125 C-5.66604657 2.53546569 -4.9886353 0.19954541 0 0 Z " fill="#B4B3BC" transform="translate(47.125,263.875)"/>
<path d="M0 0 C0.66 0.66 1.32 1.32 2 2 C1.67 2.99 1.34 3.98 1 5 C1.66 5 2.32 5 3 5 C3.33 3.68 3.66 2.36 4 1 C5.65 1.33 7.3 1.66 9 2 C8.67 3.65 8.34 5.3 8 7 C3.71 7 -0.58 7 -5 7 C-4.34 6.67 -3.68 6.34 -3 6 C-3 5.34 -3 4.68 -3 4 C-3.99 3.67 -4.98 3.34 -6 3 C-6 2.34 -6 1.68 -6 1 C-3.125 0.375 -3.125 0.375 0 0 Z " fill="#B1B2B3" transform="translate(233,215)"/>
<path d="M0 0 C1.32 0 2.64 0 4 0 C4 1.32 4 2.64 4 4 C4.99 2.68 5.98 1.36 7 0 C8.32 0.33 9.64 0.66 11 1 C11 3.31 11 5.62 11 8 C9.125 8.625 9.125 8.625 7 9 C6.34 8.34 5.68 7.68 5 7 C4.34 7.66 3.68 8.32 3 9 C2.01 9 1.02 9 0 9 C0 8.34 0 7.68 0 7 C0.99 7 1.98 7 3 7 C3 6.34 3 5.68 3 5 C2.34 5 1.68 5 1 5 C0.67 3.35 0.34 1.7 0 0 Z " fill="#A3A6AE" transform="translate(264,138)"/>
<path d="M0 0 C6.04826484 0.26881177 10.2379446 0.91823823 15 5 C16.9375 7.5 16.9375 7.5 18 10 C17.6875 12.3125 17.6875 12.3125 17 14 C17 13.01 17 12.02 17 11 C16.34 11 15.68 11 15 11 C14.67 11.66 14.34 12.32 14 13 C13.67 12.071875 13.34 11.14375 13 10.1875 C10.31013905 5.90053412 7.65295896 5.41367566 3 4 C1.6534734 3.36039986 0.31077107 2.710001 -1 2 C-0.67 1.34 -0.34 0.68 0 0 Z " fill="#EA4141" transform="translate(76,50)"/>
<path d="M0 0 C0.66 0 1.32 0 2 0 C4.66432015 7.99296045 3.2230161 16.40289061 0 24 C-0.99 23.67 -1.98 23.34 -3 23 C-2.690625 21.989375 -2.38125 20.97875 -2.0625 19.9375 C-0.40619903 13.44151109 -0.32998523 6.66917508 0 0 Z " fill="#E93636" transform="translate(91,61)"/>
<path d="M0 0 C0.99 0 1.98 0 3 0 C3 0.66 3 1.32 3 2 C4.32 2 5.64 2 7 2 C7 2.66 7 3.32 7 4 C6.34 4 5.68 4 5 4 C5 5.32 5 6.64 5 8 C4.34 8 3.68 8 3 8 C3 6.68 3 5.36 3 4 C2.34 4 1.68 4 1 4 C0.67 5.32 0.34 6.64 0 8 C-1.65614657 8.38218767 -3.32457024 8.71395102 -5 9 C-6 8 -6 8 -6.125 5.5 C-6 3 -6 3 -5 2 C-3.33382885 1.95936168 -1.66611905 1.957279 0 2 C0 1.34 0 0.68 0 0 Z " fill="#A8ADB2" transform="translate(78,264)"/>
<path d="M0 0 C0.66 0 1.32 0 2 0 C2 2.97 2 5.94 2 9 C-1.3 9 -4.6 9 -8 9 C-8.33 7.35 -8.66 5.7 -9 4 C-5.92677456 3.08941469 -3.19902639 2.91113816 0 3 C0 2.01 0 1.02 0 0 Z " fill="#ABB1B1" transform="translate(82,213)"/>
<path d="M0 0 C3.63 0 7.26 0 11 0 C11.33 1.65 11.66 3.3 12 5 C8.60494113 5.97001682 5.52935443 6 2 6 C2 6.66 2 7.32 2 8 C1.34 8 0.68 8 0 8 C0 5.36 0 2.72 0 0 Z " fill="#9F979B" transform="translate(390,141)"/>
<path d="M0 0 C0.99 0.33 1.98 0.66 3 1 C2.67 2.32 2.34 3.64 2 5 C2.66 5 3.32 5 4 5 C4 3.68 4 2.36 4 1 C6.31 1 8.62 1 11 1 C11.33 1.99 11.66 2.98 12 4 C11.34 4 10.68 4 10 4 C10 3.34 10 2.68 10 2 C9.34 2 8.68 2 8 2 C8 3.32 8 4.64 8 6 C2.39 6 -3.22 6 -9 6 C-8.67 4.35 -8.34 2.7 -8 1 C-6.68 1 -5.36 1 -4 1 C-4 1.99 -4 2.98 -4 4 C-2.68 4.33 -1.36 4.66 0 5 C0 3.35 0 1.7 0 0 Z " fill="#A08E8A" transform="translate(82,140)"/>
<path d="M0 0 C0.66 0 1.32 0 2 0 C2.33 0.99 2.66 1.98 3 3 C4.65 3.33 6.3 3.66 8 4 C8 4.66 8 5.32 8 6 C7.01 6.495 7.01 6.495 6 7 C6.33 7.66 6.66 8.32 7 9 C6.360625 8.814375 5.72125 8.62875 5.0625 8.4375 C4.0415625 8.2209375 4.0415625 8.2209375 3 8 C2.67 8.33 2.34 8.66 2 9 C0.33382885 9.04063832 -1.33388095 9.042721 -3 9 C-3.33 7.35 -3.66 5.7 -4 4 C-2.68 3.67 -1.36 3.34 0 3 C0 2.01 0 1.02 0 0 Z " fill="#BABDC1" transform="translate(150,281)"/>
<path d="M0 0 C0.78375 0.04125 1.5675 0.0825 2.375 0.125 C2.045 1.115 1.715 2.105 1.375 3.125 C2.365 3.125 3.355 3.125 4.375 3.125 C3.5 8 3.5 8 2.375 9.125 C-0.0625 9.3125 -0.0625 9.3125 -2.625 9.125 C-4.625 7.125 -4.625 7.125 -4.875 4.625 C-4.51649553 1.03995533 -3.59522993 0.17120143 0 0 Z " fill="#F3F4F4" transform="translate(589.625,267.875)"/>
<path d="M0 0 C0 1.98 0 3.96 0 6 C-2.31 6 -4.62 6 -7 6 C-7.33 4.35 -7.66 2.7 -8 1 C-8.99 1.33 -9.98 1.66 -11 2 C-10.34 2.33 -9.68 2.66 -9 3 C-9.33 3.99 -9.66 4.98 -10 6 C-10.99 5.67 -11.98 5.34 -13 5 C-13 3.33333333 -13 1.66666667 -13 0 C-8.38926889 -1.29676812 -4.66159911 -0.71109139 0 0 Z " fill="#C1C0BD" transform="translate(292,233)"/>
<path d="M0 0 C1.81242052 -0.02687279 3.62495233 -0.04633715 5.4375 -0.0625 C6.44683594 -0.07410156 7.45617187 -0.08570312 8.49609375 -0.09765625 C11 0 11 0 12 1 C12.04092937 3.33297433 12.04241723 5.66705225 12 8 C10.35 8 8.7 8 7 8 C6.67 6.68 6.34 5.36 6 4 C6.66 4 7.32 4 8 4 C8 4.66 8 5.32 8 6 C8.66 6 9.32 6 10 6 C10 4.68 10 3.36 10 2 C7.69 2 5.38 2 3 2 C3 3.98 3 5.96 3 8 C2.01 8 1.02 8 0 8 C0 5.36 0 2.72 0 0 Z " fill="#4F5259" transform="translate(128,23)"/>
<path d="M0 0 C0.99 0 1.98 0 3 0 C3.33 0.99 3.66 1.98 4 3 C4.66 3.33 5.32 3.66 6 4 C6 5.66666667 6 7.33333333 6 9 C3.03 9 0.06 9 -3 9 C-4.125 4.25 -4.125 4.25 -3 2 C-2.01 2 -1.02 2 0 2 C0 1.34 0 0.68 0 0 Z " fill="#C3C5C7" transform="translate(58,264)"/>
<path d="M0 0 C2 2 2 2 2 7 C-1.3 7 -4.6 7 -8 7 C-8 5.35 -8 3.7 -8 2 C-8.66 2 -9.32 2 -10 2 C-10 3.65 -10 5.3 -10 7 C-10.66 7 -11.32 7 -12 7 C-12 5.02 -12 3.04 -12 1 C-8.7 1 -5.4 1 -2 1 C-2.33 1.66 -2.66 2.32 -3 3 C-2.34 3.33 -1.68 3.66 -1 4 C-0.67 2.68 -0.34 1.36 0 0 Z " fill="#ADADAD" transform="translate(360,215)"/>
<path d="M0 0 C1.93166016 0.01740234 1.93166016 0.01740234 3.90234375 0.03515625 C5.19269531 0.04417969 6.48304688 0.05320313 7.8125 0.0625 C8.81152344 0.07410156 9.81054688 0.08570313 10.83984375 0.09765625 C10.83984375 1.74765625 10.83984375 3.39765625 10.83984375 5.09765625 C10.50984375 3.77765625 10.17984375 2.45765625 9.83984375 1.09765625 C9.17984375 1.09765625 8.51984375 1.09765625 7.83984375 1.09765625 C7.83984375 2.41765625 7.83984375 3.73765625 7.83984375 5.09765625 C7.17984375 5.09765625 6.51984375 5.09765625 5.83984375 5.09765625 C5.83984375 3.77765625 5.83984375 2.45765625 5.83984375 1.09765625 C5.17984375 1.09765625 4.51984375 1.09765625 3.83984375 1.09765625 C3.83984375 2.74765625 3.83984375 4.39765625 3.83984375 6.09765625 C1.52984375 6.09765625 -0.78015625 6.09765625 -3.16015625 6.09765625 C-3.54234392 4.44150968 -3.87410727 2.77308601 -4.16015625 1.09765625 C-3.16015625 0.09765625 -3.16015625 0.09765625 0 0 Z " fill="#92919D" transform="translate(165.16015625,140.90234375)"/>
<path d="M0 0 C2.9375 0.75 2.9375 0.75 4.9375 2.75 C5.3125 6.1875 5.3125 6.1875 4.9375 9.75 C3.3125 11.75 3.3125 11.75 0.9375 12.75 C-2.1875 12.625 -2.1875 12.625 -5.0625 11.75 C-7.0625 8.75 -7.0625 8.75 -6.875 5.1875 C-5.81721331 0.71224863 -4.63605151 -0.37845318 0 0 Z M-3.0625 1.75 C-5.3116908 3.57703227 -5.3116908 3.57703227 -5.3125 6.25 C-5.3116908 8.92296773 -5.3116908 8.92296773 -3.0625 10.75 C-0.5625 11.16666667 -0.5625 11.16666667 1.9375 10.75 C4.27141203 7.96885944 4.27141203 7.96885944 3.5625 5.0625 C3.35625 4.299375 3.15 3.53625 2.9375 2.75 C0.03676819 2.07198966 0.03676819 2.07198966 -3.0625 1.75 Z " fill="#838A90" transform="translate(29.0625,262.25)"/>
<path d="M0 0 C1.4540625 0.0309375 1.4540625 0.0309375 2.9375 0.0625 C2.99149736 1.52042884 3.03029177 2.97892712 3.0625 4.4375 C3.08570312 5.24960937 3.10890625 6.06171875 3.1328125 6.8984375 C2.9375 9.0625 2.9375 9.0625 0.9375 11.0625 C-0.3825 11.0625 -1.7025 11.0625 -3.0625 11.0625 C-3.0625 10.4025 -3.0625 9.7425 -3.0625 9.0625 C-1.7425 9.0625 -0.4225 9.0625 0.9375 9.0625 C0.9375 8.4025 0.9375 7.7425 0.9375 7.0625 C-0.7125 6.7325 -2.3625 6.4025 -4.0625 6.0625 C-4.105221 4.39638095 -4.10313832 2.72867115 -4.0625 1.0625 C-3.0625 0.0625 -3.0625 0.0625 0 0 Z " fill="#40383E" transform="translate(78.0625,22.9375)"/>
<path d="M0 0 C2.97 0 5.94 0 9 0 C9 2 9 4 9 6 C5.66666667 6.66666667 2.33333333 7.33333333 -1 8 C-1 5.16032769 -0.59732819 2.76264289 0 0 Z " fill="#AFB0B9" transform="translate(55,284)"/>
<path d="M0 0 C0.1875 2.625 0.1875 2.625 0 5 C-0.99 4.67 -1.98 4.34 -3 4 C-3 2.68 -3 1.36 -3 0 C-4.32 0 -5.64 0 -7 0 C-6.34 1.65 -5.68 3.3 -5 5 C-11.15234375 5.09765625 -11.15234375 5.09765625 -13 5 C-14 4 -14 4 -14.0625 1.4375 C-14.041875 0.633125 -14.02125 -0.17125 -14 -1 C-12.23086176 -1.22226864 -10.45955629 -1.42733873 -8.6875 -1.625 C-7.70136719 -1.74101562 -6.71523437 -1.85703125 -5.69921875 -1.9765625 C-3 -2 -3 -2 0 0 Z " fill="#9DA1A2" transform="translate(72,217)"/>
<path d="M0 0 C4.33333333 0 8.66666667 0 13 0 C13.33 0.66 13.66 1.32 14 2 C13.06553465 4.03144641 12.06775224 6.03533587 11 8 C10.34 7.67 9.68 7.34 9 7 C9 5.02 9 3.04 9 1 C8.01 1 7.02 1 6 1 C6 2.65 6 4.3 6 6 C4.33388095 6.042721 2.66617115 6.04063832 1 6 C0 5 0 5 -0.0625 2.4375 C-0.041875 1.633125 -0.02125 0.82875 0 0 Z " fill="#87898C" transform="translate(403,75)"/>
<path d="M0 0 C2.66666667 0 5.33333333 0 8 0 C9 3 9 3 7.5625 6.1875 C6.7890625 7.5796875 6.7890625 7.5796875 6 9 C5.34 9 4.68 9 4 9 C3.67 8.34 3.34 7.68 3 7 C0.98330173 5.86649466 0.98330173 5.86649466 -1 5 C-0.67 3.35 -0.34 1.7 0 0 Z " fill="#D1D1D3" transform="translate(68,301)"/>
<path d="M0 0 C0.66 0 1.32 0 2 0 C3.24162641 2.97990339 4.25561083 5.8614943 5 9 C3.52093108 9.02689216 2.04172517 9.04634621 0.5625 9.0625 C-0.67306641 9.07990234 -0.67306641 9.07990234 -1.93359375 9.09765625 C-4 9 -4 9 -5 8 C-5.04063832 6.33382885 -5.042721 4.66611905 -5 3 C-3.68 3 -2.36 3 -1 3 C-0.67 2.01 -0.34 1.02 0 0 Z " fill="#CDD0D2" transform="translate(361,281)"/>
<path d="M0 0 C4.33333333 0 8.66666667 0 13 0 C12.67 1.65 12.34 3.3 12 5 C11.01 4.67 10.02 4.34 9 4 C8.34 4.66 7.68 5.32 7 6 C6.34 5.34 5.68 4.68 5 4 C4.34 4.66 3.68 5.32 3 6 C0.875 5.625 0.875 5.625 -1 5 C-0.67 3.35 -0.34 1.7 0 0 Z " fill="#B0B2B6" transform="translate(402,216)"/>
<path d="M0 0 C0.9075 0.185625 1.815 0.37125 2.75 0.5625 C5.68314324 0.95734621 7.2644657 0.94691572 10 0 C10.33 1.65 10.66 3.3 11 5 C7.13497368 6.06621416 3.82804954 6.40361817 0 5 C-0.33 4.01 -0.66 3.02 -1 2 C-0.67 1.34 -0.34 0.68 0 0 Z " fill="#9E9E9D" transform="translate(303,75)"/>
<path d="M0 0 C0.66 0 1.32 0 2 0 C2 2.64 2 5.28 2 8 C-2.62 8 -7.24 8 -12 8 C-12 6.35 -12 4.7 -12 3 C-11.01 3.33 -10.02 3.66 -9 4 C-9.66 4 -10.32 4 -11 4 C-11 4.99 -11 5.98 -11 7 C-9.35 7 -7.7 7 -6 7 C-5.67 5.68 -5.34 4.36 -5 3 C-3.68 3 -2.36 3 -1 3 C-0.67 2.01 -0.34 1.02 0 0 Z " fill="#977C87" transform="translate(107,138)"/>
<path d="M0 0 C2.33294775 -0.04241723 4.66702567 -0.04092937 7 0 C8 1 8 1 8.0625 4.0625 C8.041875 5.031875 8.02125 6.00125 8 7 C5.23735711 7.59732819 2.83967231 8 0 8 C0 5.36 0 2.72 0 0 Z " fill="#9E9DA2" transform="translate(133,73)"/>
<path d="M0 0 C2.69082872 0.17635452 5.32851446 0.61835921 8 1 C8 2.98 8 4.96 8 7 C1.84765625 7.09765625 1.84765625 7.09765625 0 7 C-1 6 -1 6 -1.125 3.5 C-1 1 -1 1 0 0 Z " fill="#C9CCCE" transform="translate(45,283)"/>
<path d="M0 0 C7.875 0.875 7.875 0.875 9 2 C9.04063832 3.66617115 9.042721 5.33388095 9 7 C2.84765625 7.09765625 2.84765625 7.09765625 1 7 C0 6 0 6 -0.0625 2.9375 C-0.041875 1.968125 -0.02125 0.99875 0 0 Z " fill="#C9C8C8" transform="translate(278,283)"/>
<path d="M0 0 C0.66 0 1.32 0 2 0 C2 0.66 2 1.32 2 2 C3.32 2 4.64 2 6 2 C6 3.98 6 5.96 6 8 C3.36 8 0.72 8 -2 8 C-2.66 6.02 -3.32 4.04 -4 2 C-3.34 1.67 -2.68 1.34 -2 1 C-1.34 1.33 -0.68 1.66 0 2 C0 1.34 0 0.68 0 0 Z " fill="#B6B8BC" transform="translate(248,282)"/>
<path d="M0 0 C0.66 0 1.32 0 2 0 C2.33 0.66 2.66 1.32 3 2 C4.65 2 6.3 2 8 2 C8 4.31 8 6.62 8 9 C6.35 9.33 4.7 9.66 3 10 C3 9.01 3 8.02 3 7 C2.01 7.33 1.02 7.66 0 8 C0 5.36 0 2.72 0 0 Z " fill="#ADB4BE" transform="translate(128,282)"/>
<path d="M0 0 C0.66 0 1.32 0 2 0 C2 0.66 2 1.32 2 2 C2.99 2 3.98 2 5 2 C5.33 1.34 5.66 0.68 6 0 C6.66 0 7.32 0 8 0 C8.33 2.64 8.66 5.28 9 8 C6.03 8 3.06 8 0 8 C0 5.36 0 2.72 0 0 Z " fill="#ADACAF" transform="translate(205,231)"/>
<path d="M0 0 C1.9375 0.6875 1.9375 0.6875 4 2 C4.875 4.5 4.875 4.5 5 7 C4.34 7.66 3.68 8.32 3 9 C0.375 8.625 0.375 8.625 -2 8 C-2.6875 5.6875 -2.6875 5.6875 -3 3 C-1.5625 1.1875 -1.5625 1.1875 0 0 Z " fill="#9EA1A6" transform="translate(429,213)"/>
<path d="M0 0 C0.66 0 1.32 0 2 0 C2.33 0.99 2.66 1.98 3 3 C4.32 3 5.64 3 7 3 C7 4.65 7 6.3 7 8 C6.67 7.34 6.34 6.68 6 6 C5.34 6 4.68 6 4 6 C4 6.66 4 7.32 4 8 C2.68 8.33 1.36 8.66 0 9 C-0.33 8.01 -0.66 7.02 -1 6 C-1.99 6 -2.98 6 -4 6 C-4.66 6.66 -5.32 7.32 -6 8 C-6 5.69 -6 3.38 -6 1 C-4.02 1.99 -4.02 1.99 -2 3 C-1.34 2.01 -0.68 1.02 0 0 Z " fill="#7E8B9A" transform="translate(466,138)"/>
<path d="M0 0 C3.63 0 7.26 0 11 0 C11 1.98 11 3.96 11 6 C10.34 6 9.68 6 9 6 C9 4.35 9 2.7 9 1 C8.34 1 7.68 1 7 1 C7 2.65 7 4.3 7 6 C4.69 6 2.38 6 0 6 C0 4 0 2 0 0 Z " fill="#8AB4D7" transform="translate(571,25)"/>
<path d="M0 0 C0.66 0.66 1.32 1.32 2 2 C1.67 2.99 1.34 3.98 1 5 C1.4125 4.525625 1.825 4.05125 2.25 3.5625 C4.182185 1.83733482 5.48192275 1.43415125 8 1 C8 2.98 8 4.96 8 7 C5.36 7 2.72 7 0 7 C0 5.35 0 3.7 0 2 C-0.99 2.495 -0.99 2.495 -2 3 C-2 4.32 -2 5.64 -2 7 C-2.99 6.67 -3.98 6.34 -5 6 C-4.34 6 -3.68 6 -3 6 C-3 5.34 -3 4.68 -3 4 C-3.99 3.67 -4.98 3.34 -6 3 C-6 2.34 -6 1.68 -6 1 C-3.125 0.375 -3.125 0.375 0 0 Z " fill="#A7A7AB" transform="translate(519,215)"/>
<path d="M0 0 C3.63 0 7.26 0 11 0 C11 1.98 11 3.96 11 6 C10.34 6 9.68 6 9 6 C9 4.35 9 2.7 9 1 C8.34 1 7.68 1 7 1 C7 2.65 7 4.3 7 6 C4.69 6 2.38 6 0 6 C0 4.02 0 2.04 0 0 Z " fill="#ABAAAD" transform="translate(311,216)"/>
<path d="M0 0 C1.2065625 0.0309375 1.2065625 0.0309375 2.4375 0.0625 C2.49149736 1.52042884 2.53029177 2.97892712 2.5625 4.4375 C2.58570313 5.24960937 2.60890625 6.06171875 2.6328125 6.8984375 C2.4375 9.0625 2.4375 9.0625 0.4375 11.0625 C-1.6875 10.6875 -1.6875 10.6875 -3.5625 10.0625 C-2.2425 9.7325 -0.9225 9.4025 0.4375 9.0625 C0.4375 8.4025 0.4375 7.7425 0.4375 7.0625 C-0.8825 6.7325 -2.2025 6.4025 -3.5625 6.0625 C-3.605221 4.39638095 -3.60313832 2.72867115 -3.5625 1.0625 C-2.5625 0.0625 -2.5625 0.0625 0 0 Z " fill="#605E5F" transform="translate(145.5625,22.9375)"/>
<path d="M0 0 C0.66 0 1.32 0 2 0 C2 2.64 2 5.28 2 8 C1.34 8 0.68 8 0 8 C-0.33 7.34 -0.66 6.68 -1 6 C-1.33 6.66 -1.66 7.32 -2 8 C-3.65 8 -5.3 8 -7 8 C-7.66 6.02 -8.32 4.04 -9 2 C-6 2 -3 2 0 2 C0 1.34 0 0.68 0 0 Z " fill="#A5A8AC" transform="translate(144,231)"/>
<path d="M0 0 C0 0.33 0 0.66 0 1 C-7.92 1 -15.84 1 -24 1 C-16.5963965 -3.93573566 -8.21470363 -2.47991053 0 0 Z " fill="#F4E7E7" transform="translate(49,52)"/>
<path d="M0 0 C0.66 0 1.32 0 2 0 C2 0.66 2 1.32 2 2 C3.94603274 2.59070014 3.94603274 2.59070014 6 3 C6.33 2.67 6.66 2.34 7 2 C8.32 2 9.64 2 11 2 C11 3.98 11 5.96 11 8 C8.69 8 6.38 8 4 8 C4 6.35 4 4.7 4 3 C3.34 3 2.68 3 2 3 C2 4.32 2 5.64 2 7 C1.34 7 0.68 7 0 7 C0 4.69 0 2.38 0 0 Z " fill="#ADB4BD" transform="translate(72,282)"/>
<path d="M0 0 C2.05078125 0.03255208 4.1015625 0.06510417 6.15234375 0.09765625 C6.48234375 1.08765625 6.81234375 2.07765625 7.15234375 3.09765625 C6.16234375 3.09765625 5.17234375 3.09765625 4.15234375 3.09765625 C4.15234375 3.75765625 4.15234375 4.41765625 4.15234375 5.09765625 C4.81234375 5.42765625 5.47234375 5.75765625 6.15234375 6.09765625 C3.51234375 6.09765625 0.87234375 6.09765625 -1.84765625 6.09765625 C-2.22984392 4.44150968 -2.56160727 2.77308601 -2.84765625 1.09765625 C-1.84765625 0.09765625 -1.84765625 0.09765625 0 0 Z " fill="#C9CACC" transform="translate(296.84765625,283.90234375)"/>
<path d="M0 0 C2.97 0 5.94 0 9 0 C8.67 1.98 8.34 3.96 8 6 C4.625 6.125 4.625 6.125 1 6 C0.34 5.34 -0.32 4.68 -1 4 C-0.67 2.68 -0.34 1.36 0 0 Z " fill="#A19CA3" transform="translate(197,267)"/>
<path d="M0 0 C2.69082872 0.17635452 5.32851446 0.61835921 8 1 C8.33 2.65 8.66 4.3 9 6 C5.67465243 7.10844919 3.37817425 6.84454356 0 6 C-0.38218767 4.34385343 -0.71395102 2.67542976 -1 1 C-0.67 0.67 -0.34 0.34 0 0 Z " fill="#9A9DA2" transform="translate(106,266)"/>
<path d="M0 0 C0.66 0 1.32 0 2 0 C2 0.66 2 1.32 2 2 C3.32 2.33 4.64 2.66 6 3 C6 4.65 6 6.3 6 8 C5.34 8 4.68 8 4 8 C4 6.35 4 4.7 4 3 C3.34 3 2.68 3 2 3 C2 4.65 2 6.3 2 8 C0.35 8 -1.3 8 -3 8 C-3.33 6.02 -3.66 4.04 -4 2 C-3.34 1.67 -2.68 1.34 -2 1 C-1.34 1.33 -0.68 1.66 0 2 C0 1.34 0 0.68 0 0 Z " fill="#AFACB0" transform="translate(254,231)"/>
<path d="M0 0 C0.66 0 1.32 0 2 0 C2 0.66 2 1.32 2 2 C3.32 2.33 4.64 2.66 6 3 C6 4.65 6 6.3 6 8 C5.34 8 4.68 8 4 8 C4 6.35 4 4.7 4 3 C3.34 3 2.68 3 2 3 C2 4.65 2 6.3 2 8 C0.35 8 -1.3 8 -3 8 C-3.33 6.02 -3.66 4.04 -4 2 C-3.34 1.67 -2.68 1.34 -2 1 C-1.34 1.33 -0.68 1.66 0 2 C0 1.34 0 0.68 0 0 Z " fill="#AAABAF" transform="translate(98,231)"/>
<path d="M0 0 C0 1.98 0 3.96 0 6 C-0.99 5.67 -1.98 5.34 -3 5 C-3 3.68 -3 2.36 -3 1 C-3.99 1.495 -3.99 1.495 -5 2 C-5 3.32 -5 4.64 -5 6 C-5.99 6 -6.98 6 -8 6 C-8 4.35 -8 2.7 -8 1 C-8.66 1 -9.32 1 -10 1 C-10 2.65 -10 4.3 -10 6 C-10.66 6 -11.32 6 -12 6 C-12 4.02 -12 2.04 -12 0 C-10.56359829 -0.19573608 -9.12580496 -0.38127816 -7.6875 -0.5625 C-6.88699219 -0.66691406 -6.08648437 -0.77132812 -5.26171875 -0.87890625 C-3 -1 -3 -1 0 0 Z " fill="#A3A4A7" transform="translate(491,216)"/>
<path d="M0 0 C0.33 0 0.66 0 1 0 C1 5.94 1 11.88 1 18 C0.01 17.67 -0.98 17.34 -2 17 C-2.05418326 14.91695462 -2.09287551 12.83350232 -2.125 10.75 C-2.14820313 9.58984375 -2.17140625 8.4296875 -2.1953125 7.234375 C-2.0103949 4.17213954 -1.60823023 2.55797249 0 0 Z " fill="#E72727" transform="translate(11,62)"/>
<path d="M0 0 C0.66 0 1.32 0 2 0 C2.66 0.99 3.32 1.98 4 3 C6.47266765 2.65555119 6.47266765 2.65555119 9 2 C9.33 1.34 9.66 0.68 10 0 C10 2.31 10 4.62 10 7 C9.67 5.68 9.34 4.36 9 3 C8.01 3 7.02 3 6 3 C6.33 4.65 6.66 6.3 7 8 C4 8 4 8 2.3125 6.5 C1.879375 6.005 1.44625 5.51 1 5 C0.01 6.485 0.01 6.485 -1 8 C-1.66 8 -2.32 8 -3 8 C-1.125 1.125 -1.125 1.125 0 0 Z " fill="#75A7D1" transform="translate(554,23)"/>
<path d="M0 0 C4.875 0.875 4.875 0.875 6 2 C6.1875 4.4375 6.1875 4.4375 6 7 C5.34 7.66 4.68 8.32 4 9 C2.68 9 1.36 9 0 9 C0 6.03 0 3.06 0 0 Z " fill="#A0A3AE" transform="translate(433,138)"/>
<path d="M0 0 C1.65 0.33 3.3 0.66 5 1 C5 2.32 5 3.64 5 5 C5.99 5 6.98 5 8 5 C8.33 3.68 8.66 2.36 9 1 C9 2.65 9 4.3 9 6 C6.04335481 7.4783226 3.25770263 7.06032783 0 7 C-1.125 2.25 -1.125 2.25 0 0 Z " fill="#A4A9AE" transform="translate(142,140)"/>
<path d="M0 0 C-1 3 -1 3 -2.75 4.1875 C-5.29960574 5.10819096 -7.30923081 5.14948718 -10 5 C-10 4.67 -10 4.34 -10 4 C-15.28 3.67 -20.56 3.34 -26 3 C-26 2.67 -26 2.34 -26 2 C-24.85402344 1.95101562 -23.70804688 1.90203125 -22.52734375 1.8515625 C-20.99737465 1.77647199 -19.46742782 1.70092694 -17.9375 1.625 C-17.18533203 1.5940625 -16.43316406 1.563125 -15.65820312 1.53125 C-11.9594176 1.3391053 -8.61508571 0.99331138 -5.06640625 -0.1015625 C-2 -1 -2 -1 0 0 Z " fill="#EA4747" transform="translate(75,105)"/>
<path d="M0 0 C3.63 0 7.26 0 11 0 C11 1.98 11 3.96 11 6 C10.34 6 9.68 6 9 6 C8.67 5.34 8.34 4.68 8 4 C7.67 4.66 7.34 5.32 7 6 C5.68 6 4.36 6 3 6 C0 2.78571429 0 2.78571429 0 0 Z " fill="#B3B3B7" transform="translate(307,284)"/>
<path d="M0 0 C0 1.65 0 3.3 0 5 C-3.375 5.625 -3.375 5.625 -7 6 C-7.66 5.34 -8.32 4.68 -9 4 C-8.625 1.875 -8.625 1.875 -8 0 C-4.71303767 -0.79953138 -3.28976808 -1.09658936 0 0 Z " fill="#969EA3" transform="translate(230,141)"/>
<path d="M0 0 C1.32 0 2.64 0 4 0 C4.33 0.66 4.66 1.32 5 2 C6.65 2 8.3 2 10 2 C10 3.98 10 5.96 10 8 C7.36 8 4.72 8 2 8 C2 6.02 2 4.04 2 2 C1.34 2 0.68 2 0 2 C0 1.34 0 0.68 0 0 Z " fill="#ACAAA9" transform="translate(23,73)"/>
<path d="M0 0 C0.66 0 1.32 0 2 0 C2 0.66 2 1.32 2 2 C2.928125 2 3.85625 2 4.8125 2 C6.875 2 8.9375 2 11 2 C10.125 7.75 10.125 7.75 9 10 C8.34 9.67 7.68 9.34 7 9 C7 8.01 7 7.02 7 6 C6.01 6.33 5.02 6.66 4 7 C4 5.68 4 4.36 4 3 C3.34 3 2.68 3 2 3 C2 4.32 2 5.64 2 7 C1.34 7 0.68 7 0 7 C0 4.69 0 2.38 0 0 Z " fill="#A6ADBA" transform="translate(397,282)"/>
<path d="M0 0 C4.68738665 0.90723613 9.34193744 1.9547267 14 3 C14 3.66 14 4.32 14 5 C8.5610835 5.21755666 4.12919186 5.10428384 -1 3 C-0.67 2.01 -0.34 1.02 0 0 Z " fill="#E62222" transform="translate(258,147)"/>
<path d="M0 0 C2.97 0 5.94 0 9 0 C8.01 0.495 8.01 0.495 7 1 C7 2.65 7 4.3 7 6 C4.125 6.125 4.125 6.125 1 6 C0.34 5.34 -0.32 4.68 -1 4 C-0.67 2.68 -0.34 1.36 0 0 Z " fill="#989B9D" transform="translate(447,141)"/>
<path d="M0 0 C0.86625 0.5259375 0.86625 0.5259375 1.75 1.0625 C4.39392586 2.16413578 5.36171148 1.96737246 8 1 C8.66 0.67 9.32 0.34 10 0 C9.62875 0.9075 9.2575 1.815 8.875 2.75 C7.69640701 5.88097015 7.69640701 5.88097015 8.875 8.375 C9.24625 8.91125 9.6175 9.4475 10 10 C9.0925 9.62875 8.185 9.2575 7.25 8.875 C4.11902985 7.69640701 4.11902985 7.69640701 1.625 8.875 C1.08875 9.24625 0.5525 9.6175 0 10 C0.99 8.35 1.98 6.7 3 5 C2.2575 4.319375 2.2575 4.319375 1.5 3.625 C0 2 0 2 0 0 Z " fill="#717881" transform="translate(571,137)"/>
<path d="M0 0 C1.65 0.33 3.3 0.66 5 1 C5.625 3.375 5.625 3.375 6 6 C5.34 6.66 4.68 7.32 4 8 C1.875 7.625 1.875 7.625 0 7 C-1.125 2.25 -1.125 2.25 0 0 Z " fill="#696A71" transform="translate(121,23)"/>
<path d="M0 0 C0.66 0 1.32 0 2 0 C2 2.64 2 5.28 2 8 C0.02 8 -1.96 8 -4 8 C-4.33 6.35 -4.66 4.7 -5 3 C-3.35 2.67 -1.7 2.34 0 2 C0 1.34 0 0.68 0 0 Z " fill="#C4C8CE" transform="translate(165,299)"/>
<path d="M0 0 C2.05078125 0.03255208 4.1015625 0.06510417 6.15234375 0.09765625 C6.48234375 1.08765625 6.81234375 2.07765625 7.15234375 3.09765625 C6.49234375 3.09765625 5.83234375 3.09765625 5.15234375 3.09765625 C4.82234375 3.75765625 4.49234375 4.41765625 4.15234375 5.09765625 C4.81234375 5.42765625 5.47234375 5.75765625 6.15234375 6.09765625 C3.51234375 6.09765625 0.87234375 6.09765625 -1.84765625 6.09765625 C-2.22984392 4.44150968 -2.56160727 2.77308601 -2.84765625 1.09765625 C-1.84765625 0.09765625 -1.84765625 0.09765625 0 0 Z " fill="#AFB1B4" transform="translate(302.84765625,232.90234375)"/>
<path d="M0 0 C3.3 0 6.6 0 10 0 C10 3 10 3 9 6 C7.02 6 5.04 6 3 6 C3 4.35 3 2.7 3 1 C2.34 1 1.68 1 1 1 C0.67 2.32 0.34 3.64 0 5 C0 3.35 0 1.7 0 0 Z " fill="#B7B5B4" transform="translate(141,216)"/>
<path d="M0 0 C2.97 0 5.94 0 9 0 C8.01 0.495 8.01 0.495 7 1 C7 2.65 7 4.3 7 6 C3.88742431 6 1.89234315 5.82638376 -1 5 C-0.67 3.35 -0.34 1.7 0 0 Z " fill="#B1AFB1" transform="translate(558,216)"/>
<path d="M0 0 C2.69082872 0.17635452 5.32851446 0.61835921 8 1 C7.814375 1.61875 7.62875 2.2375 7.4375 2.875 C6.76313824 5.04160178 6.76313824 5.04160178 8 7 C5.36 7 2.72 7 0 7 C-0.38133299 5.0085944 -0.71325582 3.00720923 -1 1 C-0.67 0.67 -0.34 0.34 0 0 Z " fill="#939496" transform="translate(425,74)"/>
<path d="M0 0 C0.66 0 1.32 0 2 0 C2 0.66 2 1.32 2 2 C2.99 2 3.98 2 5 2 C5 3.65 5 5.3 5 7 C4.67 5.68 4.34 4.36 4 3 C3.34 3 2.68 3 2 3 C2 4.65 2 6.3 2 8 C0.35 8 -1.3 8 -3 8 C-3.33 6.02 -3.66 4.04 -4 2 C-3.34 1.67 -2.68 1.34 -2 1 C-1.34 1.33 -0.68 1.66 0 2 C0 1.34 0 0.68 0 0 Z " fill="#B8C2CA" transform="translate(225,282)"/>
<path d="M0 0 C1.67542976 0.28604898 3.34385343 0.61781233 5 1 C5 2.98 5 4.96 5 7 C3.125 7.625 3.125 7.625 1 8 C-1 6 -1 6 -1.1875 3.4375 C-1 1 -1 1 0 0 Z " fill="#A7A4A9" transform="translate(23,333)"/>
<path d="M0 0 C2.475 0.495 2.475 0.495 5 1 C5.625 3.375 5.625 3.375 6 6 C5.34 6.66 4.68 7.32 4 8 C2.68 8 1.36 8 0 8 C0 5.36 0 2.72 0 0 Z " fill="#B6BAC1" transform="translate(23,299)"/>
<path d="M0 0 C0.66 0 1.32 0 2 0 C2 0.66 2 1.32 2 2 C3.98 2 5.96 2 8 2 C8 3.98 8 5.96 8 8 C7.34 8 6.68 8 6 8 C6 6.35 6 4.7 6 3 C5.34 3 4.68 3 4 3 C4 4.65 4 6.3 4 8 C2.68 8 1.36 8 0 8 C0 5.36 0 2.72 0 0 Z " fill="#B8B8BF" transform="translate(264,282)"/>
<path d="M0 0 C0.99 0 1.98 0 3 0 C3 0.66 3 1.32 3 2 C4.65 2.33 6.3 2.66 8 3 C8 4.65 8 6.3 8 8 C7.67 6.68 7.34 5.36 7 4 C6.34 4 5.68 4 5 4 C5 5.65 5 7.3 5 9 C3.35 8.67 1.7 8.34 0 8 C0 5.36 0 2.72 0 0 Z " fill="#A2A5A7" transform="translate(183,264)"/>
<path d="M0 0 C2.475 0.495 2.475 0.495 5 1 C5 3.31 5 5.62 5 8 C3.35 8.33 1.7 8.66 0 9 C0 6.03 0 3.06 0 0 Z " fill="#989C9E" transform="translate(287,138)"/>
<path d="M0 0 C1.32 0.66 2.64 1.32 4 2 C4 3.65 4 5.3 4 7 C2.02 7.99 2.02 7.99 0 9 C-2 7 -2 7 -2.25 4.5 C-2 2 -2 2 0 0 Z " fill="#A4A5AE" transform="translate(56,73)"/>
<path d="M0 0 C2.31 0 4.62 0 7 0 C7 2.31 7 4.62 7 7 C6.34 7 5.68 7 5 7 C5 5.35 5 3.7 5 2 C4.34 2 3.68 2 3 2 C3 3.98 3 5.96 3 8 C2.01 8 1.02 8 0 8 C0 5.36 0 2.72 0 0 Z " fill="#666363" transform="translate(56,23)"/>
<path d="M0 0 C1.23556641 0.01740234 1.23556641 0.01740234 2.49609375 0.03515625 C3.32238281 0.04417969 4.14867188 0.05320312 5 0.0625 C5.63808594 0.07410156 6.27617188 0.08570313 6.93359375 0.09765625 C6.93359375 3.09765625 6.93359375 3.09765625 5.93359375 6.09765625 C4.94359375 6.09765625 3.95359375 6.09765625 2.93359375 6.09765625 C2.93359375 5.10765625 2.93359375 4.11765625 2.93359375 3.09765625 C2.27359375 3.09765625 1.61359375 3.09765625 0.93359375 3.09765625 C0.93359375 2.43765625 0.93359375 1.77765625 0.93359375 1.09765625 C0.27359375 1.09765625 -0.38640625 1.09765625 -1.06640625 1.09765625 C-1.06640625 2.08765625 -1.06640625 3.07765625 -1.06640625 4.09765625 C-0.07640625 4.09765625 0.91359375 4.09765625 1.93359375 4.09765625 C1.93359375 4.75765625 1.93359375 5.41765625 1.93359375 6.09765625 C0.61359375 5.76765625 -0.70640625 5.43765625 -2.06640625 5.09765625 C-2.62890625 3.16015625 -2.62890625 3.16015625 -3.06640625 1.09765625 C-2.06640625 0.09765625 -2.06640625 0.09765625 0 0 Z " fill="#9A9698" transform="translate(88.06640625,266.90234375)"/>
<path d="M0 0 C6.15234375 -0.09765625 6.15234375 -0.09765625 8 0 C9 1 9 1 9.0625 3.5625 C9.041875 4.366875 9.02125 5.17125 9 6 C8.34 6 7.68 6 7 6 C7 4.68 7 3.36 7 2 C6.34 2 5.68 2 5 2 C5 3.32 5 4.64 5 6 C3.35 6 1.7 6 0 6 C0 4.02 0 2.04 0 0 Z " fill="#899198" transform="translate(112,185)"/>
<path d="M0 0 C2.97 0 5.94 0 9 0 C8.01 0.495 8.01 0.495 7 1 C7 1.99 7 2.98 7 4 C7.66 4 8.32 4 9 4 C9 4.66 9 5.32 9 6 C8.443125 5.814375 7.88625 5.62875 7.3125 5.4375 C4.600867 4.92448835 2.65628961 5.3359276 0 6 C0 4.02 0 2.04 0 0 Z " fill="#928F98" transform="translate(151,267)"/>
<path d="M0 0 C2.97 0 5.94 0 9 0 C8.01 0.495 8.01 0.495 7 1 C7 2.65 7 4.3 7 6 C5.00045254 6.04254356 2.99958364 6.04080783 1 6 C0 5 0 5 -0.0625 2.4375 C-0.041875 1.633125 -0.02125 0.82875 0 0 Z " fill="#9898A1" transform="translate(352,141)"/>
<path d="M0 0 C2.31 0 4.62 0 7 0 C6.67 0.99 6.34 1.98 6 3 C5.96045766 5.33299825 5.95598268 7.66708189 6 10 C5.67 10 5.34 10 5 10 C5 8.35 5 6.7 5 5 C3.68 5 2.36 5 1 5 C1 6.65 1 8.3 1 10 C0.67 10 0.34 10 0 10 C-1.125 3.375 -1.125 3.375 0 0 Z " fill="#414450" transform="translate(66,20)"/>
<path d="M0 0 C0.99 0 1.98 0 3 0 C3 0.66 3 1.32 3 2 C4.32 2.33 5.64 2.66 7 3 C3.25 4.125 3.25 4.125 1 3 C1 4.65 1 6.3 1 8 C-0.32 8 -1.64 8 -3 8 C-3 6.02 -3 4.04 -3 2 C-2.01 2 -1.02 2 0 2 C0 1.34 0 0.68 0 0 Z " fill="#C0BABF" transform="translate(226,264)"/>
<path d="M0 0 C3.125 -0.1875 3.125 -0.1875 6 0 C6 1.98 6 3.96 6 6 C5.34 6 4.68 6 4 6 C4 4.35 4 2.7 4 1 C3.34 1 2.68 1 2 1 C2 2.65 2 4.3 2 6 C-0.31 6 -2.62 6 -5 6 C-4.67 5.01 -4.34 4.02 -4 3 C-3.34 3 -2.68 3 -2 3 C-1.34 2.01 -0.68 1.02 0 0 Z " fill="#B3B4B7" transform="translate(207,216)"/>
<path d="M0 0 C4.875 4.75 4.875 4.75 6 7 C4.68 7 3.36 7 2 7 C1.67 7.99 1.34 8.98 1 10 C0.34 10 -0.32 10 -1 10 C-1.9765625 3.9453125 -1.9765625 3.9453125 -2 2 C-1.34 1.34 -0.68 0.68 0 0 Z " fill="#C0C5C7" transform="translate(418,138)"/>
<path d="M0 0 C2.27024968 -0.08097324 4.54132075 -0.13917704 6.8125 -0.1875 C8.07707031 -0.22230469 9.34164062 -0.25710937 10.64453125 -0.29296875 C14 0 14 0 17 3 C11.39 3 5.78 3 0 3 C0 2.01 0 1.02 0 0 Z " fill="#E51C1C" transform="translate(61,49)"/>
<path d="M0 0 C1.32 0.99 2.64 1.98 4 3 C4.66 2.01 5.32 1.02 6 0 C6.66 0 7.32 0 8 0 C8 2.64 8 5.28 8 8 C7.34 8 6.68 8 6 8 C5.67 7.34 5.34 6.68 5 6 C4.01 5.67 3.02 5.34 2 5 C1.34 5.99 0.68 6.98 0 8 C0 5.36 0 2.72 0 0 Z " fill="#A4A8B1" transform="translate(95,299)"/>
<path d="M0 0 C0.66 0 1.32 0 2 0 C2 0.66 2 1.32 2 2 C3.32 2.33 4.64 2.66 6 3 C5.67 4.65 5.34 6.3 5 8 C3.35 8 1.7 8 0 8 C0 5.36 0 2.72 0 0 Z " fill="#B3B6BC" transform="translate(328,282)"/>
<path d="M0 0 C2.05078125 0.03255208 4.1015625 0.06510417 6.15234375 0.09765625 C5.49234375 1.41765625 4.83234375 2.73765625 4.15234375 4.09765625 C4.81234375 4.75765625 5.47234375 5.41765625 6.15234375 6.09765625 C3.51234375 6.09765625 0.87234375 6.09765625 -1.84765625 6.09765625 C-2.22984392 4.44150968 -2.56160727 2.77308601 -2.84765625 1.09765625 C-1.84765625 0.09765625 -1.84765625 0.09765625 0 0 Z " fill="#B2B3B7" transform="translate(179.84765625,232.90234375)"/>
<path d="M0 0 C0.66 0 1.32 0 2 0 C2 0.66 2 1.32 2 2 C3.32 2.33 4.64 2.66 6 3 C5.67 4.65 5.34 6.3 5 8 C3.35 8 1.7 8 0 8 C0 5.36 0 2.72 0 0 Z " fill="#ADB1B2" transform="translate(156,231)"/>
<path d="M0 0 C2.69082872 0.17635452 5.32851446 0.61835921 8 1 C7.67 1.99 7.34 2.98 7 4 C7 3.34 7 2.68 7 2 C6.34 2 5.68 2 5 2 C5.7763932 5.0745356 5.7763932 5.0745356 8 7 C5.69 7 3.38 7 1 7 C0.34 5.02 -0.32 3.04 -1 1 C-0.67 0.67 -0.34 0.34 0 0 Z " fill="#969093" transform="translate(76,334)"/>
<path d="M0 0 C2.05078125 0.03255208 4.1015625 0.06510417 6.15234375 0.09765625 C6.15234375 2.09765625 6.15234375 4.09765625 6.15234375 6.09765625 C4.83234375 5.76765625 3.51234375 5.43765625 2.15234375 5.09765625 C2.81234375 4.76765625 3.47234375 4.43765625 4.15234375 4.09765625 C3.16234375 4.42765625 2.17234375 4.75765625 1.15234375 5.09765625 C0.16234375 5.42765625 -0.82765625 5.75765625 -1.84765625 6.09765625 C-2.22984392 4.44150968 -2.56160727 2.77308601 -2.84765625 1.09765625 C-1.84765625 0.09765625 -1.84765625 0.09765625 0 0 Z " fill="#9DA2A6" transform="translate(56.84765625,232.90234375)"/>
<path d="M0 0 C2.33294775 -0.04241723 4.66702567 -0.04092937 7 0 C8 1 8 1 8.0625 3.5625 C8.041875 4.366875 8.02125 5.17125 8 6 C7.34 6 6.68 6 6 6 C6 4.35 6 2.7 6 1 C5.34 1 4.68 1 4 1 C4 2.65 4 4.3 4 6 C2.68 6 1.36 6 0 6 C0 4.02 0 2.04 0 0 Z " fill="#979AA6" transform="translate(270,233)"/>
<path d="M0 0 C0.66 0 1.32 0 2 0 C2 2.64 2 5.28 2 8 C0.35 8 -1.3 8 -3 8 C-4.125 4.25 -4.125 4.25 -3 2 C-2.01 2 -1.02 2 0 2 C0 1.34 0 0.68 0 0 Z " fill="#949195" transform="translate(50,183)"/>
<path d="M0 0 C1.32 0.33 2.64 0.66 4 1 C3.34 1 2.68 1 2 1 C2 4.3 2 7.6 2 11 C1.01 10.67 0.02 10.34 -1 10 C-2.25 3.375 -2.25 3.375 0 0 Z " fill="#C2C5CA" transform="translate(367,72)"/>
<path d="M0 0 C1.67542976 0.28604898 3.34385343 0.61781233 5 1 C5 1.99 5 2.98 5 4 C3.68 4 2.36 4 1 4 C1 4.66 1 5.32 1 6 C2.32 6 3.64 6 5 6 C5 6.66 5 7.32 5 8 C3.33388095 8.042721 1.66617115 8.04063832 0 8 C-1 7 -1 7 -1.125 4 C-1 1 -1 1 0 0 Z " fill="#5C5D61" transform="translate(98,23)"/>
<path d="M0 0 C2.97 0 5.94 0 9 0 C8.01 0.495 8.01 0.495 7 1 C7 2.65 7 4.3 7 6 C6.34 6 5.68 6 5 6 C5 5.01 5 4.02 5 3 C4.01 3.495 4.01 3.495 3 4 C3.33 4.66 3.66 5.32 4 6 C2.68 5.67 1.36 5.34 0 5 C0 3.35 0 1.7 0 0 Z " fill="#AEB0B4" transform="translate(232,284)"/>
<path d="M0 0 C2.0625 0.4375 2.0625 0.4375 4 1 C4 2.98 4 4.96 4 7 C2.0625 7.5625 2.0625 7.5625 0 8 C-1 7 -1 7 -1.125 4 C-1 1 -1 1 0 0 Z " fill="#B6B8B9" transform="translate(496,214)"/>
<path d="M0 0 C1.98 0 3.96 0 6 0 C6.33 1.98 6.66 3.96 7 6 C3.88742431 6 1.89234315 5.82638376 -1 5 C-0.67 3.35 -0.34 1.7 0 0 Z " fill="#BBB9B6" transform="translate(116,216)"/>
<path d="M0 0 C0.66 0 1.32 0 2 0 C2 2.64 2 5.28 2 8 C0.35 8 -1.3 8 -3 8 C-3.33 6.68 -3.66 5.36 -4 4 C-2.68 3.34 -1.36 2.68 0 2 C0 1.34 0 0.68 0 0 Z " fill="#939094" transform="translate(57,183)"/>
<path d="M0 0 C1.32 0 2.64 0 4 0 C4 2.31 4 4.62 4 7 C2.35 7.33 0.7 7.66 -1 8 C-1.04241723 5.66705225 -1.04092937 3.33297433 -1 1 C-0.67 0.67 -0.34 0.34 0 0 Z " fill="#A0A29D" transform="translate(534,141)"/>
<path d="M0 0 C0 1.98 0 3.96 0 6 C-0.99 5.67 -1.98 5.34 -3 5 C-3 3.68 -3 2.36 -3 1 C-3.99 1.495 -3.99 1.495 -5 2 C-5 3.32 -5 4.64 -5 6 C-5.99 6 -6.98 6 -8 6 C-8 4.02 -8 2.04 -8 0 C-4.71303767 -0.79953138 -3.28976808 -1.09658936 0 0 Z " fill="#A5A2A5" transform="translate(556,216)"/>
<path d="M0 0 C0.99 0.33 1.98 0.66 3 1 C3 1.66 3 2.32 3 3 C3.45375 2.505 3.9075 2.01 4.375 1.5 C6 0 6 0 8 0 C8 2.31 8 4.62 8 7 C7.34 6.01 6.68 5.02 6 4 C5.67 4.66 5.34 5.32 5 6 C2.4375 6.625 2.4375 6.625 0 7 C0 4.69 0 2.38 0 0 Z " fill="#9899A2" transform="translate(95,214)"/>
<path d="M0 0 C1.32 0 2.64 0 4 0 C4 2.31 4 4.62 4 7 C2.35 7.33 0.7 7.66 -1 8 C-1 4.88742431 -0.82638376 2.89234315 0 0 Z " fill="#A4A49D" transform="translate(475,141)"/>
<path d="M0 0 C1.32 0 2.64 0 4 0 C4 0.66 4 1.32 4 2 C5.98 2 7.96 2 10 2 C10 3.65 10 5.3 10 7 C9.67 5.68 9.34 4.36 9 3 C7.05925139 3.27617533 7.05925139 3.27617533 5 4 C4.01 5.485 4.01 5.485 3 7 C2.01 7.33 1.02 7.66 0 8 C0 5.36 0 2.72 0 0 Z " fill="#CAD8E0" transform="translate(109,138)"/>
<path d="M0 0 C1.65 0 3.3 0 5 0 C5.97608217 2.92824652 6.08226668 4.95613276 6 8 C4 8 4 8 2.375 6.5 C1.92125 6.005 1.4675 5.51 1 5 C0.67 5.66 0.34 6.32 0 7 C0 4.69 0 2.38 0 0 Z " fill="#9A8E94" transform="translate(296,73)"/>
<path d="M0 0 C1.98 0.66 3.96 1.32 6 2 C6 3.98 6 5.96 6 8 C4 8 2 8 0 8 C0 5.36 0 2.72 0 0 Z " fill="#9BB7DA" transform="translate(593,333)"/>
<path d="M0 0 C1.32 0 2.64 0 4 0 C4 2.31 4 4.62 4 7 C2.35 7.33 0.7 7.66 -1 8 C-1 5.16032769 -0.59732819 2.76264289 0 0 Z " fill="#B0B2B8" transform="translate(123,301)"/>
<path d="M0 0 C0.99 0.33 1.98 0.66 3 1 C2.67 1.33 2.34 1.66 2 2 C2.66 2.33 3.32 2.66 4 3 C4.33 2.01 4.66 1.02 5 0 C5.99 0.33 6.98 0.66 8 1 C8 2.66666667 8 4.33333333 8 6 C5.36 6 2.72 6 0 6 C0 4 0 2 0 0 Z " fill="#A4A7AA" transform="translate(193,233)"/>
<path d="M0 0 C0 1.98 0 3.96 0 6 C-0.99 5.67 -1.98 5.34 -3 5 C-3 3.68 -3 2.36 -3 1 C-3.99 1.495 -3.99 1.495 -5 2 C-5 3.32 -5 4.64 -5 6 C-5.99 6 -6.98 6 -8 6 C-8 4 -8 2 -8 0 C-4.71303767 -0.79953138 -3.28976808 -1.09658936 0 0 Z " fill="#8E8689" transform="translate(160,141)"/>
<path d="M0 0 C2 0.25 2 0.25 4 1 C4.33 1.99 4.66 2.98 5 4 C4.67 4.66 4.34 5.32 4 6 C3.01 6 2.02 6 1 6 C1 6.66 1 7.32 1 8 C0.34 8 -0.32 8 -1 8 C-1.04241723 5.66705225 -1.04092937 3.33297433 -1 1 C-0.67 0.67 -0.34 0.34 0 0 Z " fill="#959EA4" transform="translate(374,138)"/>
<path d="M0 0 C-0.8125 2.4375 -0.8125 2.4375 -2 5 C-2.99 5.33 -3.98 5.66 -5 6 C-5.66 10.29 -6.32 14.58 -7 19 C-7.33 19 -7.66 19 -8 19 C-8.47166615 11.75468382 -8.38908827 6.93817825 -4 1 C-2 0 -2 0 0 0 Z " fill="#EC5656" transform="translate(16,57)"/>
<path d="M0 0 C0.99 0 1.98 0 3 0 C3 0.66 3 1.32 3 2 C4.32 2 5.64 2 7 2 C7 2.66 7 3.32 7 4 C6.34 4 5.68 4 5 4 C5 5.32 5 6.64 5 8 C4.34 8 3.68 8 3 8 C3 6.68 3 5.36 3 4 C2.34 4 1.68 4 1 4 C0.67 5.32 0.34 6.64 0 8 C-0.79953138 4.71303767 -1.09658936 3.28976808 0 0 Z " fill="#949093" transform="translate(78,264)"/>
<path d="M0 0 C0.66 0 1.32 0 2 0 C2 0.66 2 1.32 2 2 C3.65 2.33 5.3 2.66 7 3 C6.01 3.495 6.01 3.495 5 4 C5 5.65 5 7.3 5 9 C4.34 9 3.68 9 3 9 C3 7.35 3 5.7 3 4 C2.34 4 1.68 4 1 4 C1 5.65 1 7.3 1 9 C0.34 9 -0.32 9 -1 9 C-0.67 6.03 -0.34 3.06 0 0 Z " fill="#A3A0A3" transform="translate(68,230)"/>
<path d="M0 0 C0.99 0.33 1.98 0.66 3 1 C3.33 3.31 3.66 5.62 4 8 C2.02 8 0.04 8 -2 8 C-1.125 2.25 -1.125 2.25 0 0 Z " fill="#85898D" transform="translate(41,183)"/>
<path d="M0 0 C-0.33 2.31 -0.66 4.62 -1 7 C-1.33 7 -1.66 7 -2 7 C-2.33 5.35 -2.66 3.7 -3 2 C-3.99 1.67 -4.98 1.34 -6 1 C-6 1.66 -6 2.32 -6 3 C-5.34 3 -4.68 3 -4 3 C-4 3.66 -4 4.32 -4 5 C-4.66 5 -5.32 5 -6 5 C-6 5.66 -6 6.32 -6 7 C-6.66 7 -7.32 7 -8 7 C-8 4.69 -8 2.38 -8 0 C-2.25 -1.125 -2.25 -1.125 0 0 Z " fill="#8A869C" transform="translate(48,333)"/>
<path d="M0 0 C0.66 0 1.32 0 2 0 C2 2.64 2 5.28 2 8 C0 8 -2 8 -4 8 C-4.33 6.35 -4.66 4.7 -5 3 C-4.67 3.66 -4.34 4.32 -4 5 C-3.34 5 -2.68 5 -2 5 C-1.34 3.35 -0.68 1.7 0 0 Z " fill="#A7A4A2" transform="translate(124,264)"/>
<path d="M0 0 C1.65 0.33 3.3 0.66 5 1 C4.67 2.65 4.34 4.3 4 6 C2.35 5.67 0.7 5.34 -1 5 C-0.67 3.35 -0.34 1.7 0 0 Z " fill="#B2B5B8" transform="translate(232,233)"/>
<path d="M0 0 C0.66 0 1.32 0 2 0 C2 2.64 2 5.28 2 8 C1.34 8 0.68 8 0 8 C0 7.34 0 6.68 0 6 C-0.66 6 -1.32 6 -2 6 C-2 5.34 -2 4.68 -2 4 C-2.66 4 -3.32 4 -4 4 C-3.2236068 7.0745356 -3.2236068 7.0745356 -1 9 C-2.32 8.67 -3.64 8.34 -5 8 C-5 6.35 -5 4.7 -5 3 C-3.68 3 -2.36 3 -1 3 C-0.67 2.01 -0.34 1.02 0 0 Z " fill="#A6A29F" transform="translate(54,213)"/>
<path d="M0 0 C0 0.66 0 1.32 0 2 C-0.66 2 -1.32 2 -2 2 C-2 1.34 -2 0.68 -2 0 C-2.66 0 -3.32 0 -4 0 C-3.2236068 3.0745356 -3.2236068 3.0745356 -1 5 C-3.875 5.125 -3.875 5.125 -7 5 C-7.66 4.34 -8.32 3.68 -9 3 C-9 2.01 -9 1.02 -9 0 C-5.67465243 -1.10844919 -3.37817425 -0.84454356 0 0 Z " fill="#BBBFC1" transform="translate(386,217)"/>
<path d="M0 0 C2.64 0 5.28 0 8 0 C7.34 1.65 6.68 3.3 6 5 C4.68 5 3.36 5 2 5 C1.34 3.35 0.68 1.7 0 0 Z " fill="#676E75" transform="translate(272,74)"/>
<path d="M0 0 C0.66 0 1.32 0 2 0 C3.09506492 3.28519475 3.09960608 5.73663415 3.0625 9.1875 C3.05347656 10.27417969 3.04445313 11.36085938 3.03515625 12.48046875 C3.02355469 13.31191406 3.01195313 14.14335938 3 15 C2.34 15 1.68 15 1 15 C0.67 10.05 0.34 5.1 0 0 Z " fill="#E51818" transform="translate(91,61)"/>
<path d="M0 0 C2.31 0 4.62 0 7 0 C7 0.66 7 1.32 7 2 C5.68 2 4.36 2 3 2 C3 3.98 3 5.96 3 8 C2.01 8 1.02 8 0 8 C0 5.36 0 2.72 0 0 Z " fill="#80817C" transform="translate(128,23)"/>
<path d="M0 0 C0 1.98 0 3.96 0 6 C-0.99 5.67 -1.98 5.34 -3 5 C-3 3.68 -3 2.36 -3 1 C-3.99 1.33 -4.98 1.66 -6 2 C-5.34 2.33 -4.68 2.66 -4 3 C-4.33 3.99 -4.66 4.98 -5 6 C-5.99 5.67 -6.98 5.34 -8 5 C-8 3.33333333 -8 1.66666667 -8 0 C-4.71303767 -0.79953138 -3.28976808 -1.09658936 0 0 Z " fill="#989EA5" transform="translate(287,233)"/>
<path d="M0 0 C1.65 0 3.3 0 5 0 C5 2.97 5 5.94 5 9 C4.34 9 3.68 9 3 9 C3 7.35 3 5.7 3 4 C2.34 4 1.68 4 1 4 C0.67 5.32 0.34 6.64 0 8 C-0.79953138 4.71303767 -1.09658936 3.28976808 0 0 Z " fill="#9CA0A9" transform="translate(473,213)"/>
<path d="M0 0 C0 3 0 3 -1 6 C-1.99 6 -2.98 6 -4 6 C-4 4.68 -4 3.36 -4 2 C-4.66 1.67 -5.32 1.34 -6 1 C-6 2.32 -6 3.64 -6 5 C-6.66 5 -7.32 5 -8 5 C-8 3.35 -8 1.7 -8 0 C-4.71303767 -0.79953138 -3.28976808 -1.09658936 0 0 Z " fill="#8A888F" transform="translate(191,141)"/>
<path d="M0 0 C0.66 0 1.32 0 2 0 C2 0.99 2 1.98 2 3 C2.66 3.33 3.32 3.66 4 4 C3.34 4 2.68 4 2 4 C2 4.66 2 5.32 2 6 C2.99 6 3.98 6 5 6 C5 4.68 5 3.36 5 2 C6.32 2.33 7.64 2.66 9 3 C8.34 3 7.68 3 7 3 C7 4.32 7 5.64 7 7 C4.69 7 2.38 7 0 7 C0 4.69 0 2.38 0 0 Z " fill="#8B8680" transform="translate(58,139)"/>
<path d="M0 0 C0.33 0 0.66 0 1 0 C1 2.64 1 5.28 1 8 C-0.65 7.67 -2.3 7.34 -4 7 C-4 5.35 -4 3.7 -4 2 C-2.68 2 -1.36 2 0 2 C0 1.34 0 0.68 0 0 Z " fill="#81B6D9" transform="translate(598,23)"/>
<path d="M0 0 C2.475 0.495 2.475 0.495 5 1 C4.67 2.65 4.34 4.3 4 6 C3.01 6 2.02 6 1 6 C0.67 6.66 0.34 7.32 0 8 C0 5.36 0 2.72 0 0 Z " fill="#ACB0B7" transform="translate(388,284)"/>
<path d="M0 0 C0.33 0 0.66 0 1 0 C1 2.64 1 5.28 1 8 C-0.65 7.67 -2.3 7.34 -4 7 C-3.67 5.35 -3.34 3.7 -3 2 C-2.01 2 -1.02 2 0 2 C0 1.34 0 0.68 0 0 Z " fill="#B2B1B7" transform="translate(376,282)"/>
<path d="M0 0 C1.65 0 3.3 0 5 0 C5 1.65 5 3.3 5 5 C3.35 5.66 1.7 6.32 0 7 C0 4.69 0 2.38 0 0 Z " fill="#9B8E96" transform="translate(174,267)"/>
<path d="M0 0 C0.99 0.33 1.98 0.66 3 1 C4.1875 4.5625 4.1875 4.5625 5 8 C4.34 8 3.68 8 3 8 C3 7.34 3 6.68 3 6 C1.35 6.66 -0.3 7.32 -2 8 C-1.34 5.36 -0.68 2.72 0 0 Z " fill="#A5A6A8" transform="translate(115,231)"/>
<path d="M0 0 C1.65 0 3.3 0 5 0 C5 1.65 5 3.3 5 5 C3.35 5.66 1.7 6.32 0 7 C0 4.69 0 2.38 0 0 Z " fill="#8B9799" transform="translate(241,141)"/>
<path d="M0 0 C1.65 0 3.3 0 5 0 C4.67 2.64 4.34 5.28 4 8 C3.01 7.67 2.02 7.34 1 7 C0.3125 4.9375 0.3125 4.9375 0 3 C-0.99 3.495 -0.99 3.495 -2 4 C-1.34 2.68 -0.68 1.36 0 0 Z " fill="#9FC9E6" transform="translate(42,138)"/>
<path d="M0 0 C0.33 0 0.66 0 1 0 C1 2.64 1 5.28 1 8 C-0.65 7.67 -2.3 7.34 -4 7 C-3.67 5.35 -3.34 3.7 -3 2 C-2.01 2 -1.02 2 0 2 C0 1.34 0 0.68 0 0 Z " fill="#9F919C" transform="translate(438,73)"/>
<path d="M0 0 C2.475 0.495 2.475 0.495 5 1 C4.67 2.65 4.34 4.3 4 6 C3.01 6 2.02 6 1 6 C0.67 6.66 0.34 7.32 0 8 C0 5.36 0 2.72 0 0 Z " fill="#978F99" transform="translate(418,75)"/>
<path d="M0 0 C0.78375 0.04125 1.5675 0.0825 2.375 0.125 C1.385 0.785 0.395 1.445 -0.625 2.125 C-1.35843428 5.19056598 -1.35843428 5.19056598 -1.625 8.125 C-0.305 8.455 1.015 8.785 2.375 9.125 C0 9.25 0 9.25 -2.625 9.125 C-4.625 7.125 -4.625 7.125 -4.875 4.625 C-4.51649553 1.03995533 -3.59522993 0.17120143 0 0 Z " fill="#443D43" transform="translate(43.625,20.875)"/>
<path d="M0 0 C2.33333333 0 4.66666667 0 7 0 C7.33 0.66 7.66 1.32 8 2 C7.0625 4.125 7.0625 4.125 6 6 C5.34 5.34 4.68 4.68 4 4 C3.67 4.66 3.34 5.32 3 6 C2.34 6 1.68 6 1 6 C0.67 4.02 0.34 2.04 0 0 Z " fill="#A9A8AE" transform="translate(200,284)"/>
<path d="M0 0 C0.33 0.66 0.66 1.32 1 2 C3.02463255 2.65213292 3.02463255 2.65213292 5 3 C4.67 4.65 4.34 6.3 4 8 C2.68 8 1.36 8 0 8 C0 5.36 0 2.72 0 0 Z " fill="#8E94A7" transform="translate(145,265)"/>
<path d="M0 0 C1.32 0.99 2.64 1.98 4 3 C4.99 2.01 5.98 1.02 7 0 C7 2.64 7 5.28 7 8 C6.34 7.01 5.68 6.02 5 5 C4.01 5 3.02 5 2 5 C1.34 5.99 0.68 6.98 0 8 C0 5.36 0 2.72 0 0 Z " fill="#989695" transform="translate(121,231)"/>
<path d="M0 0 C2.475 0.495 2.475 0.495 5 1 C5.33 2.32 5.66 3.64 6 5 C4.34385343 5.38218767 2.67542976 5.71395102 1 6 C0 5 0 5 -0.0625 2.4375 C-0.041875 1.633125 -0.02125 0.82875 0 0 Z " fill="#B0B7BB" transform="translate(58,216)"/>
<path d="M0 0 C0.99 0.33 1.98 0.66 3 1 C2.67 3.31 2.34 5.62 2 8 C1.67 6.68 1.34 5.36 1 4 C0.67 4.99 0.34 5.98 0 7 C-0.99 7 -1.98 7 -3 7 C-3.1875 4.625 -3.1875 4.625 -3 2 C-2.01 1.34 -1.02 0.68 0 0 Z " fill="#DBE6EA" transform="translate(284,138)"/>
<path d="M0 0 C1.67542976 0.28604898 3.34385343 0.61781233 5 1 C4.67 2.32 4.34 3.64 4 5 C2.68 5.33 1.36 5.66 0 6 C-0.38218767 4.34385343 -0.71395102 2.67542976 -1 1 C-0.67 0.67 -0.34 0.34 0 0 Z " fill="#949FA5" transform="translate(255,141)"/>
<path d="M0 0 C2.125 0.375 2.125 0.375 4 1 C3.01 1.33 2.02 1.66 1 2 C1 3.32 1 4.64 1 6 C1.66 6.33 2.32 6.66 3 7 C2.67 5.68 2.34 4.36 2 3 C2.99 3.33 3.98 3.66 5 4 C4.67 5.32 4.34 6.64 4 8 C2.35 7.67 0.7 7.34 -1 7 C-1.625 4.625 -1.625 4.625 -2 2 C-1.34 1.34 -0.68 0.68 0 0 Z " fill="#808487" transform="translate(127,73)"/>
<path d="M0 0 C5.19209404 -0.21192221 9.126739 0.4087311 14 2 C14 2.66 14 3.32 14 4 C9.38 3.34 4.76 2.68 0 2 C0 1.34 0 0.68 0 0 Z " fill="#E51717" transform="translate(33,47)"/>
<path d="M0 0 C2.125 0.375 2.125 0.375 4 1 C4 1.99 4 2.98 4 4 C2.68 4 1.36 4 0 4 C0 4.66 0 5.32 0 6 C1.32 6.33 2.64 6.66 4 7 C2.35 7 0.7 7 -1 7 C-1.625 4.625 -1.625 4.625 -2 2 C-1.34 1.34 -0.68 0.68 0 0 Z " fill="#504E50" transform="translate(152,23)"/>
<path d="M0 0 C2.475 0.495 2.475 0.495 5 1 C5 2.65 5 4.3 5 6 C3.35 5.67 1.7 5.34 0 5 C0 3.35 0 1.7 0 0 Z " fill="#ADB6BC" transform="translate(215,233)"/>
<path d="M0 0 C0.66 0 1.32 0 2 0 C3.42944945 2.35438733 4.08661261 3.48032433 3.625 6.25 C3.41875 6.8275 3.2125 7.405 3 8 C3 7.34 3 6.68 3 6 C1.35 6.33 -0.3 6.66 -2 7 C-1.125 1.125 -1.125 1.125 0 0 Z " fill="#A4A5A7" transform="translate(90,214)"/>
<path d="M0 0 C0 0.99 0 1.98 0 3 C0.66 3 1.32 3 2 3 C2.33 2.34 2.66 1.68 3 1 C2.67 2.65 2.34 4.3 2 6 C0.02 6 -1.96 6 -4 6 C-4 4.35 -4 2.7 -4 1 C-2 0 -2 0 0 0 Z " fill="#86898E" transform="translate(81,185)"/>
<path d="M0 0 C1.67542976 0.28604898 3.34385343 0.61781233 5 1 C4.67 2.32 4.34 3.64 4 5 C2.68 5 1.36 5 0 5 C-0.5625 3.0625 -0.5625 3.0625 -1 1 C-0.67 0.67 -0.34 0.34 0 0 Z " fill="#969C9F" transform="translate(297,141)"/>
<path d="M0 0 C1.32 0 2.64 0 4 0 C4 1.32 4 2.64 4 4 C4.66 3.67 5.32 3.34 6 3 C5.42655063 5.86724686 5.1385485 6.8614515 3 9 C2.01 9 1.02 9 0 9 C0 8.34 0 7.68 0 7 C0.99 7 1.98 7 3 7 C3 6.34 3 5.68 3 5 C2.34 5 1.68 5 1 5 C0.67 3.35 0.34 1.7 0 0 Z " fill="#8C8A91" transform="translate(264,138)"/>
<path d="M0 0 C0.66 0 1.32 0 2 0 C2 2.64 2 5.28 2 8 C0.02 8 -1.96 8 -4 8 C-4 6.68 -4 5.36 -4 4 C-3.34 4 -2.68 4 -2 4 C-2 4.66 -2 5.32 -2 6 C-1.34 6 -0.68 6 0 6 C0 4.02 0 2.04 0 0 Z " fill="#ADA89F" transform="translate(107,138)"/>
<path d="M0 0 C1.32 0 2.64 0 4 0 C4 0.66 4 1.32 4 2 C3.01 2.495 3.01 2.495 2 3 C2.66 3.33 3.32 3.66 4 4 C3.67 5.32 3.34 6.64 3 8 C1.68 8 0.36 8 -1 8 C-1 7.34 -1 6.68 -1 6 C-0.34 5.67 0.32 5.34 1 5 C0.34 4.67 -0.32 4.34 -1 4 C-0.67 2.68 -0.34 1.36 0 0 Z " fill="#58545C" transform="translate(109,23)"/>
<path d="M0 0 C1.98 0 3.96 0 6 0 C6 2.97 6 5.94 6 9 C5.34 8.01 4.68 7.02 4 6 C3.01 6 2.02 6 1 6 C0.67 4.02 0.34 2.04 0 0 Z " fill="#8E96A8" transform="translate(75,23)"/>
<path d="M0 0 C0.66 0 1.32 0 2 0 C2 1.32 2 2.64 2 4 C2.66 4 3.32 4 4 4 C4 2.68 4 1.36 4 0 C4.66 0 5.32 0 6 0 C6 1.98 6 3.96 6 6 C4.33388095 6.042721 2.66617115 6.04063832 1 6 C0 5 0 5 -0.0625 2.4375 C-0.041875 1.633125 -0.02125 0.82875 0 0 Z " fill="#B2B4BC" transform="translate(381,284)"/>
<path d="M0 0 C0.66 0 1.32 0 2 0 C2 1.32 2 2.64 2 4 C2.66 4 3.32 4 4 4 C4 2.68 4 1.36 4 0 C4.66 0 5.32 0 6 0 C6 1.98 6 3.96 6 6 C4.33388095 6.042721 2.66617115 6.04063832 1 6 C0 5 0 5 -0.0625 2.4375 C-0.041875 1.633125 -0.02125 0.82875 0 0 Z " fill="#B0B5BE" transform="translate(103,284)"/>
<path d="M0 0 C0.66 0 1.32 0 2 0 C2 0.99 2 1.98 2 3 C3.32 3.33 4.64 3.66 6 4 C5.67 4.99 5.34 5.98 5 7 C4.01 6.01 3.02 5.02 2 4 C2 5.32 2 6.64 2 8 C2.66 8.33 3.32 8.66 4 9 C2.68 9 1.36 9 0 9 C0 6.03 0 3.06 0 0 Z " fill="#ABA8AC" transform="translate(343,281)"/>
<path d="M0 0 C0.66 0 1.32 0 2 0 C2.33 0.99 2.66 1.98 3 3 C3.66 3.33 4.32 3.66 5 4 C5 5.66666667 5 7.33333333 5 9 C3.35 8.67 1.7 8.34 0 8 C0 5.36 0 2.72 0 0 Z " fill="#83869E" transform="translate(59,264)"/>
<path d="M0 0 C0.33 0.66 0.66 1.32 1 2 C3.52733235 2.65555119 3.52733235 2.65555119 6 3 C5.01 3.495 5.01 3.495 4 4 C4 5.65 4 7.3 4 9 C3.34 9 2.68 9 2 9 C2 7.35 2 5.7 2 4 C1.34 4 0.68 4 0 4 C0 5.65 0 7.3 0 9 C-0.33 9 -0.66 9 -1 9 C-1.625 6.1875 -1.625 6.1875 -2 3 C-1.34 2.01 -0.68 1.02 0 0 Z " fill="#99989B" transform="translate(225,230)"/>
<path d="M0 0 C1.98 0.495 1.98 0.495 4 1 C4 2.65 4 4.3 4 6 C2.35 5.67 0.7 5.34 -1 5 C-0.67 3.35 -0.34 1.7 0 0 Z " fill="#B0B0B1" transform="translate(29,233)"/>
<path d="M0 0 C0.66 0 1.32 0 2 0 C2 0.66 2 1.32 2 2 C2.99 1.67 3.98 1.34 5 1 C7.1875 1.4375 7.1875 1.4375 9 2 C8.67 2.99 8.34 3.98 8 5 C5.69 4.67 3.38 4.34 1 4 C0.67 2.68 0.34 1.36 0 0 Z " fill="#C9CECF" transform="translate(288,217)"/>
<path d="M0 0 C2.475 0.495 2.475 0.495 5 1 C4.67 2.65 4.34 4.3 4 6 C2.68 5.67 1.36 5.34 0 5 C0 3.35 0 1.7 0 0 Z " fill="#ADB2B6" transform="translate(165,216)"/>
<path d="M0 0 C1.98 0.495 1.98 0.495 4 1 C4 2.65 4 4.3 4 6 C2.35 5.67 0.7 5.34 -1 5 C-0.67 3.35 -0.34 1.7 0 0 Z " fill="#ACB0B6" transform="translate(176,216)"/>
<path d="M0 0 C1.32 0 2.64 0 4 0 C4 1.65 4 3.3 4 5 C2.68 5.33 1.36 5.66 0 6 C-0.38218767 4.34385343 -0.71395102 2.67542976 -1 1 C-0.67 0.67 -0.34 0.34 0 0 Z " fill="#B2B1B1" transform="translate(262,216)"/>
<path d="M0 0 C2.0625 0.4375 2.0625 0.4375 4 1 C3.67 2.65 3.34 4.3 3 6 C1.68 6 0.36 6 -1 6 C-1.042721 4.33388095 -1.04063832 2.66617115 -1 1 C-0.67 0.67 -0.34 0.34 0 0 Z " fill="#8E979E" transform="translate(96,185)"/>
<path d="M0 0 C1.66611905 -0.042721 3.33382885 -0.04063832 5 0 C6 1 6 1 6.0625 3.5625 C6.041875 4.366875 6.02125 5.17125 6 6 C5.34 6 4.68 6 4 6 C4 4.68 4 3.36 4 2 C3.34 2 2.68 2 2 2 C2 3.32 2 4.64 2 6 C1.34 6 0.68 6 0 6 C0 4.02 0 2.04 0 0 Z " fill="#8D8B93" transform="translate(63,185)"/>
<path d="M0 0 C2.475 0.495 2.475 0.495 5 1 C4.67 2.65 4.34 4.3 4 6 C2.68 5.67 1.36 5.34 0 5 C0 3.35 0 1.7 0 0 Z " fill="#969DA0" transform="translate(397,141)"/>
<path d="M0 0 C1.32 0 2.64 0 4 0 C4 1.65 4 3.3 4 5 C2.68 5.33 1.36 5.66 0 6 C-0.38218767 4.34385343 -0.71395102 2.67542976 -1 1 C-0.67 0.67 -0.34 0.34 0 0 Z " fill="#9998A3" transform="translate(518,141)"/>
<path d="M0 0 C1.98 0.495 1.98 0.495 4 1 C3.01 1.33 2.02 1.66 1 2 C1 2.66 1 3.32 1 4 C1.99 4.33 2.98 4.66 4 5 C3.67 6.32 3.34 7.64 3 9 C1.68 9 0.36 9 -1 9 C-1 8.34 -1 7.68 -1 7 C-0.01 6.67 0.98 6.34 2 6 C1.01 5.34 0.02 4.68 -1 4 C-0.67 2.68 -0.34 1.36 0 0 Z " fill="#858792" transform="translate(421,138)"/>
<path d="M0 0 C0.99 0 1.98 0 3 0 C3 0.66 3 1.32 3 2 C2.01 2.495 2.01 2.495 1 3 C1.99 3.66 2.98 4.32 4 5 C3.67 6.32 3.34 7.64 3 9 C1.68 9 0.36 9 -1 9 C-1 8.34 -1 7.68 -1 7 C-0.01 7 0.98 7 2 7 C2 6.34 2 5.68 2 5 C1.01 5 0.02 5 -1 5 C-0.67 3.35 -0.34 1.7 0 0 Z " fill="#818994" transform="translate(324,138)"/>
<path d="M0 0 C0.33 0.99 0.66 1.98 1 3 C-3.39453125 7.00390625 -3.39453125 7.00390625 -5 8 C-5.99 7.67 -6.98 7.34 -8 7 C-5.42215154 4.35247996 -3.08351902 2.05567935 0 0 Z " fill="#E62424" transform="translate(81,99)"/>
<path d="M0 0 C0.66 0 1.32 0 2 0 C2 1.32 2 2.64 2 4 C2.66 4 3.32 4 4 4 C4 2.68 4 1.36 4 0 C4.66 0 5.32 0 6 0 C6 1.98 6 3.96 6 6 C4.33388095 6.042721 2.66617115 6.04063832 1 6 C0 5 0 5 -0.0625 2.4375 C-0.041875 1.633125 -0.02125 0.82875 0 0 Z " fill="#98A2A5" transform="translate(337,75)"/>
<path d="M0 0 C2.0625 0.4375 2.0625 0.4375 4 1 C4 1.66 4 2.32 4 3 C3.34 3 2.68 3 2 3 C2 4.32 2 5.64 2 7 C2.66 7 3.32 7 4 7 C4 7.66 4 8.32 4 9 C2.68 8.67 1.36 8.34 0 8 C-0.38063221 5.6739143 -0.71269945 3.33944736 -1 1 C-0.67 0.67 -0.34 0.34 0 0 Z " fill="#434654" transform="translate(115,22)"/>
<path d="M0 0 C1.98 0.495 1.98 0.495 4 1 C3.67 2.65 3.34 4.3 3 6 C1.68 5.67 0.36 5.34 -1 5 C-0.67 3.35 -0.34 1.7 0 0 Z " fill="#B5B6BA" transform="translate(98,284)"/>
<path d="M0 0 C2.66666667 0 5.33333333 0 8 0 C7.34 1.65 6.68 3.3 6 5 C4.35 5 2.7 5 1 5 C0.67 3.35 0.34 1.7 0 0 Z " fill="#8E878D" transform="translate(133,267)"/>
<path d="M0 0 C1.98 0.495 1.98 0.495 4 1 C3.67 2.65 3.34 4.3 3 6 C1.68 5.67 0.36 5.34 -1 5 C-0.67 3.35 -0.34 1.7 0 0 Z " fill="#B0AEAF" transform="translate(76,233)"/>
<path d="M0 0 C1.32 0 2.64 0 4 0 C4 1.98 4 3.96 4 6 C2.68 5.67 1.36 5.34 0 5 C-0.5625 3.0625 -0.5625 3.0625 -1 1 C-0.67 0.67 -0.34 0.34 0 0 Z " fill="#AEAFAE" transform="translate(464,216)"/>
<path d="M0 0 C1.32 0 2.64 0 4 0 C4 1.98 4 3.96 4 6 C2.68 5.67 1.36 5.34 0 5 C-0.5625 3.0625 -0.5625 3.0625 -1 1 C-0.67 0.67 -0.34 0.34 0 0 Z " fill="#AFAFAF" transform="translate(337,216)"/>
<path d="M0 0 C1.98 0 3.96 0 6 0 C7 4.75 7 4.75 7 7 C6.01 6.67 5.02 6.34 4 6 C4 4.68 4 3.36 4 2 C2.35 2.33 0.7 2.66 -1 3 C-0.67 2.01 -0.34 1.02 0 0 Z " fill="#8F8A98" transform="translate(509,140)"/>
<path d="M0 0 C1.98 0.495 1.98 0.495 4 1 C3.67 2.65 3.34 4.3 3 6 C1.68 5.67 0.36 5.34 -1 5 C-0.67 3.35 -0.34 1.7 0 0 Z " fill="#9B969E" transform="translate(378,75)"/>
<path d="M0 0 C1.32 0 2.64 0 4 0 C4.625 3.375 4.625 3.375 5 7 C4.34 7.66 3.68 8.32 3 9 C2.01 9 1.02 9 0 9 C0 8.34 0 7.68 0 7 C0.99 7 1.98 7 3 7 C3 6.34 3 5.68 3 5 C2.34 5 1.68 5 1 5 C0.67 3.35 0.34 1.7 0 0 Z " fill="#8D888F" transform="translate(169,73)"/>
<path d="M0 0 C1.32 0 2.64 0 4 0 C4.625 3.375 4.625 3.375 5 7 C4.34 7.66 3.68 8.32 3 9 C2.01 9 1.02 9 0 9 C0 8.34 0 7.68 0 7 C0.99 7 1.98 7 3 7 C3 6.34 3 5.68 3 5 C2.34 5 1.68 5 1 5 C0.67 3.35 0.34 1.7 0 0 Z " fill="#8B8A91" transform="translate(48,73)"/>
<path d="M0 0 C1.98 0.495 1.98 0.495 4 1 C3.67 2.65 3.34 4.3 3 6 C1.68 5.67 0.36 5.34 -1 5 C-0.67 3.35 -0.34 1.7 0 0 Z " fill="#979B9F" transform="translate(329,75)"/>
<path d="M0 0 C2.97 0.33 5.94 0.66 9 1 C9 1.99 9 2.98 9 4 C5.7 3.67 2.4 3.34 -1 3 C-0.67 2.01 -0.34 1.02 0 0 Z " fill="#E83030" transform="translate(76,50)"/>
<path d="M0 0 C1.65 0 3.3 0 5 0 C5 2 5 4 5 6 C3.68 6 2.36 6 1 6 C0.67 4.02 0.34 2.04 0 0 Z " fill="#C1C3C4" transform="translate(59,284)"/>
<path d="M0 0 C0.66 0.66 1.32 1.32 2 2 C1.34 3.32 0.68 4.64 0 6 C0 4.68 0 3.36 0 2 C-0.99 2.495 -0.99 2.495 -2 3 C-2 4.32 -2 5.64 -2 7 C-2.99 6.67 -3.98 6.34 -5 6 C-4.34 6 -3.68 6 -3 6 C-3 5.34 -3 4.68 -3 4 C-3.99 3.67 -4.98 3.34 -6 3 C-6 2.34 -6 1.68 -6 1 C-3.125 0.375 -3.125 0.375 0 0 Z " fill="#9899A1" transform="translate(519,215)"/>
<path d="M0 0 C1.32 0 2.64 0 4 0 C4 1.98 4 3.96 4 6 C2.35 5.67 0.7 5.34 -1 5 C-0.67 3.35 -0.34 1.7 0 0 Z " fill="#8D919B" transform="translate(340,141)"/>
<path d="M0 0 C1.65 0 3.3 0 5 0 C5 0.66 5 1.32 5 2 C6.32 2.33 7.64 2.66 9 3 C7.68 3 6.36 3 5 3 C5 4.32 5 5.64 5 7 C4.01 7 3.02 7 2 7 C2 5.02 2 3.04 2 1 C1.34 0.67 0.68 0.34 0 0 Z " fill="#D1D8DE" transform="translate(58,138)"/>
<path d="M0 0 C1.65 0 3.3 0 5 0 C5 1.65 5 3.3 5 5 C3.35 5 1.7 5 0 5 C0 3.35 0 1.7 0 0 Z " fill="#C1C1C1" transform="translate(403,75)"/>
<path d="M0 0 C2.475 0.495 2.475 0.495 5 1 C4.01 1.495 4.01 1.495 3 2 C3 3.98 3 5.96 3 8 C2.01 8 1.02 8 0 8 C0 5.36 0 2.72 0 0 Z " fill="#6B6C76" transform="translate(91,23)"/>
<path d="M0 0 C1.98 0.495 1.98 0.495 4 1 C4 2.65 4 4.3 4 6 C2.35 5.67 0.7 5.34 -1 5 C-0.67 3.35 -0.34 1.7 0 0 Z " fill="#ABADB0" transform="translate(129,301)"/>
<path d="M0 0 C1.98 0.495 1.98 0.495 4 1 C4 2.65 4 4.3 4 6 C2.35 5.67 0.7 5.34 -1 5 C-0.67 3.35 -0.34 1.7 0 0 Z " fill="#A5ACB4" transform="translate(87,301)"/>
<path d="M0 0 C1.98 0.495 1.98 0.495 4 1 C4 2.65 4 4.3 4 6 C2.35 5.67 0.7 5.34 -1 5 C-0.67 3.35 -0.34 1.7 0 0 Z " fill="#ACACB0" transform="translate(62,301)"/>
<path d="M0 0 C1.32 0 2.64 0 4 0 C4 1.98 4 3.96 4 6 C2.35 5.67 0.7 5.34 -1 5 C-0.67 3.35 -0.34 1.7 0 0 Z " fill="#A8ACB5" transform="translate(49,284)"/>
<path d="M0 0 C0.66 0 1.32 0 2 0 C3.23921302 2.97411124 4.30058404 5.85262818 5 9 C3.35 8.67 1.7 8.34 0 8 C0 5.36 0 2.72 0 0 Z " fill="#A2A8B2" transform="translate(361,281)"/>
<path d="M0 0 C1.32 0 2.64 0 4 0 C4 1.98 4 3.96 4 6 C2.68 6 1.36 6 0 6 C-0.38218767 4.34385343 -0.71395102 2.67542976 -1 1 C-0.67 0.67 -0.34 0.34 0 0 Z " fill="#939398" transform="translate(128,267)"/>
<path d="M0 0 C1.32 0 2.64 0 4 0 C4 1.98 4 3.96 4 6 C2.35 5.67 0.7 5.34 -1 5 C-0.67 3.35 -0.34 1.7 0 0 Z " fill="#A3A4A9" transform="translate(172,233)"/>
<path d="M0 0 C1.32 0 2.64 0 4 0 C4 1.98 4 3.96 4 6 C2.35 5.67 0.7 5.34 -1 5 C-0.67 3.35 -0.34 1.7 0 0 Z " fill="#A2A4A9" transform="translate(390,216)"/>
<path d="M0 0 C1.98 0.495 1.98 0.495 4 1 C4 2.65 4 4.3 4 6 C2.35 5.67 0.7 5.34 -1 5 C-0.67 3.35 -0.34 1.7 0 0 Z " fill="#868D94" transform="translate(123,185)"/>
<path d="M0 0 C1.98 0.495 1.98 0.495 4 1 C4 2.65 4 4.3 4 6 C2.35 5.67 0.7 5.34 -1 5 C-0.67 3.35 -0.34 1.7 0 0 Z " fill="#8E8E90" transform="translate(71,185)"/>
<path d="M0 0 C0.66 1.32 1.32 2.64 2 4 C2.66 4 3.32 4 4 4 C4 4.66 4 5.32 4 6 C0.7 5.67 -2.6 5.34 -6 5 C-4.68 4.01 -3.36 3.02 -2 2 C-1.34 1.34 -0.68 0.68 0 0 Z " fill="#ECDBDC" transform="translate(269,144)"/>
<path d="M0 0 C1.32 0 2.64 0 4 0 C4 1.98 4 3.96 4 6 C2.68 6 1.36 6 0 6 C-0.38218767 4.34385343 -0.71395102 2.67542976 -1 1 C-0.67 0.67 -0.34 0.34 0 0 Z " fill="#8A9197" transform="translate(488,141)"/>
<path d="M0 0 C0.33 0 0.66 0 1 0 C1 2.64 1 5.28 1 8 C0.01 8 -0.98 8 -2 8 C-2.33 6.35 -2.66 4.7 -3 3 C-3.66 3 -4.32 3 -5 3 C-5 2.34 -5 1.68 -5 1 C-3.68 1.33 -2.36 1.66 -1 2 C-0.67 1.34 -0.34 0.68 0 0 Z " fill="#E2ECED" transform="translate(47,333)"/>
<path d="M0 0 C2.475 0.495 2.475 0.495 5 1 C5 2.65 5 4.3 5 6 C3.35 6 1.7 6 0 6 C0 5.01 0 4.02 0 3 C0.99 3 1.98 3 3 3 C3 2.34 3 1.68 3 1 C2.01 0.67 1.02 0.34 0 0 Z " fill="#A8B0B9" transform="translate(104,301)"/>
<path d="M0 0 C1.98 0.495 1.98 0.495 4 1 C4 2.65 4 4.3 4 6 C2.35 5.67 0.7 5.34 -1 5 C-0.67 3.35 -0.34 1.7 0 0 Z " fill="#A6AFB9" transform="translate(283,284)"/>
<path d="M0 0 C1.32 0 2.64 0 4 0 C4 1.98 4 3.96 4 6 C2.35 5.67 0.7 5.34 -1 5 C-0.67 3.35 -0.34 1.7 0 0 Z " fill="#AAAAB0" transform="translate(113,284)"/>
<path d="M0 0 C2.475 0.495 2.475 0.495 5 1 C4.67 2.65 4.34 4.3 4 6 C2.68 5.67 1.36 5.34 0 5 C0 3.35 0 1.7 0 0 Z " fill="#A9AEB7" transform="translate(335,284)"/>
<path d="M0 0 C0.66 0 1.32 0 2 0 C2 0.99 2 1.98 2 3 C2.99 3 3.98 3 5 3 C5 4.65 5 6.3 5 8 C4.67 6.68 4.34 5.36 4 4 C3.34 4 2.68 4 2 4 C2 5.32 2 6.64 2 8 C1.34 8 0.68 8 0 8 C0 5.36 0 2.72 0 0 Z " fill="#847586" transform="translate(96,264)"/>
<path d="M0 0 C1.98 0.495 1.98 0.495 4 1 C3.67 2.65 3.34 4.3 3 6 C1.68 5.67 0.36 5.34 -1 5 C-0.67 3.35 -0.34 1.7 0 0 Z " fill="#A3A7AC" transform="translate(220,216)"/>
<path d="M0 0 C1.32 0 2.64 0 4 0 C4.33 0.66 4.66 1.32 5 2 C4.67 2.99 4.34 3.98 4 5 C3.01 4.67 2.02 4.34 1 4 C0.34 4.66 -0.32 5.32 -1 6 C-1.33 4.68 -1.66 3.36 -2 2 C-1.34 2 -0.68 2 0 2 C0 1.34 0 0.68 0 0 Z " fill="#A09D9E" transform="translate(410,216)"/>
<path d="M0 0 C1.32 0 2.64 0 4 0 C4 1.98 4 3.96 4 6 C2.35 5.67 0.7 5.34 -1 5 C-0.67 3.35 -0.34 1.7 0 0 Z " fill="#A0A1A6" transform="translate(364,216)"/>
<path d="M0 0 C0.66 0 1.32 0 2 0 C2 0.99 2 1.98 2 3 C2.99 3 3.98 3 5 3 C5 4.65 5 6.3 5 8 C4.67 6.68 4.34 5.36 4 4 C3.34 4 2.68 4 2 4 C2 5.32 2 6.64 2 8 C1.34 8 0.68 8 0 8 C0 5.36 0 2.72 0 0 Z " fill="#9B9C9D" transform="translate(457,213)"/>
<path d="M0 0 C0.66 0 1.32 0 2 0 C2 0.99 2 1.98 2 3 C2.99 3 3.98 3 5 3 C5 4.65 5 6.3 5 8 C4.67 6.68 4.34 5.36 4 4 C3.34 4 2.68 4 2 4 C2 5.32 2 6.64 2 8 C1.34 8 0.68 8 0 8 C0 5.36 0 2.72 0 0 Z " fill="#9C9C9C" transform="translate(330,213)"/>
<path d="M0 0 C0.66 0 1.32 0 2 0 C2 0.99 2 1.98 2 3 C2.99 3 3.98 3 5 3 C5 4.65 5 6.3 5 8 C4.67 6.68 4.34 5.36 4 4 C3.34 4 2.68 4 2 4 C2 5.32 2 6.64 2 8 C1.34 8 0.68 8 0 8 C0 5.36 0 2.72 0 0 Z " fill="#A79E98" transform="translate(304,213)"/>
<path d="M0 0 C1.32 0 2.64 0 4 0 C4 1.98 4 3.96 4 6 C2.35 5.67 0.7 5.34 -1 5 C-0.67 3.35 -0.34 1.7 0 0 Z " fill="#848F91" transform="translate(362,141)"/>
<path d="M0 0 C2.97 0.495 2.97 0.495 6 1 C6 2.65 6 4.3 6 6 C5.34 6 4.68 6 4 6 C4 4.68 4 3.36 4 2 C3.34 2 2.68 2 2 2 C2.33 3.65 2.66 5.3 3 7 C2.34 7 1.68 7 1 7 C0.67 4.69 0.34 2.38 0 0 Z " fill="#7C7796" transform="translate(493,140)"/>
<path d="M0 0 C2.31 0 4.62 0 7 0 C6.67 1.65 6.34 3.3 6 5 C4.68 4.67 3.36 4.34 2 4 C2 3.01 2 2.02 2 1 C1.34 0.67 0.68 0.34 0 0 Z " fill="#E84444" transform="translate(62,51)"/>
<path d="M0 0 C3.3 0 6.6 0 10 0 C10.33 0.66 10.66 1.32 11 2 C7.90521121 3.03159626 6.47368607 2.97482862 3.3125 2.5625 C2.10013672 2.40974609 2.10013672 2.40974609 0.86328125 2.25390625 C0.24839844 2.17011719 -0.36648437 2.08632813 -1 2 C-0.67 1.34 -0.34 0.68 0 0 Z " fill="#F3F0F0" transform="translate(8,51)"/>
<path d="M0 0 C1.98 0 3.96 0 6 0 C5.34 1.65 4.68 3.3 4 5 C2.68 4.34 1.36 3.68 0 3 C0 2.01 0 1.02 0 0 Z " fill="#1E2026" transform="translate(23,23)"/>
<path d="M0 0 C1.98 0.495 1.98 0.495 4 1 C3.67 2.65 3.34 4.3 3 6 C1.68 5.67 0.36 5.34 -1 5 C-0.67 3.35 -0.34 1.7 0 0 Z " fill="#A4ABB4" transform="translate(169,301)"/>
<path d="M0 0 C1.98 0.495 1.98 0.495 4 1 C4 2.65 4 4.3 4 6 C2.35 6 0.7 6 -1 6 C-1 5.01 -1 4.02 -1 3 C-0.01 3 0.98 3 2 3 C2 2.34 2 1.68 2 1 C1.34 0.67 0.68 0.34 0 0 Z " fill="#A7ABB4" transform="translate(117,301)"/>
<path d="M0 0 C1.98 0.495 1.98 0.495 4 1 C4 2.65 4 4.3 4 6 C2.35 6 0.7 6 -1 6 C-1 5.01 -1 4.02 -1 3 C-0.01 3 0.98 3 2 3 C2 2.34 2 1.68 2 1 C1.34 0.67 0.68 0.34 0 0 Z " fill="#A5AAB3" transform="translate(41,301)"/>
<path d="M0 0 C1.98 0.495 1.98 0.495 4 1 C4 2.65 4 4.3 4 6 C2.35 6 0.7 6 -1 6 C-1 5.01 -1 4.02 -1 3 C-0.01 3 0.98 3 2 3 C2 2.34 2 1.68 2 1 C1.34 0.67 0.68 0.34 0 0 Z " fill="#A7AAB2" transform="translate(31,301)"/>
<path d="M0 0 C1.32 0 2.64 0 4 0 C4 0.99 4 1.98 4 3 C3.01 3 2.02 3 1 3 C1 3.66 1 4.32 1 5 C1.99 5.33 2.98 5.66 4 6 C2.35 5.67 0.7 5.34 -1 5 C-0.67 3.35 -0.34 1.7 0 0 Z " fill="#A8ABB0" transform="translate(256,284)"/>
<path d="M0 0 C2.475 0.495 2.475 0.495 5 1 C5 1.66 5 2.32 5 3 C4.01 3.495 4.01 3.495 3 4 C3.33 4.66 3.66 5.32 4 6 C2.68 5.67 1.36 5.34 0 5 C0 3.35 0 1.7 0 0 Z " fill="#A6AEB6" transform="translate(192,284)"/>
<path d="M0 0 C2.475 0.495 2.475 0.495 5 1 C5 1.66 5 2.32 5 3 C4.01 3.495 4.01 3.495 3 4 C3.33 4.66 3.66 5.32 4 6 C2.68 5.67 1.36 5.34 0 5 C0 3.35 0 1.7 0 0 Z " fill="#A6AEB8" transform="translate(153,284)"/>
<path d="M0 0 C1.98 0.495 1.98 0.495 4 1 C3.67 2.65 3.34 4.3 3 6 C1.68 5.67 0.36 5.34 -1 5 C-0.67 3.35 -0.34 1.7 0 0 Z " fill="#9EA5AB" transform="translate(188,233)"/>
<path d="M0 0 C1.98 0.495 1.98 0.495 4 1 C3.67 2.65 3.34 4.3 3 6 C1.68 5.67 0.36 5.34 -1 5 C-0.67 3.35 -0.34 1.7 0 0 Z " fill="#9DA6AD" transform="translate(164,233)"/>
<path d="M0 0 C1.98 0.495 1.98 0.495 4 1 C3.67 2.65 3.34 4.3 3 6 C1.68 5.67 0.36 5.34 -1 5 C-0.67 3.35 -0.34 1.7 0 0 Z " fill="#9DA3A9" transform="translate(106,233)"/>
<path d="M0 0 C3.63 0 7.26 0 11 0 C11 0.99 11 1.98 11 3 C7.37 2.34 3.74 1.68 0 1 C0 0.67 0 0.34 0 0 Z " fill="#E61919" transform="translate(276,152)"/>
<path d="M0 0 C0 0.66 0 1.32 0 2 C1.65 2 3.3 2 5 2 C5 2.33 5 2.66 5 3 C1.7 3.33 -1.6 3.66 -5 4 C-5.33 3.01 -5.66 2.02 -6 1 C-4 0 -4 0 0 0 Z " fill="#E83737" transform="translate(33,47)"/>
<path d="M0 0 C0.99 0.33 1.98 0.66 3 1 C3.66 0.67 4.32 0.34 5 0 C4.34 2.31 3.68 4.62 3 7 C2.01 7 1.02 7 0 7 C0 4.69 0 2.38 0 0 Z " fill="#A7A7AF" transform="translate(424,284)"/>
<path d="M0 0 C0.66 0 1.32 0 2 0 C2 0.66 2 1.32 2 2 C2.99 2 3.98 2 5 2 C5 3.65 5 5.3 5 7 C4.67 5.68 4.34 4.36 4 3 C3.34 3 2.68 3 2 3 C2 4.32 2 5.64 2 7 C1.34 7 0.68 7 0 7 C0 4.69 0 2.38 0 0 Z " fill="#9F9EA3" transform="translate(225,282)"/>
<path d="M0 0 C0.66 0 1.32 0 2 0 C2 0.66 2 1.32 2 2 C2.99 2 3.98 2 5 2 C5 3.65 5 5.3 5 7 C4.67 5.68 4.34 4.36 4 3 C3.34 3 2.68 3 2 3 C2 4.32 2 5.64 2 7 C1.34 7 0.68 7 0 7 C0 4.69 0 2.38 0 0 Z " fill="#A09EA3" transform="translate(72,282)"/>
<path d="M0 0 C0.66 0 1.32 0 2 0 C2 0.66 2 1.32 2 2 C2.99 2 3.98 2 5 2 C5 3.65 5 5.3 5 7 C4.67 5.68 4.34 4.36 4 3 C3.34 3 2.68 3 2 3 C2 4.32 2 5.64 2 7 C1.34 7 0.68 7 0 7 C0 4.69 0 2.38 0 0 Z " fill="#9D9FA6" transform="translate(397,282)"/>
<path d="M0 0 C1.98 0.495 1.98 0.495 4 1 C4 1.66 4 2.32 4 3 C3.01 3 2.02 3 1 3 C1 3.66 1 4.32 1 5 C1.99 5.33 2.98 5.66 4 6 C2.35 5.67 0.7 5.34 -1 5 C-0.67 3.35 -0.34 1.7 0 0 Z " fill="#A8AAAE" transform="translate(216,284)"/>
<path d="M0 0 C0.99 0 1.98 0 3 0 C3 0.66 3 1.32 3 2 C3.99 2.33 4.98 2.66 6 3 C5.67 3.66 5.34 4.32 5 5 C3.35 4.67 1.7 4.34 0 4 C0 2.68 0 1.36 0 0 Z " fill="#B8BBBF" transform="translate(73,217)"/>
<path d="M0 0 C0.33 1.32 0.66 2.64 1 4 C1.66 4 2.32 4 3 4 C3 2.68 3 1.36 3 0 C3.66 0 4.32 0 5 0 C5 1.65 5 3.3 5 5 C3.35 5.33 1.7 5.66 0 6 C0 4.02 0 2.04 0 0 Z " fill="#A0A6AF" transform="translate(271,216)"/>
<path d="M0 0 C0.66 0 1.32 0 2 0 C2 1.32 2 2.64 2 4 C2.66 4 3.32 4 4 4 C4.33 2.68 4.66 1.36 5 0 C5 1.98 5 3.96 5 6 C3.35 5.67 1.7 5.34 0 5 C0 3.35 0 1.7 0 0 Z " fill="#897C91" transform="translate(234,141)"/>
<path d="M0 0 C1.98 0.495 1.98 0.495 4 1 C4 1.99 4 2.98 4 4 C3.01 4 2.02 4 1 4 C1 4.66 1 5.32 1 6 C0.34 6 -0.32 6 -1 6 C-0.67 4.02 -0.34 2.04 0 0 Z " fill="#8F9097" transform="translate(133,140)"/>
<path d="M0 0 C0.99 0.33 1.98 0.66 3 1 C3.33 2.65 3.66 4.3 4 6 C2.68 6.33 1.36 6.66 0 7 C-0.38133299 5.0085944 -0.71325582 3.00720923 -1 1 C-0.67 0.67 -0.34 0.34 0 0 Z " fill="#A3A1B1" transform="translate(425,74)"/>
<path d="M0 0 C1.98 0.495 1.98 0.495 4 1 C4 1.66 4 2.32 4 3 C3.01 3 2.02 3 1 3 C1 3.66 1 4.32 1 5 C1.99 5.33 2.98 5.66 4 6 C2.35 5.67 0.7 5.34 -1 5 C-0.67 3.35 -0.34 1.7 0 0 Z " fill="#8C8A90" transform="translate(391,75)"/>
<path d="M0 0 C0.99 0.33 1.98 0.66 3 1 C3 2.65 3 4.3 3 6 C1.68 5.67 0.36 5.34 -1 5 C-0.67 3.35 -0.34 1.7 0 0 Z " fill="#BCC3CC" transform="translate(79,301)"/>
<path d="M0 0 C1.32 0 2.64 0 4 0 C4 1.98 4 3.96 4 6 C2.68 6 1.36 6 0 6 C0.185625 5.38125 0.37125 4.7625 0.5625 4.125 C1.23686176 1.95839822 1.23686176 1.95839822 0 0 Z " fill="#AAA9AC" transform="translate(412,284)"/>
<path d="M0 0 C1.32 0 2.64 0 4 0 C4 1.98 4 3.96 4 6 C2.68 6 1.36 6 0 6 C0.185625 5.38125 0.37125 4.7625 0.5625 4.125 C1.23686176 1.95839822 1.23686176 1.95839822 0 0 Z " fill="#A6A8AD" transform="translate(350,284)"/>
<path d="M0 0 C1.98 0.495 1.98 0.495 4 1 C4 1.66 4 2.32 4 3 C3.01 3 2.02 3 1 3 C1 3.66 1 4.32 1 5 C1.66 5.33 2.32 5.66 3 6 C1.68 5.67 0.36 5.34 -1 5 C-0.67 3.35 -0.34 1.7 0 0 Z " fill="#A5A8AD" transform="translate(300,284)"/>
<path d="M0 0 C0.66 0 1.32 0 2 0 C2 1.32 2 2.64 2 4 C2.66 4 3.32 4 4 4 C4.33 2.68 4.66 1.36 5 0 C5 1.65 5 3.3 5 5 C3.0625 5.5625 3.0625 5.5625 1 6 C0 5 0 5 -0.0625 2.4375 C-0.041875 1.633125 -0.02125 0.82875 0 0 Z " fill="#9B8B90" transform="translate(167,267)"/>
<path d="M0 0 C1.98 0.495 1.98 0.495 4 1 C4 1.66 4 2.32 4 3 C3.01 3 2.02 3 1 3 C1 3.66 1 4.32 1 5 C1.66 5.33 2.32 5.66 3 6 C1.68 5.67 0.36 5.34 -1 5 C-0.67 3.35 -0.34 1.7 0 0 Z " fill="#9E9FA4" transform="translate(248,216)"/>
<path d="M0 0 C1.32 0.33 2.64 0.66 4 1 C3.34 1 2.68 1 2 1 C2 2.65 2 4.3 2 6 C0.68 5.67 -0.64 5.34 -2 5 C-1.34 3.35 -0.68 1.7 0 0 Z " fill="#9CA4B4" transform="translate(452,141)"/>
<path d="M0 0 C1.32 0.33 2.64 0.66 4 1 C3.67 2.98 3.34 4.96 3 7 C2.01 7 1.02 7 0 7 C0 4.69 0 2.38 0 0 Z " fill="#ADBCC8" transform="translate(317,138)"/>
<path d="M0 0 C1.32 0 2.64 0 4 0 C3.814375 0.61875 3.62875 1.2375 3.4375 1.875 C2.76313824 4.04160178 2.76313824 4.04160178 4 6 C2.68 5.67 1.36 5.34 0 5 C0 3.35 0 1.7 0 0 Z " fill="#8D8F97" transform="translate(354,75)"/>
<path d="M0 0 C0 1.65 0 3.3 0 5 C-0.99 5.495 -0.99 5.495 -2 6 C-2.99 5.34 -3.98 4.68 -5 4 C-5 3.01 -5 2.02 -5 1 C-1.125 0 -1.125 0 0 0 Z " fill="#CED0C4" transform="translate(86,335)"/>
<path d="M0 0 C1.2077558 3.62326739 0.54311128 4.64146369 -1 8 C-1.66 7.67 -2.32 7.34 -3 7 C-3.625 3.9375 -3.625 3.9375 -4 1 C-2.68 0.67 -1.36 0.34 0 0 Z " fill="#A6A8B1" transform="translate(76,301)"/>
<path d="M0 0 C0.66 0 1.32 0 2 0 C3.125 5.75 3.125 5.75 2 8 C1.34 8 0.68 8 0 8 C0 5.36 0 2.72 0 0 Z " fill="#C1C2C7" transform="translate(128,282)"/>
<path d="M0 0 C1.32 0.33 2.64 0.66 4 1 C3.67 2.65 3.34 4.3 3 6 C2.01 6 1.02 6 0 6 C0 4.02 0 2.04 0 0 Z " fill="#B0B1B5" transform="translate(118,284)"/>
<path d="M0 0 C1.32 0.33 2.64 0.66 4 1 C3.67 2.65 3.34 4.3 3 6 C2.01 6 1.02 6 0 6 C0 4.02 0 2.04 0 0 Z " fill="#B0AAAF" transform="translate(202,267)"/>
<path d="M0 0 C0.66 0 1.32 0 2 0 C2 2.64 2 5.28 2 8 C1.34 8 0.68 8 0 8 C-0.66 6.02 -1.32 4.04 -2 2 C-1.34 2 -0.68 2 0 2 C0 1.34 0 0.68 0 0 Z " fill="#BABEC2" transform="translate(144,231)"/>
<path d="M0 0 C0.99 0.33 1.98 0.66 3 1 C3.66 0.67 4.32 0.34 5 0 C4.34 2.31 3.68 4.62 3 7 C2.01 7 1.02 7 0 7 C0.33 6.34 0.66 5.68 1 5 C0.72057545 3.32345271 0.39171753 1.65391846 0 0 Z " fill="#9D9B9F" transform="translate(444,216)"/>
<path d="M0 0 C0.33 0 0.66 0 1 0 C1 2.64 1 5.28 1 8 C0.01 7.67 -0.98 7.34 -2 7 C-2 6.01 -2 5.02 -2 4 C-2.66 3.34 -3.32 2.68 -4 2 C-2.68 2 -1.36 2 0 2 C0 1.34 0 0.68 0 0 Z " fill="#D8D7CF" transform="translate(432,139)"/>
<path d="M0 0 C0.99 0.33 1.98 0.66 3 1 C3 4 3 4 2 7 C1.01 7 0.02 7 -1 7 C-1 3 -1 3 0 0 Z " fill="#90919B" transform="translate(404,140)"/>
<path d="M0 0 C0.66 0 1.32 0 2 0 C2 2.64 2 5.28 2 8 C1.01 7.67 0.02 7.34 -1 7 C-0.67 4.69 -0.34 2.38 0 0 Z " fill="#8396A4" transform="translate(374,73)"/>
<path d="M0 0 C2 1 2 1 3 3 C0.64561267 4.42944945 -0.48032433 5.08661261 -3.25 4.625 C-3.8275 4.41875 -4.405 4.2125 -5 4 C-3.35 2.68 -1.7 1.36 0 0 Z " fill="#E93D3D" transform="translate(17,53)"/>
<path d="M0 0 C0.66 0 1.32 0 2 0 C1.67 2.64 1.34 5.28 1 8 C0.34 8 -0.32 8 -1 8 C-1.04241723 5.66705225 -1.04092937 3.33297433 -1 1 C-0.67 0.67 -0.34 0.34 0 0 Z " fill="#69A5D0" transform="translate(176,23)"/>
<path d="M0 0 C1.32 0.33 2.64 0.66 4 1 C4 2.66666667 4 4.33333333 4 6 C2.68 6 1.36 6 0 6 C0 4 0 2 0 0 Z " fill="#979294" transform="translate(60,335)"/>
<path d="M0 0 C0.99 0 1.98 0 3 0 C3 1.98 3 3.96 3 6 C2.01 6 1.02 6 0 6 C0 4.02 0 2.04 0 0 Z " fill="#C2C4BC" transform="translate(270,233)"/>
<path d="M0 0 C1.32 0.33 2.64 0.66 4 1 C3.67 2.65 3.34 4.3 3 6 C2.01 6 1.02 6 0 6 C0 4.02 0 2.04 0 0 Z " fill="#A5A6A6" transform="translate(147,216)"/>
<path d="M0 0 C0.99 0.33 1.98 0.66 3 1 C3 2.32 3 3.64 3 5 C1.68 5 0.36 5 -1 5 C-0.67 3.35 -0.34 1.7 0 0 Z " fill="#FAFCF8" transform="translate(429,215)"/>
<path d="M0 0 C1.32 0 2.64 0 4 0 C4 1.65 4 3.3 4 5 C2.35 5 0.7 5 -1 5 C-0.67 3.35 -0.34 1.7 0 0 Z " fill="#989CA4" transform="translate(133,216)"/>
<path d="M0 0 C1.65 0.33 3.3 0.66 5 1 C4.67 1.99 4.34 2.98 4 4 C2.35 3.67 0.7 3.34 -1 3 C-0.67 2.01 -0.34 1.02 0 0 Z " fill="#E94E4F" transform="translate(258,147)"/>
<path d="M0 0 C1.32 0 2.64 0 4 0 C4 1.65 4 3.3 4 5 C2.35 5 0.7 5 -1 5 C-0.67 3.35 -0.34 1.7 0 0 Z " fill="#807880" transform="translate(528,141)"/>
<path d="M0 0 C1.32 0 2.64 0 4 0 C4 0.99 4 1.98 4 3 C3.01 3 2.02 3 1 3 C1 3.66 1 4.32 1 5 C0.34 5 -0.32 5 -1 5 C-0.67 3.35 -0.34 1.7 0 0 Z " fill="#89868F" transform="translate(74,141)"/>
<path d="M0 0 C2 2 2 2 2.125 4.625 C2.08375 5.40875 2.0425 6.1925 2 7 C1.01 7.495 1.01 7.495 0 8 C0 7.34 0 6.68 0 6 C-0.66 6 -1.32 6 -2 6 C-2 4.68 -2 3.36 -2 2 C-1.34 2 -0.68 2 0 2 C0 1.34 0 0.68 0 0 Z " fill="#E3E6DE" transform="translate(119,23)"/>
<path d="M0 0 C1.32 0.33 2.64 0.66 4 1 C3.67 2.65 3.34 4.3 3 6 C2.01 6 1.02 6 0 6 C0 4 0 2 0 0 Z " fill="#93918F" transform="translate(95,335)"/>
<path d="M0 0 C0.33 0.99 0.66 1.98 1 3 C1.99 2.67 2.98 2.34 4 2 C4 3.65 4 5.3 4 7 C2.68 7 1.36 7 0 7 C0 4.69 0 2.38 0 0 Z " fill="#6A6987" transform="translate(162,265)"/>
<path d="M0 0 C0.33 0 0.66 0 1 0 C1 1.65 1 3.3 1 5 C-0.65 5 -2.3 5 -4 5 C-4 3.68 -4 2.36 -4 1 C-3.34 1 -2.68 1 -2 1 C-2 1.66 -2 2.32 -2 3 C-1.34 3 -0.68 3 0 3 C0 2.01 0 1.02 0 0 Z " fill="#D0C2BF" transform="translate(94,141)"/>
<path d="M0 0 C0.66 0.33 1.32 0.66 2 1 C1.67 3.31 1.34 5.62 1 8 C0.34 8 -0.32 8 -1 8 C-1.04241723 5.66705225 -1.04092937 3.33297433 -1 1 C-0.67 0.67 -0.34 0.34 0 0 Z " fill="#79707D" transform="translate(304,138)"/>
<path d="M0 0 C0.99 0 1.98 0 3 0 C3 1.65 3 3.3 3 5 C1.02 5.99 1.02 5.99 -1 7 C-0.67 4.69 -0.34 2.38 0 0 Z " fill="#C9D0CE" transform="translate(216,142)"/>
</svg>
