<?xml version="1.0" encoding="UTF-8"?>
<svg version="1.1" xmlns="http://www.w3.org/2000/svg" width="474" height="245">
<path d="M0 0 C156.42 0 312.84 0 474 0 C474 80.85 474 161.7 474 245 C317.58 245 161.16 245 0 245 C0 164.15 0 83.3 0 0 Z " fill="#FEFEFE" transform="translate(0,0)"/>
<path d="M0 0 C156.42 0 312.84 0 474 0 C474 14.52 474 29.04 474 44 C428.13 44 382.26 44 335 44 C335.19791937 77.67244108 335.19791937 77.67244108 335.45043945 111.34448242 C335.47302246 117.85998535 335.47302246 117.85998535 335.47721863 120.91108704 C335.48489194 123.04008712 335.50246811 125.16906558 335.52787781 127.29792786 C335.56446429 130.52476696 335.56953075 133.75027956 335.56762695 136.97729492 C335.59461277 138.3977211 335.59461277 138.3977211 335.62214375 139.84684277 C335.61181252 141.1544379 335.61181252 141.1544379 335.60127258 142.4884491 C335.60588155 143.24339755 335.61049051 143.998346 335.61523914 144.77617168 C334.64257955 148.29192321 332.84544161 149.78966469 330 152 C326.70974636 152.6292057 326.70974636 152.6292057 322.89585876 152.63491821 C322.1920379 152.64271817 321.48821703 152.65051812 320.76306826 152.65855443 C318.41043818 152.67845972 316.05942846 152.66271761 313.70678711 152.64697266 C312.01797035 152.65374944 310.32916098 152.66265292 308.6403656 152.67352295 C304.05771027 152.69631412 299.47561784 152.68748128 294.89295268 152.67162752 C290.09818043 152.65896963 285.3034564 152.67070813 280.50868225 152.67855835 C272.45776717 152.68765436 264.40708144 152.67566736 256.35620117 152.65185547 C247.04529134 152.62463503 237.73492876 152.63346517 228.42403215 152.6609875 C220.4315306 152.68366794 212.43919392 152.68688415 204.44667059 152.67379415 C199.67228666 152.66599495 194.89816009 152.66497106 190.12379265 152.68147659 C185.63627144 152.69590698 181.14945686 152.68592625 176.6620121 152.65700531 C175.01405385 152.65038717 173.36603624 152.65230464 171.7181015 152.66331863 C169.47031423 152.67695816 167.22479947 152.65988258 164.97715759 152.63491821 C163.71895171 152.63303308 162.46074583 152.63114796 161.1644125 152.6292057 C158 152 158 152 155.59399128 149.74466228 C153.97632238 146.95922997 153.50367642 145.61490101 153.51898193 142.45048523 C153.51347195 141.57035861 153.50796196 140.69023199 153.502285 139.78343487 C153.52387365 138.34895614 153.52387365 138.34895614 153.54589844 136.88549805 C153.5454163 135.85402806 153.54493416 134.82255808 153.54443741 133.75983143 C153.54741885 130.42677406 153.57785997 127.09461568 153.609375 123.76171875 C153.61525742 121.70170523 153.61933734 119.64168574 153.62158203 117.58166504 C153.64253869 109.95018541 153.69838369 102.31883384 153.75 94.6875 C153.87375 69.1021875 153.87375 69.1021875 154 43 C103.18 43 52.36 43 0 43 C0 28.81 0 14.62 0 0 Z " fill="#1A2023" transform="translate(0,0)"/>
<path d="M0 0 C156.42 0 312.84 0 474 0 C474 14.52 474 29.04 474 44 C428.13 44 382.26 44 335 44 C335 77.99 335 111.98 335 147 C334.67 147 334.34 147 334 147 C333.99761165 146.39462497 333.99522329 145.78924994 333.99276257 145.1655302 C333.93365692 130.44343268 333.85813546 115.72148292 333.76428509 100.99956799 C333.71929681 93.88017951 333.67988927 86.76084139 333.65356445 79.64135742 C333.62815931 72.77481717 333.58727524 65.90850977 333.53681374 59.04210854 C333.52008707 56.4182036 333.50860908 53.79425994 333.50238609 51.17030907 C333.49280813 47.50416822 333.46482389 43.83860695 333.43237305 40.17260742 C333.43452568 38.53370544 333.43452568 38.53370544 333.4367218 36.86169434 C333.41791458 35.36620308 333.41791458 35.36620308 333.39872742 33.84049988 C333.39411845 32.97309268 333.38950949 32.10568548 333.38476086 31.21199322 C333.13647987 28.97562921 333.13647987 28.97562921 331.90489769 27.22085762 C329.00099594 25.35973374 326.54890017 25.62532319 323.12290955 25.6257782 C322.06762482 25.61981659 322.06762482 25.61981659 320.99102122 25.61373454 C318.62784329 25.60409109 316.26526098 25.61594151 313.90209961 25.62768555 C312.21034013 25.62525827 310.51858208 25.62153958 308.826828 25.61662292 C304.22776817 25.60720219 299.6289207 25.61664887 295.02987742 25.62995505 C290.22349554 25.64125254 285.41712437 25.63716341 280.61073303 25.63520813 C272.53952555 25.6343247 264.46840199 25.64541649 256.3972168 25.66381836 C247.05578713 25.68499389 237.71448037 25.68849464 228.37303156 25.6822564 C219.39808584 25.67656901 210.42318355 25.68220055 201.44824409 25.69342995 C197.62330894 25.6980835 193.79840028 25.69894653 189.97346306 25.6968441 C185.47305173 25.69496549 180.97276615 25.70303201 176.4723835 25.7189045 C174.81712998 25.72316004 173.16186372 25.72398942 171.50660706 25.72121429 C169.25430063 25.71801008 167.00237414 25.72702922 164.75010681 25.73930359 C162.85613616 25.74238289 162.85613616 25.74238289 160.92390347 25.74552441 C157.87625871 25.69498523 157.87625871 25.69498523 156 28 C155.68593956 30.19001026 155.68593956 30.19001026 155.7215271 32.75820923 C155.71036362 33.76224289 155.69920013 34.76627655 155.68769836 35.80073547 C155.68445808 37.45905647 155.68445808 37.45905647 155.68115234 39.15087891 C155.67110672 40.31184586 155.6610611 41.47281281 155.65071106 42.66896057 C155.61972285 46.52148932 155.60280046 50.37394811 155.5859375 54.2265625 C155.56723841 56.89172399 155.54776353 59.55686842 155.5272522 62.22201538 C155.48041797 68.52949845 155.44369644 74.83699852 155.41057932 81.14456689 C155.37239065 88.32470198 155.32297203 95.5047459 155.27259517 102.6848042 C155.16920632 117.45646569 155.0799686 132.22819272 155 147 C154.67 147 154.34 147 154 147 C154 112.68 154 78.36 154 43 C103.18 43 52.36 43 0 43 C0 28.81 0 14.62 0 0 Z " fill="#142832" transform="translate(0,0)"/>
<path d="M0 0 C156.42 0 312.84 0 474 0 C474 6.93 474 13.86 474 21 C428.13 21 382.26 21 335 21 C335 54.99 335 88.98 335 124 C334.67 124 334.34 124 334 124 C333.99641747 123.09193745 333.99641747 123.09193745 333.99276257 122.1655302 C333.93365692 107.44343268 333.85813546 92.72148292 333.76428509 77.99956799 C333.71929681 70.88017951 333.67988927 63.76084139 333.65356445 56.64135742 C333.62815931 49.77481717 333.58727524 42.90850977 333.53681374 36.04210854 C333.52008707 33.4182036 333.50860908 30.79425994 333.50238609 28.17030907 C333.49280813 24.50416822 333.46482389 20.83860695 333.43237305 17.17260742 C333.43452568 15.53370544 333.43452568 15.53370544 333.4367218 13.86169434 C333.41791458 12.36620308 333.41791458 12.36620308 333.39872742 10.84049988 C333.39411845 9.97309268 333.38950949 9.10568548 333.38476086 8.21199322 C333.13647987 5.97562921 333.13647987 5.97562921 331.90489769 4.22085762 C329.00099594 2.35973374 326.54890017 2.62532319 323.12290955 2.6257782 C322.06762482 2.61981659 322.06762482 2.61981659 320.99102122 2.61373454 C318.62784329 2.60409109 316.26526098 2.61594151 313.90209961 2.62768555 C312.21034013 2.62525827 310.51858208 2.62153958 308.826828 2.61662292 C304.22776817 2.60720219 299.6289207 2.61664887 295.02987742 2.62995505 C290.22349554 2.64125254 285.41712437 2.63716341 280.61073303 2.63520813 C272.53952555 2.6343247 264.46840199 2.64541649 256.3972168 2.66381836 C247.05578713 2.68499389 237.71448037 2.68849464 228.37303156 2.6822564 C219.39808584 2.67656901 210.42318355 2.68220055 201.44824409 2.69342995 C197.62330894 2.6980835 193.79840028 2.69894653 189.97346306 2.6968441 C185.47305173 2.69496549 180.97276615 2.70303201 176.4723835 2.7189045 C174.81712998 2.72316004 173.16186372 2.72398942 171.50660706 2.72121429 C169.25430063 2.71801008 167.00237414 2.72702922 164.75010681 2.73930359 C162.85613616 2.74238289 162.85613616 2.74238289 160.92390347 2.74552441 C157.87625871 2.69498523 157.87625871 2.69498523 156 5 C155.68593956 7.19001026 155.68593956 7.19001026 155.7215271 9.75820923 C155.71036362 10.76224289 155.69920013 11.76627655 155.68769836 12.80073547 C155.68445808 14.45905647 155.68445808 14.45905647 155.68115234 16.15087891 C155.67110672 17.31184586 155.6610611 18.47281281 155.65071106 19.66896057 C155.61972285 23.52148932 155.60280046 27.37394811 155.5859375 31.2265625 C155.56723841 33.89172399 155.54776353 36.55686842 155.5272522 39.22201538 C155.48041797 45.52949845 155.44369644 51.83699852 155.41057932 58.14456689 C155.37239065 65.32470198 155.32297203 72.5047459 155.27259517 79.6848042 C155.16920632 94.45646569 155.0799686 109.22819272 155 124 C154.67 124 154.34 124 154 124 C154 89.68 154 55.36 154 20 C103.18 20 52.36 20 0 20 C0 13.4 0 6.8 0 0 Z " fill="#2B3E47" transform="translate(0,23)"/>
<path d="M0 0 C47.85 0 95.7 0 145 0 C145 6.93 145 13.86 145 21 C99.13 21 53.26 21 6 21 C6 54.99 6 88.98 6 124 C5.67 124 5.34 124 5 124 C4.99853344 123.39554676 4.99706688 122.79109352 4.99555588 122.16832352 C4.95850876 107.46254405 4.89952201 92.75696591 4.81609726 78.05138016 C4.77628298 70.93984853 4.74390274 63.82842794 4.72900391 56.71679688 C4.71461117 49.85669009 4.67952752 42.9969398 4.63169098 36.13698578 C4.61682664 33.5167006 4.60895611 30.89636632 4.60811615 28.27603912 C4.60576003 24.6123616 4.57878774 20.94964542 4.54589844 17.28613281 C4.5509288 16.19712677 4.55595917 15.10812073 4.56114197 13.9861145 C4.62300629 8.265795 4.62300629 8.265795 1.96588135 3.4196167 C1.3171405 2.95114319 0.66839966 2.48266968 0 2 C0 1.34 0 0.68 0 0 Z " fill="#344750" transform="translate(329,23)"/>
<path d="M0 0 C156.42 0 312.84 0 474 0 C474 1.98 474 3.96 474 6 C317.58 6 161.16 6 0 6 C0 4.02 0 2.04 0 0 Z " fill="#293D47" transform="translate(0,0)"/>
<path d="M0 0 C0.94921326 -0.00563965 1.89842651 -0.0112793 2.87640381 -0.01708984 C4.44349846 -0.01101715 4.44349846 -0.01101715 6.04225159 -0.00482178 C7.68869156 -0.01007874 7.68869156 -0.01007874 9.36839294 -0.01544189 C13.01177722 -0.02427423 16.65496871 -0.01840429 20.2983551 -0.01165771 C22.82179807 -0.01300403 25.34524078 -0.01494428 27.86868286 -0.01745605 C33.16403404 -0.02040944 38.4593156 -0.01629285 43.75465393 -0.0067749 C49.87812282 0.00410439 56.00145848 0.00058862 62.12492412 -0.01042771 C68.01210734 -0.02059546 73.89924914 -0.01952131 79.7864399 -0.01366425 C82.29314759 -0.01232722 84.79985867 -0.01397731 87.30656242 -0.01862335 C90.80709286 -0.02368649 94.30736542 -0.01598083 97.80787659 -0.00482178 C99.37193489 -0.01089447 99.37193489 -0.01089447 100.96759033 -0.01708984 C101.91962341 -0.0114502 102.87165649 -0.00581055 103.85253906 0 C104.6804769 0.00075405 105.50841475 0.0015081 106.36144161 0.002285 C108.48976135 0.25396729 108.48976135 0.25396729 111.48976135 2.25396729 C111.8530426 5.22271729 111.8530426 5.22271729 111.80226135 8.75396729 C111.79839417 9.91927979 111.79452698 11.08459229 111.7905426 12.28521729 C111.48976135 15.25396729 111.48976135 15.25396729 109.48976135 17.25396729 C107.46887207 17.50564957 107.46887207 17.50564957 104.93482971 17.50793457 C103.49622086 17.51639404 103.49622086 17.51639404 102.02854919 17.52502441 C100.44507187 17.51895172 100.44507187 17.51895172 98.8296051 17.51275635 C97.72061859 17.51626099 96.61163208 17.51976563 95.46903992 17.52337646 C91.78838414 17.53220823 88.10791922 17.52633945 84.42726135 17.51959229 C81.87900251 17.52093852 79.33074392 17.5228787 76.78248596 17.52539062 C71.43586043 17.52834385 66.08930385 17.52422746 60.74269104 17.51470947 C54.55671864 17.50382461 48.37087807 17.50735009 42.18490887 17.51836228 C36.24005723 17.52852264 30.29524666 17.52745892 24.35038757 17.52159882 C21.81773358 17.52026083 19.28507624 17.52191522 16.75242615 17.52655792 C13.21816484 17.53161427 9.68415974 17.52392532 6.1499176 17.51275635 C4.56644028 17.51882904 4.56644028 17.51882904 2.95097351 17.52502441 C1.99190094 17.51938477 1.03282837 17.51374512 0.04469299 17.50793457 C-0.79154099 17.50718052 -1.62777496 17.50642647 -2.48934937 17.50564957 C-4.51023865 17.25396729 -4.51023865 17.25396729 -6.51023865 15.25396729 C-6.77586365 12.28521729 -6.77586365 12.28521729 -6.76023865 8.75396729 C-6.7653949 7.58865479 -6.77055115 6.42334229 -6.77586365 5.22271729 C-6.34013137 0.35276835 -4.40699816 0.00401554 0 0 Z " fill="#181D21" transform="translate(210.51023864746094,68.74603271484375)"/>
<path d="M0 0 C1.41326065 -0.01062721 1.41326065 -0.01062721 2.85507202 -0.02146912 C4.40274765 -0.01775299 4.40274765 -0.01775299 5.98168945 -0.01396179 C7.61371811 -0.02162819 7.61371811 -0.02162819 9.27871704 -0.02944946 C12.88419049 -0.0433783 16.48947351 -0.04238636 20.0949707 -0.04008484 C22.59456453 -0.04396962 25.0941577 -0.04830384 27.59375 -0.05307007 C32.83603544 -0.06053912 38.07827134 -0.06037356 43.32055664 -0.05497742 C49.38217534 -0.04893393 55.44356213 -0.06125777 61.50514126 -0.08254749 C67.33520504 -0.10227189 73.16517773 -0.10533923 78.99526978 -0.10181236 C81.47686305 -0.10232703 83.95845991 -0.1075918 86.44003296 -0.11762428 C89.90462299 -0.12991243 93.36867109 -0.12324286 96.83325195 -0.11161804 C97.86503571 -0.11926178 98.89681946 -0.12690552 99.95986938 -0.13478088 C101.37313004 -0.12425941 101.37313004 -0.12425941 102.81494141 -0.11352539 C103.63420609 -0.11369313 104.45347076 -0.11386087 105.29756165 -0.1140337 C107.93401987 0.3542141 108.81787198 1.13596994 110.4074707 3.26069641 C110.8059082 6.10835266 110.8059082 6.10835266 110.7824707 9.32319641 C110.79407227 10.91841125 110.79407227 10.91841125 110.8059082 12.54585266 C110.67442383 13.4417511 110.54293945 14.33764954 110.4074707 15.26069641 C107.2270068 17.38100568 106.4552687 17.51131314 102.81494141 17.5146637 C101.87276764 17.52030334 100.93059387 17.52594299 99.95986938 17.53175354 C98.92808563 17.52770508 97.89630188 17.52365662 96.83325195 17.51948547 C95.74523285 17.52299011 94.65721375 17.52649475 93.53622437 17.53010559 C89.93074205 17.53892615 86.3254551 17.53307251 82.7199707 17.52632141 C80.22037722 17.52766797 77.72078399 17.52960842 75.22119141 17.53211975 C69.97890215 17.53507146 64.73666395 17.53096191 59.49438477 17.5214386 C53.43281063 17.51055412 47.37137103 17.51407975 41.30980015 17.52509141 C35.47974164 17.53525877 29.6497343 17.53418539 23.81967163 17.52832794 C21.33808371 17.52699109 18.85649238 17.5286404 16.37490845 17.53328705 C12.91040877 17.53835006 9.44616966 17.53064498 5.98168945 17.51948547 C4.9499057 17.52353394 3.91812195 17.5275824 2.85507202 17.53175354 C1.91289825 17.52611389 0.97072449 17.52047424 0 17.5146637 C-0.81926468 17.51390965 -1.63852936 17.51315559 -2.48262024 17.51237869 C-4.5925293 17.26069641 -4.5925293 17.26069641 -7.5925293 15.26069641 C-7.9909668 12.29194641 -7.9909668 12.29194641 -7.9675293 8.76069641 C-7.97526367 7.59538391 -7.98299805 6.43007141 -7.9909668 5.22944641 C-7.85948242 4.24975891 -7.72799805 3.27007141 -7.5925293 2.26069641 C-4.41431697 0.14188819 -3.63812662 0.00911622 0 0 Z " fill="#181D20" transform="translate(211.592529296875,92.73930358886719)"/>
<path d="M0 0 C114.51 0 229.02 0 347 0 C347 0.99 347 1.98 347 3 C303.08309491 3.06860256 259.16619548 3.12149643 215.24924741 3.15319599 C210.06948516 3.1569483 204.88972302 3.16083125 199.70996094 3.16479492 C198.67872346 3.16558185 197.64748599 3.16636878 196.58499889 3.16717956 C179.8671295 3.18024872 163.14929092 3.20391083 146.43143983 3.23145839 C129.28914398 3.25947066 112.14686432 3.27616739 95.00454652 3.28226548 C84.41896167 3.28639062 73.8334639 3.29943934 63.24790584 3.3237494 C55.99806905 3.33955507 48.74827756 3.34441215 41.49842478 3.34050413 C37.30986607 3.33857449 33.12145996 3.34162065 28.93292809 3.35761642 C25.10360001 3.37213438 21.27452827 3.37300572 17.44518881 3.36269668 C16.05484773 3.36142116 14.66449115 3.36529532 13.27418096 3.37464955 C11.39418704 3.38656992 9.51409716 3.3784568 7.63408852 3.36914349 C6.06318551 3.37085223 6.06318551 3.37085223 4.46054709 3.37259549 C3.64856655 3.24963898 2.83658601 3.12668247 2 3 C1.34 2.01 0.68 1.02 0 0 Z " fill="#0D222B" transform="translate(127,0)"/>
<path d="M0 0 C1.26521484 -0.00644531 2.53042969 -0.01289062 3.83398438 -0.01953125 C5.14818359 -0.00019531 6.46238281 0.01914063 7.81640625 0.0390625 C9.12673828 0.01972656 10.43707031 0.00039062 11.78710938 -0.01953125 C22.47396831 0.0348548 22.47396831 0.0348548 26.2421875 2.953125 C29.20046254 6.70640265 29.20046254 6.70640265 29.12890625 9.6640625 C29.144375 10.3034375 29.15984375 10.9428125 29.17578125 11.6015625 C27.78824333 15.19283712 25.7977277 17.09863777 22.37890625 18.6640625 C17.51413071 19.40618549 12.72851542 19.36154812 7.81640625 19.2890625 C6.50220703 19.30839844 5.18800781 19.32773438 3.83398438 19.34765625 C2.56876953 19.34121094 1.30355469 19.33476562 0 19.328125 C-1.72585327 19.31966553 -1.72585327 19.31966553 -3.48657227 19.31103516 C-7.53005611 18.47645052 -9.03552723 16.80827752 -11.62109375 13.6640625 C-12.28515625 11.6015625 -12.28515625 11.6015625 -12.24609375 9.6640625 C-12.25898438 9.0246875 -12.271875 8.3853125 -12.28515625 7.7265625 C-10.33778171 1.67824628 -5.8652013 0.02874897 0 0 Z " fill="#7FCDF2" transform="translate(248.62109375,122.3359375)"/>
<path d="M0 0 C1.07314453 0.00322266 2.14628906 0.00644531 3.25195312 0.00976562 C4.37150391 0.01814453 5.49105469 0.02652344 6.64453125 0.03515625 C8.34125977 0.04192383 8.34125977 0.04192383 10.07226562 0.04882812 C12.86724052 0.06062127 15.66210945 0.07707975 18.45703125 0.09765625 C18.45703125 1.41765625 18.45703125 2.73765625 18.45703125 4.09765625 C16.80703125 4.42765625 15.15703125 4.75765625 13.45703125 5.09765625 C13.66328125 5.71640625 13.86953125 6.33515625 14.08203125 6.97265625 C14.20578125 7.67390625 14.32953125 8.37515625 14.45703125 9.09765625 C13.79703125 9.75765625 13.13703125 10.41765625 12.45703125 11.09765625 C9.15445647 10.97970715 8.13623971 9.79144614 5.70703125 7.47265625 C3.87469389 5.86242039 2.95945709 5.13383091 0.50390625 4.95703125 C-1.55350127 5.22402307 -3.52670938 5.61097295 -5.54296875 6.09765625 C-11.23951247 7.23696499 -16.75697061 7.19031458 -22.54296875 7.09765625 C-22.87296875 5.44765625 -23.20296875 3.79765625 -23.54296875 2.09765625 C-22.49496094 2.03707031 -21.44695312 1.97648437 -20.3671875 1.9140625 C-18.98826827 1.82963887 -17.6093627 1.74499178 -16.23046875 1.66015625 C-15.54017578 1.62083984 -14.84988281 1.58152344 -14.13867188 1.54101562 C-9.25828035 1.23451761 -4.89939598 -0.02592273 0 0 Z " fill="#DB1D1D" transform="translate(210.54296875,51.90234375)"/>
<path d="M0 0 C0.66 0.33 1.32 0.66 2 1 C1.01 2.485 1.01 2.485 0 4 C0.99 4 1.98 4 3 4 C3 3.34 3 2.68 3 2 C8.9340133 1.2239218 14.0586602 0.99109324 20 2 C22.33303944 2.03703237 24.66715242 2.04760913 27 2 C26.67 2.99 26.34 3.98 26 5 C16.76 5 7.52 5 -2 5 C-2.33 5.66 -2.66 6.32 -3 7 C-3.66 6.67 -4.32 6.34 -5 6 C-5.680625 5.87625 -6.36125 5.7525 -7.0625 5.625 C-7.701875 5.41875 -8.34125 5.2125 -9 5 C-9.33 4.01 -9.66 3.02 -10 2 C-8.3603125 2.061875 -8.3603125 2.061875 -6.6875 2.125 C-2.91107771 2.32074666 -2.91107771 2.32074666 0 0 Z " fill="#727D83" transform="translate(84,30)"/>
<path d="M0 0 C0.33 0.99 0.66 1.98 1 3 C1.66 3 2.32 3 3 3 C3 2.01 3 1.02 3 0 C4.68609375 0.24556641 4.68609375 0.24556641 6.40625 0.49609375 C11.11720476 1.0849631 15.75873841 1.11269251 20.5 1.0625 C21.73363281 1.05573242 21.73363281 1.05573242 22.9921875 1.04882812 C24.99482396 1.03718489 26.99742227 1.01925556 29 1 C29 2.33333333 29 3.66666667 29 5 C26.41659616 5.02703562 23.83347692 5.04685611 21.25 5.0625 C20.52039063 5.07087891 19.79078125 5.07925781 19.0390625 5.08789062 C13.44746222 5.11330699 13.44746222 5.11330699 10.87792969 4.46264648 C8.98830667 3.83967789 8.98830667 3.83967789 7.0625 4.5 C4.4562936 5.13180761 2.57326442 4.64331611 0 4 C0 2.68 0 1.36 0 0 Z " fill="#586269" transform="translate(166,75)"/>
<path d="M0 0 C0.83402344 0.0721875 1.66804687 0.144375 2.52734375 0.21875 C15.30677943 1.33673454 15.30677943 1.33673454 28 0 C27.67 1.65 27.34 3.3 27 5 C26.443125 4.814375 25.88625 4.62875 25.3125 4.4375 C23.01507265 3.8492603 23.01507265 3.8492603 20.796875 4.46484375 C17.46364761 5.10262609 14.32999833 5.13225668 10.9375 5.125 C9.72964844 5.12757812 8.52179688 5.13015625 7.27734375 5.1328125 C4.63262593 5.02563681 2.50466308 4.78700137 0 4 C0 2.68 0 1.36 0 0 Z " fill="#6B7278" transform="translate(166,99)"/>
<path d="M0 0 C0.66 0 1.32 0 2 0 C2 0.66 2 1.32 2 2 C1.34 2 0.68 2 0 2 C0 2.66 0 3.32 0 4 C0.99 3.34 1.98 2.68 3 2 C9.29213483 0.76404494 9.29213483 0.76404494 13 2 C13 1.34 13 0.68 13 0 C15.97 0.66 18.94 1.32 22 2 C22 1.34 22 0.68 22 0 C22.66 0 23.32 0 24 0 C24.33 0.99 24.66 1.98 25 3 C27.475 3.495 27.475 3.495 30 4 C30 4.33 30 4.66 30 5 C19.77 5 9.54 5 -1 5 C-1 1 -1 1 0 0 Z " fill="#6A757C" transform="translate(355,30)"/>
<path d="M0 0 C0.66 0 1.32 0 2 0 C2 1.98 2 3.96 2 6 C-2 6 -6 6 -10 6 C-11.02480469 6.01740234 -11.02480469 6.01740234 -12.0703125 6.03515625 C-17.77777778 6.11111111 -17.77777778 6.11111111 -20 5 C-19.67 3.68 -19.34 2.36 -19 1 C-12.73 1.33 -6.46 1.66 0 2 C0 1.34 0 0.68 0 0 Z " fill="#46778C" transform="translate(311,129)"/>
<path d="M0 0 C0.33 0.66 0.66 1.32 1 2 C0.0625 4.125 0.0625 4.125 -1 6 C-4 6 -4 6 -6 5 C-6.33 5.33 -6.66 5.66 -7 6 C-9.53049402 6.07313567 -12.03304837 6.09247527 -14.5625 6.0625 C-15.27341797 6.05798828 -15.98433594 6.05347656 -16.71679688 6.04882812 C-18.47790013 6.03700864 -20.23896036 6.01907263 -22 6 C-21.67 5.34 -21.34 4.68 -21 4 C-20.01 4 -19.02 4 -18 4 C-17.67 3.01 -17.34 2.02 -17 1 C-16.38125 1.185625 -15.7625 1.37125 -15.125 1.5625 C-12.95839822 2.23686176 -12.95839822 2.23686176 -11 1 C-11 1.99 -11 2.98 -11 4 C-10.34 3.34 -9.68 2.68 -9 2 C-5.90005152 0.07589404 -3.62260852 -0.20125603 0 0 Z " fill="#7A868A" transform="translate(247,52)"/>
<path d="M0 0 C2.97 0 5.94 0 9 0 C9 2.64 9 5.28 9 8 C6.03 8 3.06 8 0 8 C0 5.36 0 2.72 0 0 Z " fill="#7A3D41" transform="translate(61,29)"/>
<path d="M0 0 C2.62538284 0.14053872 5.25017427 0.28718947 7.875 0.4375 C8.99455078 0.49647461 8.99455078 0.49647461 10.13671875 0.55664062 C15.7734375 0.88671875 15.7734375 0.88671875 18 2 C18 2.99 18 3.98 18 5 C15.66666667 5 13.33333333 5 11 5 C10.01 5.33 9.02 5.66 8 6 C5.95703125 5.87890625 5.95703125 5.87890625 3.8125 5.5625 C2.554375 5.376875 1.29625 5.19125 0 5 C0 3.35 0 1.7 0 0 Z " fill="#697076" transform="translate(166,53)"/>
<path d="M0 0 C1.33333333 0.66666667 2.66666667 1.33333333 4 2 C8.0823437 2.13838453 11.70609558 2.04408566 15.75 1.4375 C18.6592053 1.04587621 20.28728951 1.02342422 23 2 C22.34 3.32 21.68 4.64 21 6 C20.67 5.34 20.34 4.68 20 4 C19.278125 4.165 18.55625 4.33 17.8125 4.5 C15.12101952 4.97848542 12.72555404 5.15141967 10 5 C9.67 4.67 9.34 4.34 9 4 C8.01 4.33 7.02 4.66 6 5 C4.00038436 5.03920815 1.99950636 5.04443347 0 5 C0 3.35 0 1.7 0 0 Z " fill="#758388" transform="translate(410,30)"/>
<path d="M0 0 C0.99 0.33 1.98 0.66 3 1 C2.67 2.32 2.34 3.64 2 5 C-3.28 5 -8.56 5 -14 5 C-14 4.01 -14 3.02 -14 2 C-13.07316406 1.93941406 -12.14632813 1.87882812 -11.19140625 1.81640625 C-9.39509766 1.69072266 -9.39509766 1.69072266 -7.5625 1.5625 C-5.77005859 1.44068359 -5.77005859 1.44068359 -3.94140625 1.31640625 C-1.11429756 1.32343886 -1.11429756 1.32343886 0 0 Z " fill="#6D7981" transform="translate(348,30)"/>
<path d="M0 0 C3 0.125 3 0.125 6 1 C7.4375 2.875 7.4375 2.875 8 5 C7.67 5.99 7.34 6.98 7 8 C0.35384615 6.52307692 0.35384615 6.52307692 -1.4375 3.875 C-1.623125 3.25625 -1.80875 2.6375 -2 2 C-1.34 1.34 -0.68 0.68 0 0 Z " fill="#543037" transform="translate(140,29)"/>
<path d="M0 0 C2.64 0 5.28 0 8 0 C8 0.66 8 1.32 8 2 C9.32 2.33 10.64 2.66 12 3 C12 3.66 12 4.32 12 5 C8.37 5 4.74 5 1 5 C0.67 3.35 0.34 1.7 0 0 Z " fill="#CD1C1D" transform="translate(187,54)"/>
<path d="M0 0 C7.425 0.99 7.425 0.99 15 2 C14.67 2.99 14.34 3.98 14 5 C9.38 5 4.76 5 0 5 C0 3.35 0 1.7 0 0 Z " fill="#6E7B81" transform="translate(37,30)"/>
<path d="M0 0 C0.66 0 1.32 0 2 0 C2 0.66 2 1.32 2 2 C1.34 2 0.68 2 0 2 C0 2.66 0 3.32 0 4 C0.99 3.34 1.98 2.68 3 2 C5.69921875 1.5859375 5.69921875 1.5859375 8.6875 1.375 C9.68136719 1.30023437 10.67523438 1.22546875 11.69921875 1.1484375 C12.45847656 1.09945313 13.21773438 1.05046875 14 1 C14 2.32 14 3.64 14 5 C9.05 5 4.1 5 -1 5 C-1 1 -1 1 0 0 Z " fill="#718085" transform="translate(355,30)"/>
<path d="M0 0 C1.65 0 3.3 0 5 0 C5 0.66 5 1.32 5 2 C6.65 2 8.3 2 10 2 C10.33 2.99 10.66 3.98 11 5 C7.04 5 3.08 5 -1 5 C-0.67 3.35 -0.34 1.7 0 0 Z " fill="#768386" transform="translate(7,30)"/>
<path d="M0 0 C5.94 0 11.88 0 18 0 C18 0.99 18 1.98 18 3 C15.03 3 12.06 3 9 3 C9 2.34 9 1.68 9 1 C8.34 1 7.68 1 7 1 C6.67 1.66 6.34 2.32 6 3 C4 3 2 3 0 3 C0 2.01 0 1.02 0 0 Z " fill="#7F8B91" transform="translate(442,32)"/>
<path d="M0 0 C1.32 0 2.64 0 4 0 C4.33 0.66 4.66 1.32 5 2 C5.99 2 6.98 2 8 2 C8 3.65 8 5.3 8 7 C7.34 6.67 6.68 6.34 6 6 C5.34 6 4.68 6 4 6 C2.33333333 6 0.66666667 6 -1 6 C-1.042721 4.33388095 -1.04063832 2.66617115 -1 1 C-0.67 0.67 -0.34 0.34 0 0 Z " fill="#5394B0" transform="translate(247,129)"/>
<path d="M0 0 C0.66 0.33 1.32 0.66 2 1 C1.01 2.485 1.01 2.485 0 4 C0.99 4 1.98 4 3 4 C3 3.34 3 2.68 3 2 C3.99 2.33 4.98 2.66 6 3 C6 3.66 6 4.32 6 5 C3.36 5 0.72 5 -2 5 C-2.33 5.66 -2.66 6.32 -3 7 C-3.66 6.67 -4.32 6.34 -5 6 C-5.680625 5.87625 -6.36125 5.7525 -7.0625 5.625 C-7.701875 5.41875 -8.34125 5.2125 -9 5 C-9.33 4.01 -9.66 3.02 -10 2 C-8.3603125 2.061875 -8.3603125 2.061875 -6.6875 2.125 C-2.91107771 2.32074666 -2.91107771 2.32074666 0 0 Z " fill="#798488" transform="translate(84,30)"/>
<path d="M0 0 C2.64 0.33 5.28 0.66 8 1 C8.33 2.32 8.66 3.64 9 5 C1.25 5.125 1.25 5.125 -1 4 C-0.67 2.68 -0.34 1.36 0 0 Z " fill="#3E6881" transform="translate(292,130)"/>
<path d="M0 0 C0.33 0.99 0.66 1.98 1 3 C1.66 3 2.32 3 3 3 C3 2.34 3 1.68 3 1 C5.97 1 8.94 1 12 1 C11.67 2.32 11.34 3.64 11 5 C9.68 5.33 8.36 5.66 7 6 C7 5.67 7 5.34 7 5 C4.69 4.67 2.38 4.34 0 4 C0 2.68 0 1.36 0 0 Z " fill="#63767E" transform="translate(113,31)"/>
<path d="M0 0 C0 1.98 0 3.96 0 6 C-1.32 6.33 -2.64 6.66 -4 7 C-4.33 6.34 -4.66 5.68 -5 5 C-5.66 5 -6.32 5 -7 5 C-7 3.68 -7 2.36 -7 1 C-4 0 -4 0 0 0 Z " fill="#838C93" transform="translate(178,39)"/>
<path d="M0 0 C3.63 0.66 7.26 1.32 11 2 C10.67 2.99 10.34 3.98 10 5 C6.7 5 3.4 5 0 5 C-0.33 4.01 -0.66 3.02 -1 2 C-0.67 1.34 -0.34 0.68 0 0 Z " fill="#6A797E" transform="translate(25,30)"/>
<path d="M0 0 C-0.33 1.65 -0.66 3.3 -1 5 C-3.64 4.67 -6.28 4.34 -9 4 C-9 3.34 -9 2.68 -9 2 C-10.65 2 -12.3 2 -14 2 C-14 1.67 -14 1.34 -14 1 C-12.14375 1.0309375 -12.14375 1.0309375 -10.25 1.0625 C-6.71157356 1.06875164 -3.45338044 0 0 0 Z " fill="#636B6E" transform="translate(194,99)"/>
<path d="M0 0 C0.66 0 1.32 0 2 0 C2 0.66 2 1.32 2 2 C3.32 2 4.64 2 6 2 C5.125 5.875 5.125 5.875 4 7 C2.33382885 7.04063832 0.66611905 7.042721 -1 7 C-0.67 4.69 -0.34 2.38 0 0 Z " fill="#71807C" transform="translate(187,37)"/>
<path d="M0 0 C0.33 0.99 0.66 1.98 1 3 C1.66 3 2.32 3 3 3 C3 2.01 3 1.02 3 0 C7.455 0.99 7.455 0.99 12 2 C11.67 2.66 11.34 3.32 11 4 C7.01133873 4.99716532 3.9676931 5.0502717 0 4 C0 2.68 0 1.36 0 0 Z " fill="#767B84" transform="translate(166,75)"/>
<path d="M0 0 C0.99 0 1.98 0 3 0 C3 0.66 3 1.32 3 2 C3.99 2 4.98 2 6 2 C5.34 3.32 4.68 4.64 4 6 C2.35 6 0.7 6 -1 6 C-1.33 4.68 -1.66 3.36 -2 2 C-1.34 2 -0.68 2 0 2 C0 1.34 0 0.68 0 0 Z " fill="#B22D2F" transform="translate(400,30)"/>
<path d="M0 0 C1.32 0.33 2.64 0.66 4 1 C4 1.66 4 2.32 4 3 C4.99 3 5.98 3 7 3 C6.67 3.99 6.34 4.98 6 6 C4.33388095 6.042721 2.66617115 6.04063832 1 6 C0 5 0 5 -0.0625 2.4375 C-0.041875 1.633125 -0.02125 0.82875 0 0 Z " fill="#C6BBBA" transform="translate(62,30)"/>
<path d="M0 0 C0.66 0 1.32 0 2 0 C2 0.66 2 1.32 2 2 C3.32 2.33 4.64 2.66 6 3 C6 3.99 6 4.98 6 6 C4.02 6 2.04 6 0 6 C0 4.02 0 2.04 0 0 Z " fill="#5695B0" transform="translate(262,129)"/>
<path d="M0 0 C0.99 0 1.98 0 3 0 C3 1.65 3 3.3 3 5 C0.36 5 -2.28 5 -5 5 C-4.67 4.34 -4.34 3.68 -4 3 C-3.01 3 -2.02 3 -1 3 C-0.67 2.01 -0.34 1.02 0 0 Z " fill="#616564" transform="translate(230,53)"/>
<path d="M0 0 C2.97 0.33 5.94 0.66 9 1 C9.33 1.99 9.66 2.98 10 4 C7.03 4 4.06 4 1 4 C0.67 2.68 0.34 1.36 0 0 Z " fill="#797F84" transform="translate(176,100)"/>
<path d="M0 0 C2.64 0 5.28 0 8 0 C8 0.99 8 1.98 8 3 C5.13822943 4.43088528 3.06624227 3.59991697 0 3 C0 2.01 0 1.02 0 0 Z " fill="#7A8384" transform="translate(187,76)"/>
<path d="M0 0 C2.64 0 5.28 0 8 0 C7.67 1.32 7.34 2.64 7 4 C4.69 3.67 2.38 3.34 0 3 C0 2.01 0 1.02 0 0 Z " fill="#487DA0" transform="translate(300,131)"/>
<path d="M0 0 C1.65 0 3.3 0 5 0 C4.67 0.99 4.34 1.98 4 3 C3.67 2.67 3.34 2.34 3 2 C2.67 2.99 2.34 3.98 2 5 C1.01 5 0.02 5 -1 5 C-0.67 3.35 -0.34 1.7 0 0 Z " fill="#5B6B74" transform="translate(7,30)"/>
<path d="M0 0 C1.98 0 3.96 0 6 0 C6 0.99 6 1.98 6 3 C3.69 3 1.38 3 -1 3 C-0.67 2.01 -0.34 1.02 0 0 Z " fill="#718088" transform="translate(454,32)"/>
<path d="M0 0 C1.32 0.33 2.64 0.66 4 1 C4.33 2.32 4.66 3.64 5 5 C3.35 5 1.7 5 0 5 C0 3.35 0 1.7 0 0 Z " fill="#615E72" transform="translate(166,53)"/>
<path d="M0 0 C1.65 0 3.3 0 5 0 C5.33 0.66 5.66 1.32 6 2 C5.0625 4.125 5.0625 4.125 4 6 C3.34 5.34 2.68 4.68 2 4 C2 3.01 2 2.02 2 1 C1.34 0.67 0.68 0.34 0 0 Z " fill="#4E5455" transform="translate(242,52)"/>
<path d="M0 0 C2.97 0 5.94 0 9 0 C8.67 1.32 8.34 2.64 8 4 C7.34 4 6.68 4 6 4 C5.67 3.34 5.34 2.68 5 2 C2.47266765 1.34444881 2.47266765 1.34444881 0 1 C0 0.67 0 0.34 0 0 Z " fill="#78838B" transform="translate(116,32)"/>
<path d="M0 0 C0.99 0.33 1.98 0.66 3 1 C3 2.66666667 3 4.33333333 3 6 C1.68 6 0.36 6 -1 6 C-1 2 -1 2 0 0 Z " fill="#96A2A6" transform="translate(167,38)"/>
<path d="M0 0 C0.99 0 1.98 0 3 0 C2.67 1.65 2.34 3.3 2 5 C-0.31 4.34 -2.62 3.68 -5 3 C-5 2.67 -5 2.34 -5 2 C-3.35 2 -1.7 2 0 2 C0 1.34 0 0.68 0 0 Z " fill="#3B353D" transform="translate(145,32)"/>
</svg>
